M48
; DRILL file {KiCad 9.0.0} date 2025-03-16T11:52:43+0100
; FORMAT={-:-/ absolute / metric / decimal}
; #@! TF.CreationDate,2025-03-16T11:52:43+01:00
; #@! TF.GenerationSoftware,Kicad,Pcbnew,9.0.0
; #@! TF.FileFunction,Plated,1,2,PTH
FMAT,2
METRIC
; #@! TA.AperFunction,Plated,PTH,ComponentDrill
T1C0.800
; #@! TA.AperFunction,Plated,PTH,ComponentDrill
T2C1.000
; #@! TA.AperFunction,Plated,PTH,ComponentDrill
T3C1.100
; #@! TA.AperFunction,Plated,PTH,ComponentDrill
T4C2.000
%
G90
G05
T1
X85.5Y-71.19
X85.5Y-78.81
X85.5Y-162.69
X85.5Y-170.31
T2
X53.0Y-180.375
X53.0Y-182.915
X53.0Y-185.455
X53.0Y-187.995
X53.0Y-190.535
X53.0Y-193.075
X53.0Y-195.615
X53.0Y-198.155
X59.25Y-106.25
X59.25Y-197.0
X61.75Y-106.25
X61.75Y-197.0
X64.25Y-106.25
X64.25Y-197.0
X66.75Y-106.25
X66.75Y-197.0
X80.5Y-67.5
X80.5Y-158.25
X83.0Y-67.5
X83.0Y-158.25
X83.25Y-106.25
X83.25Y-197.0
X85.5Y-67.5
X85.5Y-158.25
X85.75Y-106.25
X85.75Y-197.0
X88.25Y-106.25
X88.25Y-197.0
X90.75Y-106.25
X90.75Y-197.0
X95.0Y-135.0
X97.0Y-65.84
X97.0Y-68.38
X97.0Y-70.92
X97.0Y-73.46
X97.0Y-76.0
X97.0Y-78.54
X97.0Y-81.08
X97.0Y-83.62
T3
X78.2Y-60.35G85X78.2Y-59.65
G05
X78.2Y-151.1G85X78.2Y-150.4
G05
X87.8Y-60.35G85X87.8Y-59.65
G05
X87.8Y-151.1G85X87.8Y-150.4
G05
T4
X57.2Y-95.15G85X57.2Y-95.35
G05
X57.2Y-185.9G85X57.2Y-186.1
G05
X68.8Y-95.15G85X68.8Y-95.35
G05
X68.8Y-185.9G85X68.8Y-186.1
G05
X81.2Y-95.15G85X81.2Y-95.35
G05
X81.2Y-185.9G85X81.2Y-186.1
G05
X92.8Y-95.15G85X92.8Y-95.35
G05
X92.8Y-185.9G85X92.8Y-186.1
G05
M30
