%TF.GenerationSoftware,KiCad,Pcbnew,9.0.0*%
%TF.CreationDate,2025-03-16T11:37:03+01:00*%
%TF.ProjectId,DMH_Transistor_VCA_PANEL,444d485f-5472-4616-9e73-6973746f725f,rev?*%
%TF.SameCoordinates,Original*%
%TF.FileFunction,Profile,NP*%
%FSLAX46Y46*%
G04 Gerber Fmt 4.6, Leading zero omitted, Abs format (unit mm)*
G04 Created by KiCad (PCBNEW 9.0.0) date 2025-03-16 11:37:03*
%MOMM*%
%LPD*%
G01*
G04 APERTURE LIST*
%TA.AperFunction,Profile*%
%ADD10C,0.050000*%
%TD*%
G04 APERTURE END LIST*
D10*
X50000000Y-30000000D02*
X100000000Y-30000000D01*
X100000000Y-230000000D01*
X50000000Y-230000000D01*
X50000000Y-30000000D01*
%TO.C,H14*%
X67500000Y-186000000D02*
G75*
G02*
X58500000Y-186000000I-4500000J0D01*
G01*
X58500000Y-186000000D02*
G75*
G02*
X67500000Y-186000000I4500000J0D01*
G01*
%TO.C,H13*%
X91500000Y-186000000D02*
G75*
G02*
X82500000Y-186000000I-4500000J0D01*
G01*
X82500000Y-186000000D02*
G75*
G02*
X91500000Y-186000000I4500000J0D01*
G01*
%TO.C,H7*%
X91500000Y-95250000D02*
G75*
G02*
X82500000Y-95250000I-4500000J0D01*
G01*
X82500000Y-95250000D02*
G75*
G02*
X91500000Y-95250000I4500000J0D01*
G01*
%TO.C,H6*%
X67500000Y-95250000D02*
G75*
G02*
X58500000Y-95250000I-4500000J0D01*
G01*
X58500000Y-95250000D02*
G75*
G02*
X67500000Y-95250000I4500000J0D01*
G01*
%TO.C,H9*%
X67900000Y-118000000D02*
G75*
G02*
X58100000Y-118000000I-4900000J0D01*
G01*
X58100000Y-118000000D02*
G75*
G02*
X67900000Y-118000000I4900000J0D01*
G01*
%TO.C,H8*%
X63400000Y-50750000D02*
G75*
G02*
X53600000Y-50750000I-4900000J0D01*
G01*
X53600000Y-50750000D02*
G75*
G02*
X63400000Y-50750000I4900000J0D01*
G01*
%TO.C,H15*%
X63400000Y-141500000D02*
G75*
G02*
X53600000Y-141500000I-4900000J0D01*
G01*
X53600000Y-141500000D02*
G75*
G02*
X63400000Y-141500000I4900000J0D01*
G01*
%TO.C,H17*%
X67900000Y-208750000D02*
G75*
G02*
X58100000Y-208750000I-4900000J0D01*
G01*
X58100000Y-208750000D02*
G75*
G02*
X67900000Y-208750000I4900000J0D01*
G01*
%TO.C,H10*%
X91900000Y-118000000D02*
G75*
G02*
X82100000Y-118000000I-4900000J0D01*
G01*
X82100000Y-118000000D02*
G75*
G02*
X91900000Y-118000000I4900000J0D01*
G01*
%TO.C,H5*%
X86500000Y-60000000D02*
G75*
G02*
X79500000Y-60000000I-3500000J0D01*
G01*
X79500000Y-60000000D02*
G75*
G02*
X86500000Y-60000000I3500000J0D01*
G01*
%TO.C,H11*%
X63400000Y-69250000D02*
G75*
G02*
X53600000Y-69250000I-4900000J0D01*
G01*
X53600000Y-69250000D02*
G75*
G02*
X63400000Y-69250000I4900000J0D01*
G01*
%TO.C,H18*%
X91900000Y-208750000D02*
G75*
G02*
X82100000Y-208750000I-4900000J0D01*
G01*
X82100000Y-208750000D02*
G75*
G02*
X91900000Y-208750000I4900000J0D01*
G01*
%TO.C,H16*%
X63400000Y-160000000D02*
G75*
G02*
X53600000Y-160000000I-4900000J0D01*
G01*
X53600000Y-160000000D02*
G75*
G02*
X63400000Y-160000000I4900000J0D01*
G01*
%TO.C,H12*%
X86500000Y-150750000D02*
G75*
G02*
X79500000Y-150750000I-3500000J0D01*
G01*
X79500000Y-150750000D02*
G75*
G02*
X86500000Y-150750000I3500000J0D01*
G01*
%TD*%
M02*
