%TF.GenerationSoftware,KiCad,Pcbnew,9.0.0*%
%TF.CreationDate,2025-03-16T11:37:03+01:00*%
%TF.ProjectId,DMH_Transistor_VCA_PANEL,444d485f-5472-4616-9e73-6973746f725f,rev?*%
%TF.SameCoordinates,Original*%
%TF.FileFunction,Legend,Top*%
%TF.FilePolarity,Positive*%
%FSLAX46Y46*%
G04 Gerber Fmt 4.6, Leading zero omitted, Abs format (unit mm)*
G04 Created by KiCad (PCBNEW 9.0.0) date 2025-03-16 11:37:03*
%MOMM*%
%LPD*%
G01*
G04 APERTURE LIST*
%ADD10C,1.000000*%
%ADD11C,0.400000*%
%ADD12C,0.800000*%
%ADD13C,0.875000*%
%ADD14C,0.150000*%
%ADD15C,0.500000*%
%ADD16C,0.000000*%
%ADD17C,12.000000*%
%ADD18C,0.500000*%
%ADD19C,4.000000*%
%ADD20O,2.500000X1.500000*%
G04 APERTURE END LIST*
D10*
X63000000Y-112000000D02*
X63000000Y-102000000D01*
X63000000Y-202750000D02*
X63000000Y-192750000D01*
D11*
X52000000Y-130000000D02*
X98000000Y-130000000D01*
D10*
X87000000Y-202750000D02*
X87000000Y-192750000D01*
X87000000Y-112000000D02*
X87000000Y-102000000D01*
D12*
G36*
X63647593Y-38801891D02*
G01*
X63868032Y-39208240D01*
X64131234Y-39543203D01*
X64439033Y-39807810D01*
X64793263Y-40003088D01*
X65195757Y-40130067D01*
X65648349Y-40189774D01*
X65843824Y-40195052D01*
X66319460Y-40161965D01*
X66740892Y-40062018D01*
X67111162Y-39894183D01*
X67433311Y-39657431D01*
X67710380Y-39350734D01*
X67945410Y-38973062D01*
X68028332Y-38801891D01*
X70738451Y-32779839D01*
X70861549Y-32441807D01*
X68497279Y-32441807D01*
X68407397Y-32711451D01*
X66168179Y-37959741D01*
X65853594Y-38196168D01*
X65529240Y-37959741D01*
X63266574Y-32711451D01*
X63188416Y-32441807D01*
X60790928Y-32441807D01*
X60914027Y-32779839D01*
X63647593Y-38801891D01*
G37*
G36*
X78515143Y-38076978D02*
G01*
X74550593Y-38076978D01*
X74113080Y-38045361D01*
X73689571Y-37936626D01*
X73340297Y-37758351D01*
X73026518Y-37484933D01*
X72788746Y-37155530D01*
X72629184Y-36774034D01*
X72559640Y-36354757D01*
X72557572Y-36267627D01*
X72606331Y-35846507D01*
X72745478Y-35456947D01*
X72964320Y-35113813D01*
X73116399Y-34948715D01*
X73455885Y-34696766D01*
X73834909Y-34538911D01*
X74248440Y-34462369D01*
X74550593Y-34448506D01*
X78515143Y-34448506D01*
X78515143Y-32441807D01*
X74550593Y-32441807D01*
X74107228Y-32459385D01*
X73692416Y-32510989D01*
X73305218Y-32594924D01*
X72858624Y-32742729D01*
X72451878Y-32935094D01*
X72083146Y-33168712D01*
X71750593Y-33440272D01*
X71420079Y-33787663D01*
X71134877Y-34176351D01*
X70899371Y-34601551D01*
X70749691Y-34964782D01*
X70636866Y-35345869D01*
X70563138Y-35742360D01*
X70530753Y-36151805D01*
X70529379Y-36255903D01*
X70555920Y-36722989D01*
X70633516Y-37171354D01*
X70759126Y-37597733D01*
X70929708Y-37998862D01*
X71142222Y-38371476D01*
X71393627Y-38712311D01*
X71504397Y-38839016D01*
X71851943Y-39174083D01*
X72245151Y-39462193D01*
X72593465Y-39656165D01*
X72972497Y-39815448D01*
X73382910Y-39937980D01*
X73825368Y-40021700D01*
X74300536Y-40064547D01*
X74550593Y-40070000D01*
X78515143Y-40070000D01*
X78515143Y-38076978D01*
G37*
G36*
X84341772Y-32322140D02*
G01*
X84790294Y-32382856D01*
X85190060Y-32511397D01*
X85542635Y-32708167D01*
X85849585Y-32973567D01*
X86112474Y-33308000D01*
X86332868Y-33711870D01*
X89066434Y-39726106D01*
X89189533Y-40070000D01*
X86903420Y-40070000D01*
X86815492Y-39806217D01*
X86411026Y-38864417D01*
X81930635Y-38864417D01*
X81539847Y-39794494D01*
X81459735Y-40070000D01*
X79118912Y-40070000D01*
X79242010Y-39726106D01*
X80383936Y-37193796D01*
X82671180Y-37193796D01*
X85672436Y-37193796D01*
X84507886Y-34493447D01*
X84494320Y-34463444D01*
X84160084Y-34258974D01*
X84147480Y-34259142D01*
X83824006Y-34493447D01*
X82671180Y-37193796D01*
X80383936Y-37193796D01*
X81954083Y-33711870D01*
X82036986Y-33541964D01*
X82271918Y-33165917D01*
X82549104Y-32859145D01*
X82871942Y-32621246D01*
X83243832Y-32451816D01*
X83668171Y-32350453D01*
X84148360Y-32316755D01*
X84341772Y-32322140D01*
G37*
D13*
G36*
X68976488Y-223893568D02*
G01*
X69152175Y-223905313D01*
X69317283Y-223929624D01*
X69473154Y-223966196D01*
X69618952Y-224014298D01*
X69758376Y-224074980D01*
X69887899Y-224146500D01*
X70013418Y-224232387D01*
X70128851Y-224328709D01*
X70250509Y-224453742D01*
X70427607Y-224696849D01*
X70557332Y-224965618D01*
X70636341Y-225251559D01*
X70662919Y-225547725D01*
X70662865Y-225561527D01*
X70654629Y-225717379D01*
X70632825Y-225868689D01*
X70597348Y-226017389D01*
X70549131Y-226160071D01*
X70488025Y-226297700D01*
X70415233Y-226427799D01*
X70331092Y-226550146D01*
X70236562Y-226663518D01*
X70077392Y-226815963D01*
X69839621Y-226979464D01*
X69708413Y-227045113D01*
X69567876Y-227100070D01*
X69417663Y-227143855D01*
X69257765Y-227175872D01*
X69085939Y-227195753D01*
X68903851Y-227202501D01*
X68399062Y-227202501D01*
X68148958Y-227189555D01*
X67983309Y-227165145D01*
X67827404Y-227128692D01*
X67679974Y-227080298D01*
X67542110Y-227020738D01*
X67410783Y-226948799D01*
X67289119Y-226866303D01*
X67172711Y-226769982D01*
X67066351Y-226663518D01*
X67046950Y-226641937D01*
X66873126Y-226403931D01*
X66745065Y-226137206D01*
X66666561Y-225849585D01*
X66640409Y-225552426D01*
X67526902Y-225552426D01*
X67544136Y-225714176D01*
X67573066Y-225814604D01*
X67614732Y-225909085D01*
X67668351Y-225996778D01*
X67732707Y-226076022D01*
X67778103Y-226121826D01*
X67937139Y-226232588D01*
X68032562Y-226273619D01*
X68139491Y-226304088D01*
X68262445Y-226323639D01*
X68399062Y-226330340D01*
X68903851Y-226330340D01*
X68984564Y-226328080D01*
X69109151Y-226314520D01*
X69221336Y-226289369D01*
X69322818Y-226252921D01*
X69412984Y-226206164D01*
X69497193Y-226146018D01*
X69570207Y-226076022D01*
X69672350Y-225937830D01*
X69749826Y-225751199D01*
X69776012Y-225552426D01*
X69775865Y-225537276D01*
X69766667Y-225432109D01*
X69743804Y-225330683D01*
X69707577Y-225232955D01*
X69659122Y-225141642D01*
X69530884Y-224985020D01*
X69521089Y-224976058D01*
X69362691Y-224865872D01*
X69270439Y-224825831D01*
X69166127Y-224795924D01*
X69043320Y-224776495D01*
X68903851Y-224769811D01*
X68399062Y-224769811D01*
X68156901Y-224791668D01*
X68048207Y-224820317D01*
X67952354Y-224859647D01*
X67856180Y-224916587D01*
X67771816Y-224985020D01*
X67755899Y-225000351D01*
X67688187Y-225077249D01*
X67631074Y-225162847D01*
X67553197Y-225351667D01*
X67526902Y-225552426D01*
X66640409Y-225552426D01*
X66639995Y-225547725D01*
X66647252Y-225392268D01*
X66668551Y-225240859D01*
X66703241Y-225093958D01*
X66751730Y-224949518D01*
X66812780Y-224811198D01*
X66886607Y-224678250D01*
X66971871Y-224553052D01*
X67174062Y-224328709D01*
X67232496Y-224277663D01*
X67469675Y-224114372D01*
X67599595Y-224049148D01*
X67739012Y-223994421D01*
X67887677Y-223950934D01*
X68046411Y-223919059D01*
X68217273Y-223899258D01*
X68399062Y-223892521D01*
X68903851Y-223892521D01*
X68976488Y-223893568D01*
G37*
G36*
X73321289Y-224769811D02*
G01*
X73362799Y-224776100D01*
X73389626Y-224792764D01*
X73409338Y-224848030D01*
X73403915Y-224885991D01*
X73380059Y-224931164D01*
X71870822Y-227065511D01*
X71797305Y-227202501D01*
X72914594Y-227202501D01*
X72983195Y-227075342D01*
X74350314Y-225068368D01*
X74437831Y-224928017D01*
X74494733Y-224810696D01*
X74524724Y-224719137D01*
X74538739Y-224636736D01*
X74541373Y-224578539D01*
X74515072Y-224387559D01*
X74438305Y-224214802D01*
X74369762Y-224122904D01*
X74302459Y-224055576D01*
X74224354Y-223998493D01*
X74140833Y-223955232D01*
X74046639Y-223922640D01*
X73942588Y-223901726D01*
X73826997Y-223892799D01*
X73801501Y-223892521D01*
X70787941Y-223892521D01*
X70787941Y-224769811D01*
X73321289Y-224769811D01*
G37*
G36*
X77446783Y-223828064D02*
G01*
X77619649Y-223888441D01*
X77758601Y-223987196D01*
X77857738Y-224117778D01*
X77895406Y-224202448D01*
X77924040Y-224302834D01*
X77943038Y-224426199D01*
X77949660Y-224570631D01*
X77949660Y-227202501D01*
X77058051Y-227202501D01*
X77058051Y-226737462D01*
X74750170Y-226737462D01*
X74558799Y-226722776D01*
X74463989Y-226700163D01*
X74384134Y-226668128D01*
X74313067Y-226624079D01*
X74255212Y-226570980D01*
X74236898Y-226549055D01*
X74192567Y-226479508D01*
X74160687Y-226401676D01*
X74139666Y-226308392D01*
X74132755Y-226208310D01*
X74132919Y-226194495D01*
X74158758Y-226046061D01*
X74189662Y-225975504D01*
X74232369Y-225909540D01*
X75490043Y-225909540D01*
X75498689Y-225940532D01*
X75516751Y-225957118D01*
X75543898Y-225963395D01*
X77058051Y-225963395D01*
X77058051Y-224938430D01*
X77051743Y-224897322D01*
X77035356Y-224866992D01*
X76984534Y-224840336D01*
X76947081Y-224845866D01*
X76906102Y-224869829D01*
X75524237Y-225855471D01*
X75521598Y-225857104D01*
X75497407Y-225879776D01*
X75490043Y-225909540D01*
X74232369Y-225909540D01*
X74235551Y-225904625D01*
X74254204Y-225880839D01*
X74330989Y-225801888D01*
X74456102Y-225703521D01*
X76812923Y-223977365D01*
X76884032Y-223928482D01*
X77065563Y-223841011D01*
X77167227Y-223817695D01*
X77273474Y-223810456D01*
X77446783Y-223828064D01*
G37*
G36*
X78340113Y-225834741D02*
G01*
X79673037Y-225834741D01*
X79673037Y-225271394D01*
X78340113Y-225271394D01*
X78340113Y-225834741D01*
G37*
G36*
X79878843Y-224769811D02*
G01*
X82171978Y-224769811D01*
X82254078Y-224776826D01*
X82318169Y-224798574D01*
X82355193Y-224826307D01*
X82380799Y-224864059D01*
X82397444Y-224950826D01*
X82390563Y-225004009D01*
X82369747Y-225049492D01*
X82292084Y-225117738D01*
X82230962Y-225146373D01*
X80295368Y-225919371D01*
X80180828Y-225972858D01*
X80084731Y-226032134D01*
X80006016Y-226095946D01*
X79942796Y-226163643D01*
X79855393Y-226311695D01*
X79814353Y-226477773D01*
X79810241Y-226555807D01*
X79817162Y-226652877D01*
X79838254Y-226748425D01*
X79871947Y-226836016D01*
X79919353Y-226918457D01*
X79976529Y-226989329D01*
X80046441Y-227052571D01*
X80124771Y-227104097D01*
X80215151Y-227146131D01*
X80314850Y-227176678D01*
X80426492Y-227195861D01*
X80550114Y-227202501D01*
X83382445Y-227202501D01*
X83382445Y-226354917D01*
X81285071Y-226354917D01*
X81257582Y-226348475D01*
X81238073Y-226330734D01*
X81231215Y-226305977D01*
X81256180Y-226264562D01*
X81270538Y-226257036D01*
X82765030Y-225713993D01*
X82882516Y-225663650D01*
X82988954Y-225603589D01*
X83084680Y-225534243D01*
X83168853Y-225456810D01*
X83241830Y-225371445D01*
X83302681Y-225279646D01*
X83387763Y-225078474D01*
X83421153Y-224860506D01*
X83421555Y-224833284D01*
X83414769Y-224711776D01*
X83394624Y-224595820D01*
X83362081Y-224487872D01*
X83317223Y-224386677D01*
X83261279Y-224294252D01*
X83193965Y-224209702D01*
X83116357Y-224134354D01*
X83028156Y-224068012D01*
X82929832Y-224011406D01*
X82821514Y-223965042D01*
X82702829Y-223929392D01*
X82574610Y-223905376D01*
X82377783Y-223892521D01*
X79878843Y-223892521D01*
X79878843Y-224769811D01*
G37*
D14*
G36*
X61556647Y-127631622D02*
G01*
X60565509Y-127631622D01*
X60487442Y-127627793D01*
X60417183Y-127616621D01*
X60356080Y-127599210D01*
X60301553Y-127575764D01*
X60210675Y-127512471D01*
X60184735Y-127486297D01*
X60147960Y-127441015D01*
X60117320Y-127390905D01*
X60093511Y-127336916D01*
X60076980Y-127279528D01*
X60067132Y-127187100D01*
X60082158Y-127072380D01*
X60126659Y-126964483D01*
X60159295Y-126915570D01*
X60197987Y-126871628D01*
X60207083Y-126862868D01*
X60255291Y-126823763D01*
X60310247Y-126791226D01*
X60365020Y-126768752D01*
X60427131Y-126752381D01*
X60565509Y-126739891D01*
X61556647Y-126739891D01*
X61556647Y-126238583D01*
X60565509Y-126238583D01*
X60461630Y-126242432D01*
X60363994Y-126253747D01*
X60273289Y-126271962D01*
X60188338Y-126296811D01*
X60108671Y-126328084D01*
X60034431Y-126365355D01*
X59898900Y-126458664D01*
X59865509Y-126487833D01*
X59749971Y-126616029D01*
X59701249Y-126687571D01*
X59659062Y-126763541D01*
X59624176Y-126842581D01*
X59596468Y-126925118D01*
X59576646Y-127009061D01*
X59564475Y-127095581D01*
X59560328Y-127184413D01*
X59575508Y-127356905D01*
X59620368Y-127521260D01*
X59693546Y-127673674D01*
X59792873Y-127809677D01*
X59803960Y-127822009D01*
X59864737Y-127882846D01*
X59931256Y-127937887D01*
X60000778Y-127985027D01*
X60075822Y-128026135D01*
X60154601Y-128060170D01*
X60238847Y-128087823D01*
X60327936Y-128108653D01*
X60422593Y-128122602D01*
X60565509Y-128130000D01*
X61556647Y-128130000D01*
X61556647Y-127631622D01*
G37*
G36*
X62421877Y-127822254D02*
G01*
X62458323Y-127893246D01*
X62499689Y-127955918D01*
X62542810Y-128006923D01*
X62590450Y-128050835D01*
X62640861Y-128086575D01*
X62695701Y-128115819D01*
X62819764Y-128155194D01*
X62970691Y-128169078D01*
X63054323Y-128165156D01*
X63131359Y-128153334D01*
X63196958Y-128135292D01*
X63257332Y-128110352D01*
X63310602Y-128079831D01*
X63359412Y-128042821D01*
X63444671Y-127948673D01*
X63516574Y-127822254D01*
X64194225Y-126322602D01*
X64225000Y-126238583D01*
X63634176Y-126238583D01*
X63611828Y-126305750D01*
X63051779Y-127612327D01*
X63034471Y-127642458D01*
X63014296Y-127660856D01*
X62973377Y-127671067D01*
X62946165Y-127666974D01*
X62921729Y-127653950D01*
X62892289Y-127612327D01*
X62326622Y-126305750D01*
X62307083Y-126238583D01*
X61707833Y-126238583D01*
X61738608Y-126322602D01*
X62421877Y-127822254D01*
G37*
G36*
X65488468Y-126238583D02*
G01*
X65488468Y-126739891D01*
X65799267Y-126739891D01*
X65829418Y-126743832D01*
X65851269Y-126755788D01*
X65870245Y-126793750D01*
X65872174Y-126818171D01*
X65872174Y-128130000D01*
X66376169Y-128130000D01*
X66376169Y-126742578D01*
X66372112Y-126636663D01*
X66359346Y-126544096D01*
X66342073Y-126478849D01*
X66318070Y-126421875D01*
X66291044Y-126378482D01*
X66258137Y-126341202D01*
X66177997Y-126286617D01*
X66069548Y-126252156D01*
X65908566Y-126238583D01*
X65488468Y-126238583D01*
G37*
G36*
X53392515Y-58988583D02*
G01*
X53392515Y-60880000D01*
X53902128Y-60880000D01*
X53902128Y-58988583D01*
X53392515Y-58988583D01*
G37*
G36*
X56534089Y-58988583D02*
G01*
X56038520Y-58988583D01*
X56038520Y-60211385D01*
X56034857Y-60235490D01*
X56024841Y-60251795D01*
X55999319Y-60261699D01*
X55974452Y-60257852D01*
X55951692Y-60239351D01*
X55027721Y-59134152D01*
X54974423Y-59074903D01*
X54920380Y-59027972D01*
X54871744Y-58996457D01*
X54820419Y-58972763D01*
X54707120Y-58946323D01*
X54618981Y-58941688D01*
X54541934Y-58945687D01*
X54470200Y-58958050D01*
X54412089Y-58976278D01*
X54359214Y-59001778D01*
X54316239Y-59031497D01*
X54278392Y-59067778D01*
X54247560Y-59108554D01*
X54222041Y-59155736D01*
X54188371Y-59269745D01*
X54179344Y-59384989D01*
X54179344Y-60880000D01*
X54677721Y-60880000D01*
X54677721Y-59595282D01*
X54681353Y-59573526D01*
X54691144Y-59557092D01*
X54724003Y-59542056D01*
X54725349Y-59542037D01*
X54744053Y-59545945D01*
X54761153Y-59557669D01*
X54770167Y-59567316D01*
X55808932Y-60770701D01*
X55849925Y-60812155D01*
X55894959Y-60846419D01*
X55995825Y-60893814D01*
X56119251Y-60916861D01*
X56178471Y-60919078D01*
X56235556Y-60915120D01*
X56290662Y-60903044D01*
X56339462Y-60884140D01*
X56384741Y-60857626D01*
X56423105Y-60825753D01*
X56456932Y-60786818D01*
X56484411Y-60742745D01*
X56506465Y-60691839D01*
X56522304Y-60634740D01*
X56531665Y-60570646D01*
X56534089Y-60513513D01*
X56534089Y-58988583D01*
G37*
G36*
X58353339Y-58999453D02*
G01*
X58435004Y-59014902D01*
X58509376Y-59036626D01*
X58578855Y-59065156D01*
X58641785Y-59099570D01*
X58703549Y-59143281D01*
X58759019Y-59193014D01*
X58833852Y-59281132D01*
X58908270Y-59411146D01*
X58953748Y-59551712D01*
X58968946Y-59696032D01*
X58967894Y-59733887D01*
X58959650Y-59808421D01*
X58943556Y-59881076D01*
X58919400Y-59952888D01*
X58887895Y-60021620D01*
X58849155Y-60087193D01*
X58803838Y-60148492D01*
X58765235Y-60191013D01*
X58656682Y-60280127D01*
X58595277Y-60315895D01*
X58527923Y-60346097D01*
X58454430Y-60370306D01*
X58374435Y-60388165D01*
X58286145Y-60399399D01*
X58190544Y-60403237D01*
X57319818Y-60403237D01*
X57319818Y-60880000D01*
X56813014Y-60880000D01*
X56813014Y-59528848D01*
X57319818Y-59528848D01*
X57319818Y-59938443D01*
X58201779Y-59938443D01*
X58271404Y-59933348D01*
X58317361Y-59922341D01*
X58355920Y-59905599D01*
X58391452Y-59880522D01*
X58420132Y-59849295D01*
X58450253Y-59796432D01*
X58461160Y-59757970D01*
X58464951Y-59715572D01*
X58455708Y-59647764D01*
X58440094Y-59608598D01*
X58417324Y-59573422D01*
X58385313Y-59542248D01*
X58351921Y-59520819D01*
X58311672Y-59504504D01*
X58261452Y-59493672D01*
X58201779Y-59489891D01*
X57356210Y-59489891D01*
X57334220Y-59495245D01*
X57323572Y-59507832D01*
X57319818Y-59528848D01*
X56813014Y-59528848D01*
X56813014Y-59106186D01*
X56826142Y-59042338D01*
X56841701Y-59020423D01*
X56863179Y-59004214D01*
X56895748Y-58992491D01*
X56936235Y-58988583D01*
X58190544Y-58988583D01*
X58353339Y-58999453D01*
G37*
G36*
X60674127Y-60880000D02*
G01*
X60788824Y-60876056D01*
X60891497Y-60864083D01*
X60972397Y-60846682D01*
X61044474Y-60822716D01*
X61102640Y-60795062D01*
X61153891Y-60761734D01*
X61196322Y-60724741D01*
X61232852Y-60682440D01*
X61288823Y-60581636D01*
X61324352Y-60451795D01*
X61337735Y-60275376D01*
X61337735Y-58988583D01*
X60828123Y-58988583D01*
X60828123Y-60219445D01*
X60824206Y-60267883D01*
X60812419Y-60308305D01*
X60795782Y-60336991D01*
X60773149Y-60359866D01*
X60711591Y-60388151D01*
X60640544Y-60395666D01*
X59853716Y-60395666D01*
X59802069Y-60391758D01*
X59759442Y-60380034D01*
X59729763Y-60363681D01*
X59706393Y-60341536D01*
X59678498Y-60282498D01*
X59671755Y-60219445D01*
X59671755Y-58988583D01*
X59162142Y-58988583D01*
X59162142Y-60275376D01*
X59166108Y-60376061D01*
X59178241Y-60466921D01*
X59195879Y-60538680D01*
X59220303Y-60603176D01*
X59248771Y-60655901D01*
X59283288Y-60702775D01*
X59322314Y-60742396D01*
X59367250Y-60776808D01*
X59477042Y-60830936D01*
X59621962Y-60866238D01*
X59825750Y-60880000D01*
X60674127Y-60880000D01*
G37*
G36*
X61522016Y-58988583D02*
G01*
X61522016Y-59489891D01*
X62353663Y-59489891D01*
X62353663Y-60880000D01*
X62863154Y-60880000D01*
X62863154Y-59489891D01*
X63691992Y-59489891D01*
X63691992Y-58988583D01*
X61522016Y-58988583D01*
G37*
G36*
X53392515Y-149738583D02*
G01*
X53392515Y-151630000D01*
X53902128Y-151630000D01*
X53902128Y-149738583D01*
X53392515Y-149738583D01*
G37*
G36*
X56534089Y-149738583D02*
G01*
X56038520Y-149738583D01*
X56038520Y-150961385D01*
X56034857Y-150985490D01*
X56024841Y-151001795D01*
X55999319Y-151011699D01*
X55974452Y-151007852D01*
X55951692Y-150989351D01*
X55027721Y-149884152D01*
X54974423Y-149824903D01*
X54920380Y-149777972D01*
X54871744Y-149746457D01*
X54820419Y-149722763D01*
X54707120Y-149696323D01*
X54618981Y-149691688D01*
X54541934Y-149695687D01*
X54470200Y-149708050D01*
X54412089Y-149726278D01*
X54359214Y-149751778D01*
X54316239Y-149781497D01*
X54278392Y-149817778D01*
X54247560Y-149858554D01*
X54222041Y-149905736D01*
X54188371Y-150019745D01*
X54179344Y-150134989D01*
X54179344Y-151630000D01*
X54677721Y-151630000D01*
X54677721Y-150345282D01*
X54681353Y-150323526D01*
X54691144Y-150307092D01*
X54724003Y-150292056D01*
X54725349Y-150292037D01*
X54744053Y-150295945D01*
X54761153Y-150307669D01*
X54770167Y-150317316D01*
X55808932Y-151520701D01*
X55849925Y-151562155D01*
X55894959Y-151596419D01*
X55995825Y-151643814D01*
X56119251Y-151666861D01*
X56178471Y-151669078D01*
X56235556Y-151665120D01*
X56290662Y-151653044D01*
X56339462Y-151634140D01*
X56384741Y-151607626D01*
X56423105Y-151575753D01*
X56456932Y-151536818D01*
X56484411Y-151492745D01*
X56506465Y-151441839D01*
X56522304Y-151384740D01*
X56531665Y-151320646D01*
X56534089Y-151263513D01*
X56534089Y-149738583D01*
G37*
G36*
X58353339Y-149749453D02*
G01*
X58435004Y-149764902D01*
X58509376Y-149786626D01*
X58578855Y-149815156D01*
X58641785Y-149849570D01*
X58703549Y-149893281D01*
X58759019Y-149943014D01*
X58833852Y-150031132D01*
X58908270Y-150161146D01*
X58953748Y-150301712D01*
X58968946Y-150446032D01*
X58967894Y-150483887D01*
X58959650Y-150558421D01*
X58943556Y-150631076D01*
X58919400Y-150702888D01*
X58887895Y-150771620D01*
X58849155Y-150837193D01*
X58803838Y-150898492D01*
X58765235Y-150941013D01*
X58656682Y-151030127D01*
X58595277Y-151065895D01*
X58527923Y-151096097D01*
X58454430Y-151120306D01*
X58374435Y-151138165D01*
X58286145Y-151149399D01*
X58190544Y-151153237D01*
X57319818Y-151153237D01*
X57319818Y-151630000D01*
X56813014Y-151630000D01*
X56813014Y-150278848D01*
X57319818Y-150278848D01*
X57319818Y-150688443D01*
X58201779Y-150688443D01*
X58271404Y-150683348D01*
X58317361Y-150672341D01*
X58355920Y-150655599D01*
X58391452Y-150630522D01*
X58420132Y-150599295D01*
X58450253Y-150546432D01*
X58461160Y-150507970D01*
X58464951Y-150465572D01*
X58455708Y-150397764D01*
X58440094Y-150358598D01*
X58417324Y-150323422D01*
X58385313Y-150292248D01*
X58351921Y-150270819D01*
X58311672Y-150254504D01*
X58261452Y-150243672D01*
X58201779Y-150239891D01*
X57356210Y-150239891D01*
X57334220Y-150245245D01*
X57323572Y-150257832D01*
X57319818Y-150278848D01*
X56813014Y-150278848D01*
X56813014Y-149856186D01*
X56826142Y-149792338D01*
X56841701Y-149770423D01*
X56863179Y-149754214D01*
X56895748Y-149742491D01*
X56936235Y-149738583D01*
X58190544Y-149738583D01*
X58353339Y-149749453D01*
G37*
G36*
X60674127Y-151630000D02*
G01*
X60788824Y-151626056D01*
X60891497Y-151614083D01*
X60972397Y-151596682D01*
X61044474Y-151572716D01*
X61102640Y-151545062D01*
X61153891Y-151511734D01*
X61196322Y-151474741D01*
X61232852Y-151432440D01*
X61288823Y-151331636D01*
X61324352Y-151201795D01*
X61337735Y-151025376D01*
X61337735Y-149738583D01*
X60828123Y-149738583D01*
X60828123Y-150969445D01*
X60824206Y-151017883D01*
X60812419Y-151058305D01*
X60795782Y-151086991D01*
X60773149Y-151109866D01*
X60711591Y-151138151D01*
X60640544Y-151145666D01*
X59853716Y-151145666D01*
X59802069Y-151141758D01*
X59759442Y-151130034D01*
X59729763Y-151113681D01*
X59706393Y-151091536D01*
X59678498Y-151032498D01*
X59671755Y-150969445D01*
X59671755Y-149738583D01*
X59162142Y-149738583D01*
X59162142Y-151025376D01*
X59166108Y-151126061D01*
X59178241Y-151216921D01*
X59195879Y-151288680D01*
X59220303Y-151353176D01*
X59248771Y-151405901D01*
X59283288Y-151452775D01*
X59322314Y-151492396D01*
X59367250Y-151526808D01*
X59477042Y-151580936D01*
X59621962Y-151616238D01*
X59825750Y-151630000D01*
X60674127Y-151630000D01*
G37*
G36*
X61522016Y-149738583D02*
G01*
X61522016Y-150239891D01*
X62353663Y-150239891D01*
X62353663Y-151630000D01*
X62863154Y-151630000D01*
X62863154Y-150239891D01*
X63691992Y-150239891D01*
X63691992Y-149738583D01*
X61522016Y-149738583D01*
G37*
G36*
X61556647Y-218381622D02*
G01*
X60565509Y-218381622D01*
X60487442Y-218377793D01*
X60417183Y-218366621D01*
X60356080Y-218349210D01*
X60301553Y-218325764D01*
X60210675Y-218262471D01*
X60184735Y-218236297D01*
X60147960Y-218191015D01*
X60117320Y-218140905D01*
X60093511Y-218086916D01*
X60076980Y-218029528D01*
X60067132Y-217937100D01*
X60082158Y-217822380D01*
X60126659Y-217714483D01*
X60159295Y-217665570D01*
X60197987Y-217621628D01*
X60207083Y-217612868D01*
X60255291Y-217573763D01*
X60310247Y-217541226D01*
X60365020Y-217518752D01*
X60427131Y-217502381D01*
X60565509Y-217489891D01*
X61556647Y-217489891D01*
X61556647Y-216988583D01*
X60565509Y-216988583D01*
X60461630Y-216992432D01*
X60363994Y-217003747D01*
X60273289Y-217021962D01*
X60188338Y-217046811D01*
X60108671Y-217078084D01*
X60034431Y-217115355D01*
X59898900Y-217208664D01*
X59865509Y-217237833D01*
X59749971Y-217366029D01*
X59701249Y-217437571D01*
X59659062Y-217513541D01*
X59624176Y-217592581D01*
X59596468Y-217675118D01*
X59576646Y-217759061D01*
X59564475Y-217845581D01*
X59560328Y-217934413D01*
X59575508Y-218106905D01*
X59620368Y-218271260D01*
X59693546Y-218423674D01*
X59792873Y-218559677D01*
X59803960Y-218572009D01*
X59864737Y-218632846D01*
X59931256Y-218687887D01*
X60000778Y-218735027D01*
X60075822Y-218776135D01*
X60154601Y-218810170D01*
X60238847Y-218837823D01*
X60327936Y-218858653D01*
X60422593Y-218872602D01*
X60565509Y-218880000D01*
X61556647Y-218880000D01*
X61556647Y-218381622D01*
G37*
G36*
X62421877Y-218572254D02*
G01*
X62458323Y-218643246D01*
X62499689Y-218705918D01*
X62542810Y-218756923D01*
X62590450Y-218800835D01*
X62640861Y-218836575D01*
X62695701Y-218865819D01*
X62819764Y-218905194D01*
X62970691Y-218919078D01*
X63054323Y-218915156D01*
X63131359Y-218903334D01*
X63196958Y-218885292D01*
X63257332Y-218860352D01*
X63310602Y-218829831D01*
X63359412Y-218792821D01*
X63444671Y-218698673D01*
X63516574Y-218572254D01*
X64194225Y-217072602D01*
X64225000Y-216988583D01*
X63634176Y-216988583D01*
X63611828Y-217055750D01*
X63051779Y-218362327D01*
X63034471Y-218392458D01*
X63014296Y-218410856D01*
X62973377Y-218421067D01*
X62946165Y-218416974D01*
X62921729Y-218403950D01*
X62892289Y-218362327D01*
X62326622Y-217055750D01*
X62307083Y-216988583D01*
X61707833Y-216988583D01*
X61738608Y-217072602D01*
X62421877Y-218572254D01*
G37*
G36*
X65488468Y-216988583D02*
G01*
X65488468Y-217489891D01*
X65799267Y-217489891D01*
X65829418Y-217493832D01*
X65851269Y-217505788D01*
X65870245Y-217543750D01*
X65872174Y-217568171D01*
X65872174Y-218880000D01*
X66376169Y-218880000D01*
X66376169Y-217492578D01*
X66372112Y-217386663D01*
X66359346Y-217294096D01*
X66342073Y-217228849D01*
X66318070Y-217171875D01*
X66291044Y-217128482D01*
X66258137Y-217091202D01*
X66177997Y-217036617D01*
X66069548Y-217002156D01*
X65908566Y-216988583D01*
X65488468Y-216988583D01*
G37*
G36*
X85032013Y-127631622D02*
G01*
X84040875Y-127631622D01*
X83962808Y-127627793D01*
X83892549Y-127616621D01*
X83831446Y-127599210D01*
X83776919Y-127575764D01*
X83686041Y-127512471D01*
X83660101Y-127486297D01*
X83623326Y-127441015D01*
X83592686Y-127390905D01*
X83568877Y-127336916D01*
X83552346Y-127279528D01*
X83542498Y-127187100D01*
X83557524Y-127072380D01*
X83602025Y-126964483D01*
X83634661Y-126915570D01*
X83673353Y-126871628D01*
X83682449Y-126862868D01*
X83730657Y-126823763D01*
X83785613Y-126791226D01*
X83840386Y-126768752D01*
X83902497Y-126752381D01*
X84040875Y-126739891D01*
X85032013Y-126739891D01*
X85032013Y-126238583D01*
X84040875Y-126238583D01*
X83936996Y-126242432D01*
X83839360Y-126253747D01*
X83748655Y-126271962D01*
X83663704Y-126296811D01*
X83584037Y-126328084D01*
X83509797Y-126365355D01*
X83374266Y-126458664D01*
X83340875Y-126487833D01*
X83225337Y-126616029D01*
X83176615Y-126687571D01*
X83134428Y-126763541D01*
X83099542Y-126842581D01*
X83071834Y-126925118D01*
X83052012Y-127009061D01*
X83039841Y-127095581D01*
X83035694Y-127184413D01*
X83050874Y-127356905D01*
X83095734Y-127521260D01*
X83168912Y-127673674D01*
X83268239Y-127809677D01*
X83279326Y-127822009D01*
X83340103Y-127882846D01*
X83406622Y-127937887D01*
X83476144Y-127985027D01*
X83551188Y-128026135D01*
X83629967Y-128060170D01*
X83714213Y-128087823D01*
X83803302Y-128108653D01*
X83897959Y-128122602D01*
X84040875Y-128130000D01*
X85032013Y-128130000D01*
X85032013Y-127631622D01*
G37*
G36*
X85897243Y-127822254D02*
G01*
X85933689Y-127893246D01*
X85975055Y-127955918D01*
X86018176Y-128006923D01*
X86065816Y-128050835D01*
X86116227Y-128086575D01*
X86171067Y-128115819D01*
X86295130Y-128155194D01*
X86446057Y-128169078D01*
X86529689Y-128165156D01*
X86606725Y-128153334D01*
X86672324Y-128135292D01*
X86732698Y-128110352D01*
X86785968Y-128079831D01*
X86834778Y-128042821D01*
X86920037Y-127948673D01*
X86991940Y-127822254D01*
X87669591Y-126322602D01*
X87700366Y-126238583D01*
X87109542Y-126238583D01*
X87087194Y-126305750D01*
X86527145Y-127612327D01*
X86509837Y-127642458D01*
X86489662Y-127660856D01*
X86448743Y-127671067D01*
X86421531Y-127666974D01*
X86397095Y-127653950D01*
X86367655Y-127612327D01*
X85801988Y-126305750D01*
X85782449Y-126238583D01*
X85183199Y-126238583D01*
X85213974Y-126322602D01*
X85897243Y-127822254D01*
G37*
G36*
X88975069Y-126739891D02*
G01*
X90285432Y-126739891D01*
X90332346Y-126743900D01*
X90368970Y-126756327D01*
X90390127Y-126772174D01*
X90404759Y-126793747D01*
X90414270Y-126843328D01*
X90410338Y-126873718D01*
X90398443Y-126899709D01*
X90354064Y-126938706D01*
X90319138Y-126955069D01*
X89213084Y-127396782D01*
X89147632Y-127427347D01*
X89092720Y-127461219D01*
X89047740Y-127497682D01*
X89011614Y-127536367D01*
X88961670Y-127620968D01*
X88938218Y-127715870D01*
X88935868Y-127760460D01*
X88939823Y-127815929D01*
X88951876Y-127870528D01*
X88971129Y-127920580D01*
X88998218Y-127967689D01*
X89030890Y-128008187D01*
X89070840Y-128044325D01*
X89115600Y-128073769D01*
X89167246Y-128097789D01*
X89224217Y-128115244D01*
X89288012Y-128126205D01*
X89358653Y-128130000D01*
X90977128Y-128130000D01*
X90977128Y-127645666D01*
X89778628Y-127645666D01*
X89762921Y-127641985D01*
X89751772Y-127631847D01*
X89747854Y-127617700D01*
X89762119Y-127594035D01*
X89770324Y-127589734D01*
X90624319Y-127279424D01*
X90691454Y-127250657D01*
X90752276Y-127216336D01*
X90806976Y-127176710D01*
X90855075Y-127132462D01*
X90896776Y-127083682D01*
X90931548Y-127031226D01*
X90980167Y-126916270D01*
X90999246Y-126791717D01*
X90999476Y-126776161D01*
X90995599Y-126706728D01*
X90984087Y-126640468D01*
X90965492Y-126578783D01*
X90939858Y-126520958D01*
X90907890Y-126468143D01*
X90869425Y-126419829D01*
X90825077Y-126376773D01*
X90774677Y-126338863D01*
X90718492Y-126306517D01*
X90656596Y-126280023D01*
X90588776Y-126259652D01*
X90515508Y-126245928D01*
X90403035Y-126238583D01*
X88975069Y-126238583D01*
X88975069Y-126739891D01*
G37*
G36*
X77635069Y-74839181D02*
G01*
X77735462Y-74845892D01*
X77829809Y-74859784D01*
X77918878Y-74880683D01*
X78002191Y-74908169D01*
X78081863Y-74942845D01*
X78155876Y-74983713D01*
X78227601Y-75032792D01*
X78293563Y-75087833D01*
X78363081Y-75159281D01*
X78464280Y-75298198D01*
X78538409Y-75451781D01*
X78583557Y-75615176D01*
X78598744Y-75784413D01*
X78598713Y-75792301D01*
X78594007Y-75881359D01*
X78581547Y-75967822D01*
X78561275Y-76052793D01*
X78533723Y-76134326D01*
X78498805Y-76212971D01*
X78457210Y-76287313D01*
X78409129Y-76357226D01*
X78355112Y-76422009D01*
X78264172Y-76509144D01*
X78128342Y-76602550D01*
X78053363Y-76640063D01*
X77973048Y-76671466D01*
X77887198Y-76696487D01*
X77795812Y-76714783D01*
X77697617Y-76726144D01*
X77593563Y-76730000D01*
X77195935Y-76730000D01*
X77053019Y-76722602D01*
X76958362Y-76708653D01*
X76869273Y-76687823D01*
X76785027Y-76660170D01*
X76706248Y-76626135D01*
X76631204Y-76585027D01*
X76561682Y-76537887D01*
X76495163Y-76482846D01*
X76434386Y-76422009D01*
X76423299Y-76409677D01*
X76323972Y-76273674D01*
X76250794Y-76121260D01*
X76205934Y-75956905D01*
X76190990Y-75787100D01*
X76697558Y-75787100D01*
X76707406Y-75879528D01*
X76723937Y-75936916D01*
X76747746Y-75990905D01*
X76778386Y-76041015D01*
X76815161Y-76086297D01*
X76841101Y-76112471D01*
X76931979Y-76175764D01*
X76986506Y-76199210D01*
X77047609Y-76216621D01*
X77117868Y-76227793D01*
X77195935Y-76231622D01*
X77593563Y-76231622D01*
X77639684Y-76230330D01*
X77710877Y-76222582D01*
X77774982Y-76208210D01*
X77832972Y-76187383D01*
X77884496Y-76160665D01*
X77932615Y-76126295D01*
X77974337Y-76086297D01*
X78032705Y-76007330D01*
X78076977Y-75900684D01*
X78091940Y-75787100D01*
X78091861Y-75778682D01*
X78086634Y-75718558D01*
X78073594Y-75660570D01*
X78052909Y-75604675D01*
X78025235Y-75552450D01*
X77951989Y-75462868D01*
X77946391Y-75457747D01*
X77855857Y-75394790D01*
X77803108Y-75371905D01*
X77743466Y-75354813D01*
X77673268Y-75343710D01*
X77593563Y-75339891D01*
X77195935Y-75339891D01*
X77057557Y-75352381D01*
X76995446Y-75368752D01*
X76940673Y-75391226D01*
X76885717Y-75423763D01*
X76837509Y-75462868D01*
X76828413Y-75471628D01*
X76789721Y-75515570D01*
X76757085Y-75564483D01*
X76712584Y-75672380D01*
X76697558Y-75787100D01*
X76190990Y-75787100D01*
X76190754Y-75784413D01*
X76194901Y-75695581D01*
X76207072Y-75609061D01*
X76226894Y-75525118D01*
X76254602Y-75442581D01*
X76289488Y-75363541D01*
X76331675Y-75287571D01*
X76380397Y-75216029D01*
X76495935Y-75087833D01*
X76529326Y-75058664D01*
X76664857Y-74965355D01*
X76739097Y-74928084D01*
X76818764Y-74896811D01*
X76903715Y-74871962D01*
X76994420Y-74853747D01*
X77092056Y-74842432D01*
X77195935Y-74838583D01*
X77593563Y-74838583D01*
X77635069Y-74839181D01*
G37*
G36*
X79180042Y-74838583D02*
G01*
X79110613Y-74842505D01*
X79049012Y-74854325D01*
X79000567Y-74871655D01*
X78958416Y-74895428D01*
X78924708Y-74923541D01*
X78896528Y-74957389D01*
X78856865Y-75042285D01*
X78839045Y-75157647D01*
X78838468Y-75185896D01*
X78838468Y-76730000D01*
X79345272Y-76730000D01*
X79345272Y-76098387D01*
X80820866Y-76098387D01*
X80820866Y-75627976D01*
X79345272Y-75627976D01*
X79345272Y-75423789D01*
X79349215Y-75389951D01*
X79361180Y-75364801D01*
X79398302Y-75342457D01*
X79423674Y-75339891D01*
X80829292Y-75339891D01*
X80829292Y-74838583D01*
X79180042Y-74838583D01*
G37*
G36*
X81391905Y-74838583D02*
G01*
X81322476Y-74842505D01*
X81260876Y-74854325D01*
X81212431Y-74871655D01*
X81170280Y-74895428D01*
X81136571Y-74923541D01*
X81108391Y-74957389D01*
X81068728Y-75042285D01*
X81050908Y-75157647D01*
X81050332Y-75185896D01*
X81050332Y-76730000D01*
X81557136Y-76730000D01*
X81557136Y-76098387D01*
X83032729Y-76098387D01*
X83032729Y-75627976D01*
X81557136Y-75627976D01*
X81557136Y-75423789D01*
X81561078Y-75389951D01*
X81573043Y-75364801D01*
X81610165Y-75342457D01*
X81635538Y-75339891D01*
X83041155Y-75339891D01*
X83041155Y-74838583D01*
X81391905Y-74838583D01*
G37*
G36*
X85244592Y-74838583D02*
G01*
X83855827Y-74838583D01*
X83756782Y-74842407D01*
X83669343Y-74853546D01*
X83595609Y-74870569D01*
X83530532Y-74893379D01*
X83423110Y-74954188D01*
X83360136Y-75009431D01*
X83315945Y-75060451D01*
X83277982Y-75116229D01*
X83246962Y-75175740D01*
X83223078Y-75238821D01*
X83207108Y-75303381D01*
X83198892Y-75370299D01*
X83197837Y-75404616D01*
X83201690Y-75472586D01*
X83213030Y-75537920D01*
X83257489Y-75660632D01*
X83329690Y-75769918D01*
X83357450Y-75800533D01*
X83406158Y-75844731D01*
X83462208Y-75883348D01*
X83519736Y-75912712D01*
X83585085Y-75936636D01*
X83657452Y-75954342D01*
X83739021Y-75965988D01*
X83855827Y-75971381D01*
X84625803Y-75971381D01*
X84683313Y-75975293D01*
X84724589Y-75987041D01*
X84760136Y-76012903D01*
X84792018Y-76065446D01*
X84799337Y-76112676D01*
X84795532Y-76145618D01*
X84784529Y-76175289D01*
X84768563Y-76198527D01*
X84745937Y-76219276D01*
X84715168Y-76234224D01*
X84625803Y-76245666D01*
X83248151Y-76245666D01*
X83248151Y-76730000D01*
X84715318Y-76730000D01*
X84799857Y-76726162D01*
X84877201Y-76714927D01*
X84946151Y-76697208D01*
X85008881Y-76673219D01*
X85117134Y-76607858D01*
X85194156Y-76534117D01*
X85269944Y-76422234D01*
X85297670Y-76360487D01*
X85317974Y-76295741D01*
X85329991Y-76231242D01*
X85334107Y-76165310D01*
X85319026Y-76039721D01*
X85273865Y-75917838D01*
X85199916Y-75806404D01*
X85171808Y-75775376D01*
X85122307Y-75730374D01*
X85066275Y-75691170D01*
X85008438Y-75660803D01*
X84944081Y-75636435D01*
X84875004Y-75619031D01*
X84798915Y-75608236D01*
X84715318Y-75604528D01*
X83883793Y-75604528D01*
X83827155Y-75600450D01*
X83789956Y-75587531D01*
X83774616Y-75576441D01*
X83753038Y-75554054D01*
X83737086Y-75526072D01*
X83726989Y-75475080D01*
X83730814Y-75440683D01*
X83741958Y-75409888D01*
X83766190Y-75376406D01*
X83790284Y-75358352D01*
X83823530Y-75345961D01*
X83883793Y-75339891D01*
X85244592Y-75339891D01*
X85244592Y-74838583D01*
G37*
G36*
X85803420Y-74838583D02*
G01*
X85740662Y-74842496D01*
X85686233Y-74854258D01*
X85645062Y-74871213D01*
X85610398Y-74894346D01*
X85583864Y-74921599D01*
X85563027Y-74954297D01*
X85538220Y-75037702D01*
X85534630Y-75093450D01*
X85534630Y-76466828D01*
X85538533Y-76526739D01*
X85550221Y-76578855D01*
X85567251Y-76618903D01*
X85590466Y-76652761D01*
X85651403Y-76700051D01*
X85737006Y-76725709D01*
X85800611Y-76730000D01*
X87525454Y-76730000D01*
X87525454Y-76245666D01*
X86086253Y-76245666D01*
X86064275Y-76241758D01*
X86049816Y-76230034D01*
X86041434Y-76195840D01*
X86041434Y-75968572D01*
X87517027Y-75968572D01*
X87517027Y-75604528D01*
X86041434Y-75604528D01*
X86041434Y-75387763D01*
X86045418Y-75363440D01*
X86057673Y-75347456D01*
X86086253Y-75339891D01*
X87525454Y-75339891D01*
X87525454Y-74838583D01*
X85803420Y-74838583D01*
G37*
G36*
X87678960Y-74838583D02*
G01*
X87678960Y-75339891D01*
X88510607Y-75339891D01*
X88510607Y-76730000D01*
X89020098Y-76730000D01*
X89020098Y-75339891D01*
X89848936Y-75339891D01*
X89848936Y-74838583D01*
X87678960Y-74838583D01*
G37*
G36*
X52841000Y-77489181D02*
G01*
X52941393Y-77495892D01*
X53035740Y-77509784D01*
X53124809Y-77530683D01*
X53208122Y-77558169D01*
X53287794Y-77592845D01*
X53361807Y-77633713D01*
X53433532Y-77682792D01*
X53499494Y-77737833D01*
X53569012Y-77809281D01*
X53670211Y-77948198D01*
X53744340Y-78101781D01*
X53789488Y-78265176D01*
X53804675Y-78434413D01*
X53804644Y-78442301D01*
X53799938Y-78531359D01*
X53787478Y-78617822D01*
X53767206Y-78702793D01*
X53739654Y-78784326D01*
X53704736Y-78862971D01*
X53663141Y-78937313D01*
X53615060Y-79007226D01*
X53561043Y-79072009D01*
X53470103Y-79159144D01*
X53334273Y-79252550D01*
X53259294Y-79290063D01*
X53178979Y-79321466D01*
X53093129Y-79346487D01*
X53001743Y-79364783D01*
X52903548Y-79376144D01*
X52799494Y-79380000D01*
X52401866Y-79380000D01*
X52258950Y-79372602D01*
X52164293Y-79358653D01*
X52075204Y-79337823D01*
X51990958Y-79310170D01*
X51912179Y-79276135D01*
X51837135Y-79235027D01*
X51767613Y-79187887D01*
X51701094Y-79132846D01*
X51640317Y-79072009D01*
X51629230Y-79059677D01*
X51529903Y-78923674D01*
X51456725Y-78771260D01*
X51411865Y-78606905D01*
X51396921Y-78437100D01*
X51903489Y-78437100D01*
X51913337Y-78529528D01*
X51929868Y-78586916D01*
X51953677Y-78640905D01*
X51984317Y-78691015D01*
X52021092Y-78736297D01*
X52047032Y-78762471D01*
X52137910Y-78825764D01*
X52192437Y-78849210D01*
X52253540Y-78866621D01*
X52323799Y-78877793D01*
X52401866Y-78881622D01*
X52799494Y-78881622D01*
X52845615Y-78880330D01*
X52916808Y-78872582D01*
X52980913Y-78858210D01*
X53038903Y-78837383D01*
X53090427Y-78810665D01*
X53138546Y-78776295D01*
X53180268Y-78736297D01*
X53238636Y-78657330D01*
X53282908Y-78550684D01*
X53297871Y-78437100D01*
X53297792Y-78428682D01*
X53292565Y-78368558D01*
X53279525Y-78310570D01*
X53258840Y-78254675D01*
X53231166Y-78202450D01*
X53157920Y-78112868D01*
X53152322Y-78107747D01*
X53061788Y-78044790D01*
X53009039Y-78021905D01*
X52949397Y-78004813D01*
X52879199Y-77993710D01*
X52799494Y-77989891D01*
X52401866Y-77989891D01*
X52263488Y-78002381D01*
X52201377Y-78018752D01*
X52146604Y-78041226D01*
X52091648Y-78073763D01*
X52043440Y-78112868D01*
X52034344Y-78121628D01*
X51995652Y-78165570D01*
X51963016Y-78214483D01*
X51918515Y-78322380D01*
X51903489Y-78437100D01*
X51396921Y-78437100D01*
X51396685Y-78434413D01*
X51400832Y-78345581D01*
X51413003Y-78259061D01*
X51432825Y-78175118D01*
X51460533Y-78092581D01*
X51495419Y-78013541D01*
X51537606Y-77937571D01*
X51586328Y-77866029D01*
X51701866Y-77737833D01*
X51735257Y-77708664D01*
X51870788Y-77615355D01*
X51945028Y-77578084D01*
X52024695Y-77546811D01*
X52109646Y-77521962D01*
X52200351Y-77503747D01*
X52297987Y-77492432D01*
X52401866Y-77488583D01*
X52799494Y-77488583D01*
X52841000Y-77489181D01*
G37*
G36*
X55547958Y-79380000D02*
G01*
X55662655Y-79376056D01*
X55765328Y-79364083D01*
X55846228Y-79346682D01*
X55918305Y-79322716D01*
X55976471Y-79295062D01*
X56027722Y-79261734D01*
X56070153Y-79224741D01*
X56106683Y-79182440D01*
X56162654Y-79081636D01*
X56198183Y-78951795D01*
X56211566Y-78775376D01*
X56211566Y-77488583D01*
X55701954Y-77488583D01*
X55701954Y-78719445D01*
X55698037Y-78767883D01*
X55686250Y-78808305D01*
X55669613Y-78836991D01*
X55646980Y-78859866D01*
X55585422Y-78888151D01*
X55514375Y-78895666D01*
X54727547Y-78895666D01*
X54675900Y-78891758D01*
X54633273Y-78880034D01*
X54603594Y-78863681D01*
X54580224Y-78841536D01*
X54552329Y-78782498D01*
X54545586Y-78719445D01*
X54545586Y-77488583D01*
X54035973Y-77488583D01*
X54035973Y-78775376D01*
X54039939Y-78876061D01*
X54052072Y-78966921D01*
X54069710Y-79038680D01*
X54094134Y-79103176D01*
X54122602Y-79155901D01*
X54157119Y-79202775D01*
X54196145Y-79242396D01*
X54241081Y-79276808D01*
X54350873Y-79330936D01*
X54495793Y-79366238D01*
X54699581Y-79380000D01*
X55547958Y-79380000D01*
G37*
G36*
X56395847Y-77488583D02*
G01*
X56395847Y-77989891D01*
X57227494Y-77989891D01*
X57227494Y-79380000D01*
X57736985Y-79380000D01*
X57736985Y-77989891D01*
X58565823Y-77989891D01*
X58565823Y-77488583D01*
X56395847Y-77488583D01*
G37*
G36*
X60304351Y-77499453D02*
G01*
X60386016Y-77514902D01*
X60460388Y-77536626D01*
X60529867Y-77565156D01*
X60592796Y-77599570D01*
X60654560Y-77643281D01*
X60710031Y-77693014D01*
X60784863Y-77781132D01*
X60859281Y-77911146D01*
X60904759Y-78051712D01*
X60919958Y-78196032D01*
X60918906Y-78233887D01*
X60910662Y-78308421D01*
X60894567Y-78381076D01*
X60870412Y-78452888D01*
X60838906Y-78521620D01*
X60800166Y-78587193D01*
X60754850Y-78648492D01*
X60716246Y-78691013D01*
X60607694Y-78780127D01*
X60546289Y-78815895D01*
X60478935Y-78846097D01*
X60405441Y-78870306D01*
X60325447Y-78888165D01*
X60237156Y-78899399D01*
X60141556Y-78903237D01*
X59270830Y-78903237D01*
X59270830Y-79380000D01*
X58764026Y-79380000D01*
X58764026Y-78028848D01*
X59270830Y-78028848D01*
X59270830Y-78438443D01*
X60152791Y-78438443D01*
X60222416Y-78433348D01*
X60268373Y-78422341D01*
X60306932Y-78405599D01*
X60342464Y-78380522D01*
X60371144Y-78349295D01*
X60401265Y-78296432D01*
X60412171Y-78257970D01*
X60415963Y-78215572D01*
X60406720Y-78147764D01*
X60391106Y-78108598D01*
X60368335Y-78073422D01*
X60336325Y-78042248D01*
X60302932Y-78020819D01*
X60262683Y-78004504D01*
X60212464Y-77993672D01*
X60152791Y-77989891D01*
X59307222Y-77989891D01*
X59285231Y-77995245D01*
X59274584Y-78007832D01*
X59270830Y-78028848D01*
X58764026Y-78028848D01*
X58764026Y-77606186D01*
X58777154Y-77542338D01*
X58792713Y-77520423D01*
X58814191Y-77504214D01*
X58846760Y-77492491D01*
X58887247Y-77488583D01*
X60141556Y-77488583D01*
X60304351Y-77499453D01*
G37*
G36*
X62625139Y-79380000D02*
G01*
X62739836Y-79376056D01*
X62842509Y-79364083D01*
X62923409Y-79346682D01*
X62995485Y-79322716D01*
X63053652Y-79295062D01*
X63104903Y-79261734D01*
X63147333Y-79224741D01*
X63183864Y-79182440D01*
X63239835Y-79081636D01*
X63275364Y-78951795D01*
X63288747Y-78775376D01*
X63288747Y-77488583D01*
X62779134Y-77488583D01*
X62779134Y-78719445D01*
X62775217Y-78767883D01*
X62763431Y-78808305D01*
X62746793Y-78836991D01*
X62724160Y-78859866D01*
X62662603Y-78888151D01*
X62591556Y-78895666D01*
X61804727Y-78895666D01*
X61753080Y-78891758D01*
X61710454Y-78880034D01*
X61680775Y-78863681D01*
X61657405Y-78841536D01*
X61629509Y-78782498D01*
X61622767Y-78719445D01*
X61622767Y-77488583D01*
X61113154Y-77488583D01*
X61113154Y-78775376D01*
X61117120Y-78876061D01*
X61129252Y-78966921D01*
X61146890Y-79038680D01*
X61171315Y-79103176D01*
X61199782Y-79155901D01*
X61234299Y-79202775D01*
X61273325Y-79242396D01*
X61318261Y-79276808D01*
X61428053Y-79330936D01*
X61572974Y-79366238D01*
X61776762Y-79380000D01*
X62625139Y-79380000D01*
G37*
G36*
X63473028Y-77488583D02*
G01*
X63473028Y-77989891D01*
X64304675Y-77989891D01*
X64304675Y-79380000D01*
X64814166Y-79380000D01*
X64814166Y-77989891D01*
X65643004Y-77989891D01*
X65643004Y-77488583D01*
X63473028Y-77488583D01*
G37*
G36*
X85032013Y-218381622D02*
G01*
X84040875Y-218381622D01*
X83962808Y-218377793D01*
X83892549Y-218366621D01*
X83831446Y-218349210D01*
X83776919Y-218325764D01*
X83686041Y-218262471D01*
X83660101Y-218236297D01*
X83623326Y-218191015D01*
X83592686Y-218140905D01*
X83568877Y-218086916D01*
X83552346Y-218029528D01*
X83542498Y-217937100D01*
X83557524Y-217822380D01*
X83602025Y-217714483D01*
X83634661Y-217665570D01*
X83673353Y-217621628D01*
X83682449Y-217612868D01*
X83730657Y-217573763D01*
X83785613Y-217541226D01*
X83840386Y-217518752D01*
X83902497Y-217502381D01*
X84040875Y-217489891D01*
X85032013Y-217489891D01*
X85032013Y-216988583D01*
X84040875Y-216988583D01*
X83936996Y-216992432D01*
X83839360Y-217003747D01*
X83748655Y-217021962D01*
X83663704Y-217046811D01*
X83584037Y-217078084D01*
X83509797Y-217115355D01*
X83374266Y-217208664D01*
X83340875Y-217237833D01*
X83225337Y-217366029D01*
X83176615Y-217437571D01*
X83134428Y-217513541D01*
X83099542Y-217592581D01*
X83071834Y-217675118D01*
X83052012Y-217759061D01*
X83039841Y-217845581D01*
X83035694Y-217934413D01*
X83050874Y-218106905D01*
X83095734Y-218271260D01*
X83168912Y-218423674D01*
X83268239Y-218559677D01*
X83279326Y-218572009D01*
X83340103Y-218632846D01*
X83406622Y-218687887D01*
X83476144Y-218735027D01*
X83551188Y-218776135D01*
X83629967Y-218810170D01*
X83714213Y-218837823D01*
X83803302Y-218858653D01*
X83897959Y-218872602D01*
X84040875Y-218880000D01*
X85032013Y-218880000D01*
X85032013Y-218381622D01*
G37*
G36*
X85897243Y-218572254D02*
G01*
X85933689Y-218643246D01*
X85975055Y-218705918D01*
X86018176Y-218756923D01*
X86065816Y-218800835D01*
X86116227Y-218836575D01*
X86171067Y-218865819D01*
X86295130Y-218905194D01*
X86446057Y-218919078D01*
X86529689Y-218915156D01*
X86606725Y-218903334D01*
X86672324Y-218885292D01*
X86732698Y-218860352D01*
X86785968Y-218829831D01*
X86834778Y-218792821D01*
X86920037Y-218698673D01*
X86991940Y-218572254D01*
X87669591Y-217072602D01*
X87700366Y-216988583D01*
X87109542Y-216988583D01*
X87087194Y-217055750D01*
X86527145Y-218362327D01*
X86509837Y-218392458D01*
X86489662Y-218410856D01*
X86448743Y-218421067D01*
X86421531Y-218416974D01*
X86397095Y-218403950D01*
X86367655Y-218362327D01*
X85801988Y-217055750D01*
X85782449Y-216988583D01*
X85183199Y-216988583D01*
X85213974Y-217072602D01*
X85897243Y-218572254D01*
G37*
G36*
X88975069Y-217489891D02*
G01*
X90285432Y-217489891D01*
X90332346Y-217493900D01*
X90368970Y-217506327D01*
X90390127Y-217522174D01*
X90404759Y-217543747D01*
X90414270Y-217593328D01*
X90410338Y-217623718D01*
X90398443Y-217649709D01*
X90354064Y-217688706D01*
X90319138Y-217705069D01*
X89213084Y-218146782D01*
X89147632Y-218177347D01*
X89092720Y-218211219D01*
X89047740Y-218247682D01*
X89011614Y-218286367D01*
X88961670Y-218370968D01*
X88938218Y-218465870D01*
X88935868Y-218510460D01*
X88939823Y-218565929D01*
X88951876Y-218620528D01*
X88971129Y-218670580D01*
X88998218Y-218717689D01*
X89030890Y-218758187D01*
X89070840Y-218794325D01*
X89115600Y-218823769D01*
X89167246Y-218847789D01*
X89224217Y-218865244D01*
X89288012Y-218876205D01*
X89358653Y-218880000D01*
X90977128Y-218880000D01*
X90977128Y-218395666D01*
X89778628Y-218395666D01*
X89762921Y-218391985D01*
X89751772Y-218381847D01*
X89747854Y-218367700D01*
X89762119Y-218344035D01*
X89770324Y-218339734D01*
X90624319Y-218029424D01*
X90691454Y-218000657D01*
X90752276Y-217966336D01*
X90806976Y-217926710D01*
X90855075Y-217882462D01*
X90896776Y-217833682D01*
X90931548Y-217781226D01*
X90980167Y-217666270D01*
X90999246Y-217541717D01*
X90999476Y-217526161D01*
X90995599Y-217456728D01*
X90984087Y-217390468D01*
X90965492Y-217328783D01*
X90939858Y-217270958D01*
X90907890Y-217218143D01*
X90869425Y-217169829D01*
X90825077Y-217126773D01*
X90774677Y-217088863D01*
X90718492Y-217056517D01*
X90656596Y-217030023D01*
X90588776Y-217009652D01*
X90515508Y-216995928D01*
X90403035Y-216988583D01*
X88975069Y-216988583D01*
X88975069Y-217489891D01*
G37*
G36*
X52841000Y-168239181D02*
G01*
X52941393Y-168245892D01*
X53035740Y-168259784D01*
X53124809Y-168280683D01*
X53208122Y-168308169D01*
X53287794Y-168342845D01*
X53361807Y-168383713D01*
X53433532Y-168432792D01*
X53499494Y-168487833D01*
X53569012Y-168559281D01*
X53670211Y-168698198D01*
X53744340Y-168851781D01*
X53789488Y-169015176D01*
X53804675Y-169184413D01*
X53804644Y-169192301D01*
X53799938Y-169281359D01*
X53787478Y-169367822D01*
X53767206Y-169452793D01*
X53739654Y-169534326D01*
X53704736Y-169612971D01*
X53663141Y-169687313D01*
X53615060Y-169757226D01*
X53561043Y-169822009D01*
X53470103Y-169909144D01*
X53334273Y-170002550D01*
X53259294Y-170040063D01*
X53178979Y-170071466D01*
X53093129Y-170096487D01*
X53001743Y-170114783D01*
X52903548Y-170126144D01*
X52799494Y-170130000D01*
X52401866Y-170130000D01*
X52258950Y-170122602D01*
X52164293Y-170108653D01*
X52075204Y-170087823D01*
X51990958Y-170060170D01*
X51912179Y-170026135D01*
X51837135Y-169985027D01*
X51767613Y-169937887D01*
X51701094Y-169882846D01*
X51640317Y-169822009D01*
X51629230Y-169809677D01*
X51529903Y-169673674D01*
X51456725Y-169521260D01*
X51411865Y-169356905D01*
X51396921Y-169187100D01*
X51903489Y-169187100D01*
X51913337Y-169279528D01*
X51929868Y-169336916D01*
X51953677Y-169390905D01*
X51984317Y-169441015D01*
X52021092Y-169486297D01*
X52047032Y-169512471D01*
X52137910Y-169575764D01*
X52192437Y-169599210D01*
X52253540Y-169616621D01*
X52323799Y-169627793D01*
X52401866Y-169631622D01*
X52799494Y-169631622D01*
X52845615Y-169630330D01*
X52916808Y-169622582D01*
X52980913Y-169608210D01*
X53038903Y-169587383D01*
X53090427Y-169560665D01*
X53138546Y-169526295D01*
X53180268Y-169486297D01*
X53238636Y-169407330D01*
X53282908Y-169300684D01*
X53297871Y-169187100D01*
X53297792Y-169178682D01*
X53292565Y-169118558D01*
X53279525Y-169060570D01*
X53258840Y-169004675D01*
X53231166Y-168952450D01*
X53157920Y-168862868D01*
X53152322Y-168857747D01*
X53061788Y-168794790D01*
X53009039Y-168771905D01*
X52949397Y-168754813D01*
X52879199Y-168743710D01*
X52799494Y-168739891D01*
X52401866Y-168739891D01*
X52263488Y-168752381D01*
X52201377Y-168768752D01*
X52146604Y-168791226D01*
X52091648Y-168823763D01*
X52043440Y-168862868D01*
X52034344Y-168871628D01*
X51995652Y-168915570D01*
X51963016Y-168964483D01*
X51918515Y-169072380D01*
X51903489Y-169187100D01*
X51396921Y-169187100D01*
X51396685Y-169184413D01*
X51400832Y-169095581D01*
X51413003Y-169009061D01*
X51432825Y-168925118D01*
X51460533Y-168842581D01*
X51495419Y-168763541D01*
X51537606Y-168687571D01*
X51586328Y-168616029D01*
X51701866Y-168487833D01*
X51735257Y-168458664D01*
X51870788Y-168365355D01*
X51945028Y-168328084D01*
X52024695Y-168296811D01*
X52109646Y-168271962D01*
X52200351Y-168253747D01*
X52297987Y-168242432D01*
X52401866Y-168238583D01*
X52799494Y-168238583D01*
X52841000Y-168239181D01*
G37*
G36*
X55547958Y-170130000D02*
G01*
X55662655Y-170126056D01*
X55765328Y-170114083D01*
X55846228Y-170096682D01*
X55918305Y-170072716D01*
X55976471Y-170045062D01*
X56027722Y-170011734D01*
X56070153Y-169974741D01*
X56106683Y-169932440D01*
X56162654Y-169831636D01*
X56198183Y-169701795D01*
X56211566Y-169525376D01*
X56211566Y-168238583D01*
X55701954Y-168238583D01*
X55701954Y-169469445D01*
X55698037Y-169517883D01*
X55686250Y-169558305D01*
X55669613Y-169586991D01*
X55646980Y-169609866D01*
X55585422Y-169638151D01*
X55514375Y-169645666D01*
X54727547Y-169645666D01*
X54675900Y-169641758D01*
X54633273Y-169630034D01*
X54603594Y-169613681D01*
X54580224Y-169591536D01*
X54552329Y-169532498D01*
X54545586Y-169469445D01*
X54545586Y-168238583D01*
X54035973Y-168238583D01*
X54035973Y-169525376D01*
X54039939Y-169626061D01*
X54052072Y-169716921D01*
X54069710Y-169788680D01*
X54094134Y-169853176D01*
X54122602Y-169905901D01*
X54157119Y-169952775D01*
X54196145Y-169992396D01*
X54241081Y-170026808D01*
X54350873Y-170080936D01*
X54495793Y-170116238D01*
X54699581Y-170130000D01*
X55547958Y-170130000D01*
G37*
G36*
X56395847Y-168238583D02*
G01*
X56395847Y-168739891D01*
X57227494Y-168739891D01*
X57227494Y-170130000D01*
X57736985Y-170130000D01*
X57736985Y-168739891D01*
X58565823Y-168739891D01*
X58565823Y-168238583D01*
X56395847Y-168238583D01*
G37*
G36*
X60304351Y-168249453D02*
G01*
X60386016Y-168264902D01*
X60460388Y-168286626D01*
X60529867Y-168315156D01*
X60592796Y-168349570D01*
X60654560Y-168393281D01*
X60710031Y-168443014D01*
X60784863Y-168531132D01*
X60859281Y-168661146D01*
X60904759Y-168801712D01*
X60919958Y-168946032D01*
X60918906Y-168983887D01*
X60910662Y-169058421D01*
X60894567Y-169131076D01*
X60870412Y-169202888D01*
X60838906Y-169271620D01*
X60800166Y-169337193D01*
X60754850Y-169398492D01*
X60716246Y-169441013D01*
X60607694Y-169530127D01*
X60546289Y-169565895D01*
X60478935Y-169596097D01*
X60405441Y-169620306D01*
X60325447Y-169638165D01*
X60237156Y-169649399D01*
X60141556Y-169653237D01*
X59270830Y-169653237D01*
X59270830Y-170130000D01*
X58764026Y-170130000D01*
X58764026Y-168778848D01*
X59270830Y-168778848D01*
X59270830Y-169188443D01*
X60152791Y-169188443D01*
X60222416Y-169183348D01*
X60268373Y-169172341D01*
X60306932Y-169155599D01*
X60342464Y-169130522D01*
X60371144Y-169099295D01*
X60401265Y-169046432D01*
X60412171Y-169007970D01*
X60415963Y-168965572D01*
X60406720Y-168897764D01*
X60391106Y-168858598D01*
X60368335Y-168823422D01*
X60336325Y-168792248D01*
X60302932Y-168770819D01*
X60262683Y-168754504D01*
X60212464Y-168743672D01*
X60152791Y-168739891D01*
X59307222Y-168739891D01*
X59285231Y-168745245D01*
X59274584Y-168757832D01*
X59270830Y-168778848D01*
X58764026Y-168778848D01*
X58764026Y-168356186D01*
X58777154Y-168292338D01*
X58792713Y-168270423D01*
X58814191Y-168254214D01*
X58846760Y-168242491D01*
X58887247Y-168238583D01*
X60141556Y-168238583D01*
X60304351Y-168249453D01*
G37*
G36*
X62625139Y-170130000D02*
G01*
X62739836Y-170126056D01*
X62842509Y-170114083D01*
X62923409Y-170096682D01*
X62995485Y-170072716D01*
X63053652Y-170045062D01*
X63104903Y-170011734D01*
X63147333Y-169974741D01*
X63183864Y-169932440D01*
X63239835Y-169831636D01*
X63275364Y-169701795D01*
X63288747Y-169525376D01*
X63288747Y-168238583D01*
X62779134Y-168238583D01*
X62779134Y-169469445D01*
X62775217Y-169517883D01*
X62763431Y-169558305D01*
X62746793Y-169586991D01*
X62724160Y-169609866D01*
X62662603Y-169638151D01*
X62591556Y-169645666D01*
X61804727Y-169645666D01*
X61753080Y-169641758D01*
X61710454Y-169630034D01*
X61680775Y-169613681D01*
X61657405Y-169591536D01*
X61629509Y-169532498D01*
X61622767Y-169469445D01*
X61622767Y-168238583D01*
X61113154Y-168238583D01*
X61113154Y-169525376D01*
X61117120Y-169626061D01*
X61129252Y-169716921D01*
X61146890Y-169788680D01*
X61171315Y-169853176D01*
X61199782Y-169905901D01*
X61234299Y-169952775D01*
X61273325Y-169992396D01*
X61318261Y-170026808D01*
X61428053Y-170080936D01*
X61572974Y-170116238D01*
X61776762Y-170130000D01*
X62625139Y-170130000D01*
G37*
G36*
X63473028Y-168238583D02*
G01*
X63473028Y-168739891D01*
X64304675Y-168739891D01*
X64304675Y-170130000D01*
X64814166Y-170130000D01*
X64814166Y-168739891D01*
X65643004Y-168739891D01*
X65643004Y-168238583D01*
X63473028Y-168238583D01*
G37*
G36*
X77635069Y-165589181D02*
G01*
X77735462Y-165595892D01*
X77829809Y-165609784D01*
X77918878Y-165630683D01*
X78002191Y-165658169D01*
X78081863Y-165692845D01*
X78155876Y-165733713D01*
X78227601Y-165782792D01*
X78293563Y-165837833D01*
X78363081Y-165909281D01*
X78464280Y-166048198D01*
X78538409Y-166201781D01*
X78583557Y-166365176D01*
X78598744Y-166534413D01*
X78598713Y-166542301D01*
X78594007Y-166631359D01*
X78581547Y-166717822D01*
X78561275Y-166802793D01*
X78533723Y-166884326D01*
X78498805Y-166962971D01*
X78457210Y-167037313D01*
X78409129Y-167107226D01*
X78355112Y-167172009D01*
X78264172Y-167259144D01*
X78128342Y-167352550D01*
X78053363Y-167390063D01*
X77973048Y-167421466D01*
X77887198Y-167446487D01*
X77795812Y-167464783D01*
X77697617Y-167476144D01*
X77593563Y-167480000D01*
X77195935Y-167480000D01*
X77053019Y-167472602D01*
X76958362Y-167458653D01*
X76869273Y-167437823D01*
X76785027Y-167410170D01*
X76706248Y-167376135D01*
X76631204Y-167335027D01*
X76561682Y-167287887D01*
X76495163Y-167232846D01*
X76434386Y-167172009D01*
X76423299Y-167159677D01*
X76323972Y-167023674D01*
X76250794Y-166871260D01*
X76205934Y-166706905D01*
X76190990Y-166537100D01*
X76697558Y-166537100D01*
X76707406Y-166629528D01*
X76723937Y-166686916D01*
X76747746Y-166740905D01*
X76778386Y-166791015D01*
X76815161Y-166836297D01*
X76841101Y-166862471D01*
X76931979Y-166925764D01*
X76986506Y-166949210D01*
X77047609Y-166966621D01*
X77117868Y-166977793D01*
X77195935Y-166981622D01*
X77593563Y-166981622D01*
X77639684Y-166980330D01*
X77710877Y-166972582D01*
X77774982Y-166958210D01*
X77832972Y-166937383D01*
X77884496Y-166910665D01*
X77932615Y-166876295D01*
X77974337Y-166836297D01*
X78032705Y-166757330D01*
X78076977Y-166650684D01*
X78091940Y-166537100D01*
X78091861Y-166528682D01*
X78086634Y-166468558D01*
X78073594Y-166410570D01*
X78052909Y-166354675D01*
X78025235Y-166302450D01*
X77951989Y-166212868D01*
X77946391Y-166207747D01*
X77855857Y-166144790D01*
X77803108Y-166121905D01*
X77743466Y-166104813D01*
X77673268Y-166093710D01*
X77593563Y-166089891D01*
X77195935Y-166089891D01*
X77057557Y-166102381D01*
X76995446Y-166118752D01*
X76940673Y-166141226D01*
X76885717Y-166173763D01*
X76837509Y-166212868D01*
X76828413Y-166221628D01*
X76789721Y-166265570D01*
X76757085Y-166314483D01*
X76712584Y-166422380D01*
X76697558Y-166537100D01*
X76190990Y-166537100D01*
X76190754Y-166534413D01*
X76194901Y-166445581D01*
X76207072Y-166359061D01*
X76226894Y-166275118D01*
X76254602Y-166192581D01*
X76289488Y-166113541D01*
X76331675Y-166037571D01*
X76380397Y-165966029D01*
X76495935Y-165837833D01*
X76529326Y-165808664D01*
X76664857Y-165715355D01*
X76739097Y-165678084D01*
X76818764Y-165646811D01*
X76903715Y-165621962D01*
X76994420Y-165603747D01*
X77092056Y-165592432D01*
X77195935Y-165588583D01*
X77593563Y-165588583D01*
X77635069Y-165589181D01*
G37*
G36*
X79180042Y-165588583D02*
G01*
X79110613Y-165592505D01*
X79049012Y-165604325D01*
X79000567Y-165621655D01*
X78958416Y-165645428D01*
X78924708Y-165673541D01*
X78896528Y-165707389D01*
X78856865Y-165792285D01*
X78839045Y-165907647D01*
X78838468Y-165935896D01*
X78838468Y-167480000D01*
X79345272Y-167480000D01*
X79345272Y-166848387D01*
X80820866Y-166848387D01*
X80820866Y-166377976D01*
X79345272Y-166377976D01*
X79345272Y-166173789D01*
X79349215Y-166139951D01*
X79361180Y-166114801D01*
X79398302Y-166092457D01*
X79423674Y-166089891D01*
X80829292Y-166089891D01*
X80829292Y-165588583D01*
X79180042Y-165588583D01*
G37*
G36*
X81391905Y-165588583D02*
G01*
X81322476Y-165592505D01*
X81260876Y-165604325D01*
X81212431Y-165621655D01*
X81170280Y-165645428D01*
X81136571Y-165673541D01*
X81108391Y-165707389D01*
X81068728Y-165792285D01*
X81050908Y-165907647D01*
X81050332Y-165935896D01*
X81050332Y-167480000D01*
X81557136Y-167480000D01*
X81557136Y-166848387D01*
X83032729Y-166848387D01*
X83032729Y-166377976D01*
X81557136Y-166377976D01*
X81557136Y-166173789D01*
X81561078Y-166139951D01*
X81573043Y-166114801D01*
X81610165Y-166092457D01*
X81635538Y-166089891D01*
X83041155Y-166089891D01*
X83041155Y-165588583D01*
X81391905Y-165588583D01*
G37*
G36*
X85244592Y-165588583D02*
G01*
X83855827Y-165588583D01*
X83756782Y-165592407D01*
X83669343Y-165603546D01*
X83595609Y-165620569D01*
X83530532Y-165643379D01*
X83423110Y-165704188D01*
X83360136Y-165759431D01*
X83315945Y-165810451D01*
X83277982Y-165866229D01*
X83246962Y-165925740D01*
X83223078Y-165988821D01*
X83207108Y-166053381D01*
X83198892Y-166120299D01*
X83197837Y-166154616D01*
X83201690Y-166222586D01*
X83213030Y-166287920D01*
X83257489Y-166410632D01*
X83329690Y-166519918D01*
X83357450Y-166550533D01*
X83406158Y-166594731D01*
X83462208Y-166633348D01*
X83519736Y-166662712D01*
X83585085Y-166686636D01*
X83657452Y-166704342D01*
X83739021Y-166715988D01*
X83855827Y-166721381D01*
X84625803Y-166721381D01*
X84683313Y-166725293D01*
X84724589Y-166737041D01*
X84760136Y-166762903D01*
X84792018Y-166815446D01*
X84799337Y-166862676D01*
X84795532Y-166895618D01*
X84784529Y-166925289D01*
X84768563Y-166948527D01*
X84745937Y-166969276D01*
X84715168Y-166984224D01*
X84625803Y-166995666D01*
X83248151Y-166995666D01*
X83248151Y-167480000D01*
X84715318Y-167480000D01*
X84799857Y-167476162D01*
X84877201Y-167464927D01*
X84946151Y-167447208D01*
X85008881Y-167423219D01*
X85117134Y-167357858D01*
X85194156Y-167284117D01*
X85269944Y-167172234D01*
X85297670Y-167110487D01*
X85317974Y-167045741D01*
X85329991Y-166981242D01*
X85334107Y-166915310D01*
X85319026Y-166789721D01*
X85273865Y-166667838D01*
X85199916Y-166556404D01*
X85171808Y-166525376D01*
X85122307Y-166480374D01*
X85066275Y-166441170D01*
X85008438Y-166410803D01*
X84944081Y-166386435D01*
X84875004Y-166369031D01*
X84798915Y-166358236D01*
X84715318Y-166354528D01*
X83883793Y-166354528D01*
X83827155Y-166350450D01*
X83789956Y-166337531D01*
X83774616Y-166326441D01*
X83753038Y-166304054D01*
X83737086Y-166276072D01*
X83726989Y-166225080D01*
X83730814Y-166190683D01*
X83741958Y-166159888D01*
X83766190Y-166126406D01*
X83790284Y-166108352D01*
X83823530Y-166095961D01*
X83883793Y-166089891D01*
X85244592Y-166089891D01*
X85244592Y-165588583D01*
G37*
G36*
X85803420Y-165588583D02*
G01*
X85740662Y-165592496D01*
X85686233Y-165604258D01*
X85645062Y-165621213D01*
X85610398Y-165644346D01*
X85583864Y-165671599D01*
X85563027Y-165704297D01*
X85538220Y-165787702D01*
X85534630Y-165843450D01*
X85534630Y-167216828D01*
X85538533Y-167276739D01*
X85550221Y-167328855D01*
X85567251Y-167368903D01*
X85590466Y-167402761D01*
X85651403Y-167450051D01*
X85737006Y-167475709D01*
X85800611Y-167480000D01*
X87525454Y-167480000D01*
X87525454Y-166995666D01*
X86086253Y-166995666D01*
X86064275Y-166991758D01*
X86049816Y-166980034D01*
X86041434Y-166945840D01*
X86041434Y-166718572D01*
X87517027Y-166718572D01*
X87517027Y-166354528D01*
X86041434Y-166354528D01*
X86041434Y-166137763D01*
X86045418Y-166113440D01*
X86057673Y-166097456D01*
X86086253Y-166089891D01*
X87525454Y-166089891D01*
X87525454Y-165588583D01*
X85803420Y-165588583D01*
G37*
G36*
X87678960Y-165588583D02*
G01*
X87678960Y-166089891D01*
X88510607Y-166089891D01*
X88510607Y-167480000D01*
X89020098Y-167480000D01*
X89020098Y-166089891D01*
X89848936Y-166089891D01*
X89848936Y-165588583D01*
X87678960Y-165588583D01*
G37*
D15*
%TO.C,H14*%
X52250000Y-196000000D02*
X53750000Y-196000000D01*
X55500002Y-186000000D02*
X51000000Y-186000000D01*
X56506990Y-182246229D02*
X52605715Y-180003433D01*
X56506990Y-189753772D02*
X52605773Y-191996669D01*
X59246228Y-179506990D02*
X57003331Y-175605773D01*
X59246229Y-192493010D02*
X57003433Y-196394285D01*
X63000000Y-178500000D02*
X63000000Y-174000000D01*
X66753771Y-179506990D02*
X68996567Y-175605715D01*
X66753772Y-192493010D02*
X68996669Y-196394227D01*
X69493010Y-182246228D02*
X73394227Y-180003331D01*
X69493010Y-189753771D02*
X73394285Y-191996567D01*
X70500000Y-186000000D02*
X75000000Y-186000000D01*
X72250000Y-196000000D02*
X73750000Y-196000000D01*
X73000000Y-196750000D02*
X73000000Y-195250000D01*
X57003433Y-196394285D02*
G75*
G02*
X63000000Y-174000001I5996567J10394285D01*
G01*
X63000000Y-174000004D02*
G75*
G02*
X68996668Y-196394226I-2J-11999998D01*
G01*
%TO.C,H13*%
X76250000Y-196000000D02*
X77750000Y-196000000D01*
X79500002Y-186000000D02*
X75000000Y-186000000D01*
X80506990Y-182246229D02*
X76605715Y-180003433D01*
X80506990Y-189753772D02*
X76605773Y-191996669D01*
X83246228Y-179506990D02*
X81003331Y-175605773D01*
X83246229Y-192493010D02*
X81003433Y-196394285D01*
X87000000Y-178500000D02*
X87000000Y-174000000D01*
X90753771Y-179506990D02*
X92996567Y-175605715D01*
X90753772Y-192493010D02*
X92996669Y-196394227D01*
X93493010Y-182246228D02*
X97394227Y-180003331D01*
X93493010Y-189753771D02*
X97394285Y-191996567D01*
X94500000Y-186000000D02*
X99000000Y-186000000D01*
X96250000Y-196000000D02*
X97750000Y-196000000D01*
X97000000Y-196750000D02*
X97000000Y-195250000D01*
X81003433Y-196394285D02*
G75*
G02*
X87000000Y-174000001I5996567J10394285D01*
G01*
X87000000Y-174000004D02*
G75*
G02*
X92996668Y-196394226I-2J-11999998D01*
G01*
%TO.C,H7*%
X76250000Y-105250000D02*
X77750000Y-105250000D01*
X79500002Y-95250000D02*
X75000000Y-95250000D01*
X80506990Y-91496229D02*
X76605715Y-89253433D01*
X80506990Y-99003772D02*
X76605773Y-101246669D01*
X83246228Y-88756990D02*
X81003331Y-84855773D01*
X83246229Y-101743010D02*
X81003433Y-105644285D01*
X87000000Y-87750000D02*
X87000000Y-83250000D01*
X90753771Y-88756990D02*
X92996567Y-84855715D01*
X90753772Y-101743010D02*
X92996669Y-105644227D01*
X93493010Y-91496228D02*
X97394227Y-89253331D01*
X93493010Y-99003771D02*
X97394285Y-101246567D01*
X94500000Y-95250000D02*
X99000000Y-95250000D01*
X96250000Y-105250000D02*
X97750000Y-105250000D01*
X97000000Y-106000000D02*
X97000000Y-104500000D01*
X81003433Y-105644285D02*
G75*
G02*
X87000000Y-83250001I5996567J10394285D01*
G01*
X87000000Y-83250004D02*
G75*
G02*
X92996668Y-105644226I-2J-11999998D01*
G01*
%TO.C,H6*%
X52250000Y-105250000D02*
X53750000Y-105250000D01*
X55500002Y-95250000D02*
X51000000Y-95250000D01*
X56506990Y-91496229D02*
X52605715Y-89253433D01*
X56506990Y-99003772D02*
X52605773Y-101246669D01*
X59246228Y-88756990D02*
X57003331Y-84855773D01*
X59246229Y-101743010D02*
X57003433Y-105644285D01*
X63000000Y-87750000D02*
X63000000Y-83250000D01*
X66753771Y-88756990D02*
X68996567Y-84855715D01*
X66753772Y-101743010D02*
X68996669Y-105644227D01*
X69493010Y-91496228D02*
X73394227Y-89253331D01*
X69493010Y-99003771D02*
X73394285Y-101246567D01*
X70500000Y-95250000D02*
X75000000Y-95250000D01*
X72250000Y-105250000D02*
X73750000Y-105250000D01*
X73000000Y-106000000D02*
X73000000Y-104500000D01*
X57003433Y-105644285D02*
G75*
G02*
X63000000Y-83250001I5996567J10394285D01*
G01*
X63000000Y-83250004D02*
G75*
G02*
X68996668Y-105644226I-2J-11999998D01*
G01*
%TO.C,H5*%
X75500002Y-60000000D02*
X68000000Y-60000000D01*
X76506990Y-56246229D02*
X70007142Y-52504291D01*
X76506990Y-63753772D02*
X70007219Y-67495835D01*
X79246228Y-53506990D02*
X75504163Y-47007217D01*
X79246229Y-66493010D02*
X75504292Y-72992854D01*
X83000000Y-52500000D02*
X83000000Y-45000000D01*
X86753771Y-53506990D02*
X90495709Y-47007142D01*
X86753772Y-66493010D02*
X90495835Y-72992782D01*
X89493010Y-56246228D02*
X95992783Y-52504164D01*
X89493010Y-63753771D02*
X95992855Y-67495709D01*
X90500000Y-60000000D02*
X97999999Y-60000000D01*
D16*
%TO.C,H11*%
G36*
X52000000Y-69250000D02*
G01*
X52000000Y-69250000D01*
G75*
G03*
X58500000Y-75750000I6500000J0D01*
G01*
X53000000Y-75750000D01*
X52000000Y-74750000D01*
X52000000Y-69250000D01*
G37*
G36*
X58500000Y-62750000D02*
G01*
X58500000Y-62750000D01*
G75*
G03*
X52000000Y-69250000I0J-6500000D01*
G01*
X52000000Y-63750000D01*
X53000000Y-62750000D01*
X58500000Y-62750000D01*
G37*
G36*
X65000000Y-74750000D02*
G01*
X64000000Y-75750000D01*
X58500000Y-75750000D01*
G75*
G03*
X65000000Y-69250000I0J6500000D01*
G01*
X65000000Y-74750000D01*
G37*
G36*
X65000000Y-63750000D02*
G01*
X65000000Y-69250000D01*
G75*
G03*
X58500000Y-62750000I-6500000J0D01*
G01*
X64000000Y-62750000D01*
X65000000Y-63750000D01*
G37*
%TO.C,H16*%
G36*
X52000000Y-160000000D02*
G01*
X52000000Y-160000000D01*
G75*
G03*
X58500000Y-166500000I6500000J0D01*
G01*
X53000000Y-166500000D01*
X52000000Y-165500000D01*
X52000000Y-160000000D01*
G37*
G36*
X58500000Y-153500000D02*
G01*
X58500000Y-153500000D01*
G75*
G03*
X52000000Y-160000000I0J-6500000D01*
G01*
X52000000Y-154500000D01*
X53000000Y-153500000D01*
X58500000Y-153500000D01*
G37*
G36*
X65000000Y-165500000D02*
G01*
X64000000Y-166500000D01*
X58500000Y-166500000D01*
G75*
G03*
X65000000Y-160000000I0J6500000D01*
G01*
X65000000Y-165500000D01*
G37*
G36*
X65000000Y-154500000D02*
G01*
X65000000Y-160000000D01*
G75*
G03*
X58500000Y-153500000I-6500000J0D01*
G01*
X64000000Y-153500000D01*
X65000000Y-154500000D01*
G37*
D15*
%TO.C,H12*%
X75500002Y-150750000D02*
X68000000Y-150750000D01*
X76506990Y-146996229D02*
X70007142Y-143254291D01*
X76506990Y-154503772D02*
X70007219Y-158245835D01*
X79246228Y-144256990D02*
X75504163Y-137757217D01*
X79246229Y-157243010D02*
X75504292Y-163742854D01*
X83000000Y-143250000D02*
X83000000Y-135750000D01*
X86753771Y-144256990D02*
X90495709Y-137757142D01*
X86753772Y-157243010D02*
X90495835Y-163742782D01*
X89493010Y-146996228D02*
X95992783Y-143254164D01*
X89493010Y-154503771D02*
X95992855Y-158245709D01*
X90500000Y-150750000D02*
X97999999Y-150750000D01*
%TD*%
%LPC*%
D17*
%TO.C,H14*%
X63000000Y-186000000D03*
%TD*%
%TO.C,H13*%
X87000000Y-186000000D03*
%TD*%
%TO.C,H7*%
X87000000Y-95250000D03*
%TD*%
%TO.C,H6*%
X63000000Y-95250000D03*
%TD*%
D18*
%TO.C,H9*%
X57300000Y-118000000D03*
X58960000Y-113970000D03*
X58970000Y-122040000D03*
X63000000Y-112300000D03*
D17*
X63000000Y-118000000D03*
D18*
X63000000Y-123700000D03*
X67030000Y-122040000D03*
X67040000Y-113970000D03*
X68700000Y-118000000D03*
%TD*%
D19*
%TO.C,H3*%
X53500000Y-226500000D03*
%TD*%
D18*
%TO.C,H8*%
X52800000Y-50750000D03*
X54460000Y-46720000D03*
X54470000Y-54790000D03*
X58500000Y-45050000D03*
D17*
X58500000Y-50750000D03*
D18*
X58500000Y-56450000D03*
X62530000Y-54790000D03*
X62540000Y-46720000D03*
X64200000Y-50750000D03*
%TD*%
%TO.C,H15*%
X52800000Y-141500000D03*
X54460000Y-137470000D03*
X54470000Y-145540000D03*
X58500000Y-135800000D03*
D17*
X58500000Y-141500000D03*
D18*
X58500000Y-147200000D03*
X62530000Y-145540000D03*
X62540000Y-137470000D03*
X64200000Y-141500000D03*
%TD*%
%TO.C,H17*%
X57300000Y-208750000D03*
X58960000Y-204720000D03*
X58970000Y-212790000D03*
X63000000Y-203050000D03*
D17*
X63000000Y-208750000D03*
D18*
X63000000Y-214450000D03*
X67030000Y-212790000D03*
X67040000Y-204720000D03*
X68700000Y-208750000D03*
%TD*%
%TO.C,H10*%
X81300000Y-118000000D03*
X82960000Y-113970000D03*
X82970000Y-122040000D03*
X87000000Y-112300000D03*
D17*
X87000000Y-118000000D03*
D18*
X87000000Y-123700000D03*
X91030000Y-122040000D03*
X91040000Y-113970000D03*
X92700000Y-118000000D03*
%TD*%
D17*
%TO.C,H5*%
X83000000Y-60000000D03*
D20*
X83000000Y-66000000D03*
%TD*%
D18*
%TO.C,H11*%
X52800000Y-69250000D03*
X54460000Y-65220000D03*
X54470000Y-73290000D03*
X58500000Y-63550000D03*
D17*
X58500000Y-69250000D03*
D18*
X58500000Y-74950000D03*
X62530000Y-73290000D03*
X62540000Y-65220000D03*
X64200000Y-69250000D03*
%TD*%
D19*
%TO.C,H2*%
X96500000Y-33500000D03*
%TD*%
%TO.C,H4*%
X96500000Y-226500000D03*
%TD*%
D18*
%TO.C,H18*%
X81300000Y-208750000D03*
X82960000Y-204720000D03*
X82970000Y-212790000D03*
X87000000Y-203050000D03*
D17*
X87000000Y-208750000D03*
D18*
X87000000Y-214450000D03*
X91030000Y-212790000D03*
X91040000Y-204720000D03*
X92700000Y-208750000D03*
%TD*%
D19*
%TO.C,H1*%
X53500000Y-33500000D03*
%TD*%
D18*
%TO.C,H16*%
X52800000Y-160000000D03*
X54460000Y-155970000D03*
X54470000Y-164040000D03*
X58500000Y-154300000D03*
D17*
X58500000Y-160000000D03*
D18*
X58500000Y-165700000D03*
X62530000Y-164040000D03*
X62540000Y-155970000D03*
X64200000Y-160000000D03*
%TD*%
D17*
%TO.C,H12*%
X83000000Y-150750000D03*
D20*
X83000000Y-156750000D03*
%TD*%
%LPD*%
M02*
