%TF.GenerationSoftware,KiCad,Pcbnew,9.0.0*%
%TF.CreationDate,2025-03-16T11:37:10+01:00*%
%TF.ProjectId,DMH_Transistor_VCA_PANEL,444d485f-5472-4616-9e73-6973746f725f,rev?*%
%TF.SameCoordinates,Original*%
%TF.FileFunction,Drillmap*%
%TF.FilePolarity,Positive*%
%FSLAX45Y45*%
G04 Gerber Fmt 4.5, Leading zero omitted, Abs format (unit mm)*
G04 Created by KiCad (PCBNEW 9.0.0) date 2025-03-16 11:37:10*
%MOMM*%
%LPD*%
G01*
G04 APERTURE LIST*
%ADD10C,0.050000*%
%ADD11C,0.200000*%
%ADD12C,0.100000*%
%ADD13C,0.320000*%
G04 APERTURE END LIST*
D10*
X5000000Y-3000000D02*
X10000000Y-3000000D01*
X10000000Y-23000000D01*
X5000000Y-23000000D01*
X5000000Y-3000000D01*
X6750000Y-18600000D02*
G75*
G02*
X5850000Y-18600000I-450000J0D01*
G01*
X5850000Y-18600000D02*
G75*
G02*
X6750000Y-18600000I450000J0D01*
G01*
X9150000Y-18600000D02*
G75*
G02*
X8250000Y-18600000I-450000J0D01*
G01*
X8250000Y-18600000D02*
G75*
G02*
X9150000Y-18600000I450000J0D01*
G01*
X9150000Y-9525000D02*
G75*
G02*
X8250000Y-9525000I-450000J0D01*
G01*
X8250000Y-9525000D02*
G75*
G02*
X9150000Y-9525000I450000J0D01*
G01*
X6750000Y-9525000D02*
G75*
G02*
X5850000Y-9525000I-450000J0D01*
G01*
X5850000Y-9525000D02*
G75*
G02*
X6750000Y-9525000I450000J0D01*
G01*
X6790000Y-11800000D02*
G75*
G02*
X5810000Y-11800000I-490000J0D01*
G01*
X5810000Y-11800000D02*
G75*
G02*
X6790000Y-11800000I490000J0D01*
G01*
X6340000Y-5075000D02*
G75*
G02*
X5360000Y-5075000I-490000J0D01*
G01*
X5360000Y-5075000D02*
G75*
G02*
X6340000Y-5075000I490000J0D01*
G01*
X6340000Y-14150000D02*
G75*
G02*
X5360000Y-14150000I-490000J0D01*
G01*
X5360000Y-14150000D02*
G75*
G02*
X6340000Y-14150000I490000J0D01*
G01*
X6790000Y-20875000D02*
G75*
G02*
X5810000Y-20875000I-490000J0D01*
G01*
X5810000Y-20875000D02*
G75*
G02*
X6790000Y-20875000I490000J0D01*
G01*
X9190000Y-11800000D02*
G75*
G02*
X8210000Y-11800000I-490000J0D01*
G01*
X8210000Y-11800000D02*
G75*
G02*
X9190000Y-11800000I490000J0D01*
G01*
X8650000Y-6000000D02*
G75*
G02*
X7950000Y-6000000I-350000J0D01*
G01*
X7950000Y-6000000D02*
G75*
G02*
X8650000Y-6000000I350000J0D01*
G01*
X6340000Y-6925000D02*
G75*
G02*
X5360000Y-6925000I-490000J0D01*
G01*
X5360000Y-6925000D02*
G75*
G02*
X6340000Y-6925000I490000J0D01*
G01*
X9190000Y-20875000D02*
G75*
G02*
X8210000Y-20875000I-490000J0D01*
G01*
X8210000Y-20875000D02*
G75*
G02*
X9190000Y-20875000I490000J0D01*
G01*
X6340000Y-16000000D02*
G75*
G02*
X5360000Y-16000000I-490000J0D01*
G01*
X5360000Y-16000000D02*
G75*
G02*
X6340000Y-16000000I490000J0D01*
G01*
X8650000Y-15075000D02*
G75*
G02*
X7950000Y-15075000I-350000J0D01*
G01*
X7950000Y-15075000D02*
G75*
G02*
X8650000Y-15075000I350000J0D01*
G01*
D11*
D12*
X5265000Y-5060000D02*
X5295000Y-5090000D01*
X5295000Y-5060000D02*
X5265000Y-5090000D01*
X5265000Y-6910000D02*
X5295000Y-6940000D01*
X5295000Y-6910000D02*
X5265000Y-6940000D01*
X5265000Y-14135000D02*
X5295000Y-14165000D01*
X5295000Y-14135000D02*
X5265000Y-14165000D01*
X5265000Y-15985000D02*
X5295000Y-16015000D01*
X5295000Y-15985000D02*
X5265000Y-16015000D01*
X5431000Y-4657000D02*
X5461000Y-4687000D01*
X5461000Y-4657000D02*
X5431000Y-4687000D01*
X5431000Y-6507000D02*
X5461000Y-6537000D01*
X5461000Y-6507000D02*
X5431000Y-6537000D01*
X5431000Y-13732000D02*
X5461000Y-13762000D01*
X5461000Y-13732000D02*
X5431000Y-13762000D01*
X5431000Y-15582000D02*
X5461000Y-15612000D01*
X5461000Y-15582000D02*
X5431000Y-15612000D01*
X5432000Y-5464000D02*
X5462000Y-5494000D01*
X5462000Y-5464000D02*
X5432000Y-5494000D01*
X5432000Y-7314000D02*
X5462000Y-7344000D01*
X5462000Y-7314000D02*
X5432000Y-7344000D01*
X5432000Y-14539000D02*
X5462000Y-14569000D01*
X5462000Y-14539000D02*
X5432000Y-14569000D01*
X5432000Y-16389000D02*
X5462000Y-16419000D01*
X5462000Y-16389000D02*
X5432000Y-16419000D01*
X5715000Y-11785000D02*
X5745000Y-11815000D01*
X5745000Y-11785000D02*
X5715000Y-11815000D01*
X5715000Y-20860000D02*
X5745000Y-20890000D01*
X5745000Y-20860000D02*
X5715000Y-20890000D01*
X5835000Y-4490000D02*
X5865000Y-4520000D01*
X5865000Y-4490000D02*
X5835000Y-4520000D01*
X5835000Y-5630000D02*
X5865000Y-5660000D01*
X5865000Y-5630000D02*
X5835000Y-5660000D01*
X5835000Y-6340000D02*
X5865000Y-6370000D01*
X5865000Y-6340000D02*
X5835000Y-6370000D01*
X5835000Y-7480000D02*
X5865000Y-7510000D01*
X5865000Y-7480000D02*
X5835000Y-7510000D01*
X5835000Y-13565000D02*
X5865000Y-13595000D01*
X5865000Y-13565000D02*
X5835000Y-13595000D01*
X5835000Y-14705000D02*
X5865000Y-14735000D01*
X5865000Y-14705000D02*
X5835000Y-14735000D01*
X5835000Y-15415000D02*
X5865000Y-15445000D01*
X5865000Y-15415000D02*
X5835000Y-15445000D01*
X5835000Y-16555000D02*
X5865000Y-16585000D01*
X5865000Y-16555000D02*
X5835000Y-16585000D01*
X5881000Y-11382000D02*
X5911000Y-11412000D01*
X5911000Y-11382000D02*
X5881000Y-11412000D01*
X5881000Y-20457000D02*
X5911000Y-20487000D01*
X5911000Y-20457000D02*
X5881000Y-20487000D01*
X5882000Y-12189000D02*
X5912000Y-12219000D01*
X5912000Y-12189000D02*
X5882000Y-12219000D01*
X5882000Y-21264000D02*
X5912000Y-21294000D01*
X5912000Y-21264000D02*
X5882000Y-21294000D01*
X6238000Y-5464000D02*
X6268000Y-5494000D01*
X6268000Y-5464000D02*
X6238000Y-5494000D01*
X6238000Y-7314000D02*
X6268000Y-7344000D01*
X6268000Y-7314000D02*
X6238000Y-7344000D01*
X6238000Y-14539000D02*
X6268000Y-14569000D01*
X6268000Y-14539000D02*
X6238000Y-14569000D01*
X6238000Y-16389000D02*
X6268000Y-16419000D01*
X6268000Y-16389000D02*
X6238000Y-16419000D01*
X6239000Y-4657000D02*
X6269000Y-4687000D01*
X6269000Y-4657000D02*
X6239000Y-4687000D01*
X6239000Y-6507000D02*
X6269000Y-6537000D01*
X6269000Y-6507000D02*
X6239000Y-6537000D01*
X6239000Y-13732000D02*
X6269000Y-13762000D01*
X6269000Y-13732000D02*
X6239000Y-13762000D01*
X6239000Y-15582000D02*
X6269000Y-15612000D01*
X6269000Y-15582000D02*
X6239000Y-15612000D01*
X6285000Y-11215000D02*
X6315000Y-11245000D01*
X6315000Y-11215000D02*
X6285000Y-11245000D01*
X6285000Y-12355000D02*
X6315000Y-12385000D01*
X6315000Y-12355000D02*
X6285000Y-12385000D01*
X6285000Y-20290000D02*
X6315000Y-20320000D01*
X6315000Y-20290000D02*
X6285000Y-20320000D01*
X6285000Y-21430000D02*
X6315000Y-21460000D01*
X6315000Y-21430000D02*
X6285000Y-21460000D01*
X6405000Y-5060000D02*
X6435000Y-5090000D01*
X6435000Y-5060000D02*
X6405000Y-5090000D01*
X6405000Y-6910000D02*
X6435000Y-6940000D01*
X6435000Y-6910000D02*
X6405000Y-6940000D01*
X6405000Y-14135000D02*
X6435000Y-14165000D01*
X6435000Y-14135000D02*
X6405000Y-14165000D01*
X6405000Y-15985000D02*
X6435000Y-16015000D01*
X6435000Y-15985000D02*
X6405000Y-16015000D01*
X6688000Y-12189000D02*
X6718000Y-12219000D01*
X6718000Y-12189000D02*
X6688000Y-12219000D01*
X6688000Y-21264000D02*
X6718000Y-21294000D01*
X6718000Y-21264000D02*
X6688000Y-21294000D01*
X6689000Y-11382000D02*
X6719000Y-11412000D01*
X6719000Y-11382000D02*
X6689000Y-11412000D01*
X6689000Y-20457000D02*
X6719000Y-20487000D01*
X6719000Y-20457000D02*
X6689000Y-20487000D01*
X6855000Y-11785000D02*
X6885000Y-11815000D01*
X6885000Y-11785000D02*
X6855000Y-11815000D01*
X6855000Y-20860000D02*
X6885000Y-20890000D01*
X6885000Y-20860000D02*
X6855000Y-20890000D01*
X8115000Y-11785000D02*
X8145000Y-11815000D01*
X8145000Y-11785000D02*
X8115000Y-11815000D01*
X8115000Y-20860000D02*
X8145000Y-20890000D01*
X8145000Y-20860000D02*
X8115000Y-20890000D01*
X8281000Y-11382000D02*
X8311000Y-11412000D01*
X8311000Y-11382000D02*
X8281000Y-11412000D01*
X8281000Y-20457000D02*
X8311000Y-20487000D01*
X8311000Y-20457000D02*
X8281000Y-20487000D01*
X8282000Y-12189000D02*
X8312000Y-12219000D01*
X8312000Y-12189000D02*
X8282000Y-12219000D01*
X8282000Y-21264000D02*
X8312000Y-21294000D01*
X8312000Y-21264000D02*
X8282000Y-21294000D01*
X8685000Y-11215000D02*
X8715000Y-11245000D01*
X8715000Y-11215000D02*
X8685000Y-11245000D01*
X8685000Y-12355000D02*
X8715000Y-12385000D01*
X8715000Y-12355000D02*
X8685000Y-12385000D01*
X8685000Y-20290000D02*
X8715000Y-20320000D01*
X8715000Y-20290000D02*
X8685000Y-20320000D01*
X8685000Y-21430000D02*
X8715000Y-21460000D01*
X8715000Y-21430000D02*
X8685000Y-21460000D01*
X9088000Y-12189000D02*
X9118000Y-12219000D01*
X9118000Y-12189000D02*
X9088000Y-12219000D01*
X9088000Y-21264000D02*
X9118000Y-21294000D01*
X9118000Y-21264000D02*
X9088000Y-21294000D01*
X9089000Y-11382000D02*
X9119000Y-11412000D01*
X9119000Y-11382000D02*
X9089000Y-11412000D01*
X9089000Y-20457000D02*
X9119000Y-20487000D01*
X9119000Y-20457000D02*
X9089000Y-20487000D01*
X9255000Y-11785000D02*
X9285000Y-11815000D01*
X9285000Y-11785000D02*
X9255000Y-11815000D01*
X9255000Y-20860000D02*
X9285000Y-20890000D01*
X9285000Y-20860000D02*
X9255000Y-20890000D01*
X8350000Y-6600000D02*
G75*
G02*
X8250000Y-6600000I-50000J0D01*
G01*
X8250000Y-6600000D02*
G75*
G02*
X8350000Y-6600000I50000J0D01*
G01*
X8250000Y-6650000D02*
X8350000Y-6650000D01*
X8350000Y-6550000D02*
G75*
G02*
X8350000Y-6650000I0J-50000D01*
G01*
X8350000Y-6550000D02*
X8250000Y-6550000D01*
X8250000Y-6550000D02*
G75*
G03*
X8250000Y-6650000I0J-50000D01*
G01*
X8350000Y-15675000D02*
G75*
G02*
X8250000Y-15675000I-50000J0D01*
G01*
X8250000Y-15675000D02*
G75*
G02*
X8350000Y-15675000I50000J0D01*
G01*
X8250000Y-15725000D02*
X8350000Y-15725000D01*
X8350000Y-15625000D02*
G75*
G02*
X8350000Y-15725000I0J-50000D01*
G01*
X8350000Y-15625000D02*
X8250000Y-15625000D01*
X8250000Y-15625000D02*
G75*
G03*
X8250000Y-15725000I0J-50000D01*
G01*
D13*
X5350000Y-3190000D02*
X5350000Y-3510000D01*
X5190000Y-3350000D02*
X5510000Y-3350000D01*
X5350000Y-22490000D02*
X5350000Y-22810000D01*
X5190000Y-22650000D02*
X5510000Y-22650000D01*
X9650000Y-3190000D02*
X9650000Y-3510000D01*
X9490000Y-3350000D02*
X9810000Y-3350000D01*
X9650000Y-22490000D02*
X9650000Y-22810000D01*
X9490000Y-22650000D02*
X9810000Y-22650000D01*
D11*
X5258277Y-23313984D02*
X5258277Y-23113984D01*
X5258277Y-23113984D02*
X5305896Y-23113984D01*
X5305896Y-23113984D02*
X5334467Y-23123508D01*
X5334467Y-23123508D02*
X5353515Y-23142555D01*
X5353515Y-23142555D02*
X5363039Y-23161603D01*
X5363039Y-23161603D02*
X5372563Y-23199698D01*
X5372563Y-23199698D02*
X5372563Y-23228269D01*
X5372563Y-23228269D02*
X5363039Y-23266365D01*
X5363039Y-23266365D02*
X5353515Y-23285412D01*
X5353515Y-23285412D02*
X5334467Y-23304460D01*
X5334467Y-23304460D02*
X5305896Y-23313984D01*
X5305896Y-23313984D02*
X5258277Y-23313984D01*
X5458277Y-23313984D02*
X5458277Y-23180650D01*
X5458277Y-23218746D02*
X5467801Y-23199698D01*
X5467801Y-23199698D02*
X5477324Y-23190174D01*
X5477324Y-23190174D02*
X5496372Y-23180650D01*
X5496372Y-23180650D02*
X5515420Y-23180650D01*
X5582086Y-23313984D02*
X5582086Y-23180650D01*
X5582086Y-23113984D02*
X5572563Y-23123508D01*
X5572563Y-23123508D02*
X5582086Y-23133031D01*
X5582086Y-23133031D02*
X5591610Y-23123508D01*
X5591610Y-23123508D02*
X5582086Y-23113984D01*
X5582086Y-23113984D02*
X5582086Y-23133031D01*
X5705896Y-23313984D02*
X5686848Y-23304460D01*
X5686848Y-23304460D02*
X5677324Y-23285412D01*
X5677324Y-23285412D02*
X5677324Y-23113984D01*
X5810658Y-23313984D02*
X5791610Y-23304460D01*
X5791610Y-23304460D02*
X5782086Y-23285412D01*
X5782086Y-23285412D02*
X5782086Y-23113984D01*
X6039229Y-23313984D02*
X6039229Y-23113984D01*
X6039229Y-23113984D02*
X6105896Y-23256841D01*
X6105896Y-23256841D02*
X6172562Y-23113984D01*
X6172562Y-23113984D02*
X6172562Y-23313984D01*
X6353515Y-23313984D02*
X6353515Y-23209222D01*
X6353515Y-23209222D02*
X6343991Y-23190174D01*
X6343991Y-23190174D02*
X6324943Y-23180650D01*
X6324943Y-23180650D02*
X6286848Y-23180650D01*
X6286848Y-23180650D02*
X6267801Y-23190174D01*
X6353515Y-23304460D02*
X6334467Y-23313984D01*
X6334467Y-23313984D02*
X6286848Y-23313984D01*
X6286848Y-23313984D02*
X6267801Y-23304460D01*
X6267801Y-23304460D02*
X6258277Y-23285412D01*
X6258277Y-23285412D02*
X6258277Y-23266365D01*
X6258277Y-23266365D02*
X6267801Y-23247317D01*
X6267801Y-23247317D02*
X6286848Y-23237793D01*
X6286848Y-23237793D02*
X6334467Y-23237793D01*
X6334467Y-23237793D02*
X6353515Y-23228269D01*
X6448753Y-23180650D02*
X6448753Y-23380650D01*
X6448753Y-23190174D02*
X6467801Y-23180650D01*
X6467801Y-23180650D02*
X6505896Y-23180650D01*
X6505896Y-23180650D02*
X6524943Y-23190174D01*
X6524943Y-23190174D02*
X6534467Y-23199698D01*
X6534467Y-23199698D02*
X6543991Y-23218746D01*
X6543991Y-23218746D02*
X6543991Y-23275888D01*
X6543991Y-23275888D02*
X6534467Y-23294936D01*
X6534467Y-23294936D02*
X6524943Y-23304460D01*
X6524943Y-23304460D02*
X6505896Y-23313984D01*
X6505896Y-23313984D02*
X6467801Y-23313984D01*
X6467801Y-23313984D02*
X6448753Y-23304460D01*
X6629705Y-23294936D02*
X6639229Y-23304460D01*
X6639229Y-23304460D02*
X6629705Y-23313984D01*
X6629705Y-23313984D02*
X6620182Y-23304460D01*
X6620182Y-23304460D02*
X6629705Y-23294936D01*
X6629705Y-23294936D02*
X6629705Y-23313984D01*
X6629705Y-23190174D02*
X6639229Y-23199698D01*
X6639229Y-23199698D02*
X6629705Y-23209222D01*
X6629705Y-23209222D02*
X6620182Y-23199698D01*
X6620182Y-23199698D02*
X6629705Y-23190174D01*
X6629705Y-23190174D02*
X6629705Y-23209222D01*
D12*
X4967500Y-23627500D02*
X4997500Y-23657500D01*
X4997500Y-23627500D02*
X4967500Y-23657500D01*
D11*
X5296372Y-23533984D02*
X5315420Y-23533984D01*
X5315420Y-23533984D02*
X5334467Y-23543508D01*
X5334467Y-23543508D02*
X5343991Y-23553031D01*
X5343991Y-23553031D02*
X5353515Y-23572079D01*
X5353515Y-23572079D02*
X5363039Y-23610174D01*
X5363039Y-23610174D02*
X5363039Y-23657793D01*
X5363039Y-23657793D02*
X5353515Y-23695888D01*
X5353515Y-23695888D02*
X5343991Y-23714936D01*
X5343991Y-23714936D02*
X5334467Y-23724460D01*
X5334467Y-23724460D02*
X5315420Y-23733984D01*
X5315420Y-23733984D02*
X5296372Y-23733984D01*
X5296372Y-23733984D02*
X5277324Y-23724460D01*
X5277324Y-23724460D02*
X5267801Y-23714936D01*
X5267801Y-23714936D02*
X5258277Y-23695888D01*
X5258277Y-23695888D02*
X5248753Y-23657793D01*
X5248753Y-23657793D02*
X5248753Y-23610174D01*
X5248753Y-23610174D02*
X5258277Y-23572079D01*
X5258277Y-23572079D02*
X5267801Y-23553031D01*
X5267801Y-23553031D02*
X5277324Y-23543508D01*
X5277324Y-23543508D02*
X5296372Y-23533984D01*
X5448753Y-23714936D02*
X5458277Y-23724460D01*
X5458277Y-23724460D02*
X5448753Y-23733984D01*
X5448753Y-23733984D02*
X5439229Y-23724460D01*
X5439229Y-23724460D02*
X5448753Y-23714936D01*
X5448753Y-23714936D02*
X5448753Y-23733984D01*
X5524944Y-23533984D02*
X5648753Y-23533984D01*
X5648753Y-23533984D02*
X5582086Y-23610174D01*
X5582086Y-23610174D02*
X5610658Y-23610174D01*
X5610658Y-23610174D02*
X5629705Y-23619698D01*
X5629705Y-23619698D02*
X5639229Y-23629222D01*
X5639229Y-23629222D02*
X5648753Y-23648269D01*
X5648753Y-23648269D02*
X5648753Y-23695888D01*
X5648753Y-23695888D02*
X5639229Y-23714936D01*
X5639229Y-23714936D02*
X5629705Y-23724460D01*
X5629705Y-23724460D02*
X5610658Y-23733984D01*
X5610658Y-23733984D02*
X5553515Y-23733984D01*
X5553515Y-23733984D02*
X5534467Y-23724460D01*
X5534467Y-23724460D02*
X5524944Y-23714936D01*
X5772562Y-23533984D02*
X5791610Y-23533984D01*
X5791610Y-23533984D02*
X5810658Y-23543508D01*
X5810658Y-23543508D02*
X5820182Y-23553031D01*
X5820182Y-23553031D02*
X5829705Y-23572079D01*
X5829705Y-23572079D02*
X5839229Y-23610174D01*
X5839229Y-23610174D02*
X5839229Y-23657793D01*
X5839229Y-23657793D02*
X5829705Y-23695888D01*
X5829705Y-23695888D02*
X5820182Y-23714936D01*
X5820182Y-23714936D02*
X5810658Y-23724460D01*
X5810658Y-23724460D02*
X5791610Y-23733984D01*
X5791610Y-23733984D02*
X5772562Y-23733984D01*
X5772562Y-23733984D02*
X5753515Y-23724460D01*
X5753515Y-23724460D02*
X5743991Y-23714936D01*
X5743991Y-23714936D02*
X5734467Y-23695888D01*
X5734467Y-23695888D02*
X5724943Y-23657793D01*
X5724943Y-23657793D02*
X5724943Y-23610174D01*
X5724943Y-23610174D02*
X5734467Y-23572079D01*
X5734467Y-23572079D02*
X5743991Y-23553031D01*
X5743991Y-23553031D02*
X5753515Y-23543508D01*
X5753515Y-23543508D02*
X5772562Y-23533984D01*
X5963039Y-23533984D02*
X5982086Y-23533984D01*
X5982086Y-23533984D02*
X6001134Y-23543508D01*
X6001134Y-23543508D02*
X6010658Y-23553031D01*
X6010658Y-23553031D02*
X6020182Y-23572079D01*
X6020182Y-23572079D02*
X6029705Y-23610174D01*
X6029705Y-23610174D02*
X6029705Y-23657793D01*
X6029705Y-23657793D02*
X6020182Y-23695888D01*
X6020182Y-23695888D02*
X6010658Y-23714936D01*
X6010658Y-23714936D02*
X6001134Y-23724460D01*
X6001134Y-23724460D02*
X5982086Y-23733984D01*
X5982086Y-23733984D02*
X5963039Y-23733984D01*
X5963039Y-23733984D02*
X5943991Y-23724460D01*
X5943991Y-23724460D02*
X5934467Y-23714936D01*
X5934467Y-23714936D02*
X5924943Y-23695888D01*
X5924943Y-23695888D02*
X5915420Y-23657793D01*
X5915420Y-23657793D02*
X5915420Y-23610174D01*
X5915420Y-23610174D02*
X5924943Y-23572079D01*
X5924943Y-23572079D02*
X5934467Y-23553031D01*
X5934467Y-23553031D02*
X5943991Y-23543508D01*
X5943991Y-23543508D02*
X5963039Y-23533984D01*
X6115420Y-23733984D02*
X6115420Y-23600650D01*
X6115420Y-23619698D02*
X6124943Y-23610174D01*
X6124943Y-23610174D02*
X6143991Y-23600650D01*
X6143991Y-23600650D02*
X6172563Y-23600650D01*
X6172563Y-23600650D02*
X6191610Y-23610174D01*
X6191610Y-23610174D02*
X6201134Y-23629222D01*
X6201134Y-23629222D02*
X6201134Y-23733984D01*
X6201134Y-23629222D02*
X6210658Y-23610174D01*
X6210658Y-23610174D02*
X6229705Y-23600650D01*
X6229705Y-23600650D02*
X6258277Y-23600650D01*
X6258277Y-23600650D02*
X6277324Y-23610174D01*
X6277324Y-23610174D02*
X6286848Y-23629222D01*
X6286848Y-23629222D02*
X6286848Y-23733984D01*
X6382086Y-23733984D02*
X6382086Y-23600650D01*
X6382086Y-23619698D02*
X6391610Y-23610174D01*
X6391610Y-23610174D02*
X6410658Y-23600650D01*
X6410658Y-23600650D02*
X6439229Y-23600650D01*
X6439229Y-23600650D02*
X6458277Y-23610174D01*
X6458277Y-23610174D02*
X6467801Y-23629222D01*
X6467801Y-23629222D02*
X6467801Y-23733984D01*
X6467801Y-23629222D02*
X6477324Y-23610174D01*
X6477324Y-23610174D02*
X6496372Y-23600650D01*
X6496372Y-23600650D02*
X6524943Y-23600650D01*
X6524943Y-23600650D02*
X6543991Y-23610174D01*
X6543991Y-23610174D02*
X6553515Y-23629222D01*
X6553515Y-23629222D02*
X6553515Y-23733984D01*
X6943991Y-23524460D02*
X6772563Y-23781603D01*
X7201134Y-23533984D02*
X7220182Y-23533984D01*
X7220182Y-23533984D02*
X7239229Y-23543508D01*
X7239229Y-23543508D02*
X7248753Y-23553031D01*
X7248753Y-23553031D02*
X7258277Y-23572079D01*
X7258277Y-23572079D02*
X7267801Y-23610174D01*
X7267801Y-23610174D02*
X7267801Y-23657793D01*
X7267801Y-23657793D02*
X7258277Y-23695888D01*
X7258277Y-23695888D02*
X7248753Y-23714936D01*
X7248753Y-23714936D02*
X7239229Y-23724460D01*
X7239229Y-23724460D02*
X7220182Y-23733984D01*
X7220182Y-23733984D02*
X7201134Y-23733984D01*
X7201134Y-23733984D02*
X7182086Y-23724460D01*
X7182086Y-23724460D02*
X7172563Y-23714936D01*
X7172563Y-23714936D02*
X7163039Y-23695888D01*
X7163039Y-23695888D02*
X7153515Y-23657793D01*
X7153515Y-23657793D02*
X7153515Y-23610174D01*
X7153515Y-23610174D02*
X7163039Y-23572079D01*
X7163039Y-23572079D02*
X7172563Y-23553031D01*
X7172563Y-23553031D02*
X7182086Y-23543508D01*
X7182086Y-23543508D02*
X7201134Y-23533984D01*
X7353515Y-23714936D02*
X7363039Y-23724460D01*
X7363039Y-23724460D02*
X7353515Y-23733984D01*
X7353515Y-23733984D02*
X7343991Y-23724460D01*
X7343991Y-23724460D02*
X7353515Y-23714936D01*
X7353515Y-23714936D02*
X7353515Y-23733984D01*
X7486848Y-23533984D02*
X7505896Y-23533984D01*
X7505896Y-23533984D02*
X7524944Y-23543508D01*
X7524944Y-23543508D02*
X7534467Y-23553031D01*
X7534467Y-23553031D02*
X7543991Y-23572079D01*
X7543991Y-23572079D02*
X7553515Y-23610174D01*
X7553515Y-23610174D02*
X7553515Y-23657793D01*
X7553515Y-23657793D02*
X7543991Y-23695888D01*
X7543991Y-23695888D02*
X7534467Y-23714936D01*
X7534467Y-23714936D02*
X7524944Y-23724460D01*
X7524944Y-23724460D02*
X7505896Y-23733984D01*
X7505896Y-23733984D02*
X7486848Y-23733984D01*
X7486848Y-23733984D02*
X7467801Y-23724460D01*
X7467801Y-23724460D02*
X7458277Y-23714936D01*
X7458277Y-23714936D02*
X7448753Y-23695888D01*
X7448753Y-23695888D02*
X7439229Y-23657793D01*
X7439229Y-23657793D02*
X7439229Y-23610174D01*
X7439229Y-23610174D02*
X7448753Y-23572079D01*
X7448753Y-23572079D02*
X7458277Y-23553031D01*
X7458277Y-23553031D02*
X7467801Y-23543508D01*
X7467801Y-23543508D02*
X7486848Y-23533984D01*
X7743991Y-23733984D02*
X7629706Y-23733984D01*
X7686848Y-23733984D02*
X7686848Y-23533984D01*
X7686848Y-23533984D02*
X7667801Y-23562555D01*
X7667801Y-23562555D02*
X7648753Y-23581603D01*
X7648753Y-23581603D02*
X7629706Y-23591127D01*
X7934467Y-23733984D02*
X7820182Y-23733984D01*
X7877325Y-23733984D02*
X7877325Y-23533984D01*
X7877325Y-23533984D02*
X7858277Y-23562555D01*
X7858277Y-23562555D02*
X7839229Y-23581603D01*
X7839229Y-23581603D02*
X7820182Y-23591127D01*
X8048753Y-23619698D02*
X8029706Y-23610174D01*
X8029706Y-23610174D02*
X8020182Y-23600650D01*
X8020182Y-23600650D02*
X8010658Y-23581603D01*
X8010658Y-23581603D02*
X8010658Y-23572079D01*
X8010658Y-23572079D02*
X8020182Y-23553031D01*
X8020182Y-23553031D02*
X8029706Y-23543508D01*
X8029706Y-23543508D02*
X8048753Y-23533984D01*
X8048753Y-23533984D02*
X8086848Y-23533984D01*
X8086848Y-23533984D02*
X8105896Y-23543508D01*
X8105896Y-23543508D02*
X8115420Y-23553031D01*
X8115420Y-23553031D02*
X8124944Y-23572079D01*
X8124944Y-23572079D02*
X8124944Y-23581603D01*
X8124944Y-23581603D02*
X8115420Y-23600650D01*
X8115420Y-23600650D02*
X8105896Y-23610174D01*
X8105896Y-23610174D02*
X8086848Y-23619698D01*
X8086848Y-23619698D02*
X8048753Y-23619698D01*
X8048753Y-23619698D02*
X8029706Y-23629222D01*
X8029706Y-23629222D02*
X8020182Y-23638746D01*
X8020182Y-23638746D02*
X8010658Y-23657793D01*
X8010658Y-23657793D02*
X8010658Y-23695888D01*
X8010658Y-23695888D02*
X8020182Y-23714936D01*
X8020182Y-23714936D02*
X8029706Y-23724460D01*
X8029706Y-23724460D02*
X8048753Y-23733984D01*
X8048753Y-23733984D02*
X8086848Y-23733984D01*
X8086848Y-23733984D02*
X8105896Y-23724460D01*
X8105896Y-23724460D02*
X8115420Y-23714936D01*
X8115420Y-23714936D02*
X8124944Y-23695888D01*
X8124944Y-23695888D02*
X8124944Y-23657793D01*
X8124944Y-23657793D02*
X8115420Y-23638746D01*
X8115420Y-23638746D02*
X8105896Y-23629222D01*
X8105896Y-23629222D02*
X8086848Y-23619698D01*
X8201134Y-23533984D02*
X8201134Y-23572079D01*
X8277325Y-23533984D02*
X8277325Y-23572079D01*
X8572563Y-23810174D02*
X8563039Y-23800650D01*
X8563039Y-23800650D02*
X8543991Y-23772079D01*
X8543991Y-23772079D02*
X8534468Y-23753031D01*
X8534468Y-23753031D02*
X8524944Y-23724460D01*
X8524944Y-23724460D02*
X8515420Y-23676841D01*
X8515420Y-23676841D02*
X8515420Y-23638746D01*
X8515420Y-23638746D02*
X8524944Y-23591127D01*
X8524944Y-23591127D02*
X8534468Y-23562555D01*
X8534468Y-23562555D02*
X8543991Y-23543508D01*
X8543991Y-23543508D02*
X8563039Y-23514936D01*
X8563039Y-23514936D02*
X8572563Y-23505412D01*
X8734468Y-23533984D02*
X8696372Y-23533984D01*
X8696372Y-23533984D02*
X8677325Y-23543508D01*
X8677325Y-23543508D02*
X8667801Y-23553031D01*
X8667801Y-23553031D02*
X8648753Y-23581603D01*
X8648753Y-23581603D02*
X8639230Y-23619698D01*
X8639230Y-23619698D02*
X8639230Y-23695888D01*
X8639230Y-23695888D02*
X8648753Y-23714936D01*
X8648753Y-23714936D02*
X8658277Y-23724460D01*
X8658277Y-23724460D02*
X8677325Y-23733984D01*
X8677325Y-23733984D02*
X8715420Y-23733984D01*
X8715420Y-23733984D02*
X8734468Y-23724460D01*
X8734468Y-23724460D02*
X8743991Y-23714936D01*
X8743991Y-23714936D02*
X8753515Y-23695888D01*
X8753515Y-23695888D02*
X8753515Y-23648269D01*
X8753515Y-23648269D02*
X8743991Y-23629222D01*
X8743991Y-23629222D02*
X8734468Y-23619698D01*
X8734468Y-23619698D02*
X8715420Y-23610174D01*
X8715420Y-23610174D02*
X8677325Y-23610174D01*
X8677325Y-23610174D02*
X8658277Y-23619698D01*
X8658277Y-23619698D02*
X8648753Y-23629222D01*
X8648753Y-23629222D02*
X8639230Y-23648269D01*
X8924944Y-23600650D02*
X8924944Y-23733984D01*
X8877325Y-23524460D02*
X8829706Y-23667317D01*
X8829706Y-23667317D02*
X8953515Y-23667317D01*
X9182087Y-23733984D02*
X9182087Y-23533984D01*
X9267801Y-23733984D02*
X9267801Y-23629222D01*
X9267801Y-23629222D02*
X9258277Y-23610174D01*
X9258277Y-23610174D02*
X9239230Y-23600650D01*
X9239230Y-23600650D02*
X9210658Y-23600650D01*
X9210658Y-23600650D02*
X9191611Y-23610174D01*
X9191611Y-23610174D02*
X9182087Y-23619698D01*
X9391611Y-23733984D02*
X9372563Y-23724460D01*
X9372563Y-23724460D02*
X9363039Y-23714936D01*
X9363039Y-23714936D02*
X9353515Y-23695888D01*
X9353515Y-23695888D02*
X9353515Y-23638746D01*
X9353515Y-23638746D02*
X9363039Y-23619698D01*
X9363039Y-23619698D02*
X9372563Y-23610174D01*
X9372563Y-23610174D02*
X9391611Y-23600650D01*
X9391611Y-23600650D02*
X9420182Y-23600650D01*
X9420182Y-23600650D02*
X9439230Y-23610174D01*
X9439230Y-23610174D02*
X9448753Y-23619698D01*
X9448753Y-23619698D02*
X9458277Y-23638746D01*
X9458277Y-23638746D02*
X9458277Y-23695888D01*
X9458277Y-23695888D02*
X9448753Y-23714936D01*
X9448753Y-23714936D02*
X9439230Y-23724460D01*
X9439230Y-23724460D02*
X9420182Y-23733984D01*
X9420182Y-23733984D02*
X9391611Y-23733984D01*
X9572563Y-23733984D02*
X9553515Y-23724460D01*
X9553515Y-23724460D02*
X9543992Y-23705412D01*
X9543992Y-23705412D02*
X9543992Y-23533984D01*
X9724944Y-23724460D02*
X9705896Y-23733984D01*
X9705896Y-23733984D02*
X9667801Y-23733984D01*
X9667801Y-23733984D02*
X9648753Y-23724460D01*
X9648753Y-23724460D02*
X9639230Y-23705412D01*
X9639230Y-23705412D02*
X9639230Y-23629222D01*
X9639230Y-23629222D02*
X9648753Y-23610174D01*
X9648753Y-23610174D02*
X9667801Y-23600650D01*
X9667801Y-23600650D02*
X9705896Y-23600650D01*
X9705896Y-23600650D02*
X9724944Y-23610174D01*
X9724944Y-23610174D02*
X9734468Y-23629222D01*
X9734468Y-23629222D02*
X9734468Y-23648269D01*
X9734468Y-23648269D02*
X9639230Y-23667317D01*
X9810658Y-23724460D02*
X9829706Y-23733984D01*
X9829706Y-23733984D02*
X9867801Y-23733984D01*
X9867801Y-23733984D02*
X9886849Y-23724460D01*
X9886849Y-23724460D02*
X9896373Y-23705412D01*
X9896373Y-23705412D02*
X9896373Y-23695888D01*
X9896373Y-23695888D02*
X9886849Y-23676841D01*
X9886849Y-23676841D02*
X9867801Y-23667317D01*
X9867801Y-23667317D02*
X9839230Y-23667317D01*
X9839230Y-23667317D02*
X9820182Y-23657793D01*
X9820182Y-23657793D02*
X9810658Y-23638746D01*
X9810658Y-23638746D02*
X9810658Y-23629222D01*
X9810658Y-23629222D02*
X9820182Y-23610174D01*
X9820182Y-23610174D02*
X9839230Y-23600650D01*
X9839230Y-23600650D02*
X9867801Y-23600650D01*
X9867801Y-23600650D02*
X9886849Y-23610174D01*
X9963039Y-23810174D02*
X9972563Y-23800650D01*
X9972563Y-23800650D02*
X9991611Y-23772079D01*
X9991611Y-23772079D02*
X10001134Y-23753031D01*
X10001134Y-23753031D02*
X10010658Y-23724460D01*
X10010658Y-23724460D02*
X10020182Y-23676841D01*
X10020182Y-23676841D02*
X10020182Y-23638746D01*
X10020182Y-23638746D02*
X10010658Y-23591127D01*
X10010658Y-23591127D02*
X10001134Y-23562555D01*
X10001134Y-23562555D02*
X9991611Y-23543508D01*
X9991611Y-23543508D02*
X9972563Y-23514936D01*
X9972563Y-23514936D02*
X9963039Y-23505412D01*
D12*
X4997500Y-23906500D02*
G75*
G02*
X4897500Y-23906500I-50000J0D01*
G01*
X4897500Y-23906500D02*
G75*
G02*
X4997500Y-23906500I50000J0D01*
G01*
D11*
X5363039Y-23997984D02*
X5248753Y-23997984D01*
X5305896Y-23997984D02*
X5305896Y-23797984D01*
X5305896Y-23797984D02*
X5286848Y-23826555D01*
X5286848Y-23826555D02*
X5267801Y-23845603D01*
X5267801Y-23845603D02*
X5248753Y-23855127D01*
X5448753Y-23978936D02*
X5458277Y-23988460D01*
X5458277Y-23988460D02*
X5448753Y-23997984D01*
X5448753Y-23997984D02*
X5439229Y-23988460D01*
X5439229Y-23988460D02*
X5448753Y-23978936D01*
X5448753Y-23978936D02*
X5448753Y-23997984D01*
X5582086Y-23797984D02*
X5601134Y-23797984D01*
X5601134Y-23797984D02*
X5620182Y-23807508D01*
X5620182Y-23807508D02*
X5629705Y-23817031D01*
X5629705Y-23817031D02*
X5639229Y-23836079D01*
X5639229Y-23836079D02*
X5648753Y-23874174D01*
X5648753Y-23874174D02*
X5648753Y-23921793D01*
X5648753Y-23921793D02*
X5639229Y-23959888D01*
X5639229Y-23959888D02*
X5629705Y-23978936D01*
X5629705Y-23978936D02*
X5620182Y-23988460D01*
X5620182Y-23988460D02*
X5601134Y-23997984D01*
X5601134Y-23997984D02*
X5582086Y-23997984D01*
X5582086Y-23997984D02*
X5563039Y-23988460D01*
X5563039Y-23988460D02*
X5553515Y-23978936D01*
X5553515Y-23978936D02*
X5543991Y-23959888D01*
X5543991Y-23959888D02*
X5534467Y-23921793D01*
X5534467Y-23921793D02*
X5534467Y-23874174D01*
X5534467Y-23874174D02*
X5543991Y-23836079D01*
X5543991Y-23836079D02*
X5553515Y-23817031D01*
X5553515Y-23817031D02*
X5563039Y-23807508D01*
X5563039Y-23807508D02*
X5582086Y-23797984D01*
X5772562Y-23797984D02*
X5791610Y-23797984D01*
X5791610Y-23797984D02*
X5810658Y-23807508D01*
X5810658Y-23807508D02*
X5820182Y-23817031D01*
X5820182Y-23817031D02*
X5829705Y-23836079D01*
X5829705Y-23836079D02*
X5839229Y-23874174D01*
X5839229Y-23874174D02*
X5839229Y-23921793D01*
X5839229Y-23921793D02*
X5829705Y-23959888D01*
X5829705Y-23959888D02*
X5820182Y-23978936D01*
X5820182Y-23978936D02*
X5810658Y-23988460D01*
X5810658Y-23988460D02*
X5791610Y-23997984D01*
X5791610Y-23997984D02*
X5772562Y-23997984D01*
X5772562Y-23997984D02*
X5753515Y-23988460D01*
X5753515Y-23988460D02*
X5743991Y-23978936D01*
X5743991Y-23978936D02*
X5734467Y-23959888D01*
X5734467Y-23959888D02*
X5724943Y-23921793D01*
X5724943Y-23921793D02*
X5724943Y-23874174D01*
X5724943Y-23874174D02*
X5734467Y-23836079D01*
X5734467Y-23836079D02*
X5743991Y-23817031D01*
X5743991Y-23817031D02*
X5753515Y-23807508D01*
X5753515Y-23807508D02*
X5772562Y-23797984D01*
X5963039Y-23797984D02*
X5982086Y-23797984D01*
X5982086Y-23797984D02*
X6001134Y-23807508D01*
X6001134Y-23807508D02*
X6010658Y-23817031D01*
X6010658Y-23817031D02*
X6020182Y-23836079D01*
X6020182Y-23836079D02*
X6029705Y-23874174D01*
X6029705Y-23874174D02*
X6029705Y-23921793D01*
X6029705Y-23921793D02*
X6020182Y-23959888D01*
X6020182Y-23959888D02*
X6010658Y-23978936D01*
X6010658Y-23978936D02*
X6001134Y-23988460D01*
X6001134Y-23988460D02*
X5982086Y-23997984D01*
X5982086Y-23997984D02*
X5963039Y-23997984D01*
X5963039Y-23997984D02*
X5943991Y-23988460D01*
X5943991Y-23988460D02*
X5934467Y-23978936D01*
X5934467Y-23978936D02*
X5924943Y-23959888D01*
X5924943Y-23959888D02*
X5915420Y-23921793D01*
X5915420Y-23921793D02*
X5915420Y-23874174D01*
X5915420Y-23874174D02*
X5924943Y-23836079D01*
X5924943Y-23836079D02*
X5934467Y-23817031D01*
X5934467Y-23817031D02*
X5943991Y-23807508D01*
X5943991Y-23807508D02*
X5963039Y-23797984D01*
X6115420Y-23997984D02*
X6115420Y-23864650D01*
X6115420Y-23883698D02*
X6124943Y-23874174D01*
X6124943Y-23874174D02*
X6143991Y-23864650D01*
X6143991Y-23864650D02*
X6172563Y-23864650D01*
X6172563Y-23864650D02*
X6191610Y-23874174D01*
X6191610Y-23874174D02*
X6201134Y-23893222D01*
X6201134Y-23893222D02*
X6201134Y-23997984D01*
X6201134Y-23893222D02*
X6210658Y-23874174D01*
X6210658Y-23874174D02*
X6229705Y-23864650D01*
X6229705Y-23864650D02*
X6258277Y-23864650D01*
X6258277Y-23864650D02*
X6277324Y-23874174D01*
X6277324Y-23874174D02*
X6286848Y-23893222D01*
X6286848Y-23893222D02*
X6286848Y-23997984D01*
X6382086Y-23997984D02*
X6382086Y-23864650D01*
X6382086Y-23883698D02*
X6391610Y-23874174D01*
X6391610Y-23874174D02*
X6410658Y-23864650D01*
X6410658Y-23864650D02*
X6439229Y-23864650D01*
X6439229Y-23864650D02*
X6458277Y-23874174D01*
X6458277Y-23874174D02*
X6467801Y-23893222D01*
X6467801Y-23893222D02*
X6467801Y-23997984D01*
X6467801Y-23893222D02*
X6477324Y-23874174D01*
X6477324Y-23874174D02*
X6496372Y-23864650D01*
X6496372Y-23864650D02*
X6524943Y-23864650D01*
X6524943Y-23864650D02*
X6543991Y-23874174D01*
X6543991Y-23874174D02*
X6553515Y-23893222D01*
X6553515Y-23893222D02*
X6553515Y-23997984D01*
X6943991Y-23788460D02*
X6772563Y-24045603D01*
X7201134Y-23797984D02*
X7220182Y-23797984D01*
X7220182Y-23797984D02*
X7239229Y-23807508D01*
X7239229Y-23807508D02*
X7248753Y-23817031D01*
X7248753Y-23817031D02*
X7258277Y-23836079D01*
X7258277Y-23836079D02*
X7267801Y-23874174D01*
X7267801Y-23874174D02*
X7267801Y-23921793D01*
X7267801Y-23921793D02*
X7258277Y-23959888D01*
X7258277Y-23959888D02*
X7248753Y-23978936D01*
X7248753Y-23978936D02*
X7239229Y-23988460D01*
X7239229Y-23988460D02*
X7220182Y-23997984D01*
X7220182Y-23997984D02*
X7201134Y-23997984D01*
X7201134Y-23997984D02*
X7182086Y-23988460D01*
X7182086Y-23988460D02*
X7172563Y-23978936D01*
X7172563Y-23978936D02*
X7163039Y-23959888D01*
X7163039Y-23959888D02*
X7153515Y-23921793D01*
X7153515Y-23921793D02*
X7153515Y-23874174D01*
X7153515Y-23874174D02*
X7163039Y-23836079D01*
X7163039Y-23836079D02*
X7172563Y-23817031D01*
X7172563Y-23817031D02*
X7182086Y-23807508D01*
X7182086Y-23807508D02*
X7201134Y-23797984D01*
X7353515Y-23978936D02*
X7363039Y-23988460D01*
X7363039Y-23988460D02*
X7353515Y-23997984D01*
X7353515Y-23997984D02*
X7343991Y-23988460D01*
X7343991Y-23988460D02*
X7353515Y-23978936D01*
X7353515Y-23978936D02*
X7353515Y-23997984D01*
X7486848Y-23797984D02*
X7505896Y-23797984D01*
X7505896Y-23797984D02*
X7524944Y-23807508D01*
X7524944Y-23807508D02*
X7534467Y-23817031D01*
X7534467Y-23817031D02*
X7543991Y-23836079D01*
X7543991Y-23836079D02*
X7553515Y-23874174D01*
X7553515Y-23874174D02*
X7553515Y-23921793D01*
X7553515Y-23921793D02*
X7543991Y-23959888D01*
X7543991Y-23959888D02*
X7534467Y-23978936D01*
X7534467Y-23978936D02*
X7524944Y-23988460D01*
X7524944Y-23988460D02*
X7505896Y-23997984D01*
X7505896Y-23997984D02*
X7486848Y-23997984D01*
X7486848Y-23997984D02*
X7467801Y-23988460D01*
X7467801Y-23988460D02*
X7458277Y-23978936D01*
X7458277Y-23978936D02*
X7448753Y-23959888D01*
X7448753Y-23959888D02*
X7439229Y-23921793D01*
X7439229Y-23921793D02*
X7439229Y-23874174D01*
X7439229Y-23874174D02*
X7448753Y-23836079D01*
X7448753Y-23836079D02*
X7458277Y-23817031D01*
X7458277Y-23817031D02*
X7467801Y-23807508D01*
X7467801Y-23807508D02*
X7486848Y-23797984D01*
X7620182Y-23797984D02*
X7743991Y-23797984D01*
X7743991Y-23797984D02*
X7677325Y-23874174D01*
X7677325Y-23874174D02*
X7705896Y-23874174D01*
X7705896Y-23874174D02*
X7724944Y-23883698D01*
X7724944Y-23883698D02*
X7734467Y-23893222D01*
X7734467Y-23893222D02*
X7743991Y-23912269D01*
X7743991Y-23912269D02*
X7743991Y-23959888D01*
X7743991Y-23959888D02*
X7734467Y-23978936D01*
X7734467Y-23978936D02*
X7724944Y-23988460D01*
X7724944Y-23988460D02*
X7705896Y-23997984D01*
X7705896Y-23997984D02*
X7648753Y-23997984D01*
X7648753Y-23997984D02*
X7629706Y-23988460D01*
X7629706Y-23988460D02*
X7620182Y-23978936D01*
X7839229Y-23997984D02*
X7877325Y-23997984D01*
X7877325Y-23997984D02*
X7896372Y-23988460D01*
X7896372Y-23988460D02*
X7905896Y-23978936D01*
X7905896Y-23978936D02*
X7924944Y-23950365D01*
X7924944Y-23950365D02*
X7934467Y-23912269D01*
X7934467Y-23912269D02*
X7934467Y-23836079D01*
X7934467Y-23836079D02*
X7924944Y-23817031D01*
X7924944Y-23817031D02*
X7915420Y-23807508D01*
X7915420Y-23807508D02*
X7896372Y-23797984D01*
X7896372Y-23797984D02*
X7858277Y-23797984D01*
X7858277Y-23797984D02*
X7839229Y-23807508D01*
X7839229Y-23807508D02*
X7829706Y-23817031D01*
X7829706Y-23817031D02*
X7820182Y-23836079D01*
X7820182Y-23836079D02*
X7820182Y-23883698D01*
X7820182Y-23883698D02*
X7829706Y-23902746D01*
X7829706Y-23902746D02*
X7839229Y-23912269D01*
X7839229Y-23912269D02*
X7858277Y-23921793D01*
X7858277Y-23921793D02*
X7896372Y-23921793D01*
X7896372Y-23921793D02*
X7915420Y-23912269D01*
X7915420Y-23912269D02*
X7924944Y-23902746D01*
X7924944Y-23902746D02*
X7934467Y-23883698D01*
X8105896Y-23864650D02*
X8105896Y-23997984D01*
X8058277Y-23788460D02*
X8010658Y-23931317D01*
X8010658Y-23931317D02*
X8134467Y-23931317D01*
X8201134Y-23797984D02*
X8201134Y-23836079D01*
X8277325Y-23797984D02*
X8277325Y-23836079D01*
X8572563Y-24074174D02*
X8563039Y-24064650D01*
X8563039Y-24064650D02*
X8543991Y-24036079D01*
X8543991Y-24036079D02*
X8534468Y-24017031D01*
X8534468Y-24017031D02*
X8524944Y-23988460D01*
X8524944Y-23988460D02*
X8515420Y-23940841D01*
X8515420Y-23940841D02*
X8515420Y-23902746D01*
X8515420Y-23902746D02*
X8524944Y-23855127D01*
X8524944Y-23855127D02*
X8534468Y-23826555D01*
X8534468Y-23826555D02*
X8543991Y-23807508D01*
X8543991Y-23807508D02*
X8563039Y-23778936D01*
X8563039Y-23778936D02*
X8572563Y-23769412D01*
X8686849Y-23797984D02*
X8705896Y-23797984D01*
X8705896Y-23797984D02*
X8724944Y-23807508D01*
X8724944Y-23807508D02*
X8734468Y-23817031D01*
X8734468Y-23817031D02*
X8743991Y-23836079D01*
X8743991Y-23836079D02*
X8753515Y-23874174D01*
X8753515Y-23874174D02*
X8753515Y-23921793D01*
X8753515Y-23921793D02*
X8743991Y-23959888D01*
X8743991Y-23959888D02*
X8734468Y-23978936D01*
X8734468Y-23978936D02*
X8724944Y-23988460D01*
X8724944Y-23988460D02*
X8705896Y-23997984D01*
X8705896Y-23997984D02*
X8686849Y-23997984D01*
X8686849Y-23997984D02*
X8667801Y-23988460D01*
X8667801Y-23988460D02*
X8658277Y-23978936D01*
X8658277Y-23978936D02*
X8648753Y-23959888D01*
X8648753Y-23959888D02*
X8639230Y-23921793D01*
X8639230Y-23921793D02*
X8639230Y-23874174D01*
X8639230Y-23874174D02*
X8648753Y-23836079D01*
X8648753Y-23836079D02*
X8658277Y-23817031D01*
X8658277Y-23817031D02*
X8667801Y-23807508D01*
X8667801Y-23807508D02*
X8686849Y-23797984D01*
X8991611Y-23997984D02*
X8991611Y-23797984D01*
X9077325Y-23997984D02*
X9077325Y-23893222D01*
X9077325Y-23893222D02*
X9067801Y-23874174D01*
X9067801Y-23874174D02*
X9048753Y-23864650D01*
X9048753Y-23864650D02*
X9020182Y-23864650D01*
X9020182Y-23864650D02*
X9001134Y-23874174D01*
X9001134Y-23874174D02*
X8991611Y-23883698D01*
X9201134Y-23997984D02*
X9182087Y-23988460D01*
X9182087Y-23988460D02*
X9172563Y-23978936D01*
X9172563Y-23978936D02*
X9163039Y-23959888D01*
X9163039Y-23959888D02*
X9163039Y-23902746D01*
X9163039Y-23902746D02*
X9172563Y-23883698D01*
X9172563Y-23883698D02*
X9182087Y-23874174D01*
X9182087Y-23874174D02*
X9201134Y-23864650D01*
X9201134Y-23864650D02*
X9229706Y-23864650D01*
X9229706Y-23864650D02*
X9248753Y-23874174D01*
X9248753Y-23874174D02*
X9258277Y-23883698D01*
X9258277Y-23883698D02*
X9267801Y-23902746D01*
X9267801Y-23902746D02*
X9267801Y-23959888D01*
X9267801Y-23959888D02*
X9258277Y-23978936D01*
X9258277Y-23978936D02*
X9248753Y-23988460D01*
X9248753Y-23988460D02*
X9229706Y-23997984D01*
X9229706Y-23997984D02*
X9201134Y-23997984D01*
X9382087Y-23997984D02*
X9363039Y-23988460D01*
X9363039Y-23988460D02*
X9353515Y-23969412D01*
X9353515Y-23969412D02*
X9353515Y-23797984D01*
X9534468Y-23988460D02*
X9515420Y-23997984D01*
X9515420Y-23997984D02*
X9477325Y-23997984D01*
X9477325Y-23997984D02*
X9458277Y-23988460D01*
X9458277Y-23988460D02*
X9448753Y-23969412D01*
X9448753Y-23969412D02*
X9448753Y-23893222D01*
X9448753Y-23893222D02*
X9458277Y-23874174D01*
X9458277Y-23874174D02*
X9477325Y-23864650D01*
X9477325Y-23864650D02*
X9515420Y-23864650D01*
X9515420Y-23864650D02*
X9534468Y-23874174D01*
X9534468Y-23874174D02*
X9543992Y-23893222D01*
X9543992Y-23893222D02*
X9543992Y-23912269D01*
X9543992Y-23912269D02*
X9448753Y-23931317D01*
X9620182Y-23988460D02*
X9639230Y-23997984D01*
X9639230Y-23997984D02*
X9677325Y-23997984D01*
X9677325Y-23997984D02*
X9696373Y-23988460D01*
X9696373Y-23988460D02*
X9705896Y-23969412D01*
X9705896Y-23969412D02*
X9705896Y-23959888D01*
X9705896Y-23959888D02*
X9696373Y-23940841D01*
X9696373Y-23940841D02*
X9677325Y-23931317D01*
X9677325Y-23931317D02*
X9648753Y-23931317D01*
X9648753Y-23931317D02*
X9629706Y-23921793D01*
X9629706Y-23921793D02*
X9620182Y-23902746D01*
X9620182Y-23902746D02*
X9620182Y-23893222D01*
X9620182Y-23893222D02*
X9629706Y-23874174D01*
X9629706Y-23874174D02*
X9648753Y-23864650D01*
X9648753Y-23864650D02*
X9677325Y-23864650D01*
X9677325Y-23864650D02*
X9696373Y-23874174D01*
X9943992Y-23921793D02*
X10096373Y-23921793D01*
X10020182Y-23997984D02*
X10020182Y-23845603D01*
X10334468Y-23817031D02*
X10343992Y-23807508D01*
X10343992Y-23807508D02*
X10363039Y-23797984D01*
X10363039Y-23797984D02*
X10410658Y-23797984D01*
X10410658Y-23797984D02*
X10429706Y-23807508D01*
X10429706Y-23807508D02*
X10439230Y-23817031D01*
X10439230Y-23817031D02*
X10448754Y-23836079D01*
X10448754Y-23836079D02*
X10448754Y-23855127D01*
X10448754Y-23855127D02*
X10439230Y-23883698D01*
X10439230Y-23883698D02*
X10324944Y-23997984D01*
X10324944Y-23997984D02*
X10448754Y-23997984D01*
X10677325Y-23988460D02*
X10696373Y-23997984D01*
X10696373Y-23997984D02*
X10734468Y-23997984D01*
X10734468Y-23997984D02*
X10753516Y-23988460D01*
X10753516Y-23988460D02*
X10763039Y-23969412D01*
X10763039Y-23969412D02*
X10763039Y-23959888D01*
X10763039Y-23959888D02*
X10753516Y-23940841D01*
X10753516Y-23940841D02*
X10734468Y-23931317D01*
X10734468Y-23931317D02*
X10705896Y-23931317D01*
X10705896Y-23931317D02*
X10686849Y-23921793D01*
X10686849Y-23921793D02*
X10677325Y-23902746D01*
X10677325Y-23902746D02*
X10677325Y-23893222D01*
X10677325Y-23893222D02*
X10686849Y-23874174D01*
X10686849Y-23874174D02*
X10705896Y-23864650D01*
X10705896Y-23864650D02*
X10734468Y-23864650D01*
X10734468Y-23864650D02*
X10753516Y-23874174D01*
X10877325Y-23997984D02*
X10858277Y-23988460D01*
X10858277Y-23988460D02*
X10848754Y-23969412D01*
X10848754Y-23969412D02*
X10848754Y-23797984D01*
X10982087Y-23997984D02*
X10963039Y-23988460D01*
X10963039Y-23988460D02*
X10953516Y-23978936D01*
X10953516Y-23978936D02*
X10943992Y-23959888D01*
X10943992Y-23959888D02*
X10943992Y-23902746D01*
X10943992Y-23902746D02*
X10953516Y-23883698D01*
X10953516Y-23883698D02*
X10963039Y-23874174D01*
X10963039Y-23874174D02*
X10982087Y-23864650D01*
X10982087Y-23864650D02*
X11010658Y-23864650D01*
X11010658Y-23864650D02*
X11029706Y-23874174D01*
X11029706Y-23874174D02*
X11039230Y-23883698D01*
X11039230Y-23883698D02*
X11048754Y-23902746D01*
X11048754Y-23902746D02*
X11048754Y-23959888D01*
X11048754Y-23959888D02*
X11039230Y-23978936D01*
X11039230Y-23978936D02*
X11029706Y-23988460D01*
X11029706Y-23988460D02*
X11010658Y-23997984D01*
X11010658Y-23997984D02*
X10982087Y-23997984D01*
X11105897Y-23864650D02*
X11182087Y-23864650D01*
X11134468Y-23797984D02*
X11134468Y-23969412D01*
X11134468Y-23969412D02*
X11143992Y-23988460D01*
X11143992Y-23988460D02*
X11163039Y-23997984D01*
X11163039Y-23997984D02*
X11182087Y-23997984D01*
X11239230Y-23988460D02*
X11258277Y-23997984D01*
X11258277Y-23997984D02*
X11296373Y-23997984D01*
X11296373Y-23997984D02*
X11315420Y-23988460D01*
X11315420Y-23988460D02*
X11324944Y-23969412D01*
X11324944Y-23969412D02*
X11324944Y-23959888D01*
X11324944Y-23959888D02*
X11315420Y-23940841D01*
X11315420Y-23940841D02*
X11296373Y-23931317D01*
X11296373Y-23931317D02*
X11267801Y-23931317D01*
X11267801Y-23931317D02*
X11248754Y-23921793D01*
X11248754Y-23921793D02*
X11239230Y-23902746D01*
X11239230Y-23902746D02*
X11239230Y-23893222D01*
X11239230Y-23893222D02*
X11248754Y-23874174D01*
X11248754Y-23874174D02*
X11267801Y-23864650D01*
X11267801Y-23864650D02*
X11296373Y-23864650D01*
X11296373Y-23864650D02*
X11315420Y-23874174D01*
X11391611Y-24074174D02*
X11401135Y-24064650D01*
X11401135Y-24064650D02*
X11420182Y-24036079D01*
X11420182Y-24036079D02*
X11429706Y-24017031D01*
X11429706Y-24017031D02*
X11439230Y-23988460D01*
X11439230Y-23988460D02*
X11448754Y-23940841D01*
X11448754Y-23940841D02*
X11448754Y-23902746D01*
X11448754Y-23902746D02*
X11439230Y-23855127D01*
X11439230Y-23855127D02*
X11429706Y-23826555D01*
X11429706Y-23826555D02*
X11420182Y-23807508D01*
X11420182Y-23807508D02*
X11401135Y-23778936D01*
X11401135Y-23778936D02*
X11391611Y-23769412D01*
X4897500Y-24070500D02*
X4897500Y-24270500D01*
X4797500Y-24170500D02*
X4997500Y-24170500D01*
X5239229Y-24061984D02*
X5363039Y-24061984D01*
X5363039Y-24061984D02*
X5296372Y-24138174D01*
X5296372Y-24138174D02*
X5324944Y-24138174D01*
X5324944Y-24138174D02*
X5343991Y-24147698D01*
X5343991Y-24147698D02*
X5353515Y-24157222D01*
X5353515Y-24157222D02*
X5363039Y-24176269D01*
X5363039Y-24176269D02*
X5363039Y-24223888D01*
X5363039Y-24223888D02*
X5353515Y-24242936D01*
X5353515Y-24242936D02*
X5343991Y-24252460D01*
X5343991Y-24252460D02*
X5324944Y-24261984D01*
X5324944Y-24261984D02*
X5267801Y-24261984D01*
X5267801Y-24261984D02*
X5248753Y-24252460D01*
X5248753Y-24252460D02*
X5239229Y-24242936D01*
X5448753Y-24242936D02*
X5458277Y-24252460D01*
X5458277Y-24252460D02*
X5448753Y-24261984D01*
X5448753Y-24261984D02*
X5439229Y-24252460D01*
X5439229Y-24252460D02*
X5448753Y-24242936D01*
X5448753Y-24242936D02*
X5448753Y-24261984D01*
X5534467Y-24081031D02*
X5543991Y-24071508D01*
X5543991Y-24071508D02*
X5563039Y-24061984D01*
X5563039Y-24061984D02*
X5610658Y-24061984D01*
X5610658Y-24061984D02*
X5629705Y-24071508D01*
X5629705Y-24071508D02*
X5639229Y-24081031D01*
X5639229Y-24081031D02*
X5648753Y-24100079D01*
X5648753Y-24100079D02*
X5648753Y-24119127D01*
X5648753Y-24119127D02*
X5639229Y-24147698D01*
X5639229Y-24147698D02*
X5524944Y-24261984D01*
X5524944Y-24261984D02*
X5648753Y-24261984D01*
X5772562Y-24061984D02*
X5791610Y-24061984D01*
X5791610Y-24061984D02*
X5810658Y-24071508D01*
X5810658Y-24071508D02*
X5820182Y-24081031D01*
X5820182Y-24081031D02*
X5829705Y-24100079D01*
X5829705Y-24100079D02*
X5839229Y-24138174D01*
X5839229Y-24138174D02*
X5839229Y-24185793D01*
X5839229Y-24185793D02*
X5829705Y-24223888D01*
X5829705Y-24223888D02*
X5820182Y-24242936D01*
X5820182Y-24242936D02*
X5810658Y-24252460D01*
X5810658Y-24252460D02*
X5791610Y-24261984D01*
X5791610Y-24261984D02*
X5772562Y-24261984D01*
X5772562Y-24261984D02*
X5753515Y-24252460D01*
X5753515Y-24252460D02*
X5743991Y-24242936D01*
X5743991Y-24242936D02*
X5734467Y-24223888D01*
X5734467Y-24223888D02*
X5724943Y-24185793D01*
X5724943Y-24185793D02*
X5724943Y-24138174D01*
X5724943Y-24138174D02*
X5734467Y-24100079D01*
X5734467Y-24100079D02*
X5743991Y-24081031D01*
X5743991Y-24081031D02*
X5753515Y-24071508D01*
X5753515Y-24071508D02*
X5772562Y-24061984D01*
X5963039Y-24061984D02*
X5982086Y-24061984D01*
X5982086Y-24061984D02*
X6001134Y-24071508D01*
X6001134Y-24071508D02*
X6010658Y-24081031D01*
X6010658Y-24081031D02*
X6020182Y-24100079D01*
X6020182Y-24100079D02*
X6029705Y-24138174D01*
X6029705Y-24138174D02*
X6029705Y-24185793D01*
X6029705Y-24185793D02*
X6020182Y-24223888D01*
X6020182Y-24223888D02*
X6010658Y-24242936D01*
X6010658Y-24242936D02*
X6001134Y-24252460D01*
X6001134Y-24252460D02*
X5982086Y-24261984D01*
X5982086Y-24261984D02*
X5963039Y-24261984D01*
X5963039Y-24261984D02*
X5943991Y-24252460D01*
X5943991Y-24252460D02*
X5934467Y-24242936D01*
X5934467Y-24242936D02*
X5924943Y-24223888D01*
X5924943Y-24223888D02*
X5915420Y-24185793D01*
X5915420Y-24185793D02*
X5915420Y-24138174D01*
X5915420Y-24138174D02*
X5924943Y-24100079D01*
X5924943Y-24100079D02*
X5934467Y-24081031D01*
X5934467Y-24081031D02*
X5943991Y-24071508D01*
X5943991Y-24071508D02*
X5963039Y-24061984D01*
X6115420Y-24261984D02*
X6115420Y-24128650D01*
X6115420Y-24147698D02*
X6124943Y-24138174D01*
X6124943Y-24138174D02*
X6143991Y-24128650D01*
X6143991Y-24128650D02*
X6172563Y-24128650D01*
X6172563Y-24128650D02*
X6191610Y-24138174D01*
X6191610Y-24138174D02*
X6201134Y-24157222D01*
X6201134Y-24157222D02*
X6201134Y-24261984D01*
X6201134Y-24157222D02*
X6210658Y-24138174D01*
X6210658Y-24138174D02*
X6229705Y-24128650D01*
X6229705Y-24128650D02*
X6258277Y-24128650D01*
X6258277Y-24128650D02*
X6277324Y-24138174D01*
X6277324Y-24138174D02*
X6286848Y-24157222D01*
X6286848Y-24157222D02*
X6286848Y-24261984D01*
X6382086Y-24261984D02*
X6382086Y-24128650D01*
X6382086Y-24147698D02*
X6391610Y-24138174D01*
X6391610Y-24138174D02*
X6410658Y-24128650D01*
X6410658Y-24128650D02*
X6439229Y-24128650D01*
X6439229Y-24128650D02*
X6458277Y-24138174D01*
X6458277Y-24138174D02*
X6467801Y-24157222D01*
X6467801Y-24157222D02*
X6467801Y-24261984D01*
X6467801Y-24157222D02*
X6477324Y-24138174D01*
X6477324Y-24138174D02*
X6496372Y-24128650D01*
X6496372Y-24128650D02*
X6524943Y-24128650D01*
X6524943Y-24128650D02*
X6543991Y-24138174D01*
X6543991Y-24138174D02*
X6553515Y-24157222D01*
X6553515Y-24157222D02*
X6553515Y-24261984D01*
X6943991Y-24052460D02*
X6772563Y-24309603D01*
X7201134Y-24061984D02*
X7220182Y-24061984D01*
X7220182Y-24061984D02*
X7239229Y-24071508D01*
X7239229Y-24071508D02*
X7248753Y-24081031D01*
X7248753Y-24081031D02*
X7258277Y-24100079D01*
X7258277Y-24100079D02*
X7267801Y-24138174D01*
X7267801Y-24138174D02*
X7267801Y-24185793D01*
X7267801Y-24185793D02*
X7258277Y-24223888D01*
X7258277Y-24223888D02*
X7248753Y-24242936D01*
X7248753Y-24242936D02*
X7239229Y-24252460D01*
X7239229Y-24252460D02*
X7220182Y-24261984D01*
X7220182Y-24261984D02*
X7201134Y-24261984D01*
X7201134Y-24261984D02*
X7182086Y-24252460D01*
X7182086Y-24252460D02*
X7172563Y-24242936D01*
X7172563Y-24242936D02*
X7163039Y-24223888D01*
X7163039Y-24223888D02*
X7153515Y-24185793D01*
X7153515Y-24185793D02*
X7153515Y-24138174D01*
X7153515Y-24138174D02*
X7163039Y-24100079D01*
X7163039Y-24100079D02*
X7172563Y-24081031D01*
X7172563Y-24081031D02*
X7182086Y-24071508D01*
X7182086Y-24071508D02*
X7201134Y-24061984D01*
X7353515Y-24242936D02*
X7363039Y-24252460D01*
X7363039Y-24252460D02*
X7353515Y-24261984D01*
X7353515Y-24261984D02*
X7343991Y-24252460D01*
X7343991Y-24252460D02*
X7353515Y-24242936D01*
X7353515Y-24242936D02*
X7353515Y-24261984D01*
X7553515Y-24261984D02*
X7439229Y-24261984D01*
X7496372Y-24261984D02*
X7496372Y-24061984D01*
X7496372Y-24061984D02*
X7477325Y-24090555D01*
X7477325Y-24090555D02*
X7458277Y-24109603D01*
X7458277Y-24109603D02*
X7439229Y-24119127D01*
X7629706Y-24081031D02*
X7639229Y-24071508D01*
X7639229Y-24071508D02*
X7658277Y-24061984D01*
X7658277Y-24061984D02*
X7705896Y-24061984D01*
X7705896Y-24061984D02*
X7724944Y-24071508D01*
X7724944Y-24071508D02*
X7734467Y-24081031D01*
X7734467Y-24081031D02*
X7743991Y-24100079D01*
X7743991Y-24100079D02*
X7743991Y-24119127D01*
X7743991Y-24119127D02*
X7734467Y-24147698D01*
X7734467Y-24147698D02*
X7620182Y-24261984D01*
X7620182Y-24261984D02*
X7743991Y-24261984D01*
X7915420Y-24061984D02*
X7877325Y-24061984D01*
X7877325Y-24061984D02*
X7858277Y-24071508D01*
X7858277Y-24071508D02*
X7848753Y-24081031D01*
X7848753Y-24081031D02*
X7829706Y-24109603D01*
X7829706Y-24109603D02*
X7820182Y-24147698D01*
X7820182Y-24147698D02*
X7820182Y-24223888D01*
X7820182Y-24223888D02*
X7829706Y-24242936D01*
X7829706Y-24242936D02*
X7839229Y-24252460D01*
X7839229Y-24252460D02*
X7858277Y-24261984D01*
X7858277Y-24261984D02*
X7896372Y-24261984D01*
X7896372Y-24261984D02*
X7915420Y-24252460D01*
X7915420Y-24252460D02*
X7924944Y-24242936D01*
X7924944Y-24242936D02*
X7934467Y-24223888D01*
X7934467Y-24223888D02*
X7934467Y-24176269D01*
X7934467Y-24176269D02*
X7924944Y-24157222D01*
X7924944Y-24157222D02*
X7915420Y-24147698D01*
X7915420Y-24147698D02*
X7896372Y-24138174D01*
X7896372Y-24138174D02*
X7858277Y-24138174D01*
X7858277Y-24138174D02*
X7839229Y-24147698D01*
X7839229Y-24147698D02*
X7829706Y-24157222D01*
X7829706Y-24157222D02*
X7820182Y-24176269D01*
X8058277Y-24061984D02*
X8077325Y-24061984D01*
X8077325Y-24061984D02*
X8096372Y-24071508D01*
X8096372Y-24071508D02*
X8105896Y-24081031D01*
X8105896Y-24081031D02*
X8115420Y-24100079D01*
X8115420Y-24100079D02*
X8124944Y-24138174D01*
X8124944Y-24138174D02*
X8124944Y-24185793D01*
X8124944Y-24185793D02*
X8115420Y-24223888D01*
X8115420Y-24223888D02*
X8105896Y-24242936D01*
X8105896Y-24242936D02*
X8096372Y-24252460D01*
X8096372Y-24252460D02*
X8077325Y-24261984D01*
X8077325Y-24261984D02*
X8058277Y-24261984D01*
X8058277Y-24261984D02*
X8039229Y-24252460D01*
X8039229Y-24252460D02*
X8029706Y-24242936D01*
X8029706Y-24242936D02*
X8020182Y-24223888D01*
X8020182Y-24223888D02*
X8010658Y-24185793D01*
X8010658Y-24185793D02*
X8010658Y-24138174D01*
X8010658Y-24138174D02*
X8020182Y-24100079D01*
X8020182Y-24100079D02*
X8029706Y-24081031D01*
X8029706Y-24081031D02*
X8039229Y-24071508D01*
X8039229Y-24071508D02*
X8058277Y-24061984D01*
X8201134Y-24061984D02*
X8201134Y-24100079D01*
X8277325Y-24061984D02*
X8277325Y-24100079D01*
X8572563Y-24338174D02*
X8563039Y-24328650D01*
X8563039Y-24328650D02*
X8543991Y-24300079D01*
X8543991Y-24300079D02*
X8534468Y-24281031D01*
X8534468Y-24281031D02*
X8524944Y-24252460D01*
X8524944Y-24252460D02*
X8515420Y-24204841D01*
X8515420Y-24204841D02*
X8515420Y-24166746D01*
X8515420Y-24166746D02*
X8524944Y-24119127D01*
X8524944Y-24119127D02*
X8534468Y-24090555D01*
X8534468Y-24090555D02*
X8543991Y-24071508D01*
X8543991Y-24071508D02*
X8563039Y-24042936D01*
X8563039Y-24042936D02*
X8572563Y-24033412D01*
X8734468Y-24128650D02*
X8734468Y-24261984D01*
X8686849Y-24052460D02*
X8639230Y-24195317D01*
X8639230Y-24195317D02*
X8763039Y-24195317D01*
X8991611Y-24261984D02*
X8991611Y-24061984D01*
X9077325Y-24261984D02*
X9077325Y-24157222D01*
X9077325Y-24157222D02*
X9067801Y-24138174D01*
X9067801Y-24138174D02*
X9048753Y-24128650D01*
X9048753Y-24128650D02*
X9020182Y-24128650D01*
X9020182Y-24128650D02*
X9001134Y-24138174D01*
X9001134Y-24138174D02*
X8991611Y-24147698D01*
X9201134Y-24261984D02*
X9182087Y-24252460D01*
X9182087Y-24252460D02*
X9172563Y-24242936D01*
X9172563Y-24242936D02*
X9163039Y-24223888D01*
X9163039Y-24223888D02*
X9163039Y-24166746D01*
X9163039Y-24166746D02*
X9172563Y-24147698D01*
X9172563Y-24147698D02*
X9182087Y-24138174D01*
X9182087Y-24138174D02*
X9201134Y-24128650D01*
X9201134Y-24128650D02*
X9229706Y-24128650D01*
X9229706Y-24128650D02*
X9248753Y-24138174D01*
X9248753Y-24138174D02*
X9258277Y-24147698D01*
X9258277Y-24147698D02*
X9267801Y-24166746D01*
X9267801Y-24166746D02*
X9267801Y-24223888D01*
X9267801Y-24223888D02*
X9258277Y-24242936D01*
X9258277Y-24242936D02*
X9248753Y-24252460D01*
X9248753Y-24252460D02*
X9229706Y-24261984D01*
X9229706Y-24261984D02*
X9201134Y-24261984D01*
X9382087Y-24261984D02*
X9363039Y-24252460D01*
X9363039Y-24252460D02*
X9353515Y-24233412D01*
X9353515Y-24233412D02*
X9353515Y-24061984D01*
X9534468Y-24252460D02*
X9515420Y-24261984D01*
X9515420Y-24261984D02*
X9477325Y-24261984D01*
X9477325Y-24261984D02*
X9458277Y-24252460D01*
X9458277Y-24252460D02*
X9448753Y-24233412D01*
X9448753Y-24233412D02*
X9448753Y-24157222D01*
X9448753Y-24157222D02*
X9458277Y-24138174D01*
X9458277Y-24138174D02*
X9477325Y-24128650D01*
X9477325Y-24128650D02*
X9515420Y-24128650D01*
X9515420Y-24128650D02*
X9534468Y-24138174D01*
X9534468Y-24138174D02*
X9543992Y-24157222D01*
X9543992Y-24157222D02*
X9543992Y-24176269D01*
X9543992Y-24176269D02*
X9448753Y-24195317D01*
X9620182Y-24252460D02*
X9639230Y-24261984D01*
X9639230Y-24261984D02*
X9677325Y-24261984D01*
X9677325Y-24261984D02*
X9696373Y-24252460D01*
X9696373Y-24252460D02*
X9705896Y-24233412D01*
X9705896Y-24233412D02*
X9705896Y-24223888D01*
X9705896Y-24223888D02*
X9696373Y-24204841D01*
X9696373Y-24204841D02*
X9677325Y-24195317D01*
X9677325Y-24195317D02*
X9648753Y-24195317D01*
X9648753Y-24195317D02*
X9629706Y-24185793D01*
X9629706Y-24185793D02*
X9620182Y-24166746D01*
X9620182Y-24166746D02*
X9620182Y-24157222D01*
X9620182Y-24157222D02*
X9629706Y-24138174D01*
X9629706Y-24138174D02*
X9648753Y-24128650D01*
X9648753Y-24128650D02*
X9677325Y-24128650D01*
X9677325Y-24128650D02*
X9696373Y-24138174D01*
X9772563Y-24338174D02*
X9782087Y-24328650D01*
X9782087Y-24328650D02*
X9801134Y-24300079D01*
X9801134Y-24300079D02*
X9810658Y-24281031D01*
X9810658Y-24281031D02*
X9820182Y-24252460D01*
X9820182Y-24252460D02*
X9829706Y-24204841D01*
X9829706Y-24204841D02*
X9829706Y-24166746D01*
X9829706Y-24166746D02*
X9820182Y-24119127D01*
X9820182Y-24119127D02*
X9810658Y-24090555D01*
X9810658Y-24090555D02*
X9801134Y-24071508D01*
X9801134Y-24071508D02*
X9782087Y-24042936D01*
X9782087Y-24042936D02*
X9772563Y-24033412D01*
M02*
