M48
; DRILL file {KiCad 9.0.0} date 2025-03-16T11:37:10+0100
; FORMAT={-:-/ absolute / metric / decimal}
; #@! TF.CreationDate,2025-03-16T11:37:10+01:00
; #@! TF.GenerationSoftware,Kicad,Pcbnew,9.0.0
; #@! TF.FileFunction,Plated,1,2,PTH
FMAT,2
METRIC
; #@! TA.AperFunction,Plated,PTH,ComponentDrill
T1C0.300
; #@! TA.AperFunction,Plated,PTH,ComponentDrill
T2C1.000
; #@! TA.AperFunction,Plated,PTH,ComponentDrill
T3C3.200
%
G90
G05
T1
X52.8Y-50.75
X52.8Y-69.25
X52.8Y-141.5
X52.8Y-160.0
X54.46Y-46.72
X54.46Y-65.22
X54.46Y-137.47
X54.46Y-155.97
X54.47Y-54.79
X54.47Y-73.29
X54.47Y-145.54
X54.47Y-164.04
X57.3Y-118.0
X57.3Y-208.75
X58.5Y-45.05
X58.5Y-56.45
X58.5Y-63.55
X58.5Y-74.95
X58.5Y-135.8
X58.5Y-147.2
X58.5Y-154.3
X58.5Y-165.7
X58.96Y-113.97
X58.96Y-204.72
X58.97Y-122.04
X58.97Y-212.79
X62.53Y-54.79
X62.53Y-73.29
X62.53Y-145.54
X62.53Y-164.04
X62.54Y-46.72
X62.54Y-65.22
X62.54Y-137.47
X62.54Y-155.97
X63.0Y-112.3
X63.0Y-123.7
X63.0Y-203.05
X63.0Y-214.45
X64.2Y-50.75
X64.2Y-69.25
X64.2Y-141.5
X64.2Y-160.0
X67.03Y-122.04
X67.03Y-212.79
X67.04Y-113.97
X67.04Y-204.72
X68.7Y-118.0
X68.7Y-208.75
X81.3Y-118.0
X81.3Y-208.75
X82.96Y-113.97
X82.96Y-204.72
X82.97Y-122.04
X82.97Y-212.79
X87.0Y-112.3
X87.0Y-123.7
X87.0Y-203.05
X87.0Y-214.45
X91.03Y-122.04
X91.03Y-212.79
X91.04Y-113.97
X91.04Y-204.72
X92.7Y-118.0
X92.7Y-208.75
T3
X53.5Y-33.5
X53.5Y-226.5
X96.5Y-33.5
X96.5Y-226.5
T2
X82.5Y-66.0G85X83.5Y-66.0
G05
X82.5Y-156.75G85X83.5Y-156.75
G05
M30
