%TF.GenerationSoftware,KiCad,Pcbnew,9.0.0*%
%TF.CreationDate,2025-03-16T11:37:03+01:00*%
%TF.ProjectId,DMH_Transistor_VCA_PANEL,444d485f-5472-4616-9e73-6973746f725f,rev?*%
%TF.SameCoordinates,Original*%
%TF.FileFunction,Copper,L1,Top*%
%TF.FilePolarity,Positive*%
%FSLAX46Y46*%
G04 Gerber Fmt 4.6, Leading zero omitted, Abs format (unit mm)*
G04 Created by KiCad (PCBNEW 9.0.0) date 2025-03-16 11:37:03*
%MOMM*%
%LPD*%
G01*
G04 APERTURE LIST*
%TA.AperFunction,ConnectorPad*%
%ADD10C,12.000000*%
%TD*%
%TA.AperFunction,ComponentPad*%
%ADD11C,0.500000*%
%TD*%
%TA.AperFunction,ComponentPad*%
%ADD12C,4.000000*%
%TD*%
%TA.AperFunction,ComponentPad*%
%ADD13O,2.500000X1.500000*%
%TD*%
G04 APERTURE END LIST*
D10*
%TO.P,H14,1,1*%
%TO.N,GND*%
X63000000Y-186000000D03*
%TD*%
%TO.P,H13,1,1*%
%TO.N,GND*%
X87000000Y-186000000D03*
%TD*%
%TO.P,H7,1,1*%
%TO.N,GND*%
X87000000Y-95250000D03*
%TD*%
%TO.P,H6,1,1*%
%TO.N,GND*%
X63000000Y-95250000D03*
%TD*%
D11*
%TO.P,H9,1,1*%
%TO.N,GND*%
X57300000Y-118000000D03*
X58960000Y-113970000D03*
X58970000Y-122040000D03*
X63000000Y-112300000D03*
D10*
X63000000Y-118000000D03*
D11*
X63000000Y-123700000D03*
X67030000Y-122040000D03*
X67040000Y-113970000D03*
X68700000Y-118000000D03*
%TD*%
D12*
%TO.P,H3,1,1*%
%TO.N,GND*%
X53500000Y-226500000D03*
%TD*%
D11*
%TO.P,H8,1,1*%
%TO.N,GND*%
X52800000Y-50750000D03*
X54460000Y-46720000D03*
X54470000Y-54790000D03*
X58500000Y-45050000D03*
D10*
X58500000Y-50750000D03*
D11*
X58500000Y-56450000D03*
X62530000Y-54790000D03*
X62540000Y-46720000D03*
X64200000Y-50750000D03*
%TD*%
%TO.P,H15,1,1*%
%TO.N,GND*%
X52800000Y-141500000D03*
X54460000Y-137470000D03*
X54470000Y-145540000D03*
X58500000Y-135800000D03*
D10*
X58500000Y-141500000D03*
D11*
X58500000Y-147200000D03*
X62530000Y-145540000D03*
X62540000Y-137470000D03*
X64200000Y-141500000D03*
%TD*%
%TO.P,H17,1,1*%
%TO.N,GND*%
X57300000Y-208750000D03*
X58960000Y-204720000D03*
X58970000Y-212790000D03*
X63000000Y-203050000D03*
D10*
X63000000Y-208750000D03*
D11*
X63000000Y-214450000D03*
X67030000Y-212790000D03*
X67040000Y-204720000D03*
X68700000Y-208750000D03*
%TD*%
%TO.P,H10,1,1*%
%TO.N,GND*%
X81300000Y-118000000D03*
X82960000Y-113970000D03*
X82970000Y-122040000D03*
X87000000Y-112300000D03*
D10*
X87000000Y-118000000D03*
D11*
X87000000Y-123700000D03*
X91030000Y-122040000D03*
X91040000Y-113970000D03*
X92700000Y-118000000D03*
%TD*%
D10*
%TO.P,H5,1,1*%
%TO.N,GND*%
X83000000Y-60000000D03*
D13*
X83000000Y-66000000D03*
%TD*%
D11*
%TO.P,H11,1,1*%
%TO.N,GND*%
X52800000Y-69250000D03*
X54460000Y-65220000D03*
X54470000Y-73290000D03*
X58500000Y-63550000D03*
D10*
X58500000Y-69250000D03*
D11*
X58500000Y-74950000D03*
X62530000Y-73290000D03*
X62540000Y-65220000D03*
X64200000Y-69250000D03*
%TD*%
D12*
%TO.P,H2,1,1*%
%TO.N,GND*%
X96500000Y-33500000D03*
%TD*%
%TO.P,H4,1,1*%
%TO.N,GND*%
X96500000Y-226500000D03*
%TD*%
D11*
%TO.P,H18,1,1*%
%TO.N,GND*%
X81300000Y-208750000D03*
X82960000Y-204720000D03*
X82970000Y-212790000D03*
X87000000Y-203050000D03*
D10*
X87000000Y-208750000D03*
D11*
X87000000Y-214450000D03*
X91030000Y-212790000D03*
X91040000Y-204720000D03*
X92700000Y-208750000D03*
%TD*%
D12*
%TO.P,H1,1,1*%
%TO.N,GND*%
X53500000Y-33500000D03*
%TD*%
D11*
%TO.P,H16,1,1*%
%TO.N,GND*%
X52800000Y-160000000D03*
X54460000Y-155970000D03*
X54470000Y-164040000D03*
X58500000Y-154300000D03*
D10*
X58500000Y-160000000D03*
D11*
X58500000Y-165700000D03*
X62530000Y-164040000D03*
X62540000Y-155970000D03*
X64200000Y-160000000D03*
%TD*%
D10*
%TO.P,H12,1,1*%
%TO.N,GND*%
X83000000Y-150750000D03*
D13*
X83000000Y-156750000D03*
%TD*%
%TA.AperFunction,Conductor*%
%TO.N,GND*%
G36*
X99442539Y-30520185D02*
G01*
X99488294Y-30572989D01*
X99499500Y-30624500D01*
X99499500Y-229375500D01*
X99479815Y-229442539D01*
X99427011Y-229488294D01*
X99375500Y-229499500D01*
X50624500Y-229499500D01*
X50557461Y-229479815D01*
X50511706Y-229427011D01*
X50500500Y-229375500D01*
X50500500Y-208537814D01*
X57599500Y-208537814D01*
X57599500Y-208558097D01*
X57599500Y-208962186D01*
X57632796Y-209385250D01*
X57699182Y-209804398D01*
X57798250Y-210217045D01*
X57798254Y-210217056D01*
X57929385Y-210620641D01*
X57996000Y-210781463D01*
X58091789Y-211012716D01*
X58284450Y-211390835D01*
X58284457Y-211390848D01*
X58284460Y-211390853D01*
X58307375Y-211428246D01*
X58506184Y-211752672D01*
X58506192Y-211752683D01*
X58506198Y-211752692D01*
X58755617Y-212095989D01*
X58755627Y-212096003D01*
X58878919Y-212240358D01*
X59031231Y-212418692D01*
X59331308Y-212718769D01*
X59331314Y-212718774D01*
X59653996Y-212994372D01*
X59654010Y-212994382D01*
X59861749Y-213145313D01*
X59997328Y-213243816D01*
X60125685Y-213322473D01*
X60359146Y-213465539D01*
X60359151Y-213465542D01*
X60359156Y-213465544D01*
X60359165Y-213465550D01*
X60737284Y-213658211D01*
X61129353Y-213820612D01*
X61129358Y-213820614D01*
X61231979Y-213853957D01*
X61532955Y-213951750D01*
X61945602Y-214050818D01*
X62364750Y-214117204D01*
X62787814Y-214150500D01*
X62787822Y-214150500D01*
X63212178Y-214150500D01*
X63212186Y-214150500D01*
X63635250Y-214117204D01*
X64054398Y-214050818D01*
X64467045Y-213951750D01*
X64870647Y-213820612D01*
X65262716Y-213658211D01*
X65640835Y-213465550D01*
X66002672Y-213243816D01*
X66345997Y-212994377D01*
X66668692Y-212718769D01*
X66968769Y-212418692D01*
X67244377Y-212095997D01*
X67493816Y-211752672D01*
X67715550Y-211390835D01*
X67908211Y-211012716D01*
X68070612Y-210620647D01*
X68201750Y-210217045D01*
X68300818Y-209804398D01*
X68367204Y-209385250D01*
X68400500Y-208962186D01*
X68400500Y-208537814D01*
X81599500Y-208537814D01*
X81599500Y-208558097D01*
X81599500Y-208962186D01*
X81632796Y-209385250D01*
X81699182Y-209804398D01*
X81798250Y-210217045D01*
X81798254Y-210217056D01*
X81929385Y-210620641D01*
X81996000Y-210781463D01*
X82091789Y-211012716D01*
X82284450Y-211390835D01*
X82284457Y-211390848D01*
X82284460Y-211390853D01*
X82307375Y-211428246D01*
X82506184Y-211752672D01*
X82506192Y-211752683D01*
X82506198Y-211752692D01*
X82755617Y-212095989D01*
X82755627Y-212096003D01*
X82878919Y-212240358D01*
X83031231Y-212418692D01*
X83331308Y-212718769D01*
X83331314Y-212718774D01*
X83653996Y-212994372D01*
X83654010Y-212994382D01*
X83861749Y-213145313D01*
X83997328Y-213243816D01*
X84125685Y-213322473D01*
X84359146Y-213465539D01*
X84359151Y-213465542D01*
X84359156Y-213465544D01*
X84359165Y-213465550D01*
X84737284Y-213658211D01*
X85129353Y-213820612D01*
X85129358Y-213820614D01*
X85231979Y-213853957D01*
X85532955Y-213951750D01*
X85945602Y-214050818D01*
X86364750Y-214117204D01*
X86787814Y-214150500D01*
X86787822Y-214150500D01*
X87212178Y-214150500D01*
X87212186Y-214150500D01*
X87635250Y-214117204D01*
X88054398Y-214050818D01*
X88467045Y-213951750D01*
X88870647Y-213820612D01*
X89262716Y-213658211D01*
X89640835Y-213465550D01*
X90002672Y-213243816D01*
X90345997Y-212994377D01*
X90668692Y-212718769D01*
X90968769Y-212418692D01*
X91244377Y-212095997D01*
X91493816Y-211752672D01*
X91715550Y-211390835D01*
X91908211Y-211012716D01*
X92070612Y-210620647D01*
X92201750Y-210217045D01*
X92300818Y-209804398D01*
X92367204Y-209385250D01*
X92400500Y-208962186D01*
X92400500Y-208537814D01*
X92367204Y-208114750D01*
X92300818Y-207695602D01*
X92201750Y-207282955D01*
X92070612Y-206879353D01*
X91908211Y-206487284D01*
X91715550Y-206109165D01*
X91715544Y-206109156D01*
X91715542Y-206109151D01*
X91715539Y-206109146D01*
X91493823Y-205747340D01*
X91493816Y-205747328D01*
X91244377Y-205404003D01*
X91244372Y-205403996D01*
X90968774Y-205081314D01*
X90968769Y-205081308D01*
X90668692Y-204781231D01*
X90668685Y-204781225D01*
X90346003Y-204505627D01*
X90345989Y-204505617D01*
X90002692Y-204256198D01*
X90002683Y-204256192D01*
X90002672Y-204256184D01*
X90002659Y-204256176D01*
X89640853Y-204034460D01*
X89640848Y-204034457D01*
X89640838Y-204034452D01*
X89640835Y-204034450D01*
X89262716Y-203841789D01*
X89262702Y-203841783D01*
X88870641Y-203679385D01*
X88583478Y-203586081D01*
X88467045Y-203548250D01*
X88054398Y-203449182D01*
X87635250Y-203382796D01*
X87212191Y-203349500D01*
X87212186Y-203349500D01*
X86787814Y-203349500D01*
X86787808Y-203349500D01*
X86364749Y-203382796D01*
X86364748Y-203382796D01*
X85945607Y-203449181D01*
X85945604Y-203449181D01*
X85945602Y-203449182D01*
X85797817Y-203484661D01*
X85532966Y-203548247D01*
X85532960Y-203548248D01*
X85532955Y-203548250D01*
X85532943Y-203548254D01*
X85129358Y-203679385D01*
X84737297Y-203841783D01*
X84737284Y-203841789D01*
X84359151Y-204034457D01*
X84359146Y-204034460D01*
X83997340Y-204256176D01*
X83997307Y-204256198D01*
X83654010Y-204505617D01*
X83653996Y-204505627D01*
X83331314Y-204781225D01*
X83331300Y-204781238D01*
X83031238Y-205081300D01*
X83031225Y-205081314D01*
X82755627Y-205403996D01*
X82755617Y-205404010D01*
X82506198Y-205747307D01*
X82506176Y-205747340D01*
X82284460Y-206109146D01*
X82284457Y-206109151D01*
X82091789Y-206487284D01*
X82091783Y-206487297D01*
X81929385Y-206879358D01*
X81798254Y-207282943D01*
X81798247Y-207282966D01*
X81699181Y-207695607D01*
X81683000Y-207797774D01*
X81632796Y-208114750D01*
X81599500Y-208537814D01*
X68400500Y-208537814D01*
X68367204Y-208114750D01*
X68300818Y-207695602D01*
X68201750Y-207282955D01*
X68070612Y-206879353D01*
X67908211Y-206487284D01*
X67715550Y-206109165D01*
X67715544Y-206109156D01*
X67715542Y-206109151D01*
X67715539Y-206109146D01*
X67493823Y-205747340D01*
X67493816Y-205747328D01*
X67244377Y-205404003D01*
X67244372Y-205403996D01*
X66968774Y-205081314D01*
X66968769Y-205081308D01*
X66668692Y-204781231D01*
X66668685Y-204781225D01*
X66346003Y-204505627D01*
X66345989Y-204505617D01*
X66002692Y-204256198D01*
X66002683Y-204256192D01*
X66002672Y-204256184D01*
X66002659Y-204256176D01*
X65640853Y-204034460D01*
X65640848Y-204034457D01*
X65640838Y-204034452D01*
X65640835Y-204034450D01*
X65262716Y-203841789D01*
X65262702Y-203841783D01*
X64870641Y-203679385D01*
X64583478Y-203586081D01*
X64467045Y-203548250D01*
X64054398Y-203449182D01*
X63635250Y-203382796D01*
X63212191Y-203349500D01*
X63212186Y-203349500D01*
X62787814Y-203349500D01*
X62787808Y-203349500D01*
X62364749Y-203382796D01*
X62364748Y-203382796D01*
X61945607Y-203449181D01*
X61945604Y-203449181D01*
X61945602Y-203449182D01*
X61797817Y-203484661D01*
X61532966Y-203548247D01*
X61532960Y-203548248D01*
X61532955Y-203548250D01*
X61532943Y-203548254D01*
X61129358Y-203679385D01*
X60737297Y-203841783D01*
X60737284Y-203841789D01*
X60359151Y-204034457D01*
X60359146Y-204034460D01*
X59997340Y-204256176D01*
X59997307Y-204256198D01*
X59654010Y-204505617D01*
X59653996Y-204505627D01*
X59331314Y-204781225D01*
X59331300Y-204781238D01*
X59031238Y-205081300D01*
X59031225Y-205081314D01*
X58755627Y-205403996D01*
X58755617Y-205404010D01*
X58506198Y-205747307D01*
X58506176Y-205747340D01*
X58284460Y-206109146D01*
X58284457Y-206109151D01*
X58091789Y-206487284D01*
X58091783Y-206487297D01*
X57929385Y-206879358D01*
X57798254Y-207282943D01*
X57798247Y-207282966D01*
X57699181Y-207695607D01*
X57683000Y-207797774D01*
X57632796Y-208114750D01*
X57599500Y-208537814D01*
X50500500Y-208537814D01*
X50500500Y-185781669D01*
X57999500Y-185781669D01*
X57999500Y-186218330D01*
X58037557Y-186653320D01*
X58037557Y-186653324D01*
X58113379Y-187083327D01*
X58113383Y-187083344D01*
X58226392Y-187505105D01*
X58375740Y-187915434D01*
X58375746Y-187915449D01*
X58560272Y-188311164D01*
X58560277Y-188311174D01*
X58778603Y-188689326D01*
X58778607Y-188689332D01*
X58778614Y-188689343D01*
X59029057Y-189047013D01*
X59231930Y-189288787D01*
X59309732Y-189381507D01*
X59618493Y-189690268D01*
X59708395Y-189765705D01*
X59952986Y-189970942D01*
X60310656Y-190221385D01*
X60310663Y-190221389D01*
X60310674Y-190221397D01*
X60688826Y-190439723D01*
X60688835Y-190439727D01*
X61084550Y-190624253D01*
X61084555Y-190624255D01*
X61084568Y-190624261D01*
X61494888Y-190773605D01*
X61494889Y-190773605D01*
X61494894Y-190773607D01*
X61627398Y-190809110D01*
X61916663Y-190886619D01*
X62346682Y-190962443D01*
X62781671Y-191000499D01*
X62781672Y-191000500D01*
X62781673Y-191000500D01*
X63218328Y-191000500D01*
X63218328Y-191000499D01*
X63653318Y-190962443D01*
X64083337Y-190886619D01*
X64505112Y-190773605D01*
X64915432Y-190624261D01*
X65311174Y-190439723D01*
X65689326Y-190221397D01*
X66047012Y-189970943D01*
X66381507Y-189690268D01*
X66690268Y-189381507D01*
X66970943Y-189047012D01*
X67221397Y-188689326D01*
X67439723Y-188311174D01*
X67624261Y-187915432D01*
X67773605Y-187505112D01*
X67886619Y-187083337D01*
X67962443Y-186653318D01*
X68000500Y-186218327D01*
X68000500Y-185781673D01*
X68000500Y-185781669D01*
X81999500Y-185781669D01*
X81999500Y-186218330D01*
X82037557Y-186653320D01*
X82037557Y-186653324D01*
X82113379Y-187083327D01*
X82113383Y-187083344D01*
X82226392Y-187505105D01*
X82375740Y-187915434D01*
X82375746Y-187915449D01*
X82560272Y-188311164D01*
X82560277Y-188311174D01*
X82778603Y-188689326D01*
X82778607Y-188689332D01*
X82778614Y-188689343D01*
X83029057Y-189047013D01*
X83231930Y-189288787D01*
X83309732Y-189381507D01*
X83618493Y-189690268D01*
X83708395Y-189765705D01*
X83952986Y-189970942D01*
X84310656Y-190221385D01*
X84310663Y-190221389D01*
X84310674Y-190221397D01*
X84688826Y-190439723D01*
X84688835Y-190439727D01*
X85084550Y-190624253D01*
X85084555Y-190624255D01*
X85084568Y-190624261D01*
X85494888Y-190773605D01*
X85494889Y-190773605D01*
X85494894Y-190773607D01*
X85627398Y-190809110D01*
X85916663Y-190886619D01*
X86346682Y-190962443D01*
X86781671Y-191000499D01*
X86781672Y-191000500D01*
X86781673Y-191000500D01*
X87218328Y-191000500D01*
X87218328Y-191000499D01*
X87653318Y-190962443D01*
X88083337Y-190886619D01*
X88505112Y-190773605D01*
X88915432Y-190624261D01*
X89311174Y-190439723D01*
X89689326Y-190221397D01*
X90047012Y-189970943D01*
X90381507Y-189690268D01*
X90690268Y-189381507D01*
X90970943Y-189047012D01*
X91221397Y-188689326D01*
X91439723Y-188311174D01*
X91624261Y-187915432D01*
X91773605Y-187505112D01*
X91886619Y-187083337D01*
X91962443Y-186653318D01*
X92000500Y-186218327D01*
X92000500Y-185781673D01*
X91962443Y-185346682D01*
X91886619Y-184916663D01*
X91773605Y-184494888D01*
X91624261Y-184084568D01*
X91439723Y-183688826D01*
X91221397Y-183310674D01*
X91221389Y-183310663D01*
X91221385Y-183310656D01*
X90970942Y-182952986D01*
X90690265Y-182618490D01*
X90381509Y-182309734D01*
X90047013Y-182029057D01*
X89689343Y-181778614D01*
X89689332Y-181778607D01*
X89689326Y-181778603D01*
X89576978Y-181713739D01*
X89311180Y-181560280D01*
X89311164Y-181560272D01*
X88915449Y-181375746D01*
X88915434Y-181375740D01*
X88915432Y-181375739D01*
X88761301Y-181319640D01*
X88505105Y-181226392D01*
X88083344Y-181113383D01*
X88083347Y-181113383D01*
X88083337Y-181113381D01*
X88083331Y-181113379D01*
X88083327Y-181113379D01*
X87653322Y-181037557D01*
X87218330Y-180999500D01*
X87218327Y-180999500D01*
X86781673Y-180999500D01*
X86781669Y-180999500D01*
X86346679Y-181037557D01*
X86346675Y-181037557D01*
X85916672Y-181113379D01*
X85916655Y-181113383D01*
X85494894Y-181226392D01*
X85084565Y-181375740D01*
X85084550Y-181375746D01*
X84688835Y-181560272D01*
X84688819Y-181560280D01*
X84310682Y-181778598D01*
X84310656Y-181778614D01*
X83952986Y-182029057D01*
X83618490Y-182309734D01*
X83309734Y-182618490D01*
X83029057Y-182952986D01*
X82778614Y-183310656D01*
X82778598Y-183310682D01*
X82560280Y-183688819D01*
X82560272Y-183688835D01*
X82375746Y-184084550D01*
X82375740Y-184084565D01*
X82226392Y-184494894D01*
X82113383Y-184916655D01*
X82113379Y-184916672D01*
X82037557Y-185346675D01*
X82037557Y-185346679D01*
X81999500Y-185781669D01*
X68000500Y-185781669D01*
X67962443Y-185346682D01*
X67886619Y-184916663D01*
X67773605Y-184494888D01*
X67624261Y-184084568D01*
X67439723Y-183688826D01*
X67221397Y-183310674D01*
X67221389Y-183310663D01*
X67221385Y-183310656D01*
X66970942Y-182952986D01*
X66690265Y-182618490D01*
X66381509Y-182309734D01*
X66047013Y-182029057D01*
X65689343Y-181778614D01*
X65689332Y-181778607D01*
X65689326Y-181778603D01*
X65576978Y-181713739D01*
X65311180Y-181560280D01*
X65311164Y-181560272D01*
X64915449Y-181375746D01*
X64915434Y-181375740D01*
X64915432Y-181375739D01*
X64761301Y-181319640D01*
X64505105Y-181226392D01*
X64083344Y-181113383D01*
X64083347Y-181113383D01*
X64083337Y-181113381D01*
X64083331Y-181113379D01*
X64083327Y-181113379D01*
X63653322Y-181037557D01*
X63218330Y-180999500D01*
X63218327Y-180999500D01*
X62781673Y-180999500D01*
X62781669Y-180999500D01*
X62346679Y-181037557D01*
X62346675Y-181037557D01*
X61916672Y-181113379D01*
X61916655Y-181113383D01*
X61494894Y-181226392D01*
X61084565Y-181375740D01*
X61084550Y-181375746D01*
X60688835Y-181560272D01*
X60688819Y-181560280D01*
X60310682Y-181778598D01*
X60310656Y-181778614D01*
X59952986Y-182029057D01*
X59618490Y-182309734D01*
X59309734Y-182618490D01*
X59029057Y-182952986D01*
X58778614Y-183310656D01*
X58778598Y-183310682D01*
X58560280Y-183688819D01*
X58560272Y-183688835D01*
X58375746Y-184084550D01*
X58375740Y-184084565D01*
X58226392Y-184494894D01*
X58113383Y-184916655D01*
X58113379Y-184916672D01*
X58037557Y-185346675D01*
X58037557Y-185346679D01*
X57999500Y-185781669D01*
X50500500Y-185781669D01*
X50500500Y-159787814D01*
X53099500Y-159787814D01*
X53099500Y-159808097D01*
X53099500Y-160212186D01*
X53132796Y-160635250D01*
X53199182Y-161054398D01*
X53298250Y-161467045D01*
X53298254Y-161467056D01*
X53429385Y-161870641D01*
X53496000Y-162031463D01*
X53591789Y-162262716D01*
X53784450Y-162640835D01*
X53784457Y-162640848D01*
X53784460Y-162640853D01*
X53807375Y-162678246D01*
X54006184Y-163002672D01*
X54006192Y-163002683D01*
X54006198Y-163002692D01*
X54255617Y-163345989D01*
X54255627Y-163346003D01*
X54378919Y-163490358D01*
X54531231Y-163668692D01*
X54831308Y-163968769D01*
X54831314Y-163968774D01*
X55153996Y-164244372D01*
X55154010Y-164244382D01*
X55361749Y-164395313D01*
X55497328Y-164493816D01*
X55625685Y-164572473D01*
X55859146Y-164715539D01*
X55859151Y-164715542D01*
X55859156Y-164715544D01*
X55859165Y-164715550D01*
X56237284Y-164908211D01*
X56629353Y-165070612D01*
X56629358Y-165070614D01*
X56731979Y-165103957D01*
X57032955Y-165201750D01*
X57445602Y-165300818D01*
X57864750Y-165367204D01*
X58287814Y-165400500D01*
X58287822Y-165400500D01*
X58712178Y-165400500D01*
X58712186Y-165400500D01*
X59135250Y-165367204D01*
X59554398Y-165300818D01*
X59967045Y-165201750D01*
X60370647Y-165070612D01*
X60762716Y-164908211D01*
X61140835Y-164715550D01*
X61502672Y-164493816D01*
X61845997Y-164244377D01*
X62168692Y-163968769D01*
X62468769Y-163668692D01*
X62744377Y-163345997D01*
X62993816Y-163002672D01*
X63215550Y-162640835D01*
X63408211Y-162262716D01*
X63570612Y-161870647D01*
X63701750Y-161467045D01*
X63800818Y-161054398D01*
X63867204Y-160635250D01*
X63900500Y-160212186D01*
X63900500Y-159787814D01*
X63867204Y-159364750D01*
X63800818Y-158945602D01*
X63701750Y-158532955D01*
X63570612Y-158129353D01*
X63408211Y-157737284D01*
X63215550Y-157359165D01*
X63215544Y-157359156D01*
X63215542Y-157359151D01*
X63215539Y-157359146D01*
X62993823Y-156997340D01*
X62993816Y-156997328D01*
X62744377Y-156654003D01*
X62744372Y-156653996D01*
X62468774Y-156331314D01*
X62468769Y-156331308D01*
X62168692Y-156031231D01*
X62168685Y-156031225D01*
X61846003Y-155755627D01*
X61845989Y-155755617D01*
X61502692Y-155506198D01*
X61502683Y-155506192D01*
X61502672Y-155506184D01*
X61502659Y-155506176D01*
X61140853Y-155284460D01*
X61140848Y-155284457D01*
X61140838Y-155284452D01*
X61140835Y-155284450D01*
X60762716Y-155091789D01*
X60762702Y-155091783D01*
X60370641Y-154929385D01*
X60083478Y-154836081D01*
X59967045Y-154798250D01*
X59554398Y-154699182D01*
X59135250Y-154632796D01*
X58712191Y-154599500D01*
X58712186Y-154599500D01*
X58287814Y-154599500D01*
X58287808Y-154599500D01*
X57864749Y-154632796D01*
X57864748Y-154632796D01*
X57445607Y-154699181D01*
X57445604Y-154699181D01*
X57445602Y-154699182D01*
X57392324Y-154711973D01*
X57032966Y-154798247D01*
X57032960Y-154798248D01*
X57032955Y-154798250D01*
X57032943Y-154798254D01*
X56629358Y-154929385D01*
X56237297Y-155091783D01*
X56237284Y-155091789D01*
X55859151Y-155284457D01*
X55859146Y-155284460D01*
X55497340Y-155506176D01*
X55497307Y-155506198D01*
X55154010Y-155755617D01*
X55153996Y-155755627D01*
X54831314Y-156031225D01*
X54831300Y-156031238D01*
X54531238Y-156331300D01*
X54531225Y-156331314D01*
X54255627Y-156653996D01*
X54255617Y-156654010D01*
X54006198Y-156997307D01*
X54006176Y-156997340D01*
X53784460Y-157359146D01*
X53784457Y-157359151D01*
X53591789Y-157737284D01*
X53591783Y-157737297D01*
X53429385Y-158129358D01*
X53298254Y-158532943D01*
X53298247Y-158532966D01*
X53199181Y-158945607D01*
X53183000Y-159047774D01*
X53132796Y-159364750D01*
X53099500Y-159787814D01*
X50500500Y-159787814D01*
X50500500Y-150553471D01*
X78999500Y-150553471D01*
X78999500Y-150946528D01*
X79038026Y-151337702D01*
X79114704Y-151723194D01*
X79114707Y-151723205D01*
X79228810Y-152099354D01*
X79379230Y-152462499D01*
X79379232Y-152462504D01*
X79564511Y-152809137D01*
X79564522Y-152809155D01*
X79782887Y-153135960D01*
X79782897Y-153135974D01*
X80032254Y-153439817D01*
X80310182Y-153717745D01*
X80310187Y-153717749D01*
X80310188Y-153717750D01*
X80614031Y-153967107D01*
X80940851Y-154185482D01*
X80940860Y-154185487D01*
X80940862Y-154185488D01*
X81287495Y-154370767D01*
X81287497Y-154370767D01*
X81287503Y-154370771D01*
X81650647Y-154521190D01*
X82026785Y-154635290D01*
X82026791Y-154635291D01*
X82026794Y-154635292D01*
X82026805Y-154635295D01*
X82412297Y-154711973D01*
X82803468Y-154750500D01*
X82803471Y-154750500D01*
X83196529Y-154750500D01*
X83196532Y-154750500D01*
X83587703Y-154711973D01*
X83662748Y-154697045D01*
X83973194Y-154635295D01*
X83973205Y-154635292D01*
X83973205Y-154635291D01*
X83973215Y-154635290D01*
X84349353Y-154521190D01*
X84712497Y-154370771D01*
X85059149Y-154185482D01*
X85385969Y-153967107D01*
X85689812Y-153717750D01*
X85967750Y-153439812D01*
X86217107Y-153135969D01*
X86435482Y-152809149D01*
X86620771Y-152462497D01*
X86771190Y-152099353D01*
X86885290Y-151723215D01*
X86885292Y-151723205D01*
X86885295Y-151723194D01*
X86961973Y-151337702D01*
X87000500Y-150946528D01*
X87000500Y-150553471D01*
X86961973Y-150162297D01*
X86885295Y-149776805D01*
X86885292Y-149776794D01*
X86885291Y-149776791D01*
X86885290Y-149776785D01*
X86771190Y-149400647D01*
X86620771Y-149037503D01*
X86608355Y-149014275D01*
X86435488Y-148690862D01*
X86435487Y-148690860D01*
X86435482Y-148690851D01*
X86217107Y-148364031D01*
X85967750Y-148060188D01*
X85967749Y-148060187D01*
X85967745Y-148060182D01*
X85689817Y-147782254D01*
X85385974Y-147532897D01*
X85385973Y-147532896D01*
X85385969Y-147532893D01*
X85059149Y-147314518D01*
X85059144Y-147314515D01*
X85059137Y-147314511D01*
X84712504Y-147129232D01*
X84712499Y-147129230D01*
X84349354Y-146978810D01*
X83973205Y-146864707D01*
X83973194Y-146864704D01*
X83587702Y-146788026D01*
X83293089Y-146759010D01*
X83196532Y-146749500D01*
X82803468Y-146749500D01*
X82714251Y-146758287D01*
X82412297Y-146788026D01*
X82026805Y-146864704D01*
X82026794Y-146864707D01*
X81650645Y-146978810D01*
X81287500Y-147129230D01*
X81287495Y-147129232D01*
X80940862Y-147314511D01*
X80940844Y-147314522D01*
X80614039Y-147532887D01*
X80614025Y-147532897D01*
X80310182Y-147782254D01*
X80032254Y-148060182D01*
X79782897Y-148364025D01*
X79782887Y-148364039D01*
X79564522Y-148690844D01*
X79564511Y-148690862D01*
X79379232Y-149037495D01*
X79379230Y-149037500D01*
X79228810Y-149400645D01*
X79114707Y-149776794D01*
X79114704Y-149776805D01*
X79038026Y-150162297D01*
X78999500Y-150553471D01*
X50500500Y-150553471D01*
X50500500Y-141287814D01*
X53099500Y-141287814D01*
X53099500Y-141308097D01*
X53099500Y-141712186D01*
X53132796Y-142135250D01*
X53199182Y-142554398D01*
X53298250Y-142967045D01*
X53298254Y-142967056D01*
X53429385Y-143370641D01*
X53496000Y-143531463D01*
X53591789Y-143762716D01*
X53784450Y-144140835D01*
X53784457Y-144140848D01*
X53784460Y-144140853D01*
X53807375Y-144178246D01*
X54006184Y-144502672D01*
X54006192Y-144502683D01*
X54006198Y-144502692D01*
X54255617Y-144845989D01*
X54255627Y-144846003D01*
X54378919Y-144990358D01*
X54531231Y-145168692D01*
X54831308Y-145468769D01*
X54831314Y-145468774D01*
X55153996Y-145744372D01*
X55154010Y-145744382D01*
X55361749Y-145895313D01*
X55497328Y-145993816D01*
X55625685Y-146072473D01*
X55859146Y-146215539D01*
X55859151Y-146215542D01*
X55859156Y-146215544D01*
X55859165Y-146215550D01*
X56237284Y-146408211D01*
X56629353Y-146570612D01*
X56629358Y-146570614D01*
X56731979Y-146603957D01*
X57032955Y-146701750D01*
X57445602Y-146800818D01*
X57864750Y-146867204D01*
X58287814Y-146900500D01*
X58287822Y-146900500D01*
X58712178Y-146900500D01*
X58712186Y-146900500D01*
X59135250Y-146867204D01*
X59554398Y-146800818D01*
X59967045Y-146701750D01*
X60370647Y-146570612D01*
X60762716Y-146408211D01*
X61140835Y-146215550D01*
X61502672Y-145993816D01*
X61845997Y-145744377D01*
X62168692Y-145468769D01*
X62468769Y-145168692D01*
X62744377Y-144845997D01*
X62993816Y-144502672D01*
X63215550Y-144140835D01*
X63408211Y-143762716D01*
X63570612Y-143370647D01*
X63701750Y-142967045D01*
X63800818Y-142554398D01*
X63867204Y-142135250D01*
X63900500Y-141712186D01*
X63900500Y-141287814D01*
X63867204Y-140864750D01*
X63800818Y-140445602D01*
X63701750Y-140032955D01*
X63570612Y-139629353D01*
X63408211Y-139237284D01*
X63215550Y-138859165D01*
X63215544Y-138859156D01*
X63215542Y-138859151D01*
X63215539Y-138859146D01*
X62993823Y-138497340D01*
X62993816Y-138497328D01*
X62744377Y-138154003D01*
X62744372Y-138153996D01*
X62468774Y-137831314D01*
X62468769Y-137831308D01*
X62168692Y-137531231D01*
X62168685Y-137531225D01*
X61846003Y-137255627D01*
X61845989Y-137255617D01*
X61502692Y-137006198D01*
X61502683Y-137006192D01*
X61502672Y-137006184D01*
X61502659Y-137006176D01*
X61140853Y-136784460D01*
X61140848Y-136784457D01*
X61140838Y-136784452D01*
X61140835Y-136784450D01*
X60762716Y-136591789D01*
X60762702Y-136591783D01*
X60370641Y-136429385D01*
X60083478Y-136336081D01*
X59967045Y-136298250D01*
X59554398Y-136199182D01*
X59135250Y-136132796D01*
X58712191Y-136099500D01*
X58712186Y-136099500D01*
X58287814Y-136099500D01*
X58287808Y-136099500D01*
X57864749Y-136132796D01*
X57864748Y-136132796D01*
X57445607Y-136199181D01*
X57445604Y-136199181D01*
X57445602Y-136199182D01*
X57297817Y-136234661D01*
X57032966Y-136298247D01*
X57032960Y-136298248D01*
X57032955Y-136298250D01*
X57032943Y-136298254D01*
X56629358Y-136429385D01*
X56237297Y-136591783D01*
X56237284Y-136591789D01*
X55859151Y-136784457D01*
X55859146Y-136784460D01*
X55497340Y-137006176D01*
X55497307Y-137006198D01*
X55154010Y-137255617D01*
X55153996Y-137255627D01*
X54831314Y-137531225D01*
X54831300Y-137531238D01*
X54531238Y-137831300D01*
X54531225Y-137831314D01*
X54255627Y-138153996D01*
X54255617Y-138154010D01*
X54006198Y-138497307D01*
X54006176Y-138497340D01*
X53784460Y-138859146D01*
X53784457Y-138859151D01*
X53591789Y-139237284D01*
X53591783Y-139237297D01*
X53429385Y-139629358D01*
X53298254Y-140032943D01*
X53298247Y-140032966D01*
X53199181Y-140445607D01*
X53183000Y-140547774D01*
X53132796Y-140864750D01*
X53099500Y-141287814D01*
X50500500Y-141287814D01*
X50500500Y-117787814D01*
X57599500Y-117787814D01*
X57599500Y-117808097D01*
X57599500Y-118212186D01*
X57632796Y-118635250D01*
X57699182Y-119054398D01*
X57798250Y-119467045D01*
X57798254Y-119467056D01*
X57929385Y-119870641D01*
X57996000Y-120031463D01*
X58091789Y-120262716D01*
X58284450Y-120640835D01*
X58284457Y-120640848D01*
X58284460Y-120640853D01*
X58307375Y-120678246D01*
X58506184Y-121002672D01*
X58506192Y-121002683D01*
X58506198Y-121002692D01*
X58755617Y-121345989D01*
X58755627Y-121346003D01*
X58878919Y-121490358D01*
X59031231Y-121668692D01*
X59331308Y-121968769D01*
X59331314Y-121968774D01*
X59653996Y-122244372D01*
X59654010Y-122244382D01*
X59861749Y-122395313D01*
X59997328Y-122493816D01*
X60125685Y-122572473D01*
X60359146Y-122715539D01*
X60359151Y-122715542D01*
X60359156Y-122715544D01*
X60359165Y-122715550D01*
X60737284Y-122908211D01*
X61129353Y-123070612D01*
X61129358Y-123070614D01*
X61231979Y-123103957D01*
X61532955Y-123201750D01*
X61945602Y-123300818D01*
X62364750Y-123367204D01*
X62787814Y-123400500D01*
X62787822Y-123400500D01*
X63212178Y-123400500D01*
X63212186Y-123400500D01*
X63635250Y-123367204D01*
X64054398Y-123300818D01*
X64467045Y-123201750D01*
X64870647Y-123070612D01*
X65262716Y-122908211D01*
X65640835Y-122715550D01*
X66002672Y-122493816D01*
X66345997Y-122244377D01*
X66668692Y-121968769D01*
X66968769Y-121668692D01*
X67244377Y-121345997D01*
X67493816Y-121002672D01*
X67715550Y-120640835D01*
X67908211Y-120262716D01*
X68070612Y-119870647D01*
X68201750Y-119467045D01*
X68300818Y-119054398D01*
X68367204Y-118635250D01*
X68400500Y-118212186D01*
X68400500Y-117787814D01*
X81599500Y-117787814D01*
X81599500Y-117808097D01*
X81599500Y-118212186D01*
X81632796Y-118635250D01*
X81699182Y-119054398D01*
X81798250Y-119467045D01*
X81798254Y-119467056D01*
X81929385Y-119870641D01*
X81996000Y-120031463D01*
X82091789Y-120262716D01*
X82284450Y-120640835D01*
X82284457Y-120640848D01*
X82284460Y-120640853D01*
X82307375Y-120678246D01*
X82506184Y-121002672D01*
X82506192Y-121002683D01*
X82506198Y-121002692D01*
X82755617Y-121345989D01*
X82755627Y-121346003D01*
X82878919Y-121490358D01*
X83031231Y-121668692D01*
X83331308Y-121968769D01*
X83331314Y-121968774D01*
X83653996Y-122244372D01*
X83654010Y-122244382D01*
X83861749Y-122395313D01*
X83997328Y-122493816D01*
X84125685Y-122572473D01*
X84359146Y-122715539D01*
X84359151Y-122715542D01*
X84359156Y-122715544D01*
X84359165Y-122715550D01*
X84737284Y-122908211D01*
X85129353Y-123070612D01*
X85129358Y-123070614D01*
X85231979Y-123103957D01*
X85532955Y-123201750D01*
X85945602Y-123300818D01*
X86364750Y-123367204D01*
X86787814Y-123400500D01*
X86787822Y-123400500D01*
X87212178Y-123400500D01*
X87212186Y-123400500D01*
X87635250Y-123367204D01*
X88054398Y-123300818D01*
X88467045Y-123201750D01*
X88870647Y-123070612D01*
X89262716Y-122908211D01*
X89640835Y-122715550D01*
X90002672Y-122493816D01*
X90345997Y-122244377D01*
X90668692Y-121968769D01*
X90968769Y-121668692D01*
X91244377Y-121345997D01*
X91493816Y-121002672D01*
X91715550Y-120640835D01*
X91908211Y-120262716D01*
X92070612Y-119870647D01*
X92201750Y-119467045D01*
X92300818Y-119054398D01*
X92367204Y-118635250D01*
X92400500Y-118212186D01*
X92400500Y-117787814D01*
X92367204Y-117364750D01*
X92300818Y-116945602D01*
X92201750Y-116532955D01*
X92070612Y-116129353D01*
X91908211Y-115737284D01*
X91715550Y-115359165D01*
X91715544Y-115359156D01*
X91715542Y-115359151D01*
X91715539Y-115359146D01*
X91493823Y-114997340D01*
X91493816Y-114997328D01*
X91244377Y-114654003D01*
X91244372Y-114653996D01*
X90968774Y-114331314D01*
X90968769Y-114331308D01*
X90668692Y-114031231D01*
X90668685Y-114031225D01*
X90346003Y-113755627D01*
X90345989Y-113755617D01*
X90002692Y-113506198D01*
X90002683Y-113506192D01*
X90002672Y-113506184D01*
X90002659Y-113506176D01*
X89640853Y-113284460D01*
X89640848Y-113284457D01*
X89640838Y-113284452D01*
X89640835Y-113284450D01*
X89262716Y-113091789D01*
X89262702Y-113091783D01*
X88870641Y-112929385D01*
X88583478Y-112836081D01*
X88467045Y-112798250D01*
X88054398Y-112699182D01*
X87635250Y-112632796D01*
X87212191Y-112599500D01*
X87212186Y-112599500D01*
X86787814Y-112599500D01*
X86787808Y-112599500D01*
X86364749Y-112632796D01*
X86364748Y-112632796D01*
X85945607Y-112699181D01*
X85945604Y-112699181D01*
X85945602Y-112699182D01*
X85797817Y-112734661D01*
X85532966Y-112798247D01*
X85532960Y-112798248D01*
X85532955Y-112798250D01*
X85532943Y-112798254D01*
X85129358Y-112929385D01*
X84737297Y-113091783D01*
X84737284Y-113091789D01*
X84359151Y-113284457D01*
X84359146Y-113284460D01*
X83997340Y-113506176D01*
X83997307Y-113506198D01*
X83654010Y-113755617D01*
X83653996Y-113755627D01*
X83331314Y-114031225D01*
X83331300Y-114031238D01*
X83031238Y-114331300D01*
X83031225Y-114331314D01*
X82755627Y-114653996D01*
X82755617Y-114654010D01*
X82506198Y-114997307D01*
X82506176Y-114997340D01*
X82284460Y-115359146D01*
X82284457Y-115359151D01*
X82091789Y-115737284D01*
X82091783Y-115737297D01*
X81929385Y-116129358D01*
X81798254Y-116532943D01*
X81798247Y-116532966D01*
X81699181Y-116945607D01*
X81683000Y-117047774D01*
X81632796Y-117364750D01*
X81599500Y-117787814D01*
X68400500Y-117787814D01*
X68367204Y-117364750D01*
X68300818Y-116945602D01*
X68201750Y-116532955D01*
X68070612Y-116129353D01*
X67908211Y-115737284D01*
X67715550Y-115359165D01*
X67715544Y-115359156D01*
X67715542Y-115359151D01*
X67715539Y-115359146D01*
X67493823Y-114997340D01*
X67493816Y-114997328D01*
X67244377Y-114654003D01*
X67244372Y-114653996D01*
X66968774Y-114331314D01*
X66968769Y-114331308D01*
X66668692Y-114031231D01*
X66668685Y-114031225D01*
X66346003Y-113755627D01*
X66345989Y-113755617D01*
X66002692Y-113506198D01*
X66002683Y-113506192D01*
X66002672Y-113506184D01*
X66002659Y-113506176D01*
X65640853Y-113284460D01*
X65640848Y-113284457D01*
X65640838Y-113284452D01*
X65640835Y-113284450D01*
X65262716Y-113091789D01*
X65262702Y-113091783D01*
X64870641Y-112929385D01*
X64583478Y-112836081D01*
X64467045Y-112798250D01*
X64054398Y-112699182D01*
X63635250Y-112632796D01*
X63212191Y-112599500D01*
X63212186Y-112599500D01*
X62787814Y-112599500D01*
X62787808Y-112599500D01*
X62364749Y-112632796D01*
X62364748Y-112632796D01*
X61945607Y-112699181D01*
X61945604Y-112699181D01*
X61945602Y-112699182D01*
X61797817Y-112734661D01*
X61532966Y-112798247D01*
X61532960Y-112798248D01*
X61532955Y-112798250D01*
X61532943Y-112798254D01*
X61129358Y-112929385D01*
X60737297Y-113091783D01*
X60737284Y-113091789D01*
X60359151Y-113284457D01*
X60359146Y-113284460D01*
X59997340Y-113506176D01*
X59997307Y-113506198D01*
X59654010Y-113755617D01*
X59653996Y-113755627D01*
X59331314Y-114031225D01*
X59331300Y-114031238D01*
X59031238Y-114331300D01*
X59031225Y-114331314D01*
X58755627Y-114653996D01*
X58755617Y-114654010D01*
X58506198Y-114997307D01*
X58506176Y-114997340D01*
X58284460Y-115359146D01*
X58284457Y-115359151D01*
X58091789Y-115737284D01*
X58091783Y-115737297D01*
X57929385Y-116129358D01*
X57798254Y-116532943D01*
X57798247Y-116532966D01*
X57699181Y-116945607D01*
X57683000Y-117047774D01*
X57632796Y-117364750D01*
X57599500Y-117787814D01*
X50500500Y-117787814D01*
X50500500Y-95031669D01*
X57999500Y-95031669D01*
X57999500Y-95468330D01*
X58037557Y-95903320D01*
X58037557Y-95903324D01*
X58113379Y-96333327D01*
X58113383Y-96333344D01*
X58226392Y-96755105D01*
X58375740Y-97165434D01*
X58375746Y-97165449D01*
X58560272Y-97561164D01*
X58560277Y-97561174D01*
X58778603Y-97939326D01*
X58778607Y-97939332D01*
X58778614Y-97939343D01*
X59029057Y-98297013D01*
X59231930Y-98538787D01*
X59309732Y-98631507D01*
X59618493Y-98940268D01*
X59708395Y-99015705D01*
X59952986Y-99220942D01*
X60310656Y-99471385D01*
X60310663Y-99471389D01*
X60310674Y-99471397D01*
X60688826Y-99689723D01*
X60688835Y-99689727D01*
X61084550Y-99874253D01*
X61084555Y-99874255D01*
X61084568Y-99874261D01*
X61494888Y-100023605D01*
X61494889Y-100023605D01*
X61494894Y-100023607D01*
X61627398Y-100059110D01*
X61916663Y-100136619D01*
X62346682Y-100212443D01*
X62781671Y-100250499D01*
X62781672Y-100250500D01*
X62781673Y-100250500D01*
X63218328Y-100250500D01*
X63218328Y-100250499D01*
X63653318Y-100212443D01*
X64083337Y-100136619D01*
X64505112Y-100023605D01*
X64915432Y-99874261D01*
X65311174Y-99689723D01*
X65689326Y-99471397D01*
X66047012Y-99220943D01*
X66381507Y-98940268D01*
X66690268Y-98631507D01*
X66970943Y-98297012D01*
X67221397Y-97939326D01*
X67439723Y-97561174D01*
X67624261Y-97165432D01*
X67773605Y-96755112D01*
X67886619Y-96333337D01*
X67962443Y-95903318D01*
X68000500Y-95468327D01*
X68000500Y-95031673D01*
X68000500Y-95031669D01*
X81999500Y-95031669D01*
X81999500Y-95468330D01*
X82037557Y-95903320D01*
X82037557Y-95903324D01*
X82113379Y-96333327D01*
X82113383Y-96333344D01*
X82226392Y-96755105D01*
X82375740Y-97165434D01*
X82375746Y-97165449D01*
X82560272Y-97561164D01*
X82560277Y-97561174D01*
X82778603Y-97939326D01*
X82778607Y-97939332D01*
X82778614Y-97939343D01*
X83029057Y-98297013D01*
X83231930Y-98538787D01*
X83309732Y-98631507D01*
X83618493Y-98940268D01*
X83708395Y-99015705D01*
X83952986Y-99220942D01*
X84310656Y-99471385D01*
X84310663Y-99471389D01*
X84310674Y-99471397D01*
X84688826Y-99689723D01*
X84688835Y-99689727D01*
X85084550Y-99874253D01*
X85084555Y-99874255D01*
X85084568Y-99874261D01*
X85494888Y-100023605D01*
X85494889Y-100023605D01*
X85494894Y-100023607D01*
X85627398Y-100059110D01*
X85916663Y-100136619D01*
X86346682Y-100212443D01*
X86781671Y-100250499D01*
X86781672Y-100250500D01*
X86781673Y-100250500D01*
X87218328Y-100250500D01*
X87218328Y-100250499D01*
X87653318Y-100212443D01*
X88083337Y-100136619D01*
X88505112Y-100023605D01*
X88915432Y-99874261D01*
X89311174Y-99689723D01*
X89689326Y-99471397D01*
X90047012Y-99220943D01*
X90381507Y-98940268D01*
X90690268Y-98631507D01*
X90970943Y-98297012D01*
X91221397Y-97939326D01*
X91439723Y-97561174D01*
X91624261Y-97165432D01*
X91773605Y-96755112D01*
X91886619Y-96333337D01*
X91962443Y-95903318D01*
X92000500Y-95468327D01*
X92000500Y-95031673D01*
X91962443Y-94596682D01*
X91886619Y-94166663D01*
X91773605Y-93744888D01*
X91624261Y-93334568D01*
X91439723Y-92938826D01*
X91221397Y-92560674D01*
X91221389Y-92560663D01*
X91221385Y-92560656D01*
X90970942Y-92202986D01*
X90690265Y-91868490D01*
X90381509Y-91559734D01*
X90047013Y-91279057D01*
X89689343Y-91028614D01*
X89689332Y-91028607D01*
X89689326Y-91028603D01*
X89576978Y-90963739D01*
X89311180Y-90810280D01*
X89311164Y-90810272D01*
X88915449Y-90625746D01*
X88915434Y-90625740D01*
X88915432Y-90625739D01*
X88761301Y-90569640D01*
X88505105Y-90476392D01*
X88083344Y-90363383D01*
X88083347Y-90363383D01*
X88083337Y-90363381D01*
X88083331Y-90363379D01*
X88083327Y-90363379D01*
X87653322Y-90287557D01*
X87218330Y-90249500D01*
X87218327Y-90249500D01*
X86781673Y-90249500D01*
X86781669Y-90249500D01*
X86346679Y-90287557D01*
X86346675Y-90287557D01*
X85916672Y-90363379D01*
X85916655Y-90363383D01*
X85494894Y-90476392D01*
X85084565Y-90625740D01*
X85084550Y-90625746D01*
X84688835Y-90810272D01*
X84688819Y-90810280D01*
X84310682Y-91028598D01*
X84310656Y-91028614D01*
X83952986Y-91279057D01*
X83618490Y-91559734D01*
X83309734Y-91868490D01*
X83029057Y-92202986D01*
X82778614Y-92560656D01*
X82778598Y-92560682D01*
X82560280Y-92938819D01*
X82560272Y-92938835D01*
X82375746Y-93334550D01*
X82375740Y-93334565D01*
X82226392Y-93744894D01*
X82113383Y-94166655D01*
X82113379Y-94166672D01*
X82037557Y-94596675D01*
X82037557Y-94596679D01*
X81999500Y-95031669D01*
X68000500Y-95031669D01*
X67962443Y-94596682D01*
X67886619Y-94166663D01*
X67773605Y-93744888D01*
X67624261Y-93334568D01*
X67439723Y-92938826D01*
X67221397Y-92560674D01*
X67221389Y-92560663D01*
X67221385Y-92560656D01*
X66970942Y-92202986D01*
X66690265Y-91868490D01*
X66381509Y-91559734D01*
X66047013Y-91279057D01*
X65689343Y-91028614D01*
X65689332Y-91028607D01*
X65689326Y-91028603D01*
X65576978Y-90963739D01*
X65311180Y-90810280D01*
X65311164Y-90810272D01*
X64915449Y-90625746D01*
X64915434Y-90625740D01*
X64915432Y-90625739D01*
X64761301Y-90569640D01*
X64505105Y-90476392D01*
X64083344Y-90363383D01*
X64083347Y-90363383D01*
X64083337Y-90363381D01*
X64083331Y-90363379D01*
X64083327Y-90363379D01*
X63653322Y-90287557D01*
X63218330Y-90249500D01*
X63218327Y-90249500D01*
X62781673Y-90249500D01*
X62781669Y-90249500D01*
X62346679Y-90287557D01*
X62346675Y-90287557D01*
X61916672Y-90363379D01*
X61916655Y-90363383D01*
X61494894Y-90476392D01*
X61084565Y-90625740D01*
X61084550Y-90625746D01*
X60688835Y-90810272D01*
X60688819Y-90810280D01*
X60310682Y-91028598D01*
X60310656Y-91028614D01*
X59952986Y-91279057D01*
X59618490Y-91559734D01*
X59309734Y-91868490D01*
X59029057Y-92202986D01*
X58778614Y-92560656D01*
X58778598Y-92560682D01*
X58560280Y-92938819D01*
X58560272Y-92938835D01*
X58375746Y-93334550D01*
X58375740Y-93334565D01*
X58226392Y-93744894D01*
X58113383Y-94166655D01*
X58113379Y-94166672D01*
X58037557Y-94596675D01*
X58037557Y-94596679D01*
X57999500Y-95031669D01*
X50500500Y-95031669D01*
X50500500Y-69037814D01*
X53099500Y-69037814D01*
X53099500Y-69058097D01*
X53099500Y-69462186D01*
X53132796Y-69885250D01*
X53199182Y-70304398D01*
X53298250Y-70717045D01*
X53298254Y-70717056D01*
X53429385Y-71120641D01*
X53496000Y-71281463D01*
X53591789Y-71512716D01*
X53784450Y-71890835D01*
X53784457Y-71890848D01*
X53784460Y-71890853D01*
X53807375Y-71928246D01*
X54006184Y-72252672D01*
X54006192Y-72252683D01*
X54006198Y-72252692D01*
X54255617Y-72595989D01*
X54255627Y-72596003D01*
X54378919Y-72740358D01*
X54531231Y-72918692D01*
X54831308Y-73218769D01*
X54831314Y-73218774D01*
X55153996Y-73494372D01*
X55154010Y-73494382D01*
X55361749Y-73645313D01*
X55497328Y-73743816D01*
X55625685Y-73822473D01*
X55859146Y-73965539D01*
X55859151Y-73965542D01*
X55859156Y-73965544D01*
X55859165Y-73965550D01*
X56237284Y-74158211D01*
X56629353Y-74320612D01*
X56629358Y-74320614D01*
X56731979Y-74353957D01*
X57032955Y-74451750D01*
X57445602Y-74550818D01*
X57864750Y-74617204D01*
X58287814Y-74650500D01*
X58287822Y-74650500D01*
X58712178Y-74650500D01*
X58712186Y-74650500D01*
X59135250Y-74617204D01*
X59554398Y-74550818D01*
X59967045Y-74451750D01*
X60370647Y-74320612D01*
X60762716Y-74158211D01*
X61140835Y-73965550D01*
X61502672Y-73743816D01*
X61845997Y-73494377D01*
X62168692Y-73218769D01*
X62468769Y-72918692D01*
X62744377Y-72595997D01*
X62993816Y-72252672D01*
X63215550Y-71890835D01*
X63408211Y-71512716D01*
X63570612Y-71120647D01*
X63701750Y-70717045D01*
X63800818Y-70304398D01*
X63867204Y-69885250D01*
X63900500Y-69462186D01*
X63900500Y-69037814D01*
X63867204Y-68614750D01*
X63800818Y-68195602D01*
X63701750Y-67782955D01*
X63570612Y-67379353D01*
X63408211Y-66987284D01*
X63215550Y-66609165D01*
X63215544Y-66609156D01*
X63215542Y-66609151D01*
X63215539Y-66609146D01*
X62993823Y-66247340D01*
X62993816Y-66247328D01*
X62744377Y-65904003D01*
X62744372Y-65903996D01*
X62468774Y-65581314D01*
X62468769Y-65581308D01*
X62168692Y-65281231D01*
X62168685Y-65281225D01*
X61846003Y-65005627D01*
X61845989Y-65005617D01*
X61502692Y-64756198D01*
X61502683Y-64756192D01*
X61502672Y-64756184D01*
X61502659Y-64756176D01*
X61140853Y-64534460D01*
X61140848Y-64534457D01*
X61140838Y-64534452D01*
X61140835Y-64534450D01*
X60762716Y-64341789D01*
X60762702Y-64341783D01*
X60370641Y-64179385D01*
X60083478Y-64086081D01*
X59967045Y-64048250D01*
X59554398Y-63949182D01*
X59135250Y-63882796D01*
X58712191Y-63849500D01*
X58712186Y-63849500D01*
X58287814Y-63849500D01*
X58287808Y-63849500D01*
X57864749Y-63882796D01*
X57864748Y-63882796D01*
X57445607Y-63949181D01*
X57445604Y-63949181D01*
X57445602Y-63949182D01*
X57392324Y-63961973D01*
X57032966Y-64048247D01*
X57032960Y-64048248D01*
X57032955Y-64048250D01*
X57032943Y-64048254D01*
X56629358Y-64179385D01*
X56237297Y-64341783D01*
X56237284Y-64341789D01*
X55859151Y-64534457D01*
X55859146Y-64534460D01*
X55497340Y-64756176D01*
X55497307Y-64756198D01*
X55154010Y-65005617D01*
X55153996Y-65005627D01*
X54831314Y-65281225D01*
X54831300Y-65281238D01*
X54531238Y-65581300D01*
X54531225Y-65581314D01*
X54255627Y-65903996D01*
X54255617Y-65904010D01*
X54006198Y-66247307D01*
X54006176Y-66247340D01*
X53784460Y-66609146D01*
X53784457Y-66609151D01*
X53591789Y-66987284D01*
X53591783Y-66987297D01*
X53429385Y-67379358D01*
X53298254Y-67782943D01*
X53298247Y-67782966D01*
X53199181Y-68195607D01*
X53183000Y-68297774D01*
X53132796Y-68614750D01*
X53099500Y-69037814D01*
X50500500Y-69037814D01*
X50500500Y-59803471D01*
X78999500Y-59803471D01*
X78999500Y-60196528D01*
X79038026Y-60587702D01*
X79114704Y-60973194D01*
X79114707Y-60973205D01*
X79228810Y-61349354D01*
X79379230Y-61712499D01*
X79379232Y-61712504D01*
X79564511Y-62059137D01*
X79564522Y-62059155D01*
X79782887Y-62385960D01*
X79782897Y-62385974D01*
X80032254Y-62689817D01*
X80310182Y-62967745D01*
X80310187Y-62967749D01*
X80310188Y-62967750D01*
X80614031Y-63217107D01*
X80940851Y-63435482D01*
X80940860Y-63435487D01*
X80940862Y-63435488D01*
X81287495Y-63620767D01*
X81287497Y-63620767D01*
X81287503Y-63620771D01*
X81650647Y-63771190D01*
X82026785Y-63885290D01*
X82026791Y-63885291D01*
X82026794Y-63885292D01*
X82026805Y-63885295D01*
X82412297Y-63961973D01*
X82803468Y-64000500D01*
X82803471Y-64000500D01*
X83196529Y-64000500D01*
X83196532Y-64000500D01*
X83587703Y-63961973D01*
X83662748Y-63947045D01*
X83973194Y-63885295D01*
X83973205Y-63885292D01*
X83973205Y-63885291D01*
X83973215Y-63885290D01*
X84349353Y-63771190D01*
X84712497Y-63620771D01*
X85059149Y-63435482D01*
X85385969Y-63217107D01*
X85689812Y-62967750D01*
X85967750Y-62689812D01*
X86217107Y-62385969D01*
X86435482Y-62059149D01*
X86620771Y-61712497D01*
X86771190Y-61349353D01*
X86885290Y-60973215D01*
X86885292Y-60973205D01*
X86885295Y-60973194D01*
X86961973Y-60587702D01*
X87000500Y-60196528D01*
X87000500Y-59803471D01*
X86961973Y-59412297D01*
X86885295Y-59026805D01*
X86885292Y-59026794D01*
X86885291Y-59026791D01*
X86885290Y-59026785D01*
X86771190Y-58650647D01*
X86620771Y-58287503D01*
X86608355Y-58264275D01*
X86435488Y-57940862D01*
X86435487Y-57940860D01*
X86435482Y-57940851D01*
X86217107Y-57614031D01*
X85967750Y-57310188D01*
X85967749Y-57310187D01*
X85967745Y-57310182D01*
X85689817Y-57032254D01*
X85385974Y-56782897D01*
X85385973Y-56782896D01*
X85385969Y-56782893D01*
X85059149Y-56564518D01*
X85059144Y-56564515D01*
X85059137Y-56564511D01*
X84712504Y-56379232D01*
X84712499Y-56379230D01*
X84349354Y-56228810D01*
X83973205Y-56114707D01*
X83973194Y-56114704D01*
X83587702Y-56038026D01*
X83293089Y-56009010D01*
X83196532Y-55999500D01*
X82803468Y-55999500D01*
X82714251Y-56008287D01*
X82412297Y-56038026D01*
X82026805Y-56114704D01*
X82026794Y-56114707D01*
X81650645Y-56228810D01*
X81287500Y-56379230D01*
X81287495Y-56379232D01*
X80940862Y-56564511D01*
X80940844Y-56564522D01*
X80614039Y-56782887D01*
X80614025Y-56782897D01*
X80310182Y-57032254D01*
X80032254Y-57310182D01*
X79782897Y-57614025D01*
X79782887Y-57614039D01*
X79564522Y-57940844D01*
X79564511Y-57940862D01*
X79379232Y-58287495D01*
X79379230Y-58287500D01*
X79228810Y-58650645D01*
X79114707Y-59026794D01*
X79114704Y-59026805D01*
X79038026Y-59412297D01*
X78999500Y-59803471D01*
X50500500Y-59803471D01*
X50500500Y-50537814D01*
X53099500Y-50537814D01*
X53099500Y-50558097D01*
X53099500Y-50962186D01*
X53132796Y-51385250D01*
X53199182Y-51804398D01*
X53298250Y-52217045D01*
X53298254Y-52217056D01*
X53429385Y-52620641D01*
X53496000Y-52781463D01*
X53591789Y-53012716D01*
X53784450Y-53390835D01*
X53784457Y-53390848D01*
X53784460Y-53390853D01*
X53807375Y-53428246D01*
X54006184Y-53752672D01*
X54006192Y-53752683D01*
X54006198Y-53752692D01*
X54255617Y-54095989D01*
X54255627Y-54096003D01*
X54378919Y-54240358D01*
X54531231Y-54418692D01*
X54831308Y-54718769D01*
X54831314Y-54718774D01*
X55153996Y-54994372D01*
X55154010Y-54994382D01*
X55361749Y-55145313D01*
X55497328Y-55243816D01*
X55625685Y-55322473D01*
X55859146Y-55465539D01*
X55859151Y-55465542D01*
X55859156Y-55465544D01*
X55859165Y-55465550D01*
X56237284Y-55658211D01*
X56629353Y-55820612D01*
X56629358Y-55820614D01*
X56731979Y-55853957D01*
X57032955Y-55951750D01*
X57445602Y-56050818D01*
X57864750Y-56117204D01*
X58287814Y-56150500D01*
X58287822Y-56150500D01*
X58712178Y-56150500D01*
X58712186Y-56150500D01*
X59135250Y-56117204D01*
X59554398Y-56050818D01*
X59967045Y-55951750D01*
X60370647Y-55820612D01*
X60762716Y-55658211D01*
X61140835Y-55465550D01*
X61502672Y-55243816D01*
X61845997Y-54994377D01*
X62168692Y-54718769D01*
X62468769Y-54418692D01*
X62744377Y-54095997D01*
X62993816Y-53752672D01*
X63215550Y-53390835D01*
X63408211Y-53012716D01*
X63570612Y-52620647D01*
X63701750Y-52217045D01*
X63800818Y-51804398D01*
X63867204Y-51385250D01*
X63900500Y-50962186D01*
X63900500Y-50537814D01*
X63867204Y-50114750D01*
X63800818Y-49695602D01*
X63701750Y-49282955D01*
X63570612Y-48879353D01*
X63408211Y-48487284D01*
X63215550Y-48109165D01*
X63215544Y-48109156D01*
X63215542Y-48109151D01*
X63215539Y-48109146D01*
X62993823Y-47747340D01*
X62993816Y-47747328D01*
X62744377Y-47404003D01*
X62744372Y-47403996D01*
X62468774Y-47081314D01*
X62468769Y-47081308D01*
X62168692Y-46781231D01*
X62168685Y-46781225D01*
X61846003Y-46505627D01*
X61845989Y-46505617D01*
X61502692Y-46256198D01*
X61502683Y-46256192D01*
X61502672Y-46256184D01*
X61502659Y-46256176D01*
X61140853Y-46034460D01*
X61140848Y-46034457D01*
X61140838Y-46034452D01*
X61140835Y-46034450D01*
X60762716Y-45841789D01*
X60762702Y-45841783D01*
X60370641Y-45679385D01*
X60083478Y-45586081D01*
X59967045Y-45548250D01*
X59554398Y-45449182D01*
X59135250Y-45382796D01*
X58712191Y-45349500D01*
X58712186Y-45349500D01*
X58287814Y-45349500D01*
X58287808Y-45349500D01*
X57864749Y-45382796D01*
X57864748Y-45382796D01*
X57445607Y-45449181D01*
X57445604Y-45449181D01*
X57445602Y-45449182D01*
X57297817Y-45484661D01*
X57032966Y-45548247D01*
X57032960Y-45548248D01*
X57032955Y-45548250D01*
X57032943Y-45548254D01*
X56629358Y-45679385D01*
X56237297Y-45841783D01*
X56237284Y-45841789D01*
X55859151Y-46034457D01*
X55859146Y-46034460D01*
X55497340Y-46256176D01*
X55497307Y-46256198D01*
X55154010Y-46505617D01*
X55153996Y-46505627D01*
X54831314Y-46781225D01*
X54831300Y-46781238D01*
X54531238Y-47081300D01*
X54531225Y-47081314D01*
X54255627Y-47403996D01*
X54255617Y-47404010D01*
X54006198Y-47747307D01*
X54006176Y-47747340D01*
X53784460Y-48109146D01*
X53784457Y-48109151D01*
X53591789Y-48487284D01*
X53591783Y-48487297D01*
X53429385Y-48879358D01*
X53298254Y-49282943D01*
X53298247Y-49282966D01*
X53199181Y-49695607D01*
X53183000Y-49797774D01*
X53132796Y-50114750D01*
X53099500Y-50537814D01*
X50500500Y-50537814D01*
X50500500Y-30624500D01*
X50520185Y-30557461D01*
X50572989Y-30511706D01*
X50624500Y-30500500D01*
X99375500Y-30500500D01*
X99442539Y-30520185D01*
G37*
%TD.AperFunction*%
%TD*%
M02*
