%TF.GenerationSoftware,KiCad,Pcbnew,9.0.0*%
%TF.CreationDate,2025-03-16T11:37:03+01:00*%
%TF.ProjectId,DMH_Transistor_VCA_PANEL,444d485f-5472-4616-9e73-6973746f725f,rev?*%
%TF.SameCoordinates,Original*%
%TF.FileFunction,Soldermask,Top*%
%TF.FilePolarity,Negative*%
%FSLAX46Y46*%
G04 Gerber Fmt 4.6, Leading zero omitted, Abs format (unit mm)*
G04 Created by KiCad (PCBNEW 9.0.0) date 2025-03-16 11:37:03*
%MOMM*%
%LPD*%
G01*
G04 APERTURE LIST*
%ADD10C,12.000000*%
%ADD11C,0.500000*%
%ADD12C,4.000000*%
%ADD13O,2.500000X1.500000*%
G04 APERTURE END LIST*
D10*
%TO.C,H14*%
X63000000Y-186000000D03*
%TD*%
%TO.C,H13*%
X87000000Y-186000000D03*
%TD*%
%TO.C,H7*%
X87000000Y-95250000D03*
%TD*%
%TO.C,H6*%
X63000000Y-95250000D03*
%TD*%
D11*
%TO.C,H9*%
X57300000Y-118000000D03*
X58960000Y-113970000D03*
X58970000Y-122040000D03*
X63000000Y-112300000D03*
D10*
X63000000Y-118000000D03*
D11*
X63000000Y-123700000D03*
X67030000Y-122040000D03*
X67040000Y-113970000D03*
X68700000Y-118000000D03*
%TD*%
D12*
%TO.C,H3*%
X53500000Y-226500000D03*
%TD*%
D11*
%TO.C,H8*%
X52800000Y-50750000D03*
X54460000Y-46720000D03*
X54470000Y-54790000D03*
X58500000Y-45050000D03*
D10*
X58500000Y-50750000D03*
D11*
X58500000Y-56450000D03*
X62530000Y-54790000D03*
X62540000Y-46720000D03*
X64200000Y-50750000D03*
%TD*%
%TO.C,H15*%
X52800000Y-141500000D03*
X54460000Y-137470000D03*
X54470000Y-145540000D03*
X58500000Y-135800000D03*
D10*
X58500000Y-141500000D03*
D11*
X58500000Y-147200000D03*
X62530000Y-145540000D03*
X62540000Y-137470000D03*
X64200000Y-141500000D03*
%TD*%
%TO.C,H17*%
X57300000Y-208750000D03*
X58960000Y-204720000D03*
X58970000Y-212790000D03*
X63000000Y-203050000D03*
D10*
X63000000Y-208750000D03*
D11*
X63000000Y-214450000D03*
X67030000Y-212790000D03*
X67040000Y-204720000D03*
X68700000Y-208750000D03*
%TD*%
%TO.C,H10*%
X81300000Y-118000000D03*
X82960000Y-113970000D03*
X82970000Y-122040000D03*
X87000000Y-112300000D03*
D10*
X87000000Y-118000000D03*
D11*
X87000000Y-123700000D03*
X91030000Y-122040000D03*
X91040000Y-113970000D03*
X92700000Y-118000000D03*
%TD*%
D10*
%TO.C,H5*%
X83000000Y-60000000D03*
D13*
X83000000Y-66000000D03*
%TD*%
D11*
%TO.C,H11*%
X52800000Y-69250000D03*
X54460000Y-65220000D03*
X54470000Y-73290000D03*
X58500000Y-63550000D03*
D10*
X58500000Y-69250000D03*
D11*
X58500000Y-74950000D03*
X62530000Y-73290000D03*
X62540000Y-65220000D03*
X64200000Y-69250000D03*
%TD*%
D12*
%TO.C,H2*%
X96500000Y-33500000D03*
%TD*%
%TO.C,H4*%
X96500000Y-226500000D03*
%TD*%
D11*
%TO.C,H18*%
X81300000Y-208750000D03*
X82960000Y-204720000D03*
X82970000Y-212790000D03*
X87000000Y-203050000D03*
D10*
X87000000Y-208750000D03*
D11*
X87000000Y-214450000D03*
X91030000Y-212790000D03*
X91040000Y-204720000D03*
X92700000Y-208750000D03*
%TD*%
D12*
%TO.C,H1*%
X53500000Y-33500000D03*
%TD*%
D11*
%TO.C,H16*%
X52800000Y-160000000D03*
X54460000Y-155970000D03*
X54470000Y-164040000D03*
X58500000Y-154300000D03*
D10*
X58500000Y-160000000D03*
D11*
X58500000Y-165700000D03*
X62530000Y-164040000D03*
X62540000Y-155970000D03*
X64200000Y-160000000D03*
%TD*%
D10*
%TO.C,H12*%
X83000000Y-150750000D03*
D13*
X83000000Y-156750000D03*
%TD*%
M02*
