%TF.GenerationSoftware,KiCad,Pcbnew,9.0.0*%
%TF.CreationDate,2025-03-16T11:49:47+01:00*%
%TF.ProjectId,DMH_Transistor_VCA_PCB,444d485f-5472-4616-9e73-6973746f725f,1*%
%TF.SameCoordinates,Original*%
%TF.FileFunction,Soldermask,Bot*%
%TF.FilePolarity,Negative*%
%FSLAX46Y46*%
G04 Gerber Fmt 4.6, Leading zero omitted, Abs format (unit mm)*
G04 Created by KiCad (PCBNEW 9.0.0) date 2025-03-16 11:49:47*
%MOMM*%
%LPD*%
G01*
G04 APERTURE LIST*
G04 Aperture macros list*
%AMRoundRect*
0 Rectangle with rounded corners*
0 $1 Rounding radius*
0 $2 $3 $4 $5 $6 $7 $8 $9 X,Y pos of 4 corners*
0 Add a 4 corners polygon primitive as box body*
4,1,4,$2,$3,$4,$5,$6,$7,$8,$9,$2,$3,0*
0 Add four circle primitives for the rounded corners*
1,1,$1+$1,$2,$3*
1,1,$1+$1,$4,$5*
1,1,$1+$1,$6,$7*
1,1,$1+$1,$8,$9*
0 Add four rect primitives between the rounded corners*
20,1,$1+$1,$2,$3,$4,$5,0*
20,1,$1+$1,$4,$5,$6,$7,0*
20,1,$1+$1,$6,$7,$8,$9,0*
20,1,$1+$1,$8,$9,$2,$3,0*%
%AMHorizOval*
0 Thick line with rounded ends*
0 $1 width*
0 $2 $3 position (X,Y) of the first rounded end (center of the circle)*
0 $4 $5 position (X,Y) of the second rounded end (center of the circle)*
0 Add line between two ends*
20,1,$1,$2,$3,$4,$5,0*
0 Add two circle primitives to create the rounded ends*
1,1,$1,$2,$3*
1,1,$1,$4,$5*%
G04 Aperture macros list end*
%ADD10RoundRect,0.250000X0.550000X0.550000X-0.550000X0.550000X-0.550000X-0.550000X0.550000X-0.550000X0*%
%ADD11C,1.600000*%
%ADD12R,1.700000X1.700000*%
%ADD13O,1.700000X1.700000*%
%ADD14HorizOval,1.508000X-0.533159X-0.533159X0.533159X0.533159X0*%
%ADD15O,1.508000X3.016000*%
%ADD16O,3.016000X1.508000*%
%ADD17O,1.600000X1.600000*%
%ADD18R,2.200000X2.200000*%
%ADD19O,2.200000X2.200000*%
%ADD20R,1.600000X1.600000*%
%ADD21R,1.500000X1.500000*%
%ADD22C,1.500000*%
%ADD23C,1.440000*%
%ADD24RoundRect,0.250000X-0.600000X0.600000X-0.600000X-0.600000X0.600000X-0.600000X0.600000X0.600000X0*%
%ADD25C,1.700000*%
%ADD26RoundRect,0.250000X0.600000X-0.600000X0.600000X0.600000X-0.600000X0.600000X-0.600000X-0.600000X0*%
G04 APERTURE END LIST*
D10*
%TO.C,U1*%
X86800000Y-72875000D03*
D11*
X86800000Y-75415000D03*
X86800000Y-77955000D03*
X86800000Y-80495000D03*
X86800000Y-83035000D03*
X86800000Y-85575000D03*
X86800000Y-88115000D03*
X79180000Y-88115000D03*
X79180000Y-85575000D03*
X79180000Y-83035000D03*
X79180000Y-80495000D03*
X79180000Y-77955000D03*
X79180000Y-75415000D03*
X79180000Y-72875000D03*
%TD*%
D10*
%TO.C,U2*%
X86800000Y-163625000D03*
D11*
X86800000Y-166165000D03*
X86800000Y-168705000D03*
X86800000Y-171245000D03*
X86800000Y-173785000D03*
X86800000Y-176325000D03*
X86800000Y-178865000D03*
X79180000Y-178865000D03*
X79180000Y-176325000D03*
X79180000Y-173785000D03*
X79180000Y-171245000D03*
X79180000Y-168705000D03*
X79180000Y-166165000D03*
X79180000Y-163625000D03*
%TD*%
D12*
%TO.C,J60*%
X53000000Y-180375000D03*
D13*
X53000000Y-182915000D03*
X53000000Y-185455000D03*
X53000000Y-187995000D03*
X53000000Y-190535000D03*
X53000000Y-193075000D03*
X53000000Y-195615000D03*
X53000000Y-198155000D03*
%TD*%
D14*
%TO.C,J1*%
X53903810Y-46153810D03*
D15*
X65000000Y-50250000D03*
D16*
X61000000Y-44250000D03*
%TD*%
D14*
%TO.C,J3*%
X58403810Y-113403810D03*
D15*
X69500000Y-117500000D03*
D16*
X65500000Y-111500000D03*
%TD*%
D14*
%TO.C,J5*%
X53903810Y-136903810D03*
D15*
X65000000Y-141000000D03*
D16*
X61000000Y-135000000D03*
%TD*%
D12*
%TO.C,J50*%
X97000000Y-83620000D03*
D13*
X97000000Y-81080000D03*
X97000000Y-78540000D03*
X97000000Y-76000000D03*
X97000000Y-73460000D03*
X97000000Y-70920000D03*
X97000000Y-68380000D03*
X97000000Y-65840000D03*
%TD*%
D14*
%TO.C,J7*%
X58403810Y-204153810D03*
D15*
X69500000Y-208250000D03*
D16*
X65500000Y-202250000D03*
%TD*%
D14*
%TO.C,J6*%
X53903810Y-155403810D03*
D15*
X65000000Y-159500000D03*
D16*
X61000000Y-153500000D03*
%TD*%
D14*
%TO.C,J8*%
X82403810Y-204153810D03*
D15*
X93500000Y-208250000D03*
D16*
X89500000Y-202250000D03*
%TD*%
D14*
%TO.C,J2*%
X53903810Y-64653810D03*
D15*
X65000000Y-68750000D03*
D16*
X61000000Y-62750000D03*
%TD*%
D14*
%TO.C,J4*%
X82403810Y-113403810D03*
D15*
X93500000Y-117500000D03*
D16*
X89500000Y-111500000D03*
%TD*%
D11*
%TO.C,R26*%
X69000000Y-167440000D03*
D17*
X69000000Y-175060000D03*
%TD*%
D18*
%TO.C,D2*%
X97000000Y-44170000D03*
D19*
X97000000Y-54330000D03*
%TD*%
D20*
%TO.C,C2*%
X90794888Y-57500000D03*
D11*
X92794888Y-57500000D03*
%TD*%
D18*
%TO.C,D1*%
X69250000Y-54330000D03*
D19*
X69250000Y-44170000D03*
%TD*%
D11*
%TO.C,R17*%
X69500000Y-76690000D03*
D17*
X69500000Y-84310000D03*
%TD*%
D11*
%TO.C,R3*%
X86810000Y-66250000D03*
D17*
X79190000Y-66250000D03*
%TD*%
D11*
%TO.C,R25*%
X69000000Y-155940000D03*
D17*
X69000000Y-163560000D03*
%TD*%
D11*
%TO.C,C6*%
X76250000Y-84250000D03*
X76250000Y-79250000D03*
%TD*%
%TO.C,R1*%
X79190000Y-63000000D03*
D17*
X86810000Y-63000000D03*
%TD*%
D21*
%TO.C,Q1*%
X81000000Y-103460000D03*
D22*
X81000000Y-106000000D03*
X81000000Y-108540000D03*
%TD*%
D11*
%TO.C,R32*%
X90000000Y-186560000D03*
D17*
X90000000Y-178940000D03*
%TD*%
D21*
%TO.C,Q2*%
X85050000Y-108550000D03*
D22*
X85050000Y-106010000D03*
X85050000Y-103470000D03*
%TD*%
D11*
%TO.C,C3*%
X69250000Y-56750000D03*
X69250000Y-61750000D03*
%TD*%
%TO.C,R12*%
X86750000Y-92690000D03*
D17*
X86750000Y-100310000D03*
%TD*%
D11*
%TO.C,R42*%
X69000000Y-178940000D03*
D17*
X69000000Y-186560000D03*
%TD*%
D23*
%TO.C,RV8*%
X95500000Y-168460000D03*
X95500000Y-171000000D03*
X95500000Y-173540000D03*
%TD*%
D11*
%TO.C,C7*%
X89750000Y-170000000D03*
X89750000Y-175000000D03*
%TD*%
%TO.C,R41*%
X72250000Y-186560000D03*
D17*
X72250000Y-178940000D03*
%TD*%
D11*
%TO.C,C4*%
X97000000Y-61750000D03*
X97000000Y-56750000D03*
%TD*%
%TO.C,R35*%
X73750000Y-190940000D03*
D17*
X73750000Y-198560000D03*
%TD*%
D11*
%TO.C,C8*%
X76250000Y-175000000D03*
X76250000Y-170000000D03*
%TD*%
%TO.C,R30*%
X72250000Y-163560000D03*
D17*
X72250000Y-155940000D03*
%TD*%
D11*
%TO.C,R36*%
X79750000Y-183190000D03*
D17*
X79750000Y-190810000D03*
%TD*%
D21*
%TO.C,Q3*%
X85050000Y-199290000D03*
D22*
X85050000Y-196750000D03*
X85050000Y-194210000D03*
%TD*%
D11*
%TO.C,R38*%
X95250000Y-178940000D03*
D17*
X95250000Y-186560000D03*
%TD*%
D23*
%TO.C,RV10*%
X92800000Y-130000000D03*
X90260000Y-130000000D03*
X87720000Y-130000000D03*
%TD*%
D11*
%TO.C,R15*%
X89750000Y-108560000D03*
D17*
X89750000Y-100940000D03*
%TD*%
D11*
%TO.C,R4*%
X90000000Y-88190000D03*
D17*
X90000000Y-95810000D03*
%TD*%
D23*
%TO.C,RV12*%
X92790000Y-147750000D03*
X90250000Y-147750000D03*
X87710000Y-147750000D03*
%TD*%
D11*
%TO.C,R31*%
X72250000Y-167440000D03*
D17*
X72250000Y-175060000D03*
%TD*%
D11*
%TO.C,C5*%
X89750000Y-79250000D03*
X89750000Y-84250000D03*
%TD*%
D20*
%TO.C,C1*%
X73294888Y-57500000D03*
D11*
X75294888Y-57500000D03*
%TD*%
%TO.C,R39*%
X75500000Y-178940000D03*
D17*
X75500000Y-186560000D03*
%TD*%
D11*
%TO.C,R7*%
X69500000Y-95810000D03*
D17*
X69500000Y-88190000D03*
%TD*%
D11*
%TO.C,R16*%
X72750000Y-76690000D03*
D17*
X72750000Y-84310000D03*
%TD*%
D23*
%TO.C,RV7*%
X92250000Y-64450000D03*
X92250000Y-66990000D03*
X92250000Y-69530000D03*
%TD*%
%TO.C,RV9*%
X85540000Y-56750000D03*
X83000000Y-56750000D03*
X80460000Y-56750000D03*
%TD*%
D11*
%TO.C,R22*%
X91500000Y-155690000D03*
D17*
X91500000Y-163310000D03*
%TD*%
D11*
%TO.C,R20*%
X72750000Y-72810000D03*
D17*
X72750000Y-65190000D03*
%TD*%
D11*
%TO.C,R6*%
X96500000Y-95810000D03*
D17*
X96500000Y-88190000D03*
%TD*%
D11*
%TO.C,R23*%
X94750000Y-155690000D03*
D17*
X94750000Y-163310000D03*
%TD*%
D24*
%TO.C,J200*%
X77920000Y-138247500D03*
D25*
X80460000Y-138247500D03*
X83000000Y-138247500D03*
X85540000Y-138247500D03*
X88080000Y-138247500D03*
X77920000Y-140787500D03*
X80460000Y-140787500D03*
X83000000Y-140787500D03*
X85540000Y-140787500D03*
X88080000Y-140787500D03*
%TD*%
D11*
%TO.C,R9*%
X72750000Y-88190000D03*
D17*
X72750000Y-95810000D03*
%TD*%
D11*
%TO.C,R10*%
X79250000Y-92690000D03*
D17*
X79250000Y-100310000D03*
%TD*%
D11*
%TO.C,R13*%
X83000000Y-92690000D03*
D17*
X83000000Y-100310000D03*
%TD*%
D11*
%TO.C,R19*%
X69500000Y-72810000D03*
D17*
X69500000Y-65190000D03*
%TD*%
D11*
%TO.C,R14*%
X94250000Y-108560000D03*
D17*
X94250000Y-100940000D03*
%TD*%
D11*
%TO.C,R24*%
X79190000Y-157000000D03*
D17*
X86810000Y-157000000D03*
%TD*%
D11*
%TO.C,R34*%
X83000000Y-183190000D03*
D17*
X83000000Y-190810000D03*
%TD*%
D11*
%TO.C,R11*%
X75310000Y-100250000D03*
D17*
X67690000Y-100250000D03*
%TD*%
D23*
%TO.C,RV11*%
X78040000Y-147750000D03*
X75500000Y-147750000D03*
X72960000Y-147750000D03*
%TD*%
D11*
%TO.C,R33*%
X86250000Y-190810000D03*
D17*
X86250000Y-183190000D03*
%TD*%
D11*
%TO.C,R8*%
X76000000Y-88190000D03*
D17*
X76000000Y-95810000D03*
%TD*%
D26*
%TO.C,J100*%
X88080000Y-49002500D03*
D25*
X88080000Y-46462500D03*
X85540000Y-49002500D03*
X85540000Y-46462500D03*
X83000000Y-49002500D03*
X83000000Y-46462500D03*
X80460000Y-49002500D03*
X80460000Y-46462500D03*
X77920000Y-49002500D03*
X77920000Y-46462500D03*
%TD*%
D11*
%TO.C,R29*%
X75500000Y-155940000D03*
D17*
X75500000Y-163560000D03*
%TD*%
D21*
%TO.C,Q4*%
X81000000Y-194210000D03*
D22*
X81000000Y-196750000D03*
X81000000Y-199290000D03*
%TD*%
D11*
%TO.C,R28*%
X86810000Y-153750000D03*
D17*
X79190000Y-153750000D03*
%TD*%
D11*
%TO.C,R18*%
X76000000Y-65190000D03*
D17*
X76000000Y-72810000D03*
%TD*%
M02*
