%TF.GenerationSoftware,KiCad,Pcbnew,9.0.0*%
%TF.CreationDate,2025-03-16T11:49:52+01:00*%
%TF.ProjectId,DMH_Transistor_VCA_PCB,444d485f-5472-4616-9e73-6973746f725f,1*%
%TF.SameCoordinates,Original*%
%TF.FileFunction,Drillmap*%
%TF.FilePolarity,Positive*%
%FSLAX45Y45*%
G04 Gerber Fmt 4.5, Leading zero omitted, Abs format (unit mm)*
G04 Created by KiCad (PCBNEW 9.0.0) date 2025-03-16 11:49:52*
%MOMM*%
%LPD*%
G01*
G04 APERTURE LIST*
%ADD10C,0.050000*%
%ADD11C,0.200000*%
%ADD12C,0.100000*%
%ADD13C,0.110000*%
G04 APERTURE END LIST*
D10*
X5100000Y-4250000D02*
X9900000Y-4250000D01*
X9900000Y-21750000D01*
X5100000Y-21750000D01*
X5100000Y-4250000D01*
D11*
D12*
X6729000Y-9985000D02*
X6809000Y-10065000D01*
X6809000Y-9985000D02*
X6729000Y-10065000D01*
X6860000Y-15554000D02*
X6940000Y-15634000D01*
X6940000Y-15554000D02*
X6860000Y-15634000D01*
X6860000Y-16316000D02*
X6940000Y-16396000D01*
X6940000Y-16316000D02*
X6860000Y-16396000D01*
X6860000Y-16704000D02*
X6940000Y-16784000D01*
X6940000Y-16704000D02*
X6860000Y-16784000D01*
X6860000Y-17466000D02*
X6940000Y-17546000D01*
X6940000Y-17466000D02*
X6860000Y-17546000D01*
X6860000Y-17854000D02*
X6940000Y-17934000D01*
X6940000Y-17854000D02*
X6860000Y-17934000D01*
X6860000Y-18616000D02*
X6940000Y-18696000D01*
X6940000Y-18616000D02*
X6860000Y-18696000D01*
X6885000Y-5635000D02*
X6965000Y-5715000D01*
X6965000Y-5635000D02*
X6885000Y-5715000D01*
X6885000Y-6135000D02*
X6965000Y-6215000D01*
X6965000Y-6135000D02*
X6885000Y-6215000D01*
X6910000Y-6479000D02*
X6990000Y-6559000D01*
X6990000Y-6479000D02*
X6910000Y-6559000D01*
X6910000Y-7241000D02*
X6990000Y-7321000D01*
X6990000Y-7241000D02*
X6910000Y-7321000D01*
X6910000Y-7629000D02*
X6990000Y-7709000D01*
X6990000Y-7629000D02*
X6910000Y-7709000D01*
X6910000Y-8391000D02*
X6990000Y-8471000D01*
X6990000Y-8391000D02*
X6910000Y-8471000D01*
X6910000Y-8779000D02*
X6990000Y-8859000D01*
X6990000Y-8779000D02*
X6910000Y-8859000D01*
X6910000Y-9541000D02*
X6990000Y-9621000D01*
X6990000Y-9541000D02*
X6910000Y-9621000D01*
X7185000Y-15554000D02*
X7265000Y-15634000D01*
X7265000Y-15554000D02*
X7185000Y-15634000D01*
X7185000Y-16316000D02*
X7265000Y-16396000D01*
X7265000Y-16316000D02*
X7185000Y-16396000D01*
X7185000Y-16704000D02*
X7265000Y-16784000D01*
X7265000Y-16704000D02*
X7185000Y-16784000D01*
X7185000Y-17466000D02*
X7265000Y-17546000D01*
X7265000Y-17466000D02*
X7185000Y-17546000D01*
X7185000Y-17854000D02*
X7265000Y-17934000D01*
X7265000Y-17854000D02*
X7185000Y-17934000D01*
X7185000Y-18616000D02*
X7265000Y-18696000D01*
X7265000Y-18616000D02*
X7185000Y-18696000D01*
X7235000Y-6479000D02*
X7315000Y-6559000D01*
X7315000Y-6479000D02*
X7235000Y-6559000D01*
X7235000Y-7241000D02*
X7315000Y-7321000D01*
X7315000Y-7241000D02*
X7235000Y-7321000D01*
X7235000Y-7629000D02*
X7315000Y-7709000D01*
X7315000Y-7629000D02*
X7235000Y-7709000D01*
X7235000Y-8391000D02*
X7315000Y-8471000D01*
X7315000Y-8391000D02*
X7235000Y-8471000D01*
X7235000Y-8779000D02*
X7315000Y-8859000D01*
X7315000Y-8779000D02*
X7235000Y-8859000D01*
X7235000Y-9541000D02*
X7315000Y-9621000D01*
X7315000Y-9541000D02*
X7235000Y-9621000D01*
X7256000Y-14735000D02*
X7336000Y-14815000D01*
X7336000Y-14735000D02*
X7256000Y-14815000D01*
X7289489Y-5710000D02*
X7369489Y-5790000D01*
X7369489Y-5710000D02*
X7289489Y-5790000D01*
X7335000Y-19054000D02*
X7415000Y-19134000D01*
X7415000Y-19054000D02*
X7335000Y-19134000D01*
X7335000Y-19816000D02*
X7415000Y-19896000D01*
X7415000Y-19816000D02*
X7335000Y-19896000D01*
X7489489Y-5710000D02*
X7569489Y-5790000D01*
X7569489Y-5710000D02*
X7489489Y-5790000D01*
X7491000Y-9985000D02*
X7571000Y-10065000D01*
X7571000Y-9985000D02*
X7491000Y-10065000D01*
X7510000Y-14735000D02*
X7590000Y-14815000D01*
X7590000Y-14735000D02*
X7510000Y-14815000D01*
X7510000Y-15554000D02*
X7590000Y-15634000D01*
X7590000Y-15554000D02*
X7510000Y-15634000D01*
X7510000Y-16316000D02*
X7590000Y-16396000D01*
X7590000Y-16316000D02*
X7510000Y-16396000D01*
X7510000Y-17854000D02*
X7590000Y-17934000D01*
X7590000Y-17854000D02*
X7510000Y-17934000D01*
X7510000Y-18616000D02*
X7590000Y-18696000D01*
X7590000Y-18616000D02*
X7510000Y-18696000D01*
X7560000Y-6479000D02*
X7640000Y-6559000D01*
X7640000Y-6479000D02*
X7560000Y-6559000D01*
X7560000Y-7241000D02*
X7640000Y-7321000D01*
X7640000Y-7241000D02*
X7560000Y-7321000D01*
X7560000Y-8779000D02*
X7640000Y-8859000D01*
X7640000Y-8779000D02*
X7560000Y-8859000D01*
X7560000Y-9541000D02*
X7640000Y-9621000D01*
X7640000Y-9541000D02*
X7560000Y-9621000D01*
X7585000Y-7885000D02*
X7665000Y-7965000D01*
X7665000Y-7885000D02*
X7585000Y-7965000D01*
X7585000Y-8385000D02*
X7665000Y-8465000D01*
X7665000Y-8385000D02*
X7585000Y-8465000D01*
X7585000Y-16960000D02*
X7665000Y-17040000D01*
X7665000Y-16960000D02*
X7585000Y-17040000D01*
X7585000Y-17460000D02*
X7665000Y-17540000D01*
X7665000Y-17460000D02*
X7585000Y-17540000D01*
X7764000Y-14735000D02*
X7844000Y-14815000D01*
X7844000Y-14735000D02*
X7764000Y-14815000D01*
X7878000Y-7247500D02*
X7958000Y-7327500D01*
X7958000Y-7247500D02*
X7878000Y-7327500D01*
X7878000Y-7501500D02*
X7958000Y-7581500D01*
X7958000Y-7501500D02*
X7878000Y-7581500D01*
X7878000Y-7755500D02*
X7958000Y-7835500D01*
X7958000Y-7755500D02*
X7878000Y-7835500D01*
X7878000Y-8009500D02*
X7958000Y-8089500D01*
X7958000Y-8009500D02*
X7878000Y-8089500D01*
X7878000Y-8263500D02*
X7958000Y-8343500D01*
X7958000Y-8263500D02*
X7878000Y-8343500D01*
X7878000Y-8517500D02*
X7958000Y-8597500D01*
X7958000Y-8517500D02*
X7878000Y-8597500D01*
X7878000Y-8771500D02*
X7958000Y-8851500D01*
X7958000Y-8771500D02*
X7878000Y-8851500D01*
X7878000Y-16322500D02*
X7958000Y-16402500D01*
X7958000Y-16322500D02*
X7878000Y-16402500D01*
X7878000Y-16576500D02*
X7958000Y-16656500D01*
X7958000Y-16576500D02*
X7878000Y-16656500D01*
X7878000Y-16830500D02*
X7958000Y-16910500D01*
X7958000Y-16830500D02*
X7878000Y-16910500D01*
X7878000Y-17084500D02*
X7958000Y-17164500D01*
X7958000Y-17084500D02*
X7878000Y-17164500D01*
X7878000Y-17338500D02*
X7958000Y-17418500D01*
X7958000Y-17338500D02*
X7878000Y-17418500D01*
X7878000Y-17592500D02*
X7958000Y-17672500D01*
X7958000Y-17592500D02*
X7878000Y-17672500D01*
X7878000Y-17846500D02*
X7958000Y-17926500D01*
X7958000Y-17846500D02*
X7878000Y-17926500D01*
X7879000Y-6260000D02*
X7959000Y-6340000D01*
X7959000Y-6260000D02*
X7879000Y-6340000D01*
X7879000Y-6585000D02*
X7959000Y-6665000D01*
X7959000Y-6585000D02*
X7879000Y-6665000D01*
X7879000Y-15335000D02*
X7959000Y-15415000D01*
X7959000Y-15335000D02*
X7879000Y-15415000D01*
X7879000Y-15660000D02*
X7959000Y-15740000D01*
X7959000Y-15660000D02*
X7879000Y-15740000D01*
X7885000Y-9229000D02*
X7965000Y-9309000D01*
X7965000Y-9229000D02*
X7885000Y-9309000D01*
X7885000Y-9991000D02*
X7965000Y-10071000D01*
X7965000Y-9991000D02*
X7885000Y-10071000D01*
X7935000Y-18279000D02*
X8015000Y-18359000D01*
X8015000Y-18279000D02*
X7935000Y-18359000D01*
X7935000Y-19041000D02*
X8015000Y-19121000D01*
X8015000Y-19041000D02*
X7935000Y-19121000D01*
X8006000Y-5635000D02*
X8086000Y-5715000D01*
X8086000Y-5635000D02*
X8006000Y-5715000D01*
X8060000Y-10306000D02*
X8140000Y-10386000D01*
X8140000Y-10306000D02*
X8060000Y-10386000D01*
X8060000Y-10560000D02*
X8140000Y-10640000D01*
X8140000Y-10560000D02*
X8060000Y-10640000D01*
X8060000Y-10814000D02*
X8140000Y-10894000D01*
X8140000Y-10814000D02*
X8060000Y-10894000D01*
X8060000Y-19381000D02*
X8140000Y-19461000D01*
X8140000Y-19381000D02*
X8060000Y-19461000D01*
X8060000Y-19635000D02*
X8140000Y-19715000D01*
X8140000Y-19635000D02*
X8060000Y-19715000D01*
X8060000Y-19889000D02*
X8140000Y-19969000D01*
X8140000Y-19889000D02*
X8060000Y-19969000D01*
X8260000Y-5635000D02*
X8340000Y-5715000D01*
X8340000Y-5635000D02*
X8260000Y-5715000D01*
X8260000Y-9229000D02*
X8340000Y-9309000D01*
X8340000Y-9229000D02*
X8260000Y-9309000D01*
X8260000Y-9991000D02*
X8340000Y-10071000D01*
X8340000Y-9991000D02*
X8260000Y-10071000D01*
X8260000Y-18279000D02*
X8340000Y-18359000D01*
X8340000Y-18279000D02*
X8260000Y-18359000D01*
X8260000Y-19041000D02*
X8340000Y-19121000D01*
X8340000Y-19041000D02*
X8260000Y-19121000D01*
X8465000Y-10307000D02*
X8545000Y-10387000D01*
X8545000Y-10307000D02*
X8465000Y-10387000D01*
X8465000Y-10561000D02*
X8545000Y-10641000D01*
X8545000Y-10561000D02*
X8465000Y-10641000D01*
X8465000Y-10815000D02*
X8545000Y-10895000D01*
X8545000Y-10815000D02*
X8465000Y-10895000D01*
X8465000Y-19381000D02*
X8545000Y-19461000D01*
X8545000Y-19381000D02*
X8465000Y-19461000D01*
X8465000Y-19635000D02*
X8545000Y-19715000D01*
X8545000Y-19635000D02*
X8465000Y-19715000D01*
X8465000Y-19889000D02*
X8545000Y-19969000D01*
X8545000Y-19889000D02*
X8465000Y-19969000D01*
X8514000Y-5635000D02*
X8594000Y-5715000D01*
X8594000Y-5635000D02*
X8514000Y-5715000D01*
X8585000Y-18279000D02*
X8665000Y-18359000D01*
X8665000Y-18279000D02*
X8585000Y-18359000D01*
X8585000Y-19041000D02*
X8665000Y-19121000D01*
X8665000Y-19041000D02*
X8585000Y-19121000D01*
X8635000Y-9229000D02*
X8715000Y-9309000D01*
X8715000Y-9229000D02*
X8635000Y-9309000D01*
X8635000Y-9991000D02*
X8715000Y-10071000D01*
X8715000Y-9991000D02*
X8635000Y-10071000D01*
X8640000Y-7247500D02*
X8720000Y-7327500D01*
X8720000Y-7247500D02*
X8640000Y-7327500D01*
X8640000Y-7501500D02*
X8720000Y-7581500D01*
X8720000Y-7501500D02*
X8640000Y-7581500D01*
X8640000Y-7755500D02*
X8720000Y-7835500D01*
X8720000Y-7755500D02*
X8640000Y-7835500D01*
X8640000Y-8009500D02*
X8720000Y-8089500D01*
X8720000Y-8009500D02*
X8640000Y-8089500D01*
X8640000Y-8263500D02*
X8720000Y-8343500D01*
X8720000Y-8263500D02*
X8640000Y-8343500D01*
X8640000Y-8517500D02*
X8720000Y-8597500D01*
X8720000Y-8517500D02*
X8640000Y-8597500D01*
X8640000Y-8771500D02*
X8720000Y-8851500D01*
X8720000Y-8771500D02*
X8640000Y-8851500D01*
X8640000Y-16322500D02*
X8720000Y-16402500D01*
X8720000Y-16322500D02*
X8640000Y-16402500D01*
X8640000Y-16576500D02*
X8720000Y-16656500D01*
X8720000Y-16576500D02*
X8640000Y-16656500D01*
X8640000Y-16830500D02*
X8720000Y-16910500D01*
X8720000Y-16830500D02*
X8640000Y-16910500D01*
X8640000Y-17084500D02*
X8720000Y-17164500D01*
X8720000Y-17084500D02*
X8640000Y-17164500D01*
X8640000Y-17338500D02*
X8720000Y-17418500D01*
X8720000Y-17338500D02*
X8640000Y-17418500D01*
X8640000Y-17592500D02*
X8720000Y-17672500D01*
X8720000Y-17592500D02*
X8640000Y-17672500D01*
X8640000Y-17846500D02*
X8720000Y-17926500D01*
X8720000Y-17846500D02*
X8640000Y-17926500D01*
X8641000Y-6260000D02*
X8721000Y-6340000D01*
X8721000Y-6260000D02*
X8641000Y-6340000D01*
X8641000Y-6585000D02*
X8721000Y-6665000D01*
X8721000Y-6585000D02*
X8641000Y-6665000D01*
X8641000Y-15335000D02*
X8721000Y-15415000D01*
X8721000Y-15335000D02*
X8641000Y-15415000D01*
X8641000Y-15660000D02*
X8721000Y-15740000D01*
X8721000Y-15660000D02*
X8641000Y-15740000D01*
X8731000Y-14735000D02*
X8811000Y-14815000D01*
X8811000Y-14735000D02*
X8731000Y-14815000D01*
X8732000Y-12960000D02*
X8812000Y-13040000D01*
X8812000Y-12960000D02*
X8732000Y-13040000D01*
X8935000Y-7885000D02*
X9015000Y-7965000D01*
X9015000Y-7885000D02*
X8935000Y-7965000D01*
X8935000Y-8385000D02*
X9015000Y-8465000D01*
X9015000Y-8385000D02*
X8935000Y-8465000D01*
X8935000Y-10054000D02*
X9015000Y-10134000D01*
X9015000Y-10054000D02*
X8935000Y-10134000D01*
X8935000Y-10816000D02*
X9015000Y-10896000D01*
X9015000Y-10816000D02*
X8935000Y-10896000D01*
X8935000Y-16960000D02*
X9015000Y-17040000D01*
X9015000Y-16960000D02*
X8935000Y-17040000D01*
X8935000Y-17460000D02*
X9015000Y-17540000D01*
X9015000Y-17460000D02*
X8935000Y-17540000D01*
X8960000Y-8779000D02*
X9040000Y-8859000D01*
X9040000Y-8779000D02*
X8960000Y-8859000D01*
X8960000Y-9541000D02*
X9040000Y-9621000D01*
X9040000Y-9541000D02*
X8960000Y-9621000D01*
X8960000Y-17854000D02*
X9040000Y-17934000D01*
X9040000Y-17854000D02*
X8960000Y-17934000D01*
X8960000Y-18616000D02*
X9040000Y-18696000D01*
X9040000Y-18616000D02*
X8960000Y-18696000D01*
X8985000Y-14735000D02*
X9065000Y-14815000D01*
X9065000Y-14735000D02*
X8985000Y-14815000D01*
X8986000Y-12960000D02*
X9066000Y-13040000D01*
X9066000Y-12960000D02*
X8986000Y-13040000D01*
X9039489Y-5710000D02*
X9119489Y-5790000D01*
X9119489Y-5710000D02*
X9039489Y-5790000D01*
X9110000Y-15529000D02*
X9190000Y-15609000D01*
X9190000Y-15529000D02*
X9110000Y-15609000D01*
X9110000Y-16291000D02*
X9190000Y-16371000D01*
X9190000Y-16291000D02*
X9110000Y-16371000D01*
X9185000Y-6405000D02*
X9265000Y-6485000D01*
X9265000Y-6405000D02*
X9185000Y-6485000D01*
X9185000Y-6659000D02*
X9265000Y-6739000D01*
X9265000Y-6659000D02*
X9185000Y-6739000D01*
X9185000Y-6913000D02*
X9265000Y-6993000D01*
X9265000Y-6913000D02*
X9185000Y-6993000D01*
X9239000Y-14735000D02*
X9319000Y-14815000D01*
X9319000Y-14735000D02*
X9239000Y-14815000D01*
X9239489Y-5710000D02*
X9319489Y-5790000D01*
X9319489Y-5710000D02*
X9239489Y-5790000D01*
X9240000Y-12960000D02*
X9320000Y-13040000D01*
X9320000Y-12960000D02*
X9240000Y-13040000D01*
X9385000Y-10054000D02*
X9465000Y-10134000D01*
X9465000Y-10054000D02*
X9385000Y-10134000D01*
X9385000Y-10816000D02*
X9465000Y-10896000D01*
X9465000Y-10816000D02*
X9385000Y-10896000D01*
X9435000Y-15529000D02*
X9515000Y-15609000D01*
X9515000Y-15529000D02*
X9435000Y-15609000D01*
X9435000Y-16291000D02*
X9515000Y-16371000D01*
X9515000Y-16291000D02*
X9435000Y-16371000D01*
X9485000Y-17854000D02*
X9565000Y-17934000D01*
X9565000Y-17854000D02*
X9485000Y-17934000D01*
X9485000Y-18616000D02*
X9565000Y-18696000D01*
X9565000Y-18616000D02*
X9485000Y-18696000D01*
X9510000Y-16806000D02*
X9590000Y-16886000D01*
X9590000Y-16806000D02*
X9510000Y-16886000D01*
X9510000Y-17060000D02*
X9590000Y-17140000D01*
X9590000Y-17060000D02*
X9510000Y-17140000D01*
X9510000Y-17314000D02*
X9590000Y-17394000D01*
X9590000Y-17314000D02*
X9510000Y-17394000D01*
X9610000Y-8779000D02*
X9690000Y-8859000D01*
X9690000Y-8779000D02*
X9610000Y-8859000D01*
X9610000Y-9541000D02*
X9690000Y-9621000D01*
X9690000Y-9541000D02*
X9610000Y-9621000D01*
X9660000Y-5635000D02*
X9740000Y-5715000D01*
X9740000Y-5635000D02*
X9660000Y-5715000D01*
X9660000Y-6135000D02*
X9740000Y-6215000D01*
X9740000Y-6135000D02*
X9660000Y-6215000D01*
X5350000Y-18037500D02*
G75*
G02*
X5250000Y-18037500I-50000J0D01*
G01*
X5250000Y-18037500D02*
G75*
G02*
X5350000Y-18037500I50000J0D01*
G01*
X5350000Y-18291500D02*
G75*
G02*
X5250000Y-18291500I-50000J0D01*
G01*
X5250000Y-18291500D02*
G75*
G02*
X5350000Y-18291500I50000J0D01*
G01*
X5350000Y-18545500D02*
G75*
G02*
X5250000Y-18545500I-50000J0D01*
G01*
X5250000Y-18545500D02*
G75*
G02*
X5350000Y-18545500I50000J0D01*
G01*
X5350000Y-18799500D02*
G75*
G02*
X5250000Y-18799500I-50000J0D01*
G01*
X5250000Y-18799500D02*
G75*
G02*
X5350000Y-18799500I50000J0D01*
G01*
X5350000Y-19053500D02*
G75*
G02*
X5250000Y-19053500I-50000J0D01*
G01*
X5250000Y-19053500D02*
G75*
G02*
X5350000Y-19053500I50000J0D01*
G01*
X5350000Y-19307500D02*
G75*
G02*
X5250000Y-19307500I-50000J0D01*
G01*
X5250000Y-19307500D02*
G75*
G02*
X5350000Y-19307500I50000J0D01*
G01*
X5350000Y-19561500D02*
G75*
G02*
X5250000Y-19561500I-50000J0D01*
G01*
X5250000Y-19561500D02*
G75*
G02*
X5350000Y-19561500I50000J0D01*
G01*
X5350000Y-19815500D02*
G75*
G02*
X5250000Y-19815500I-50000J0D01*
G01*
X5250000Y-19815500D02*
G75*
G02*
X5350000Y-19815500I50000J0D01*
G01*
X5440381Y-4615381D02*
G75*
G02*
X5340381Y-4615381I-50000J0D01*
G01*
X5340381Y-4615381D02*
G75*
G02*
X5440381Y-4615381I50000J0D01*
G01*
X5408059Y-4526993D02*
X5301993Y-4633059D01*
X5372703Y-4703769D02*
G75*
G02*
X5301993Y-4633059I-35355J35355D01*
G01*
X5372703Y-4703769D02*
X5478769Y-4597703D01*
X5478769Y-4597703D02*
G75*
G03*
X5408059Y-4526993I-35355J35355D01*
G01*
X5440381Y-6465381D02*
G75*
G02*
X5340381Y-6465381I-50000J0D01*
G01*
X5340381Y-6465381D02*
G75*
G02*
X5440381Y-6465381I50000J0D01*
G01*
X5408059Y-6376993D02*
X5301993Y-6483059D01*
X5372703Y-6553769D02*
G75*
G02*
X5301993Y-6483059I-35355J35355D01*
G01*
X5372703Y-6553769D02*
X5478769Y-6447703D01*
X5478769Y-6447703D02*
G75*
G03*
X5408059Y-6376993I-35355J35355D01*
G01*
X5440381Y-13690381D02*
G75*
G02*
X5340381Y-13690381I-50000J0D01*
G01*
X5340381Y-13690381D02*
G75*
G02*
X5440381Y-13690381I50000J0D01*
G01*
X5408059Y-13601993D02*
X5301993Y-13708059D01*
X5372703Y-13778769D02*
G75*
G02*
X5301993Y-13708059I-35355J35355D01*
G01*
X5372703Y-13778769D02*
X5478769Y-13672703D01*
X5478769Y-13672703D02*
G75*
G03*
X5408059Y-13601993I-35355J35355D01*
G01*
X5440381Y-15540381D02*
G75*
G02*
X5340381Y-15540381I-50000J0D01*
G01*
X5340381Y-15540381D02*
G75*
G02*
X5440381Y-15540381I50000J0D01*
G01*
X5408059Y-15451993D02*
X5301993Y-15558059D01*
X5372703Y-15628769D02*
G75*
G02*
X5301993Y-15558059I-35355J35355D01*
G01*
X5372703Y-15628769D02*
X5478769Y-15522703D01*
X5478769Y-15522703D02*
G75*
G03*
X5408059Y-15451993I-35355J35355D01*
G01*
X5890381Y-11340381D02*
G75*
G02*
X5790381Y-11340381I-50000J0D01*
G01*
X5790381Y-11340381D02*
G75*
G02*
X5890381Y-11340381I50000J0D01*
G01*
X5858059Y-11251993D02*
X5751993Y-11358059D01*
X5822703Y-11428769D02*
G75*
G02*
X5751993Y-11358059I-35355J35355D01*
G01*
X5822703Y-11428769D02*
X5928769Y-11322703D01*
X5928769Y-11322703D02*
G75*
G03*
X5858059Y-11251993I-35355J35355D01*
G01*
X5890381Y-20415381D02*
G75*
G02*
X5790381Y-20415381I-50000J0D01*
G01*
X5790381Y-20415381D02*
G75*
G02*
X5890381Y-20415381I50000J0D01*
G01*
X5858059Y-20326993D02*
X5751993Y-20433059D01*
X5822703Y-20503769D02*
G75*
G02*
X5751993Y-20433059I-35355J35355D01*
G01*
X5822703Y-20503769D02*
X5928769Y-20397703D01*
X5928769Y-20397703D02*
G75*
G03*
X5858059Y-20326993I-35355J35355D01*
G01*
X6150000Y-4425000D02*
G75*
G02*
X6050000Y-4425000I-50000J0D01*
G01*
X6050000Y-4425000D02*
G75*
G02*
X6150000Y-4425000I50000J0D01*
G01*
X6025000Y-4475000D02*
X6175000Y-4475000D01*
X6175000Y-4375000D02*
G75*
G02*
X6175000Y-4475000I0J-50000D01*
G01*
X6175000Y-4375000D02*
X6025000Y-4375000D01*
X6025000Y-4375000D02*
G75*
G03*
X6025000Y-4475000I0J-50000D01*
G01*
X6150000Y-6275000D02*
G75*
G02*
X6050000Y-6275000I-50000J0D01*
G01*
X6050000Y-6275000D02*
G75*
G02*
X6150000Y-6275000I50000J0D01*
G01*
X6025000Y-6325000D02*
X6175000Y-6325000D01*
X6175000Y-6225000D02*
G75*
G02*
X6175000Y-6325000I0J-50000D01*
G01*
X6175000Y-6225000D02*
X6025000Y-6225000D01*
X6025000Y-6225000D02*
G75*
G03*
X6025000Y-6325000I0J-50000D01*
G01*
X6150000Y-13500000D02*
G75*
G02*
X6050000Y-13500000I-50000J0D01*
G01*
X6050000Y-13500000D02*
G75*
G02*
X6150000Y-13500000I50000J0D01*
G01*
X6025000Y-13550000D02*
X6175000Y-13550000D01*
X6175000Y-13450000D02*
G75*
G02*
X6175000Y-13550000I0J-50000D01*
G01*
X6175000Y-13450000D02*
X6025000Y-13450000D01*
X6025000Y-13450000D02*
G75*
G03*
X6025000Y-13550000I0J-50000D01*
G01*
X6150000Y-15350000D02*
G75*
G02*
X6050000Y-15350000I-50000J0D01*
G01*
X6050000Y-15350000D02*
G75*
G02*
X6150000Y-15350000I50000J0D01*
G01*
X6025000Y-15400000D02*
X6175000Y-15400000D01*
X6175000Y-15300000D02*
G75*
G02*
X6175000Y-15400000I0J-50000D01*
G01*
X6175000Y-15300000D02*
X6025000Y-15300000D01*
X6025000Y-15300000D02*
G75*
G03*
X6025000Y-15400000I0J-50000D01*
G01*
X6550000Y-5025000D02*
G75*
G02*
X6450000Y-5025000I-50000J0D01*
G01*
X6450000Y-5025000D02*
G75*
G02*
X6550000Y-5025000I50000J0D01*
G01*
X6450000Y-4950000D02*
X6450000Y-5100000D01*
X6550000Y-5100000D02*
G75*
G02*
X6450000Y-5100000I-50000J0D01*
G01*
X6550000Y-5100000D02*
X6550000Y-4950000D01*
X6550000Y-4950000D02*
G75*
G03*
X6450000Y-4950000I-50000J0D01*
G01*
X6550000Y-6875000D02*
G75*
G02*
X6450000Y-6875000I-50000J0D01*
G01*
X6450000Y-6875000D02*
G75*
G02*
X6550000Y-6875000I50000J0D01*
G01*
X6450000Y-6800000D02*
X6450000Y-6950000D01*
X6550000Y-6950000D02*
G75*
G02*
X6450000Y-6950000I-50000J0D01*
G01*
X6550000Y-6950000D02*
X6550000Y-6800000D01*
X6550000Y-6800000D02*
G75*
G03*
X6450000Y-6800000I-50000J0D01*
G01*
X6550000Y-14100000D02*
G75*
G02*
X6450000Y-14100000I-50000J0D01*
G01*
X6450000Y-14100000D02*
G75*
G02*
X6550000Y-14100000I50000J0D01*
G01*
X6450000Y-14025000D02*
X6450000Y-14175000D01*
X6550000Y-14175000D02*
G75*
G02*
X6450000Y-14175000I-50000J0D01*
G01*
X6550000Y-14175000D02*
X6550000Y-14025000D01*
X6550000Y-14025000D02*
G75*
G03*
X6450000Y-14025000I-50000J0D01*
G01*
X6550000Y-15950000D02*
G75*
G02*
X6450000Y-15950000I-50000J0D01*
G01*
X6450000Y-15950000D02*
G75*
G02*
X6550000Y-15950000I50000J0D01*
G01*
X6450000Y-15875000D02*
X6450000Y-16025000D01*
X6550000Y-16025000D02*
G75*
G02*
X6450000Y-16025000I-50000J0D01*
G01*
X6550000Y-16025000D02*
X6550000Y-15875000D01*
X6550000Y-15875000D02*
G75*
G03*
X6450000Y-15875000I-50000J0D01*
G01*
X6600000Y-11150000D02*
G75*
G02*
X6500000Y-11150000I-50000J0D01*
G01*
X6500000Y-11150000D02*
G75*
G02*
X6600000Y-11150000I50000J0D01*
G01*
X6475000Y-11200000D02*
X6625000Y-11200000D01*
X6625000Y-11100000D02*
G75*
G02*
X6625000Y-11200000I0J-50000D01*
G01*
X6625000Y-11100000D02*
X6475000Y-11100000D01*
X6475000Y-11100000D02*
G75*
G03*
X6475000Y-11200000I0J-50000D01*
G01*
X6600000Y-20225000D02*
G75*
G02*
X6500000Y-20225000I-50000J0D01*
G01*
X6500000Y-20225000D02*
G75*
G02*
X6600000Y-20225000I50000J0D01*
G01*
X6475000Y-20275000D02*
X6625000Y-20275000D01*
X6625000Y-20175000D02*
G75*
G02*
X6625000Y-20275000I0J-50000D01*
G01*
X6625000Y-20175000D02*
X6475000Y-20175000D01*
X6475000Y-20175000D02*
G75*
G03*
X6475000Y-20275000I0J-50000D01*
G01*
X7000000Y-11750000D02*
G75*
G02*
X6900000Y-11750000I-50000J0D01*
G01*
X6900000Y-11750000D02*
G75*
G02*
X7000000Y-11750000I50000J0D01*
G01*
X6900000Y-11675000D02*
X6900000Y-11825000D01*
X7000000Y-11825000D02*
G75*
G02*
X6900000Y-11825000I-50000J0D01*
G01*
X7000000Y-11825000D02*
X7000000Y-11675000D01*
X7000000Y-11675000D02*
G75*
G03*
X6900000Y-11675000I-50000J0D01*
G01*
X7000000Y-20825000D02*
G75*
G02*
X6900000Y-20825000I-50000J0D01*
G01*
X6900000Y-20825000D02*
G75*
G02*
X7000000Y-20825000I50000J0D01*
G01*
X6900000Y-20750000D02*
X6900000Y-20900000D01*
X7000000Y-20900000D02*
G75*
G02*
X6900000Y-20900000I-50000J0D01*
G01*
X7000000Y-20900000D02*
X7000000Y-20750000D01*
X7000000Y-20750000D02*
G75*
G03*
X6900000Y-20750000I-50000J0D01*
G01*
X7842000Y-4646250D02*
G75*
G02*
X7742000Y-4646250I-50000J0D01*
G01*
X7742000Y-4646250D02*
G75*
G02*
X7842000Y-4646250I50000J0D01*
G01*
X7842000Y-4900250D02*
G75*
G02*
X7742000Y-4900250I-50000J0D01*
G01*
X7742000Y-4900250D02*
G75*
G02*
X7842000Y-4900250I50000J0D01*
G01*
X7842000Y-13824750D02*
G75*
G02*
X7742000Y-13824750I-50000J0D01*
G01*
X7742000Y-13824750D02*
G75*
G02*
X7842000Y-13824750I50000J0D01*
G01*
X7842000Y-14078750D02*
G75*
G02*
X7742000Y-14078750I-50000J0D01*
G01*
X7742000Y-14078750D02*
G75*
G02*
X7842000Y-14078750I50000J0D01*
G01*
X8096000Y-4646250D02*
G75*
G02*
X7996000Y-4646250I-50000J0D01*
G01*
X7996000Y-4646250D02*
G75*
G02*
X8096000Y-4646250I50000J0D01*
G01*
X8096000Y-4900250D02*
G75*
G02*
X7996000Y-4900250I-50000J0D01*
G01*
X7996000Y-4900250D02*
G75*
G02*
X8096000Y-4900250I50000J0D01*
G01*
X8096000Y-13824750D02*
G75*
G02*
X7996000Y-13824750I-50000J0D01*
G01*
X7996000Y-13824750D02*
G75*
G02*
X8096000Y-13824750I50000J0D01*
G01*
X8096000Y-14078750D02*
G75*
G02*
X7996000Y-14078750I-50000J0D01*
G01*
X7996000Y-14078750D02*
G75*
G02*
X8096000Y-14078750I50000J0D01*
G01*
X8290381Y-11340381D02*
G75*
G02*
X8190381Y-11340381I-50000J0D01*
G01*
X8190381Y-11340381D02*
G75*
G02*
X8290381Y-11340381I50000J0D01*
G01*
X8258059Y-11251993D02*
X8151993Y-11358059D01*
X8222703Y-11428769D02*
G75*
G02*
X8151993Y-11358059I-35355J35355D01*
G01*
X8222703Y-11428769D02*
X8328769Y-11322703D01*
X8328769Y-11322703D02*
G75*
G03*
X8258059Y-11251993I-35355J35355D01*
G01*
X8290381Y-20415381D02*
G75*
G02*
X8190381Y-20415381I-50000J0D01*
G01*
X8190381Y-20415381D02*
G75*
G02*
X8290381Y-20415381I50000J0D01*
G01*
X8258059Y-20326993D02*
X8151993Y-20433059D01*
X8222703Y-20503769D02*
G75*
G02*
X8151993Y-20433059I-35355J35355D01*
G01*
X8222703Y-20503769D02*
X8328769Y-20397703D01*
X8328769Y-20397703D02*
G75*
G03*
X8258059Y-20326993I-35355J35355D01*
G01*
X8350000Y-4646250D02*
G75*
G02*
X8250000Y-4646250I-50000J0D01*
G01*
X8250000Y-4646250D02*
G75*
G02*
X8350000Y-4646250I50000J0D01*
G01*
X8350000Y-4900250D02*
G75*
G02*
X8250000Y-4900250I-50000J0D01*
G01*
X8250000Y-4900250D02*
G75*
G02*
X8350000Y-4900250I50000J0D01*
G01*
X8350000Y-13824750D02*
G75*
G02*
X8250000Y-13824750I-50000J0D01*
G01*
X8250000Y-13824750D02*
G75*
G02*
X8350000Y-13824750I50000J0D01*
G01*
X8350000Y-14078750D02*
G75*
G02*
X8250000Y-14078750I-50000J0D01*
G01*
X8250000Y-14078750D02*
G75*
G02*
X8350000Y-14078750I50000J0D01*
G01*
X8604000Y-4646250D02*
G75*
G02*
X8504000Y-4646250I-50000J0D01*
G01*
X8504000Y-4646250D02*
G75*
G02*
X8604000Y-4646250I50000J0D01*
G01*
X8604000Y-4900250D02*
G75*
G02*
X8504000Y-4900250I-50000J0D01*
G01*
X8504000Y-4900250D02*
G75*
G02*
X8604000Y-4900250I50000J0D01*
G01*
X8604000Y-13824750D02*
G75*
G02*
X8504000Y-13824750I-50000J0D01*
G01*
X8504000Y-13824750D02*
G75*
G02*
X8604000Y-13824750I50000J0D01*
G01*
X8604000Y-14078750D02*
G75*
G02*
X8504000Y-14078750I-50000J0D01*
G01*
X8504000Y-14078750D02*
G75*
G02*
X8604000Y-14078750I50000J0D01*
G01*
X8858000Y-4646250D02*
G75*
G02*
X8758000Y-4646250I-50000J0D01*
G01*
X8758000Y-4646250D02*
G75*
G02*
X8858000Y-4646250I50000J0D01*
G01*
X8858000Y-4900250D02*
G75*
G02*
X8758000Y-4900250I-50000J0D01*
G01*
X8758000Y-4900250D02*
G75*
G02*
X8858000Y-4900250I50000J0D01*
G01*
X8858000Y-13824750D02*
G75*
G02*
X8758000Y-13824750I-50000J0D01*
G01*
X8758000Y-13824750D02*
G75*
G02*
X8858000Y-13824750I50000J0D01*
G01*
X8858000Y-14078750D02*
G75*
G02*
X8758000Y-14078750I-50000J0D01*
G01*
X8758000Y-14078750D02*
G75*
G02*
X8858000Y-14078750I50000J0D01*
G01*
X9000000Y-11150000D02*
G75*
G02*
X8900000Y-11150000I-50000J0D01*
G01*
X8900000Y-11150000D02*
G75*
G02*
X9000000Y-11150000I50000J0D01*
G01*
X8875000Y-11200000D02*
X9025000Y-11200000D01*
X9025000Y-11100000D02*
G75*
G02*
X9025000Y-11200000I0J-50000D01*
G01*
X9025000Y-11100000D02*
X8875000Y-11100000D01*
X8875000Y-11100000D02*
G75*
G03*
X8875000Y-11200000I0J-50000D01*
G01*
X9000000Y-20225000D02*
G75*
G02*
X8900000Y-20225000I-50000J0D01*
G01*
X8900000Y-20225000D02*
G75*
G02*
X9000000Y-20225000I50000J0D01*
G01*
X8875000Y-20275000D02*
X9025000Y-20275000D01*
X9025000Y-20175000D02*
G75*
G02*
X9025000Y-20275000I0J-50000D01*
G01*
X9025000Y-20175000D02*
X8875000Y-20175000D01*
X8875000Y-20175000D02*
G75*
G03*
X8875000Y-20275000I0J-50000D01*
G01*
X9400000Y-11750000D02*
G75*
G02*
X9300000Y-11750000I-50000J0D01*
G01*
X9300000Y-11750000D02*
G75*
G02*
X9400000Y-11750000I50000J0D01*
G01*
X9300000Y-11675000D02*
X9300000Y-11825000D01*
X9400000Y-11825000D02*
G75*
G02*
X9300000Y-11825000I-50000J0D01*
G01*
X9400000Y-11825000D02*
X9400000Y-11675000D01*
X9400000Y-11675000D02*
G75*
G03*
X9300000Y-11675000I-50000J0D01*
G01*
X9400000Y-20825000D02*
G75*
G02*
X9300000Y-20825000I-50000J0D01*
G01*
X9300000Y-20825000D02*
G75*
G02*
X9400000Y-20825000I50000J0D01*
G01*
X9300000Y-20750000D02*
X9300000Y-20900000D01*
X9400000Y-20900000D02*
G75*
G02*
X9300000Y-20900000I-50000J0D01*
G01*
X9400000Y-20900000D02*
X9400000Y-20750000D01*
X9400000Y-20750000D02*
G75*
G03*
X9300000Y-20750000I-50000J0D01*
G01*
X9750000Y-6584000D02*
G75*
G02*
X9650000Y-6584000I-50000J0D01*
G01*
X9650000Y-6584000D02*
G75*
G02*
X9750000Y-6584000I50000J0D01*
G01*
X9750000Y-6838000D02*
G75*
G02*
X9650000Y-6838000I-50000J0D01*
G01*
X9650000Y-6838000D02*
G75*
G02*
X9750000Y-6838000I50000J0D01*
G01*
X9750000Y-7092000D02*
G75*
G02*
X9650000Y-7092000I-50000J0D01*
G01*
X9650000Y-7092000D02*
G75*
G02*
X9750000Y-7092000I50000J0D01*
G01*
X9750000Y-7346000D02*
G75*
G02*
X9650000Y-7346000I-50000J0D01*
G01*
X9650000Y-7346000D02*
G75*
G02*
X9750000Y-7346000I50000J0D01*
G01*
X9750000Y-7600000D02*
G75*
G02*
X9650000Y-7600000I-50000J0D01*
G01*
X9650000Y-7600000D02*
G75*
G02*
X9750000Y-7600000I50000J0D01*
G01*
X9750000Y-7854000D02*
G75*
G02*
X9650000Y-7854000I-50000J0D01*
G01*
X9650000Y-7854000D02*
G75*
G02*
X9750000Y-7854000I50000J0D01*
G01*
X9750000Y-8108000D02*
G75*
G02*
X9650000Y-8108000I-50000J0D01*
G01*
X9650000Y-8108000D02*
G75*
G02*
X9750000Y-8108000I50000J0D01*
G01*
X9750000Y-8362000D02*
G75*
G02*
X9650000Y-8362000I-50000J0D01*
G01*
X9650000Y-8362000D02*
G75*
G02*
X9750000Y-8362000I50000J0D01*
G01*
D13*
X6925000Y-4362000D02*
X6925000Y-4472000D01*
X6870000Y-4417000D02*
X6980000Y-4417000D01*
X6925000Y-5378000D02*
X6925000Y-5488000D01*
X6870000Y-5433000D02*
X6980000Y-5433000D01*
X9700000Y-4362000D02*
X9700000Y-4472000D01*
X9645000Y-4417000D02*
X9755000Y-4417000D01*
X9700000Y-5378000D02*
X9700000Y-5488000D01*
X9645000Y-5433000D02*
X9755000Y-5433000D01*
D11*
X5358277Y-22063984D02*
X5358277Y-21863984D01*
X5358277Y-21863984D02*
X5405896Y-21863984D01*
X5405896Y-21863984D02*
X5434467Y-21873508D01*
X5434467Y-21873508D02*
X5453515Y-21892555D01*
X5453515Y-21892555D02*
X5463039Y-21911603D01*
X5463039Y-21911603D02*
X5472563Y-21949698D01*
X5472563Y-21949698D02*
X5472563Y-21978270D01*
X5472563Y-21978270D02*
X5463039Y-22016365D01*
X5463039Y-22016365D02*
X5453515Y-22035412D01*
X5453515Y-22035412D02*
X5434467Y-22054460D01*
X5434467Y-22054460D02*
X5405896Y-22063984D01*
X5405896Y-22063984D02*
X5358277Y-22063984D01*
X5558277Y-22063984D02*
X5558277Y-21930650D01*
X5558277Y-21968746D02*
X5567801Y-21949698D01*
X5567801Y-21949698D02*
X5577324Y-21940174D01*
X5577324Y-21940174D02*
X5596372Y-21930650D01*
X5596372Y-21930650D02*
X5615420Y-21930650D01*
X5682086Y-22063984D02*
X5682086Y-21930650D01*
X5682086Y-21863984D02*
X5672562Y-21873508D01*
X5672562Y-21873508D02*
X5682086Y-21883031D01*
X5682086Y-21883031D02*
X5691610Y-21873508D01*
X5691610Y-21873508D02*
X5682086Y-21863984D01*
X5682086Y-21863984D02*
X5682086Y-21883031D01*
X5805896Y-22063984D02*
X5786848Y-22054460D01*
X5786848Y-22054460D02*
X5777324Y-22035412D01*
X5777324Y-22035412D02*
X5777324Y-21863984D01*
X5910658Y-22063984D02*
X5891610Y-22054460D01*
X5891610Y-22054460D02*
X5882086Y-22035412D01*
X5882086Y-22035412D02*
X5882086Y-21863984D01*
X6139229Y-22063984D02*
X6139229Y-21863984D01*
X6139229Y-21863984D02*
X6205896Y-22006841D01*
X6205896Y-22006841D02*
X6272562Y-21863984D01*
X6272562Y-21863984D02*
X6272562Y-22063984D01*
X6453515Y-22063984D02*
X6453515Y-21959222D01*
X6453515Y-21959222D02*
X6443991Y-21940174D01*
X6443991Y-21940174D02*
X6424943Y-21930650D01*
X6424943Y-21930650D02*
X6386848Y-21930650D01*
X6386848Y-21930650D02*
X6367801Y-21940174D01*
X6453515Y-22054460D02*
X6434467Y-22063984D01*
X6434467Y-22063984D02*
X6386848Y-22063984D01*
X6386848Y-22063984D02*
X6367801Y-22054460D01*
X6367801Y-22054460D02*
X6358277Y-22035412D01*
X6358277Y-22035412D02*
X6358277Y-22016365D01*
X6358277Y-22016365D02*
X6367801Y-21997317D01*
X6367801Y-21997317D02*
X6386848Y-21987793D01*
X6386848Y-21987793D02*
X6434467Y-21987793D01*
X6434467Y-21987793D02*
X6453515Y-21978270D01*
X6548753Y-21930650D02*
X6548753Y-22130650D01*
X6548753Y-21940174D02*
X6567801Y-21930650D01*
X6567801Y-21930650D02*
X6605896Y-21930650D01*
X6605896Y-21930650D02*
X6624943Y-21940174D01*
X6624943Y-21940174D02*
X6634467Y-21949698D01*
X6634467Y-21949698D02*
X6643991Y-21968746D01*
X6643991Y-21968746D02*
X6643991Y-22025889D01*
X6643991Y-22025889D02*
X6634467Y-22044936D01*
X6634467Y-22044936D02*
X6624943Y-22054460D01*
X6624943Y-22054460D02*
X6605896Y-22063984D01*
X6605896Y-22063984D02*
X6567801Y-22063984D01*
X6567801Y-22063984D02*
X6548753Y-22054460D01*
X6729705Y-22044936D02*
X6739229Y-22054460D01*
X6739229Y-22054460D02*
X6729705Y-22063984D01*
X6729705Y-22063984D02*
X6720182Y-22054460D01*
X6720182Y-22054460D02*
X6729705Y-22044936D01*
X6729705Y-22044936D02*
X6729705Y-22063984D01*
X6729705Y-21940174D02*
X6739229Y-21949698D01*
X6739229Y-21949698D02*
X6729705Y-21959222D01*
X6729705Y-21959222D02*
X6720182Y-21949698D01*
X6720182Y-21949698D02*
X6729705Y-21940174D01*
X6729705Y-21940174D02*
X6729705Y-21959222D01*
D12*
X5017500Y-22352500D02*
X5097500Y-22432500D01*
X5097500Y-22352500D02*
X5017500Y-22432500D01*
D11*
X5396372Y-22283984D02*
X5415420Y-22283984D01*
X5415420Y-22283984D02*
X5434467Y-22293508D01*
X5434467Y-22293508D02*
X5443991Y-22303031D01*
X5443991Y-22303031D02*
X5453515Y-22322079D01*
X5453515Y-22322079D02*
X5463039Y-22360174D01*
X5463039Y-22360174D02*
X5463039Y-22407793D01*
X5463039Y-22407793D02*
X5453515Y-22445888D01*
X5453515Y-22445888D02*
X5443991Y-22464936D01*
X5443991Y-22464936D02*
X5434467Y-22474460D01*
X5434467Y-22474460D02*
X5415420Y-22483984D01*
X5415420Y-22483984D02*
X5396372Y-22483984D01*
X5396372Y-22483984D02*
X5377324Y-22474460D01*
X5377324Y-22474460D02*
X5367801Y-22464936D01*
X5367801Y-22464936D02*
X5358277Y-22445888D01*
X5358277Y-22445888D02*
X5348753Y-22407793D01*
X5348753Y-22407793D02*
X5348753Y-22360174D01*
X5348753Y-22360174D02*
X5358277Y-22322079D01*
X5358277Y-22322079D02*
X5367801Y-22303031D01*
X5367801Y-22303031D02*
X5377324Y-22293508D01*
X5377324Y-22293508D02*
X5396372Y-22283984D01*
X5548753Y-22464936D02*
X5558277Y-22474460D01*
X5558277Y-22474460D02*
X5548753Y-22483984D01*
X5548753Y-22483984D02*
X5539229Y-22474460D01*
X5539229Y-22474460D02*
X5548753Y-22464936D01*
X5548753Y-22464936D02*
X5548753Y-22483984D01*
X5672562Y-22369698D02*
X5653515Y-22360174D01*
X5653515Y-22360174D02*
X5643991Y-22350650D01*
X5643991Y-22350650D02*
X5634467Y-22331603D01*
X5634467Y-22331603D02*
X5634467Y-22322079D01*
X5634467Y-22322079D02*
X5643991Y-22303031D01*
X5643991Y-22303031D02*
X5653515Y-22293508D01*
X5653515Y-22293508D02*
X5672562Y-22283984D01*
X5672562Y-22283984D02*
X5710658Y-22283984D01*
X5710658Y-22283984D02*
X5729705Y-22293508D01*
X5729705Y-22293508D02*
X5739229Y-22303031D01*
X5739229Y-22303031D02*
X5748753Y-22322079D01*
X5748753Y-22322079D02*
X5748753Y-22331603D01*
X5748753Y-22331603D02*
X5739229Y-22350650D01*
X5739229Y-22350650D02*
X5729705Y-22360174D01*
X5729705Y-22360174D02*
X5710658Y-22369698D01*
X5710658Y-22369698D02*
X5672562Y-22369698D01*
X5672562Y-22369698D02*
X5653515Y-22379222D01*
X5653515Y-22379222D02*
X5643991Y-22388746D01*
X5643991Y-22388746D02*
X5634467Y-22407793D01*
X5634467Y-22407793D02*
X5634467Y-22445888D01*
X5634467Y-22445888D02*
X5643991Y-22464936D01*
X5643991Y-22464936D02*
X5653515Y-22474460D01*
X5653515Y-22474460D02*
X5672562Y-22483984D01*
X5672562Y-22483984D02*
X5710658Y-22483984D01*
X5710658Y-22483984D02*
X5729705Y-22474460D01*
X5729705Y-22474460D02*
X5739229Y-22464936D01*
X5739229Y-22464936D02*
X5748753Y-22445888D01*
X5748753Y-22445888D02*
X5748753Y-22407793D01*
X5748753Y-22407793D02*
X5739229Y-22388746D01*
X5739229Y-22388746D02*
X5729705Y-22379222D01*
X5729705Y-22379222D02*
X5710658Y-22369698D01*
X5872562Y-22283984D02*
X5891610Y-22283984D01*
X5891610Y-22283984D02*
X5910658Y-22293508D01*
X5910658Y-22293508D02*
X5920182Y-22303031D01*
X5920182Y-22303031D02*
X5929705Y-22322079D01*
X5929705Y-22322079D02*
X5939229Y-22360174D01*
X5939229Y-22360174D02*
X5939229Y-22407793D01*
X5939229Y-22407793D02*
X5929705Y-22445888D01*
X5929705Y-22445888D02*
X5920182Y-22464936D01*
X5920182Y-22464936D02*
X5910658Y-22474460D01*
X5910658Y-22474460D02*
X5891610Y-22483984D01*
X5891610Y-22483984D02*
X5872562Y-22483984D01*
X5872562Y-22483984D02*
X5853515Y-22474460D01*
X5853515Y-22474460D02*
X5843991Y-22464936D01*
X5843991Y-22464936D02*
X5834467Y-22445888D01*
X5834467Y-22445888D02*
X5824943Y-22407793D01*
X5824943Y-22407793D02*
X5824943Y-22360174D01*
X5824943Y-22360174D02*
X5834467Y-22322079D01*
X5834467Y-22322079D02*
X5843991Y-22303031D01*
X5843991Y-22303031D02*
X5853515Y-22293508D01*
X5853515Y-22293508D02*
X5872562Y-22283984D01*
X6063039Y-22283984D02*
X6082086Y-22283984D01*
X6082086Y-22283984D02*
X6101134Y-22293508D01*
X6101134Y-22293508D02*
X6110658Y-22303031D01*
X6110658Y-22303031D02*
X6120182Y-22322079D01*
X6120182Y-22322079D02*
X6129705Y-22360174D01*
X6129705Y-22360174D02*
X6129705Y-22407793D01*
X6129705Y-22407793D02*
X6120182Y-22445888D01*
X6120182Y-22445888D02*
X6110658Y-22464936D01*
X6110658Y-22464936D02*
X6101134Y-22474460D01*
X6101134Y-22474460D02*
X6082086Y-22483984D01*
X6082086Y-22483984D02*
X6063039Y-22483984D01*
X6063039Y-22483984D02*
X6043991Y-22474460D01*
X6043991Y-22474460D02*
X6034467Y-22464936D01*
X6034467Y-22464936D02*
X6024943Y-22445888D01*
X6024943Y-22445888D02*
X6015420Y-22407793D01*
X6015420Y-22407793D02*
X6015420Y-22360174D01*
X6015420Y-22360174D02*
X6024943Y-22322079D01*
X6024943Y-22322079D02*
X6034467Y-22303031D01*
X6034467Y-22303031D02*
X6043991Y-22293508D01*
X6043991Y-22293508D02*
X6063039Y-22283984D01*
X6215420Y-22483984D02*
X6215420Y-22350650D01*
X6215420Y-22369698D02*
X6224943Y-22360174D01*
X6224943Y-22360174D02*
X6243991Y-22350650D01*
X6243991Y-22350650D02*
X6272563Y-22350650D01*
X6272563Y-22350650D02*
X6291610Y-22360174D01*
X6291610Y-22360174D02*
X6301134Y-22379222D01*
X6301134Y-22379222D02*
X6301134Y-22483984D01*
X6301134Y-22379222D02*
X6310658Y-22360174D01*
X6310658Y-22360174D02*
X6329705Y-22350650D01*
X6329705Y-22350650D02*
X6358277Y-22350650D01*
X6358277Y-22350650D02*
X6377324Y-22360174D01*
X6377324Y-22360174D02*
X6386848Y-22379222D01*
X6386848Y-22379222D02*
X6386848Y-22483984D01*
X6482086Y-22483984D02*
X6482086Y-22350650D01*
X6482086Y-22369698D02*
X6491610Y-22360174D01*
X6491610Y-22360174D02*
X6510658Y-22350650D01*
X6510658Y-22350650D02*
X6539229Y-22350650D01*
X6539229Y-22350650D02*
X6558277Y-22360174D01*
X6558277Y-22360174D02*
X6567801Y-22379222D01*
X6567801Y-22379222D02*
X6567801Y-22483984D01*
X6567801Y-22379222D02*
X6577324Y-22360174D01*
X6577324Y-22360174D02*
X6596372Y-22350650D01*
X6596372Y-22350650D02*
X6624943Y-22350650D01*
X6624943Y-22350650D02*
X6643991Y-22360174D01*
X6643991Y-22360174D02*
X6653515Y-22379222D01*
X6653515Y-22379222D02*
X6653515Y-22483984D01*
X7043991Y-22274460D02*
X6872563Y-22531603D01*
X7301134Y-22283984D02*
X7320182Y-22283984D01*
X7320182Y-22283984D02*
X7339229Y-22293508D01*
X7339229Y-22293508D02*
X7348753Y-22303031D01*
X7348753Y-22303031D02*
X7358277Y-22322079D01*
X7358277Y-22322079D02*
X7367801Y-22360174D01*
X7367801Y-22360174D02*
X7367801Y-22407793D01*
X7367801Y-22407793D02*
X7358277Y-22445888D01*
X7358277Y-22445888D02*
X7348753Y-22464936D01*
X7348753Y-22464936D02*
X7339229Y-22474460D01*
X7339229Y-22474460D02*
X7320182Y-22483984D01*
X7320182Y-22483984D02*
X7301134Y-22483984D01*
X7301134Y-22483984D02*
X7282086Y-22474460D01*
X7282086Y-22474460D02*
X7272563Y-22464936D01*
X7272563Y-22464936D02*
X7263039Y-22445888D01*
X7263039Y-22445888D02*
X7253515Y-22407793D01*
X7253515Y-22407793D02*
X7253515Y-22360174D01*
X7253515Y-22360174D02*
X7263039Y-22322079D01*
X7263039Y-22322079D02*
X7272563Y-22303031D01*
X7272563Y-22303031D02*
X7282086Y-22293508D01*
X7282086Y-22293508D02*
X7301134Y-22283984D01*
X7453515Y-22464936D02*
X7463039Y-22474460D01*
X7463039Y-22474460D02*
X7453515Y-22483984D01*
X7453515Y-22483984D02*
X7443991Y-22474460D01*
X7443991Y-22474460D02*
X7453515Y-22464936D01*
X7453515Y-22464936D02*
X7453515Y-22483984D01*
X7586848Y-22283984D02*
X7605896Y-22283984D01*
X7605896Y-22283984D02*
X7624944Y-22293508D01*
X7624944Y-22293508D02*
X7634467Y-22303031D01*
X7634467Y-22303031D02*
X7643991Y-22322079D01*
X7643991Y-22322079D02*
X7653515Y-22360174D01*
X7653515Y-22360174D02*
X7653515Y-22407793D01*
X7653515Y-22407793D02*
X7643991Y-22445888D01*
X7643991Y-22445888D02*
X7634467Y-22464936D01*
X7634467Y-22464936D02*
X7624944Y-22474460D01*
X7624944Y-22474460D02*
X7605896Y-22483984D01*
X7605896Y-22483984D02*
X7586848Y-22483984D01*
X7586848Y-22483984D02*
X7567801Y-22474460D01*
X7567801Y-22474460D02*
X7558277Y-22464936D01*
X7558277Y-22464936D02*
X7548753Y-22445888D01*
X7548753Y-22445888D02*
X7539229Y-22407793D01*
X7539229Y-22407793D02*
X7539229Y-22360174D01*
X7539229Y-22360174D02*
X7548753Y-22322079D01*
X7548753Y-22322079D02*
X7558277Y-22303031D01*
X7558277Y-22303031D02*
X7567801Y-22293508D01*
X7567801Y-22293508D02*
X7586848Y-22283984D01*
X7720182Y-22283984D02*
X7843991Y-22283984D01*
X7843991Y-22283984D02*
X7777325Y-22360174D01*
X7777325Y-22360174D02*
X7805896Y-22360174D01*
X7805896Y-22360174D02*
X7824944Y-22369698D01*
X7824944Y-22369698D02*
X7834467Y-22379222D01*
X7834467Y-22379222D02*
X7843991Y-22398269D01*
X7843991Y-22398269D02*
X7843991Y-22445888D01*
X7843991Y-22445888D02*
X7834467Y-22464936D01*
X7834467Y-22464936D02*
X7824944Y-22474460D01*
X7824944Y-22474460D02*
X7805896Y-22483984D01*
X7805896Y-22483984D02*
X7748753Y-22483984D01*
X7748753Y-22483984D02*
X7729706Y-22474460D01*
X7729706Y-22474460D02*
X7720182Y-22464936D01*
X8034467Y-22483984D02*
X7920182Y-22483984D01*
X7977325Y-22483984D02*
X7977325Y-22283984D01*
X7977325Y-22283984D02*
X7958277Y-22312555D01*
X7958277Y-22312555D02*
X7939229Y-22331603D01*
X7939229Y-22331603D02*
X7920182Y-22341127D01*
X8215420Y-22283984D02*
X8120182Y-22283984D01*
X8120182Y-22283984D02*
X8110658Y-22379222D01*
X8110658Y-22379222D02*
X8120182Y-22369698D01*
X8120182Y-22369698D02*
X8139229Y-22360174D01*
X8139229Y-22360174D02*
X8186848Y-22360174D01*
X8186848Y-22360174D02*
X8205896Y-22369698D01*
X8205896Y-22369698D02*
X8215420Y-22379222D01*
X8215420Y-22379222D02*
X8224944Y-22398269D01*
X8224944Y-22398269D02*
X8224944Y-22445888D01*
X8224944Y-22445888D02*
X8215420Y-22464936D01*
X8215420Y-22464936D02*
X8205896Y-22474460D01*
X8205896Y-22474460D02*
X8186848Y-22483984D01*
X8186848Y-22483984D02*
X8139229Y-22483984D01*
X8139229Y-22483984D02*
X8120182Y-22474460D01*
X8120182Y-22474460D02*
X8110658Y-22464936D01*
X8301134Y-22283984D02*
X8301134Y-22322079D01*
X8377325Y-22283984D02*
X8377325Y-22322079D01*
X8672563Y-22560174D02*
X8663039Y-22550650D01*
X8663039Y-22550650D02*
X8643991Y-22522079D01*
X8643991Y-22522079D02*
X8634468Y-22503031D01*
X8634468Y-22503031D02*
X8624944Y-22474460D01*
X8624944Y-22474460D02*
X8615420Y-22426841D01*
X8615420Y-22426841D02*
X8615420Y-22388746D01*
X8615420Y-22388746D02*
X8624944Y-22341127D01*
X8624944Y-22341127D02*
X8634468Y-22312555D01*
X8634468Y-22312555D02*
X8643991Y-22293508D01*
X8643991Y-22293508D02*
X8663039Y-22264936D01*
X8663039Y-22264936D02*
X8672563Y-22255412D01*
X8853515Y-22483984D02*
X8739230Y-22483984D01*
X8796372Y-22483984D02*
X8796372Y-22283984D01*
X8796372Y-22283984D02*
X8777325Y-22312555D01*
X8777325Y-22312555D02*
X8758277Y-22331603D01*
X8758277Y-22331603D02*
X8739230Y-22341127D01*
X9024944Y-22350650D02*
X9024944Y-22483984D01*
X8977325Y-22274460D02*
X8929706Y-22417317D01*
X8929706Y-22417317D02*
X9053515Y-22417317D01*
X9215420Y-22283984D02*
X9177325Y-22283984D01*
X9177325Y-22283984D02*
X9158277Y-22293508D01*
X9158277Y-22293508D02*
X9148753Y-22303031D01*
X9148753Y-22303031D02*
X9129706Y-22331603D01*
X9129706Y-22331603D02*
X9120182Y-22369698D01*
X9120182Y-22369698D02*
X9120182Y-22445888D01*
X9120182Y-22445888D02*
X9129706Y-22464936D01*
X9129706Y-22464936D02*
X9139230Y-22474460D01*
X9139230Y-22474460D02*
X9158277Y-22483984D01*
X9158277Y-22483984D02*
X9196372Y-22483984D01*
X9196372Y-22483984D02*
X9215420Y-22474460D01*
X9215420Y-22474460D02*
X9224944Y-22464936D01*
X9224944Y-22464936D02*
X9234468Y-22445888D01*
X9234468Y-22445888D02*
X9234468Y-22398269D01*
X9234468Y-22398269D02*
X9224944Y-22379222D01*
X9224944Y-22379222D02*
X9215420Y-22369698D01*
X9215420Y-22369698D02*
X9196372Y-22360174D01*
X9196372Y-22360174D02*
X9158277Y-22360174D01*
X9158277Y-22360174D02*
X9139230Y-22369698D01*
X9139230Y-22369698D02*
X9129706Y-22379222D01*
X9129706Y-22379222D02*
X9120182Y-22398269D01*
X9472563Y-22483984D02*
X9472563Y-22283984D01*
X9558277Y-22483984D02*
X9558277Y-22379222D01*
X9558277Y-22379222D02*
X9548753Y-22360174D01*
X9548753Y-22360174D02*
X9529706Y-22350650D01*
X9529706Y-22350650D02*
X9501134Y-22350650D01*
X9501134Y-22350650D02*
X9482087Y-22360174D01*
X9482087Y-22360174D02*
X9472563Y-22369698D01*
X9682087Y-22483984D02*
X9663039Y-22474460D01*
X9663039Y-22474460D02*
X9653515Y-22464936D01*
X9653515Y-22464936D02*
X9643992Y-22445888D01*
X9643992Y-22445888D02*
X9643992Y-22388746D01*
X9643992Y-22388746D02*
X9653515Y-22369698D01*
X9653515Y-22369698D02*
X9663039Y-22360174D01*
X9663039Y-22360174D02*
X9682087Y-22350650D01*
X9682087Y-22350650D02*
X9710658Y-22350650D01*
X9710658Y-22350650D02*
X9729706Y-22360174D01*
X9729706Y-22360174D02*
X9739230Y-22369698D01*
X9739230Y-22369698D02*
X9748753Y-22388746D01*
X9748753Y-22388746D02*
X9748753Y-22445888D01*
X9748753Y-22445888D02*
X9739230Y-22464936D01*
X9739230Y-22464936D02*
X9729706Y-22474460D01*
X9729706Y-22474460D02*
X9710658Y-22483984D01*
X9710658Y-22483984D02*
X9682087Y-22483984D01*
X9863039Y-22483984D02*
X9843992Y-22474460D01*
X9843992Y-22474460D02*
X9834468Y-22455412D01*
X9834468Y-22455412D02*
X9834468Y-22283984D01*
X10015420Y-22474460D02*
X9996373Y-22483984D01*
X9996373Y-22483984D02*
X9958277Y-22483984D01*
X9958277Y-22483984D02*
X9939230Y-22474460D01*
X9939230Y-22474460D02*
X9929706Y-22455412D01*
X9929706Y-22455412D02*
X9929706Y-22379222D01*
X9929706Y-22379222D02*
X9939230Y-22360174D01*
X9939230Y-22360174D02*
X9958277Y-22350650D01*
X9958277Y-22350650D02*
X9996373Y-22350650D01*
X9996373Y-22350650D02*
X10015420Y-22360174D01*
X10015420Y-22360174D02*
X10024944Y-22379222D01*
X10024944Y-22379222D02*
X10024944Y-22398269D01*
X10024944Y-22398269D02*
X9929706Y-22417317D01*
X10101134Y-22474460D02*
X10120182Y-22483984D01*
X10120182Y-22483984D02*
X10158277Y-22483984D01*
X10158277Y-22483984D02*
X10177325Y-22474460D01*
X10177325Y-22474460D02*
X10186849Y-22455412D01*
X10186849Y-22455412D02*
X10186849Y-22445888D01*
X10186849Y-22445888D02*
X10177325Y-22426841D01*
X10177325Y-22426841D02*
X10158277Y-22417317D01*
X10158277Y-22417317D02*
X10129706Y-22417317D01*
X10129706Y-22417317D02*
X10110658Y-22407793D01*
X10110658Y-22407793D02*
X10101134Y-22388746D01*
X10101134Y-22388746D02*
X10101134Y-22379222D01*
X10101134Y-22379222D02*
X10110658Y-22360174D01*
X10110658Y-22360174D02*
X10129706Y-22350650D01*
X10129706Y-22350650D02*
X10158277Y-22350650D01*
X10158277Y-22350650D02*
X10177325Y-22360174D01*
X10253515Y-22560174D02*
X10263039Y-22550650D01*
X10263039Y-22550650D02*
X10282087Y-22522079D01*
X10282087Y-22522079D02*
X10291611Y-22503031D01*
X10291611Y-22503031D02*
X10301134Y-22474460D01*
X10301134Y-22474460D02*
X10310658Y-22426841D01*
X10310658Y-22426841D02*
X10310658Y-22388746D01*
X10310658Y-22388746D02*
X10301134Y-22341127D01*
X10301134Y-22341127D02*
X10291611Y-22312555D01*
X10291611Y-22312555D02*
X10282087Y-22293508D01*
X10282087Y-22293508D02*
X10263039Y-22264936D01*
X10263039Y-22264936D02*
X10253515Y-22255412D01*
D12*
X5097500Y-22656500D02*
G75*
G02*
X4997500Y-22656500I-50000J0D01*
G01*
X4997500Y-22656500D02*
G75*
G02*
X5097500Y-22656500I50000J0D01*
G01*
D11*
X5463039Y-22747984D02*
X5348753Y-22747984D01*
X5405896Y-22747984D02*
X5405896Y-22547984D01*
X5405896Y-22547984D02*
X5386848Y-22576555D01*
X5386848Y-22576555D02*
X5367801Y-22595603D01*
X5367801Y-22595603D02*
X5348753Y-22605127D01*
X5548753Y-22728936D02*
X5558277Y-22738460D01*
X5558277Y-22738460D02*
X5548753Y-22747984D01*
X5548753Y-22747984D02*
X5539229Y-22738460D01*
X5539229Y-22738460D02*
X5548753Y-22728936D01*
X5548753Y-22728936D02*
X5548753Y-22747984D01*
X5682086Y-22547984D02*
X5701134Y-22547984D01*
X5701134Y-22547984D02*
X5720182Y-22557508D01*
X5720182Y-22557508D02*
X5729705Y-22567031D01*
X5729705Y-22567031D02*
X5739229Y-22586079D01*
X5739229Y-22586079D02*
X5748753Y-22624174D01*
X5748753Y-22624174D02*
X5748753Y-22671793D01*
X5748753Y-22671793D02*
X5739229Y-22709888D01*
X5739229Y-22709888D02*
X5729705Y-22728936D01*
X5729705Y-22728936D02*
X5720182Y-22738460D01*
X5720182Y-22738460D02*
X5701134Y-22747984D01*
X5701134Y-22747984D02*
X5682086Y-22747984D01*
X5682086Y-22747984D02*
X5663039Y-22738460D01*
X5663039Y-22738460D02*
X5653515Y-22728936D01*
X5653515Y-22728936D02*
X5643991Y-22709888D01*
X5643991Y-22709888D02*
X5634467Y-22671793D01*
X5634467Y-22671793D02*
X5634467Y-22624174D01*
X5634467Y-22624174D02*
X5643991Y-22586079D01*
X5643991Y-22586079D02*
X5653515Y-22567031D01*
X5653515Y-22567031D02*
X5663039Y-22557508D01*
X5663039Y-22557508D02*
X5682086Y-22547984D01*
X5872562Y-22547984D02*
X5891610Y-22547984D01*
X5891610Y-22547984D02*
X5910658Y-22557508D01*
X5910658Y-22557508D02*
X5920182Y-22567031D01*
X5920182Y-22567031D02*
X5929705Y-22586079D01*
X5929705Y-22586079D02*
X5939229Y-22624174D01*
X5939229Y-22624174D02*
X5939229Y-22671793D01*
X5939229Y-22671793D02*
X5929705Y-22709888D01*
X5929705Y-22709888D02*
X5920182Y-22728936D01*
X5920182Y-22728936D02*
X5910658Y-22738460D01*
X5910658Y-22738460D02*
X5891610Y-22747984D01*
X5891610Y-22747984D02*
X5872562Y-22747984D01*
X5872562Y-22747984D02*
X5853515Y-22738460D01*
X5853515Y-22738460D02*
X5843991Y-22728936D01*
X5843991Y-22728936D02*
X5834467Y-22709888D01*
X5834467Y-22709888D02*
X5824943Y-22671793D01*
X5824943Y-22671793D02*
X5824943Y-22624174D01*
X5824943Y-22624174D02*
X5834467Y-22586079D01*
X5834467Y-22586079D02*
X5843991Y-22567031D01*
X5843991Y-22567031D02*
X5853515Y-22557508D01*
X5853515Y-22557508D02*
X5872562Y-22547984D01*
X6063039Y-22547984D02*
X6082086Y-22547984D01*
X6082086Y-22547984D02*
X6101134Y-22557508D01*
X6101134Y-22557508D02*
X6110658Y-22567031D01*
X6110658Y-22567031D02*
X6120182Y-22586079D01*
X6120182Y-22586079D02*
X6129705Y-22624174D01*
X6129705Y-22624174D02*
X6129705Y-22671793D01*
X6129705Y-22671793D02*
X6120182Y-22709888D01*
X6120182Y-22709888D02*
X6110658Y-22728936D01*
X6110658Y-22728936D02*
X6101134Y-22738460D01*
X6101134Y-22738460D02*
X6082086Y-22747984D01*
X6082086Y-22747984D02*
X6063039Y-22747984D01*
X6063039Y-22747984D02*
X6043991Y-22738460D01*
X6043991Y-22738460D02*
X6034467Y-22728936D01*
X6034467Y-22728936D02*
X6024943Y-22709888D01*
X6024943Y-22709888D02*
X6015420Y-22671793D01*
X6015420Y-22671793D02*
X6015420Y-22624174D01*
X6015420Y-22624174D02*
X6024943Y-22586079D01*
X6024943Y-22586079D02*
X6034467Y-22567031D01*
X6034467Y-22567031D02*
X6043991Y-22557508D01*
X6043991Y-22557508D02*
X6063039Y-22547984D01*
X6215420Y-22747984D02*
X6215420Y-22614650D01*
X6215420Y-22633698D02*
X6224943Y-22624174D01*
X6224943Y-22624174D02*
X6243991Y-22614650D01*
X6243991Y-22614650D02*
X6272563Y-22614650D01*
X6272563Y-22614650D02*
X6291610Y-22624174D01*
X6291610Y-22624174D02*
X6301134Y-22643222D01*
X6301134Y-22643222D02*
X6301134Y-22747984D01*
X6301134Y-22643222D02*
X6310658Y-22624174D01*
X6310658Y-22624174D02*
X6329705Y-22614650D01*
X6329705Y-22614650D02*
X6358277Y-22614650D01*
X6358277Y-22614650D02*
X6377324Y-22624174D01*
X6377324Y-22624174D02*
X6386848Y-22643222D01*
X6386848Y-22643222D02*
X6386848Y-22747984D01*
X6482086Y-22747984D02*
X6482086Y-22614650D01*
X6482086Y-22633698D02*
X6491610Y-22624174D01*
X6491610Y-22624174D02*
X6510658Y-22614650D01*
X6510658Y-22614650D02*
X6539229Y-22614650D01*
X6539229Y-22614650D02*
X6558277Y-22624174D01*
X6558277Y-22624174D02*
X6567801Y-22643222D01*
X6567801Y-22643222D02*
X6567801Y-22747984D01*
X6567801Y-22643222D02*
X6577324Y-22624174D01*
X6577324Y-22624174D02*
X6596372Y-22614650D01*
X6596372Y-22614650D02*
X6624943Y-22614650D01*
X6624943Y-22614650D02*
X6643991Y-22624174D01*
X6643991Y-22624174D02*
X6653515Y-22643222D01*
X6653515Y-22643222D02*
X6653515Y-22747984D01*
X7043991Y-22538460D02*
X6872563Y-22795603D01*
X7301134Y-22547984D02*
X7320182Y-22547984D01*
X7320182Y-22547984D02*
X7339229Y-22557508D01*
X7339229Y-22557508D02*
X7348753Y-22567031D01*
X7348753Y-22567031D02*
X7358277Y-22586079D01*
X7358277Y-22586079D02*
X7367801Y-22624174D01*
X7367801Y-22624174D02*
X7367801Y-22671793D01*
X7367801Y-22671793D02*
X7358277Y-22709888D01*
X7358277Y-22709888D02*
X7348753Y-22728936D01*
X7348753Y-22728936D02*
X7339229Y-22738460D01*
X7339229Y-22738460D02*
X7320182Y-22747984D01*
X7320182Y-22747984D02*
X7301134Y-22747984D01*
X7301134Y-22747984D02*
X7282086Y-22738460D01*
X7282086Y-22738460D02*
X7272563Y-22728936D01*
X7272563Y-22728936D02*
X7263039Y-22709888D01*
X7263039Y-22709888D02*
X7253515Y-22671793D01*
X7253515Y-22671793D02*
X7253515Y-22624174D01*
X7253515Y-22624174D02*
X7263039Y-22586079D01*
X7263039Y-22586079D02*
X7272563Y-22567031D01*
X7272563Y-22567031D02*
X7282086Y-22557508D01*
X7282086Y-22557508D02*
X7301134Y-22547984D01*
X7453515Y-22728936D02*
X7463039Y-22738460D01*
X7463039Y-22738460D02*
X7453515Y-22747984D01*
X7453515Y-22747984D02*
X7443991Y-22738460D01*
X7443991Y-22738460D02*
X7453515Y-22728936D01*
X7453515Y-22728936D02*
X7453515Y-22747984D01*
X7586848Y-22547984D02*
X7605896Y-22547984D01*
X7605896Y-22547984D02*
X7624944Y-22557508D01*
X7624944Y-22557508D02*
X7634467Y-22567031D01*
X7634467Y-22567031D02*
X7643991Y-22586079D01*
X7643991Y-22586079D02*
X7653515Y-22624174D01*
X7653515Y-22624174D02*
X7653515Y-22671793D01*
X7653515Y-22671793D02*
X7643991Y-22709888D01*
X7643991Y-22709888D02*
X7634467Y-22728936D01*
X7634467Y-22728936D02*
X7624944Y-22738460D01*
X7624944Y-22738460D02*
X7605896Y-22747984D01*
X7605896Y-22747984D02*
X7586848Y-22747984D01*
X7586848Y-22747984D02*
X7567801Y-22738460D01*
X7567801Y-22738460D02*
X7558277Y-22728936D01*
X7558277Y-22728936D02*
X7548753Y-22709888D01*
X7548753Y-22709888D02*
X7539229Y-22671793D01*
X7539229Y-22671793D02*
X7539229Y-22624174D01*
X7539229Y-22624174D02*
X7548753Y-22586079D01*
X7548753Y-22586079D02*
X7558277Y-22567031D01*
X7558277Y-22567031D02*
X7567801Y-22557508D01*
X7567801Y-22557508D02*
X7586848Y-22547984D01*
X7720182Y-22547984D02*
X7843991Y-22547984D01*
X7843991Y-22547984D02*
X7777325Y-22624174D01*
X7777325Y-22624174D02*
X7805896Y-22624174D01*
X7805896Y-22624174D02*
X7824944Y-22633698D01*
X7824944Y-22633698D02*
X7834467Y-22643222D01*
X7834467Y-22643222D02*
X7843991Y-22662269D01*
X7843991Y-22662269D02*
X7843991Y-22709888D01*
X7843991Y-22709888D02*
X7834467Y-22728936D01*
X7834467Y-22728936D02*
X7824944Y-22738460D01*
X7824944Y-22738460D02*
X7805896Y-22747984D01*
X7805896Y-22747984D02*
X7748753Y-22747984D01*
X7748753Y-22747984D02*
X7729706Y-22738460D01*
X7729706Y-22738460D02*
X7720182Y-22728936D01*
X7939229Y-22747984D02*
X7977325Y-22747984D01*
X7977325Y-22747984D02*
X7996372Y-22738460D01*
X7996372Y-22738460D02*
X8005896Y-22728936D01*
X8005896Y-22728936D02*
X8024944Y-22700365D01*
X8024944Y-22700365D02*
X8034467Y-22662269D01*
X8034467Y-22662269D02*
X8034467Y-22586079D01*
X8034467Y-22586079D02*
X8024944Y-22567031D01*
X8024944Y-22567031D02*
X8015420Y-22557508D01*
X8015420Y-22557508D02*
X7996372Y-22547984D01*
X7996372Y-22547984D02*
X7958277Y-22547984D01*
X7958277Y-22547984D02*
X7939229Y-22557508D01*
X7939229Y-22557508D02*
X7929706Y-22567031D01*
X7929706Y-22567031D02*
X7920182Y-22586079D01*
X7920182Y-22586079D02*
X7920182Y-22633698D01*
X7920182Y-22633698D02*
X7929706Y-22652746D01*
X7929706Y-22652746D02*
X7939229Y-22662269D01*
X7939229Y-22662269D02*
X7958277Y-22671793D01*
X7958277Y-22671793D02*
X7996372Y-22671793D01*
X7996372Y-22671793D02*
X8015420Y-22662269D01*
X8015420Y-22662269D02*
X8024944Y-22652746D01*
X8024944Y-22652746D02*
X8034467Y-22633698D01*
X8205896Y-22614650D02*
X8205896Y-22747984D01*
X8158277Y-22538460D02*
X8110658Y-22681317D01*
X8110658Y-22681317D02*
X8234467Y-22681317D01*
X8301134Y-22547984D02*
X8301134Y-22586079D01*
X8377325Y-22547984D02*
X8377325Y-22586079D01*
X8672563Y-22824174D02*
X8663039Y-22814650D01*
X8663039Y-22814650D02*
X8643991Y-22786079D01*
X8643991Y-22786079D02*
X8634468Y-22767031D01*
X8634468Y-22767031D02*
X8624944Y-22738460D01*
X8624944Y-22738460D02*
X8615420Y-22690841D01*
X8615420Y-22690841D02*
X8615420Y-22652746D01*
X8615420Y-22652746D02*
X8624944Y-22605127D01*
X8624944Y-22605127D02*
X8634468Y-22576555D01*
X8634468Y-22576555D02*
X8643991Y-22557508D01*
X8643991Y-22557508D02*
X8663039Y-22528936D01*
X8663039Y-22528936D02*
X8672563Y-22519412D01*
X8729706Y-22547984D02*
X8853515Y-22547984D01*
X8853515Y-22547984D02*
X8786849Y-22624174D01*
X8786849Y-22624174D02*
X8815420Y-22624174D01*
X8815420Y-22624174D02*
X8834468Y-22633698D01*
X8834468Y-22633698D02*
X8843991Y-22643222D01*
X8843991Y-22643222D02*
X8853515Y-22662269D01*
X8853515Y-22662269D02*
X8853515Y-22709888D01*
X8853515Y-22709888D02*
X8843991Y-22728936D01*
X8843991Y-22728936D02*
X8834468Y-22738460D01*
X8834468Y-22738460D02*
X8815420Y-22747984D01*
X8815420Y-22747984D02*
X8758277Y-22747984D01*
X8758277Y-22747984D02*
X8739230Y-22738460D01*
X8739230Y-22738460D02*
X8729706Y-22728936D01*
X9024944Y-22547984D02*
X8986849Y-22547984D01*
X8986849Y-22547984D02*
X8967801Y-22557508D01*
X8967801Y-22557508D02*
X8958277Y-22567031D01*
X8958277Y-22567031D02*
X8939230Y-22595603D01*
X8939230Y-22595603D02*
X8929706Y-22633698D01*
X8929706Y-22633698D02*
X8929706Y-22709888D01*
X8929706Y-22709888D02*
X8939230Y-22728936D01*
X8939230Y-22728936D02*
X8948753Y-22738460D01*
X8948753Y-22738460D02*
X8967801Y-22747984D01*
X8967801Y-22747984D02*
X9005896Y-22747984D01*
X9005896Y-22747984D02*
X9024944Y-22738460D01*
X9024944Y-22738460D02*
X9034468Y-22728936D01*
X9034468Y-22728936D02*
X9043991Y-22709888D01*
X9043991Y-22709888D02*
X9043991Y-22662269D01*
X9043991Y-22662269D02*
X9034468Y-22643222D01*
X9034468Y-22643222D02*
X9024944Y-22633698D01*
X9024944Y-22633698D02*
X9005896Y-22624174D01*
X9005896Y-22624174D02*
X8967801Y-22624174D01*
X8967801Y-22624174D02*
X8948753Y-22633698D01*
X8948753Y-22633698D02*
X8939230Y-22643222D01*
X8939230Y-22643222D02*
X8929706Y-22662269D01*
X9282087Y-22747984D02*
X9282087Y-22547984D01*
X9367801Y-22747984D02*
X9367801Y-22643222D01*
X9367801Y-22643222D02*
X9358277Y-22624174D01*
X9358277Y-22624174D02*
X9339230Y-22614650D01*
X9339230Y-22614650D02*
X9310658Y-22614650D01*
X9310658Y-22614650D02*
X9291611Y-22624174D01*
X9291611Y-22624174D02*
X9282087Y-22633698D01*
X9491611Y-22747984D02*
X9472563Y-22738460D01*
X9472563Y-22738460D02*
X9463039Y-22728936D01*
X9463039Y-22728936D02*
X9453515Y-22709888D01*
X9453515Y-22709888D02*
X9453515Y-22652746D01*
X9453515Y-22652746D02*
X9463039Y-22633698D01*
X9463039Y-22633698D02*
X9472563Y-22624174D01*
X9472563Y-22624174D02*
X9491611Y-22614650D01*
X9491611Y-22614650D02*
X9520182Y-22614650D01*
X9520182Y-22614650D02*
X9539230Y-22624174D01*
X9539230Y-22624174D02*
X9548753Y-22633698D01*
X9548753Y-22633698D02*
X9558277Y-22652746D01*
X9558277Y-22652746D02*
X9558277Y-22709888D01*
X9558277Y-22709888D02*
X9548753Y-22728936D01*
X9548753Y-22728936D02*
X9539230Y-22738460D01*
X9539230Y-22738460D02*
X9520182Y-22747984D01*
X9520182Y-22747984D02*
X9491611Y-22747984D01*
X9672563Y-22747984D02*
X9653515Y-22738460D01*
X9653515Y-22738460D02*
X9643992Y-22719412D01*
X9643992Y-22719412D02*
X9643992Y-22547984D01*
X9824944Y-22738460D02*
X9805896Y-22747984D01*
X9805896Y-22747984D02*
X9767801Y-22747984D01*
X9767801Y-22747984D02*
X9748753Y-22738460D01*
X9748753Y-22738460D02*
X9739230Y-22719412D01*
X9739230Y-22719412D02*
X9739230Y-22643222D01*
X9739230Y-22643222D02*
X9748753Y-22624174D01*
X9748753Y-22624174D02*
X9767801Y-22614650D01*
X9767801Y-22614650D02*
X9805896Y-22614650D01*
X9805896Y-22614650D02*
X9824944Y-22624174D01*
X9824944Y-22624174D02*
X9834468Y-22643222D01*
X9834468Y-22643222D02*
X9834468Y-22662269D01*
X9834468Y-22662269D02*
X9739230Y-22681317D01*
X9910658Y-22738460D02*
X9929706Y-22747984D01*
X9929706Y-22747984D02*
X9967801Y-22747984D01*
X9967801Y-22747984D02*
X9986849Y-22738460D01*
X9986849Y-22738460D02*
X9996373Y-22719412D01*
X9996373Y-22719412D02*
X9996373Y-22709888D01*
X9996373Y-22709888D02*
X9986849Y-22690841D01*
X9986849Y-22690841D02*
X9967801Y-22681317D01*
X9967801Y-22681317D02*
X9939230Y-22681317D01*
X9939230Y-22681317D02*
X9920182Y-22671793D01*
X9920182Y-22671793D02*
X9910658Y-22652746D01*
X9910658Y-22652746D02*
X9910658Y-22643222D01*
X9910658Y-22643222D02*
X9920182Y-22624174D01*
X9920182Y-22624174D02*
X9939230Y-22614650D01*
X9939230Y-22614650D02*
X9967801Y-22614650D01*
X9967801Y-22614650D02*
X9986849Y-22624174D01*
X10234468Y-22671793D02*
X10386849Y-22671793D01*
X10310658Y-22747984D02*
X10310658Y-22595603D01*
X10624944Y-22567031D02*
X10634468Y-22557508D01*
X10634468Y-22557508D02*
X10653515Y-22547984D01*
X10653515Y-22547984D02*
X10701135Y-22547984D01*
X10701135Y-22547984D02*
X10720182Y-22557508D01*
X10720182Y-22557508D02*
X10729706Y-22567031D01*
X10729706Y-22567031D02*
X10739230Y-22586079D01*
X10739230Y-22586079D02*
X10739230Y-22605127D01*
X10739230Y-22605127D02*
X10729706Y-22633698D01*
X10729706Y-22633698D02*
X10615420Y-22747984D01*
X10615420Y-22747984D02*
X10739230Y-22747984D01*
X10910658Y-22614650D02*
X10910658Y-22747984D01*
X10863039Y-22538460D02*
X10815420Y-22681317D01*
X10815420Y-22681317D02*
X10939230Y-22681317D01*
X11158277Y-22738460D02*
X11177325Y-22747984D01*
X11177325Y-22747984D02*
X11215420Y-22747984D01*
X11215420Y-22747984D02*
X11234468Y-22738460D01*
X11234468Y-22738460D02*
X11243992Y-22719412D01*
X11243992Y-22719412D02*
X11243992Y-22709888D01*
X11243992Y-22709888D02*
X11234468Y-22690841D01*
X11234468Y-22690841D02*
X11215420Y-22681317D01*
X11215420Y-22681317D02*
X11186849Y-22681317D01*
X11186849Y-22681317D02*
X11167801Y-22671793D01*
X11167801Y-22671793D02*
X11158277Y-22652746D01*
X11158277Y-22652746D02*
X11158277Y-22643222D01*
X11158277Y-22643222D02*
X11167801Y-22624174D01*
X11167801Y-22624174D02*
X11186849Y-22614650D01*
X11186849Y-22614650D02*
X11215420Y-22614650D01*
X11215420Y-22614650D02*
X11234468Y-22624174D01*
X11358277Y-22747984D02*
X11339230Y-22738460D01*
X11339230Y-22738460D02*
X11329706Y-22719412D01*
X11329706Y-22719412D02*
X11329706Y-22547984D01*
X11463039Y-22747984D02*
X11443992Y-22738460D01*
X11443992Y-22738460D02*
X11434468Y-22728936D01*
X11434468Y-22728936D02*
X11424944Y-22709888D01*
X11424944Y-22709888D02*
X11424944Y-22652746D01*
X11424944Y-22652746D02*
X11434468Y-22633698D01*
X11434468Y-22633698D02*
X11443992Y-22624174D01*
X11443992Y-22624174D02*
X11463039Y-22614650D01*
X11463039Y-22614650D02*
X11491611Y-22614650D01*
X11491611Y-22614650D02*
X11510658Y-22624174D01*
X11510658Y-22624174D02*
X11520182Y-22633698D01*
X11520182Y-22633698D02*
X11529706Y-22652746D01*
X11529706Y-22652746D02*
X11529706Y-22709888D01*
X11529706Y-22709888D02*
X11520182Y-22728936D01*
X11520182Y-22728936D02*
X11510658Y-22738460D01*
X11510658Y-22738460D02*
X11491611Y-22747984D01*
X11491611Y-22747984D02*
X11463039Y-22747984D01*
X11586849Y-22614650D02*
X11663039Y-22614650D01*
X11615420Y-22547984D02*
X11615420Y-22719412D01*
X11615420Y-22719412D02*
X11624944Y-22738460D01*
X11624944Y-22738460D02*
X11643992Y-22747984D01*
X11643992Y-22747984D02*
X11663039Y-22747984D01*
X11720182Y-22738460D02*
X11739230Y-22747984D01*
X11739230Y-22747984D02*
X11777325Y-22747984D01*
X11777325Y-22747984D02*
X11796373Y-22738460D01*
X11796373Y-22738460D02*
X11805896Y-22719412D01*
X11805896Y-22719412D02*
X11805896Y-22709888D01*
X11805896Y-22709888D02*
X11796373Y-22690841D01*
X11796373Y-22690841D02*
X11777325Y-22681317D01*
X11777325Y-22681317D02*
X11748754Y-22681317D01*
X11748754Y-22681317D02*
X11729706Y-22671793D01*
X11729706Y-22671793D02*
X11720182Y-22652746D01*
X11720182Y-22652746D02*
X11720182Y-22643222D01*
X11720182Y-22643222D02*
X11729706Y-22624174D01*
X11729706Y-22624174D02*
X11748754Y-22614650D01*
X11748754Y-22614650D02*
X11777325Y-22614650D01*
X11777325Y-22614650D02*
X11796373Y-22624174D01*
X11872563Y-22824174D02*
X11882087Y-22814650D01*
X11882087Y-22814650D02*
X11901135Y-22786079D01*
X11901135Y-22786079D02*
X11910658Y-22767031D01*
X11910658Y-22767031D02*
X11920182Y-22738460D01*
X11920182Y-22738460D02*
X11929706Y-22690841D01*
X11929706Y-22690841D02*
X11929706Y-22652746D01*
X11929706Y-22652746D02*
X11920182Y-22605127D01*
X11920182Y-22605127D02*
X11910658Y-22576555D01*
X11910658Y-22576555D02*
X11901135Y-22557508D01*
X11901135Y-22557508D02*
X11882087Y-22528936D01*
X11882087Y-22528936D02*
X11872563Y-22519412D01*
D13*
X5042500Y-22865500D02*
X5042500Y-22975500D01*
X4987500Y-22920500D02*
X5097500Y-22920500D01*
D11*
X5463039Y-23011984D02*
X5348753Y-23011984D01*
X5405896Y-23011984D02*
X5405896Y-22811984D01*
X5405896Y-22811984D02*
X5386848Y-22840555D01*
X5386848Y-22840555D02*
X5367801Y-22859603D01*
X5367801Y-22859603D02*
X5348753Y-22869127D01*
X5548753Y-22992936D02*
X5558277Y-23002460D01*
X5558277Y-23002460D02*
X5548753Y-23011984D01*
X5548753Y-23011984D02*
X5539229Y-23002460D01*
X5539229Y-23002460D02*
X5548753Y-22992936D01*
X5548753Y-22992936D02*
X5548753Y-23011984D01*
X5748753Y-23011984D02*
X5634467Y-23011984D01*
X5691610Y-23011984D02*
X5691610Y-22811984D01*
X5691610Y-22811984D02*
X5672562Y-22840555D01*
X5672562Y-22840555D02*
X5653515Y-22859603D01*
X5653515Y-22859603D02*
X5634467Y-22869127D01*
X5872562Y-22811984D02*
X5891610Y-22811984D01*
X5891610Y-22811984D02*
X5910658Y-22821508D01*
X5910658Y-22821508D02*
X5920182Y-22831031D01*
X5920182Y-22831031D02*
X5929705Y-22850079D01*
X5929705Y-22850079D02*
X5939229Y-22888174D01*
X5939229Y-22888174D02*
X5939229Y-22935793D01*
X5939229Y-22935793D02*
X5929705Y-22973888D01*
X5929705Y-22973888D02*
X5920182Y-22992936D01*
X5920182Y-22992936D02*
X5910658Y-23002460D01*
X5910658Y-23002460D02*
X5891610Y-23011984D01*
X5891610Y-23011984D02*
X5872562Y-23011984D01*
X5872562Y-23011984D02*
X5853515Y-23002460D01*
X5853515Y-23002460D02*
X5843991Y-22992936D01*
X5843991Y-22992936D02*
X5834467Y-22973888D01*
X5834467Y-22973888D02*
X5824943Y-22935793D01*
X5824943Y-22935793D02*
X5824943Y-22888174D01*
X5824943Y-22888174D02*
X5834467Y-22850079D01*
X5834467Y-22850079D02*
X5843991Y-22831031D01*
X5843991Y-22831031D02*
X5853515Y-22821508D01*
X5853515Y-22821508D02*
X5872562Y-22811984D01*
X6063039Y-22811984D02*
X6082086Y-22811984D01*
X6082086Y-22811984D02*
X6101134Y-22821508D01*
X6101134Y-22821508D02*
X6110658Y-22831031D01*
X6110658Y-22831031D02*
X6120182Y-22850079D01*
X6120182Y-22850079D02*
X6129705Y-22888174D01*
X6129705Y-22888174D02*
X6129705Y-22935793D01*
X6129705Y-22935793D02*
X6120182Y-22973888D01*
X6120182Y-22973888D02*
X6110658Y-22992936D01*
X6110658Y-22992936D02*
X6101134Y-23002460D01*
X6101134Y-23002460D02*
X6082086Y-23011984D01*
X6082086Y-23011984D02*
X6063039Y-23011984D01*
X6063039Y-23011984D02*
X6043991Y-23002460D01*
X6043991Y-23002460D02*
X6034467Y-22992936D01*
X6034467Y-22992936D02*
X6024943Y-22973888D01*
X6024943Y-22973888D02*
X6015420Y-22935793D01*
X6015420Y-22935793D02*
X6015420Y-22888174D01*
X6015420Y-22888174D02*
X6024943Y-22850079D01*
X6024943Y-22850079D02*
X6034467Y-22831031D01*
X6034467Y-22831031D02*
X6043991Y-22821508D01*
X6043991Y-22821508D02*
X6063039Y-22811984D01*
X6215420Y-23011984D02*
X6215420Y-22878650D01*
X6215420Y-22897698D02*
X6224943Y-22888174D01*
X6224943Y-22888174D02*
X6243991Y-22878650D01*
X6243991Y-22878650D02*
X6272563Y-22878650D01*
X6272563Y-22878650D02*
X6291610Y-22888174D01*
X6291610Y-22888174D02*
X6301134Y-22907222D01*
X6301134Y-22907222D02*
X6301134Y-23011984D01*
X6301134Y-22907222D02*
X6310658Y-22888174D01*
X6310658Y-22888174D02*
X6329705Y-22878650D01*
X6329705Y-22878650D02*
X6358277Y-22878650D01*
X6358277Y-22878650D02*
X6377324Y-22888174D01*
X6377324Y-22888174D02*
X6386848Y-22907222D01*
X6386848Y-22907222D02*
X6386848Y-23011984D01*
X6482086Y-23011984D02*
X6482086Y-22878650D01*
X6482086Y-22897698D02*
X6491610Y-22888174D01*
X6491610Y-22888174D02*
X6510658Y-22878650D01*
X6510658Y-22878650D02*
X6539229Y-22878650D01*
X6539229Y-22878650D02*
X6558277Y-22888174D01*
X6558277Y-22888174D02*
X6567801Y-22907222D01*
X6567801Y-22907222D02*
X6567801Y-23011984D01*
X6567801Y-22907222D02*
X6577324Y-22888174D01*
X6577324Y-22888174D02*
X6596372Y-22878650D01*
X6596372Y-22878650D02*
X6624943Y-22878650D01*
X6624943Y-22878650D02*
X6643991Y-22888174D01*
X6643991Y-22888174D02*
X6653515Y-22907222D01*
X6653515Y-22907222D02*
X6653515Y-23011984D01*
X7043991Y-22802460D02*
X6872563Y-23059603D01*
X7301134Y-22811984D02*
X7320182Y-22811984D01*
X7320182Y-22811984D02*
X7339229Y-22821508D01*
X7339229Y-22821508D02*
X7348753Y-22831031D01*
X7348753Y-22831031D02*
X7358277Y-22850079D01*
X7358277Y-22850079D02*
X7367801Y-22888174D01*
X7367801Y-22888174D02*
X7367801Y-22935793D01*
X7367801Y-22935793D02*
X7358277Y-22973888D01*
X7358277Y-22973888D02*
X7348753Y-22992936D01*
X7348753Y-22992936D02*
X7339229Y-23002460D01*
X7339229Y-23002460D02*
X7320182Y-23011984D01*
X7320182Y-23011984D02*
X7301134Y-23011984D01*
X7301134Y-23011984D02*
X7282086Y-23002460D01*
X7282086Y-23002460D02*
X7272563Y-22992936D01*
X7272563Y-22992936D02*
X7263039Y-22973888D01*
X7263039Y-22973888D02*
X7253515Y-22935793D01*
X7253515Y-22935793D02*
X7253515Y-22888174D01*
X7253515Y-22888174D02*
X7263039Y-22850079D01*
X7263039Y-22850079D02*
X7272563Y-22831031D01*
X7272563Y-22831031D02*
X7282086Y-22821508D01*
X7282086Y-22821508D02*
X7301134Y-22811984D01*
X7453515Y-22992936D02*
X7463039Y-23002460D01*
X7463039Y-23002460D02*
X7453515Y-23011984D01*
X7453515Y-23011984D02*
X7443991Y-23002460D01*
X7443991Y-23002460D02*
X7453515Y-22992936D01*
X7453515Y-22992936D02*
X7453515Y-23011984D01*
X7586848Y-22811984D02*
X7605896Y-22811984D01*
X7605896Y-22811984D02*
X7624944Y-22821508D01*
X7624944Y-22821508D02*
X7634467Y-22831031D01*
X7634467Y-22831031D02*
X7643991Y-22850079D01*
X7643991Y-22850079D02*
X7653515Y-22888174D01*
X7653515Y-22888174D02*
X7653515Y-22935793D01*
X7653515Y-22935793D02*
X7643991Y-22973888D01*
X7643991Y-22973888D02*
X7634467Y-22992936D01*
X7634467Y-22992936D02*
X7624944Y-23002460D01*
X7624944Y-23002460D02*
X7605896Y-23011984D01*
X7605896Y-23011984D02*
X7586848Y-23011984D01*
X7586848Y-23011984D02*
X7567801Y-23002460D01*
X7567801Y-23002460D02*
X7558277Y-22992936D01*
X7558277Y-22992936D02*
X7548753Y-22973888D01*
X7548753Y-22973888D02*
X7539229Y-22935793D01*
X7539229Y-22935793D02*
X7539229Y-22888174D01*
X7539229Y-22888174D02*
X7548753Y-22850079D01*
X7548753Y-22850079D02*
X7558277Y-22831031D01*
X7558277Y-22831031D02*
X7567801Y-22821508D01*
X7567801Y-22821508D02*
X7586848Y-22811984D01*
X7824944Y-22878650D02*
X7824944Y-23011984D01*
X7777325Y-22802460D02*
X7729706Y-22945317D01*
X7729706Y-22945317D02*
X7853515Y-22945317D01*
X7910658Y-22811984D02*
X8034467Y-22811984D01*
X8034467Y-22811984D02*
X7967801Y-22888174D01*
X7967801Y-22888174D02*
X7996372Y-22888174D01*
X7996372Y-22888174D02*
X8015420Y-22897698D01*
X8015420Y-22897698D02*
X8024944Y-22907222D01*
X8024944Y-22907222D02*
X8034467Y-22926269D01*
X8034467Y-22926269D02*
X8034467Y-22973888D01*
X8034467Y-22973888D02*
X8024944Y-22992936D01*
X8024944Y-22992936D02*
X8015420Y-23002460D01*
X8015420Y-23002460D02*
X7996372Y-23011984D01*
X7996372Y-23011984D02*
X7939229Y-23011984D01*
X7939229Y-23011984D02*
X7920182Y-23002460D01*
X7920182Y-23002460D02*
X7910658Y-22992936D01*
X8101134Y-22811984D02*
X8224944Y-22811984D01*
X8224944Y-22811984D02*
X8158277Y-22888174D01*
X8158277Y-22888174D02*
X8186848Y-22888174D01*
X8186848Y-22888174D02*
X8205896Y-22897698D01*
X8205896Y-22897698D02*
X8215420Y-22907222D01*
X8215420Y-22907222D02*
X8224944Y-22926269D01*
X8224944Y-22926269D02*
X8224944Y-22973888D01*
X8224944Y-22973888D02*
X8215420Y-22992936D01*
X8215420Y-22992936D02*
X8205896Y-23002460D01*
X8205896Y-23002460D02*
X8186848Y-23011984D01*
X8186848Y-23011984D02*
X8129706Y-23011984D01*
X8129706Y-23011984D02*
X8110658Y-23002460D01*
X8110658Y-23002460D02*
X8101134Y-22992936D01*
X8301134Y-22811984D02*
X8301134Y-22850079D01*
X8377325Y-22811984D02*
X8377325Y-22850079D01*
X8672563Y-23088174D02*
X8663039Y-23078650D01*
X8663039Y-23078650D02*
X8643991Y-23050079D01*
X8643991Y-23050079D02*
X8634468Y-23031031D01*
X8634468Y-23031031D02*
X8624944Y-23002460D01*
X8624944Y-23002460D02*
X8615420Y-22954841D01*
X8615420Y-22954841D02*
X8615420Y-22916746D01*
X8615420Y-22916746D02*
X8624944Y-22869127D01*
X8624944Y-22869127D02*
X8634468Y-22840555D01*
X8634468Y-22840555D02*
X8643991Y-22821508D01*
X8643991Y-22821508D02*
X8663039Y-22792936D01*
X8663039Y-22792936D02*
X8672563Y-22783412D01*
X8834468Y-22878650D02*
X8834468Y-23011984D01*
X8786849Y-22802460D02*
X8739230Y-22945317D01*
X8739230Y-22945317D02*
X8863039Y-22945317D01*
X9091611Y-23011984D02*
X9091611Y-22811984D01*
X9177325Y-23011984D02*
X9177325Y-22907222D01*
X9177325Y-22907222D02*
X9167801Y-22888174D01*
X9167801Y-22888174D02*
X9148753Y-22878650D01*
X9148753Y-22878650D02*
X9120182Y-22878650D01*
X9120182Y-22878650D02*
X9101134Y-22888174D01*
X9101134Y-22888174D02*
X9091611Y-22897698D01*
X9301134Y-23011984D02*
X9282087Y-23002460D01*
X9282087Y-23002460D02*
X9272563Y-22992936D01*
X9272563Y-22992936D02*
X9263039Y-22973888D01*
X9263039Y-22973888D02*
X9263039Y-22916746D01*
X9263039Y-22916746D02*
X9272563Y-22897698D01*
X9272563Y-22897698D02*
X9282087Y-22888174D01*
X9282087Y-22888174D02*
X9301134Y-22878650D01*
X9301134Y-22878650D02*
X9329706Y-22878650D01*
X9329706Y-22878650D02*
X9348753Y-22888174D01*
X9348753Y-22888174D02*
X9358277Y-22897698D01*
X9358277Y-22897698D02*
X9367801Y-22916746D01*
X9367801Y-22916746D02*
X9367801Y-22973888D01*
X9367801Y-22973888D02*
X9358277Y-22992936D01*
X9358277Y-22992936D02*
X9348753Y-23002460D01*
X9348753Y-23002460D02*
X9329706Y-23011984D01*
X9329706Y-23011984D02*
X9301134Y-23011984D01*
X9482087Y-23011984D02*
X9463039Y-23002460D01*
X9463039Y-23002460D02*
X9453515Y-22983412D01*
X9453515Y-22983412D02*
X9453515Y-22811984D01*
X9634468Y-23002460D02*
X9615420Y-23011984D01*
X9615420Y-23011984D02*
X9577325Y-23011984D01*
X9577325Y-23011984D02*
X9558277Y-23002460D01*
X9558277Y-23002460D02*
X9548753Y-22983412D01*
X9548753Y-22983412D02*
X9548753Y-22907222D01*
X9548753Y-22907222D02*
X9558277Y-22888174D01*
X9558277Y-22888174D02*
X9577325Y-22878650D01*
X9577325Y-22878650D02*
X9615420Y-22878650D01*
X9615420Y-22878650D02*
X9634468Y-22888174D01*
X9634468Y-22888174D02*
X9643992Y-22907222D01*
X9643992Y-22907222D02*
X9643992Y-22926269D01*
X9643992Y-22926269D02*
X9548753Y-22945317D01*
X9720182Y-23002460D02*
X9739230Y-23011984D01*
X9739230Y-23011984D02*
X9777325Y-23011984D01*
X9777325Y-23011984D02*
X9796373Y-23002460D01*
X9796373Y-23002460D02*
X9805896Y-22983412D01*
X9805896Y-22983412D02*
X9805896Y-22973888D01*
X9805896Y-22973888D02*
X9796373Y-22954841D01*
X9796373Y-22954841D02*
X9777325Y-22945317D01*
X9777325Y-22945317D02*
X9748753Y-22945317D01*
X9748753Y-22945317D02*
X9729706Y-22935793D01*
X9729706Y-22935793D02*
X9720182Y-22916746D01*
X9720182Y-22916746D02*
X9720182Y-22907222D01*
X9720182Y-22907222D02*
X9729706Y-22888174D01*
X9729706Y-22888174D02*
X9748753Y-22878650D01*
X9748753Y-22878650D02*
X9777325Y-22878650D01*
X9777325Y-22878650D02*
X9796373Y-22888174D01*
X9872563Y-23088174D02*
X9882087Y-23078650D01*
X9882087Y-23078650D02*
X9901134Y-23050079D01*
X9901134Y-23050079D02*
X9910658Y-23031031D01*
X9910658Y-23031031D02*
X9920182Y-23002460D01*
X9920182Y-23002460D02*
X9929706Y-22954841D01*
X9929706Y-22954841D02*
X9929706Y-22916746D01*
X9929706Y-22916746D02*
X9920182Y-22869127D01*
X9920182Y-22869127D02*
X9910658Y-22840555D01*
X9910658Y-22840555D02*
X9901134Y-22821508D01*
X9901134Y-22821508D02*
X9882087Y-22792936D01*
X9882087Y-22792936D02*
X9872563Y-22783412D01*
M02*
