%TF.GenerationSoftware,KiCad,Pcbnew,9.0.0*%
%TF.CreationDate,2025-03-16T11:49:47+01:00*%
%TF.ProjectId,DMH_Transistor_VCA_PCB,444d485f-5472-4616-9e73-6973746f725f,1*%
%TF.SameCoordinates,Original*%
%TF.FileFunction,Legend,Top*%
%TF.FilePolarity,Positive*%
%FSLAX46Y46*%
G04 Gerber Fmt 4.6, Leading zero omitted, Abs format (unit mm)*
G04 Created by KiCad (PCBNEW 9.0.0) date 2025-03-16 11:49:47*
%MOMM*%
%LPD*%
G01*
G04 APERTURE LIST*
G04 Aperture macros list*
%AMRoundRect*
0 Rectangle with rounded corners*
0 $1 Rounding radius*
0 $2 $3 $4 $5 $6 $7 $8 $9 X,Y pos of 4 corners*
0 Add a 4 corners polygon primitive as box body*
4,1,4,$2,$3,$4,$5,$6,$7,$8,$9,$2,$3,0*
0 Add four circle primitives for the rounded corners*
1,1,$1+$1,$2,$3*
1,1,$1+$1,$4,$5*
1,1,$1+$1,$6,$7*
1,1,$1+$1,$8,$9*
0 Add four rect primitives between the rounded corners*
20,1,$1+$1,$2,$3,$4,$5,0*
20,1,$1+$1,$4,$5,$6,$7,0*
20,1,$1+$1,$6,$7,$8,$9,0*
20,1,$1+$1,$8,$9,$2,$3,0*%
%AMHorizOval*
0 Thick line with rounded ends*
0 $1 width*
0 $2 $3 position (X,Y) of the first rounded end (center of the circle)*
0 $4 $5 position (X,Y) of the second rounded end (center of the circle)*
0 Add line between two ends*
20,1,$1,$2,$3,$4,$5,0*
0 Add two circle primitives to create the rounded ends*
1,1,$1,$2,$3*
1,1,$1,$4,$5*%
G04 Aperture macros list end*
%ADD10C,0.150000*%
%ADD11C,0.120000*%
%ADD12RoundRect,0.250000X0.550000X0.550000X-0.550000X0.550000X-0.550000X-0.550000X0.550000X-0.550000X0*%
%ADD13C,1.600000*%
%ADD14R,1.700000X1.700000*%
%ADD15O,1.700000X1.700000*%
%ADD16HorizOval,1.712000X-0.533159X-0.533159X0.533159X0.533159X0*%
%ADD17O,1.712000X3.220000*%
%ADD18O,3.220000X1.712000*%
%ADD19O,1.600000X1.600000*%
%ADD20R,2.200000X2.200000*%
%ADD21O,2.200000X2.200000*%
%ADD22R,1.600000X1.600000*%
%ADD23R,1.500000X1.500000*%
%ADD24C,1.500000*%
%ADD25C,1.440000*%
%ADD26RoundRect,0.250000X-0.600000X0.600000X-0.600000X-0.600000X0.600000X-0.600000X0.600000X0.600000X0*%
%ADD27C,1.700000*%
%ADD28RoundRect,0.250000X0.600000X-0.600000X0.600000X0.600000X-0.600000X0.600000X-0.600000X-0.600000X0*%
G04 APERTURE END LIST*
D10*
X52190476Y-177059819D02*
X52190476Y-177774104D01*
X52190476Y-177774104D02*
X52142857Y-177916961D01*
X52142857Y-177916961D02*
X52047619Y-178012200D01*
X52047619Y-178012200D02*
X51904762Y-178059819D01*
X51904762Y-178059819D02*
X51809524Y-178059819D01*
X53095238Y-177059819D02*
X52904762Y-177059819D01*
X52904762Y-177059819D02*
X52809524Y-177107438D01*
X52809524Y-177107438D02*
X52761905Y-177155057D01*
X52761905Y-177155057D02*
X52666667Y-177297914D01*
X52666667Y-177297914D02*
X52619048Y-177488390D01*
X52619048Y-177488390D02*
X52619048Y-177869342D01*
X52619048Y-177869342D02*
X52666667Y-177964580D01*
X52666667Y-177964580D02*
X52714286Y-178012200D01*
X52714286Y-178012200D02*
X52809524Y-178059819D01*
X52809524Y-178059819D02*
X53000000Y-178059819D01*
X53000000Y-178059819D02*
X53095238Y-178012200D01*
X53095238Y-178012200D02*
X53142857Y-177964580D01*
X53142857Y-177964580D02*
X53190476Y-177869342D01*
X53190476Y-177869342D02*
X53190476Y-177631247D01*
X53190476Y-177631247D02*
X53142857Y-177536009D01*
X53142857Y-177536009D02*
X53095238Y-177488390D01*
X53095238Y-177488390D02*
X53000000Y-177440771D01*
X53000000Y-177440771D02*
X52809524Y-177440771D01*
X52809524Y-177440771D02*
X52714286Y-177488390D01*
X52714286Y-177488390D02*
X52666667Y-177536009D01*
X52666667Y-177536009D02*
X52619048Y-177631247D01*
X53809524Y-177059819D02*
X53904762Y-177059819D01*
X53904762Y-177059819D02*
X54000000Y-177107438D01*
X54000000Y-177107438D02*
X54047619Y-177155057D01*
X54047619Y-177155057D02*
X54095238Y-177250295D01*
X54095238Y-177250295D02*
X54142857Y-177440771D01*
X54142857Y-177440771D02*
X54142857Y-177678866D01*
X54142857Y-177678866D02*
X54095238Y-177869342D01*
X54095238Y-177869342D02*
X54047619Y-177964580D01*
X54047619Y-177964580D02*
X54000000Y-178012200D01*
X54000000Y-178012200D02*
X53904762Y-178059819D01*
X53904762Y-178059819D02*
X53809524Y-178059819D01*
X53809524Y-178059819D02*
X53714286Y-178012200D01*
X53714286Y-178012200D02*
X53666667Y-177964580D01*
X53666667Y-177964580D02*
X53619048Y-177869342D01*
X53619048Y-177869342D02*
X53571429Y-177678866D01*
X53571429Y-177678866D02*
X53571429Y-177440771D01*
X53571429Y-177440771D02*
X53619048Y-177250295D01*
X53619048Y-177250295D02*
X53666667Y-177155057D01*
X53666667Y-177155057D02*
X53714286Y-177107438D01*
X53714286Y-177107438D02*
X53809524Y-177059819D01*
X54091666Y-43204819D02*
X54091666Y-43919104D01*
X54091666Y-43919104D02*
X54044047Y-44061961D01*
X54044047Y-44061961D02*
X53948809Y-44157200D01*
X53948809Y-44157200D02*
X53805952Y-44204819D01*
X53805952Y-44204819D02*
X53710714Y-44204819D01*
X55091666Y-44204819D02*
X54520238Y-44204819D01*
X54805952Y-44204819D02*
X54805952Y-43204819D01*
X54805952Y-43204819D02*
X54710714Y-43347676D01*
X54710714Y-43347676D02*
X54615476Y-43442914D01*
X54615476Y-43442914D02*
X54520238Y-43490533D01*
X58591666Y-110454819D02*
X58591666Y-111169104D01*
X58591666Y-111169104D02*
X58544047Y-111311961D01*
X58544047Y-111311961D02*
X58448809Y-111407200D01*
X58448809Y-111407200D02*
X58305952Y-111454819D01*
X58305952Y-111454819D02*
X58210714Y-111454819D01*
X58972619Y-110454819D02*
X59591666Y-110454819D01*
X59591666Y-110454819D02*
X59258333Y-110835771D01*
X59258333Y-110835771D02*
X59401190Y-110835771D01*
X59401190Y-110835771D02*
X59496428Y-110883390D01*
X59496428Y-110883390D02*
X59544047Y-110931009D01*
X59544047Y-110931009D02*
X59591666Y-111026247D01*
X59591666Y-111026247D02*
X59591666Y-111264342D01*
X59591666Y-111264342D02*
X59544047Y-111359580D01*
X59544047Y-111359580D02*
X59496428Y-111407200D01*
X59496428Y-111407200D02*
X59401190Y-111454819D01*
X59401190Y-111454819D02*
X59115476Y-111454819D01*
X59115476Y-111454819D02*
X59020238Y-111407200D01*
X59020238Y-111407200D02*
X58972619Y-111359580D01*
X54091666Y-133954819D02*
X54091666Y-134669104D01*
X54091666Y-134669104D02*
X54044047Y-134811961D01*
X54044047Y-134811961D02*
X53948809Y-134907200D01*
X53948809Y-134907200D02*
X53805952Y-134954819D01*
X53805952Y-134954819D02*
X53710714Y-134954819D01*
X55044047Y-133954819D02*
X54567857Y-133954819D01*
X54567857Y-133954819D02*
X54520238Y-134431009D01*
X54520238Y-134431009D02*
X54567857Y-134383390D01*
X54567857Y-134383390D02*
X54663095Y-134335771D01*
X54663095Y-134335771D02*
X54901190Y-134335771D01*
X54901190Y-134335771D02*
X54996428Y-134383390D01*
X54996428Y-134383390D02*
X55044047Y-134431009D01*
X55044047Y-134431009D02*
X55091666Y-134526247D01*
X55091666Y-134526247D02*
X55091666Y-134764342D01*
X55091666Y-134764342D02*
X55044047Y-134859580D01*
X55044047Y-134859580D02*
X54996428Y-134907200D01*
X54996428Y-134907200D02*
X54901190Y-134954819D01*
X54901190Y-134954819D02*
X54663095Y-134954819D01*
X54663095Y-134954819D02*
X54567857Y-134907200D01*
X54567857Y-134907200D02*
X54520238Y-134859580D01*
X96190476Y-85844819D02*
X96190476Y-86559104D01*
X96190476Y-86559104D02*
X96142857Y-86701961D01*
X96142857Y-86701961D02*
X96047619Y-86797200D01*
X96047619Y-86797200D02*
X95904762Y-86844819D01*
X95904762Y-86844819D02*
X95809524Y-86844819D01*
X97142857Y-85844819D02*
X96666667Y-85844819D01*
X96666667Y-85844819D02*
X96619048Y-86321009D01*
X96619048Y-86321009D02*
X96666667Y-86273390D01*
X96666667Y-86273390D02*
X96761905Y-86225771D01*
X96761905Y-86225771D02*
X97000000Y-86225771D01*
X97000000Y-86225771D02*
X97095238Y-86273390D01*
X97095238Y-86273390D02*
X97142857Y-86321009D01*
X97142857Y-86321009D02*
X97190476Y-86416247D01*
X97190476Y-86416247D02*
X97190476Y-86654342D01*
X97190476Y-86654342D02*
X97142857Y-86749580D01*
X97142857Y-86749580D02*
X97095238Y-86797200D01*
X97095238Y-86797200D02*
X97000000Y-86844819D01*
X97000000Y-86844819D02*
X96761905Y-86844819D01*
X96761905Y-86844819D02*
X96666667Y-86797200D01*
X96666667Y-86797200D02*
X96619048Y-86749580D01*
X97809524Y-85844819D02*
X97904762Y-85844819D01*
X97904762Y-85844819D02*
X98000000Y-85892438D01*
X98000000Y-85892438D02*
X98047619Y-85940057D01*
X98047619Y-85940057D02*
X98095238Y-86035295D01*
X98095238Y-86035295D02*
X98142857Y-86225771D01*
X98142857Y-86225771D02*
X98142857Y-86463866D01*
X98142857Y-86463866D02*
X98095238Y-86654342D01*
X98095238Y-86654342D02*
X98047619Y-86749580D01*
X98047619Y-86749580D02*
X98000000Y-86797200D01*
X98000000Y-86797200D02*
X97904762Y-86844819D01*
X97904762Y-86844819D02*
X97809524Y-86844819D01*
X97809524Y-86844819D02*
X97714286Y-86797200D01*
X97714286Y-86797200D02*
X97666667Y-86749580D01*
X97666667Y-86749580D02*
X97619048Y-86654342D01*
X97619048Y-86654342D02*
X97571429Y-86463866D01*
X97571429Y-86463866D02*
X97571429Y-86225771D01*
X97571429Y-86225771D02*
X97619048Y-86035295D01*
X97619048Y-86035295D02*
X97666667Y-85940057D01*
X97666667Y-85940057D02*
X97714286Y-85892438D01*
X97714286Y-85892438D02*
X97809524Y-85844819D01*
X58591666Y-201204819D02*
X58591666Y-201919104D01*
X58591666Y-201919104D02*
X58544047Y-202061961D01*
X58544047Y-202061961D02*
X58448809Y-202157200D01*
X58448809Y-202157200D02*
X58305952Y-202204819D01*
X58305952Y-202204819D02*
X58210714Y-202204819D01*
X58972619Y-201204819D02*
X59639285Y-201204819D01*
X59639285Y-201204819D02*
X59210714Y-202204819D01*
X54091666Y-152454819D02*
X54091666Y-153169104D01*
X54091666Y-153169104D02*
X54044047Y-153311961D01*
X54044047Y-153311961D02*
X53948809Y-153407200D01*
X53948809Y-153407200D02*
X53805952Y-153454819D01*
X53805952Y-153454819D02*
X53710714Y-153454819D01*
X54996428Y-152454819D02*
X54805952Y-152454819D01*
X54805952Y-152454819D02*
X54710714Y-152502438D01*
X54710714Y-152502438D02*
X54663095Y-152550057D01*
X54663095Y-152550057D02*
X54567857Y-152692914D01*
X54567857Y-152692914D02*
X54520238Y-152883390D01*
X54520238Y-152883390D02*
X54520238Y-153264342D01*
X54520238Y-153264342D02*
X54567857Y-153359580D01*
X54567857Y-153359580D02*
X54615476Y-153407200D01*
X54615476Y-153407200D02*
X54710714Y-153454819D01*
X54710714Y-153454819D02*
X54901190Y-153454819D01*
X54901190Y-153454819D02*
X54996428Y-153407200D01*
X54996428Y-153407200D02*
X55044047Y-153359580D01*
X55044047Y-153359580D02*
X55091666Y-153264342D01*
X55091666Y-153264342D02*
X55091666Y-153026247D01*
X55091666Y-153026247D02*
X55044047Y-152931009D01*
X55044047Y-152931009D02*
X54996428Y-152883390D01*
X54996428Y-152883390D02*
X54901190Y-152835771D01*
X54901190Y-152835771D02*
X54710714Y-152835771D01*
X54710714Y-152835771D02*
X54615476Y-152883390D01*
X54615476Y-152883390D02*
X54567857Y-152931009D01*
X54567857Y-152931009D02*
X54520238Y-153026247D01*
X82591666Y-201204819D02*
X82591666Y-201919104D01*
X82591666Y-201919104D02*
X82544047Y-202061961D01*
X82544047Y-202061961D02*
X82448809Y-202157200D01*
X82448809Y-202157200D02*
X82305952Y-202204819D01*
X82305952Y-202204819D02*
X82210714Y-202204819D01*
X83210714Y-201633390D02*
X83115476Y-201585771D01*
X83115476Y-201585771D02*
X83067857Y-201538152D01*
X83067857Y-201538152D02*
X83020238Y-201442914D01*
X83020238Y-201442914D02*
X83020238Y-201395295D01*
X83020238Y-201395295D02*
X83067857Y-201300057D01*
X83067857Y-201300057D02*
X83115476Y-201252438D01*
X83115476Y-201252438D02*
X83210714Y-201204819D01*
X83210714Y-201204819D02*
X83401190Y-201204819D01*
X83401190Y-201204819D02*
X83496428Y-201252438D01*
X83496428Y-201252438D02*
X83544047Y-201300057D01*
X83544047Y-201300057D02*
X83591666Y-201395295D01*
X83591666Y-201395295D02*
X83591666Y-201442914D01*
X83591666Y-201442914D02*
X83544047Y-201538152D01*
X83544047Y-201538152D02*
X83496428Y-201585771D01*
X83496428Y-201585771D02*
X83401190Y-201633390D01*
X83401190Y-201633390D02*
X83210714Y-201633390D01*
X83210714Y-201633390D02*
X83115476Y-201681009D01*
X83115476Y-201681009D02*
X83067857Y-201728628D01*
X83067857Y-201728628D02*
X83020238Y-201823866D01*
X83020238Y-201823866D02*
X83020238Y-202014342D01*
X83020238Y-202014342D02*
X83067857Y-202109580D01*
X83067857Y-202109580D02*
X83115476Y-202157200D01*
X83115476Y-202157200D02*
X83210714Y-202204819D01*
X83210714Y-202204819D02*
X83401190Y-202204819D01*
X83401190Y-202204819D02*
X83496428Y-202157200D01*
X83496428Y-202157200D02*
X83544047Y-202109580D01*
X83544047Y-202109580D02*
X83591666Y-202014342D01*
X83591666Y-202014342D02*
X83591666Y-201823866D01*
X83591666Y-201823866D02*
X83544047Y-201728628D01*
X83544047Y-201728628D02*
X83496428Y-201681009D01*
X83496428Y-201681009D02*
X83401190Y-201633390D01*
X54091666Y-61704819D02*
X54091666Y-62419104D01*
X54091666Y-62419104D02*
X54044047Y-62561961D01*
X54044047Y-62561961D02*
X53948809Y-62657200D01*
X53948809Y-62657200D02*
X53805952Y-62704819D01*
X53805952Y-62704819D02*
X53710714Y-62704819D01*
X54520238Y-61800057D02*
X54567857Y-61752438D01*
X54567857Y-61752438D02*
X54663095Y-61704819D01*
X54663095Y-61704819D02*
X54901190Y-61704819D01*
X54901190Y-61704819D02*
X54996428Y-61752438D01*
X54996428Y-61752438D02*
X55044047Y-61800057D01*
X55044047Y-61800057D02*
X55091666Y-61895295D01*
X55091666Y-61895295D02*
X55091666Y-61990533D01*
X55091666Y-61990533D02*
X55044047Y-62133390D01*
X55044047Y-62133390D02*
X54472619Y-62704819D01*
X54472619Y-62704819D02*
X55091666Y-62704819D01*
X82591666Y-110454819D02*
X82591666Y-111169104D01*
X82591666Y-111169104D02*
X82544047Y-111311961D01*
X82544047Y-111311961D02*
X82448809Y-111407200D01*
X82448809Y-111407200D02*
X82305952Y-111454819D01*
X82305952Y-111454819D02*
X82210714Y-111454819D01*
X83496428Y-110788152D02*
X83496428Y-111454819D01*
X83258333Y-110407200D02*
X83020238Y-111121485D01*
X83020238Y-111121485D02*
X83639285Y-111121485D01*
D11*
%TO.C,J60*%
X51670000Y-181645000D02*
X51670000Y-199485000D01*
X51670000Y-181645000D02*
X54330000Y-181645000D01*
X51670000Y-199485000D02*
X54330000Y-199485000D01*
X53000000Y-179045000D02*
X54330000Y-179045000D01*
X54330000Y-179045000D02*
X54330000Y-180375000D01*
X54330000Y-181645000D02*
X54330000Y-199485000D01*
D10*
%TO.C,J1*%
X58500000Y-46550000D02*
X56150000Y-46550000D01*
X58500000Y-46550000D02*
X60850000Y-46550000D01*
X58500000Y-54950000D02*
X56150000Y-54950000D01*
X58500000Y-54950000D02*
X60850000Y-54950000D01*
X53700000Y-50750000D02*
G75*
G02*
X56156222Y-46561121I4800000J0D01*
G01*
X56156222Y-54938879D02*
G75*
G02*
X53700000Y-50750000I2343778J4188879D01*
G01*
X60843778Y-46561121D02*
G75*
G02*
X63300000Y-50750000I-2343781J-4188881D01*
G01*
X63300000Y-50750000D02*
G75*
G02*
X60843778Y-54938879I-4800003J2D01*
G01*
%TO.C,J3*%
X63000000Y-113800000D02*
X60650000Y-113800000D01*
X63000000Y-113800000D02*
X65350000Y-113800000D01*
X63000000Y-122200000D02*
X60650000Y-122200000D01*
X63000000Y-122200000D02*
X65350000Y-122200000D01*
X58200000Y-118000000D02*
G75*
G02*
X60656222Y-113811121I4800000J0D01*
G01*
X60656222Y-122188879D02*
G75*
G02*
X58200000Y-118000000I2343778J4188879D01*
G01*
X65343778Y-113811121D02*
G75*
G02*
X67800000Y-118000000I-2343781J-4188881D01*
G01*
X67800000Y-118000000D02*
G75*
G02*
X65343778Y-122188879I-4800003J2D01*
G01*
%TO.C,J5*%
X58500000Y-137300000D02*
X56150000Y-137300000D01*
X58500000Y-137300000D02*
X60850000Y-137300000D01*
X58500000Y-145700000D02*
X56150000Y-145700000D01*
X58500000Y-145700000D02*
X60850000Y-145700000D01*
X53700000Y-141500000D02*
G75*
G02*
X56156222Y-137311121I4800000J0D01*
G01*
X56156222Y-145688879D02*
G75*
G02*
X53700000Y-141500000I2343778J4188879D01*
G01*
X60843778Y-137311121D02*
G75*
G02*
X63300000Y-141500000I-2343781J-4188881D01*
G01*
X63300000Y-141500000D02*
G75*
G02*
X60843778Y-145688879I-4800003J2D01*
G01*
D11*
%TO.C,J50*%
X95670000Y-82350000D02*
X95670000Y-64510000D01*
X95670000Y-84950000D02*
X95670000Y-83620000D01*
X97000000Y-84950000D02*
X95670000Y-84950000D01*
X98330000Y-64510000D02*
X95670000Y-64510000D01*
X98330000Y-82350000D02*
X95670000Y-82350000D01*
X98330000Y-82350000D02*
X98330000Y-64510000D01*
D10*
%TO.C,J7*%
X63000000Y-204550000D02*
X60650000Y-204550000D01*
X63000000Y-204550000D02*
X65350000Y-204550000D01*
X63000000Y-212950000D02*
X60650000Y-212950000D01*
X63000000Y-212950000D02*
X65350000Y-212950000D01*
X58200000Y-208750000D02*
G75*
G02*
X60656222Y-204561121I4800000J0D01*
G01*
X60656222Y-212938879D02*
G75*
G02*
X58200000Y-208750000I2343778J4188879D01*
G01*
X65343778Y-204561121D02*
G75*
G02*
X67800000Y-208750000I-2343781J-4188881D01*
G01*
X67800000Y-208750000D02*
G75*
G02*
X65343778Y-212938879I-4800003J2D01*
G01*
%TO.C,J6*%
X58500000Y-155800000D02*
X56150000Y-155800000D01*
X58500000Y-155800000D02*
X60850000Y-155800000D01*
X58500000Y-164200000D02*
X56150000Y-164200000D01*
X58500000Y-164200000D02*
X60850000Y-164200000D01*
X53700000Y-160000000D02*
G75*
G02*
X56156222Y-155811121I4800000J0D01*
G01*
X56156222Y-164188879D02*
G75*
G02*
X53700000Y-160000000I2343778J4188879D01*
G01*
X60843778Y-155811121D02*
G75*
G02*
X63300000Y-160000000I-2343781J-4188881D01*
G01*
X63300000Y-160000000D02*
G75*
G02*
X60843778Y-164188879I-4800003J2D01*
G01*
%TO.C,J8*%
X87000000Y-204550000D02*
X84650000Y-204550000D01*
X87000000Y-204550000D02*
X89350000Y-204550000D01*
X87000000Y-212950000D02*
X84650000Y-212950000D01*
X87000000Y-212950000D02*
X89350000Y-212950000D01*
X82200000Y-208750000D02*
G75*
G02*
X84656222Y-204561121I4800000J0D01*
G01*
X84656222Y-212938879D02*
G75*
G02*
X82200000Y-208750000I2343778J4188879D01*
G01*
X89343778Y-204561121D02*
G75*
G02*
X91800000Y-208750000I-2343781J-4188881D01*
G01*
X91800000Y-208750000D02*
G75*
G02*
X89343778Y-212938879I-4800003J2D01*
G01*
%TO.C,J2*%
X58500000Y-65050000D02*
X56150000Y-65050000D01*
X58500000Y-65050000D02*
X60850000Y-65050000D01*
X58500000Y-73450000D02*
X56150000Y-73450000D01*
X58500000Y-73450000D02*
X60850000Y-73450000D01*
X53700000Y-69250000D02*
G75*
G02*
X56156222Y-65061121I4800000J0D01*
G01*
X56156222Y-73438879D02*
G75*
G02*
X53700000Y-69250000I2343778J4188879D01*
G01*
X60843778Y-65061121D02*
G75*
G02*
X63300000Y-69250000I-2343781J-4188881D01*
G01*
X63300000Y-69250000D02*
G75*
G02*
X60843778Y-73438879I-4800003J2D01*
G01*
%TO.C,J4*%
X87000000Y-113800000D02*
X84650000Y-113800000D01*
X87000000Y-113800000D02*
X89350000Y-113800000D01*
X87000000Y-122200000D02*
X84650000Y-122200000D01*
X87000000Y-122200000D02*
X89350000Y-122200000D01*
X82200000Y-118000000D02*
G75*
G02*
X84656222Y-113811121I4800000J0D01*
G01*
X84656222Y-122188879D02*
G75*
G02*
X82200000Y-118000000I2343778J4188879D01*
G01*
X89343778Y-113811121D02*
G75*
G02*
X91800000Y-118000000I-2343781J-4188881D01*
G01*
X91800000Y-118000000D02*
G75*
G02*
X89343778Y-122188879I-4800003J2D01*
G01*
%TD*%
%LPC*%
D12*
%TO.C,U1*%
X86800000Y-72875000D03*
D13*
X86800000Y-75415000D03*
X86800000Y-77955000D03*
X86800000Y-80495000D03*
X86800000Y-83035000D03*
X86800000Y-85575000D03*
X86800000Y-88115000D03*
X79180000Y-88115000D03*
X79180000Y-85575000D03*
X79180000Y-83035000D03*
X79180000Y-80495000D03*
X79180000Y-77955000D03*
X79180000Y-75415000D03*
X79180000Y-72875000D03*
%TD*%
D12*
%TO.C,U2*%
X86800000Y-163625000D03*
D13*
X86800000Y-166165000D03*
X86800000Y-168705000D03*
X86800000Y-171245000D03*
X86800000Y-173785000D03*
X86800000Y-176325000D03*
X86800000Y-178865000D03*
X79180000Y-178865000D03*
X79180000Y-176325000D03*
X79180000Y-173785000D03*
X79180000Y-171245000D03*
X79180000Y-168705000D03*
X79180000Y-166165000D03*
X79180000Y-163625000D03*
%TD*%
D14*
%TO.C,J60*%
X53000000Y-180375000D03*
D15*
X53000000Y-182915000D03*
X53000000Y-185455000D03*
X53000000Y-187995000D03*
X53000000Y-190535000D03*
X53000000Y-193075000D03*
X53000000Y-195615000D03*
X53000000Y-198155000D03*
%TD*%
D16*
%TO.C,J1*%
X53903810Y-46153810D03*
D17*
X65000000Y-50250000D03*
D18*
X61000000Y-44250000D03*
%TD*%
D16*
%TO.C,J3*%
X58403810Y-113403810D03*
D17*
X69500000Y-117500000D03*
D18*
X65500000Y-111500000D03*
%TD*%
D16*
%TO.C,J5*%
X53903810Y-136903810D03*
D17*
X65000000Y-141000000D03*
D18*
X61000000Y-135000000D03*
%TD*%
D14*
%TO.C,J50*%
X97000000Y-83620000D03*
D15*
X97000000Y-81080000D03*
X97000000Y-78540000D03*
X97000000Y-76000000D03*
X97000000Y-73460000D03*
X97000000Y-70920000D03*
X97000000Y-68380000D03*
X97000000Y-65840000D03*
%TD*%
D16*
%TO.C,J7*%
X58403810Y-204153810D03*
D17*
X69500000Y-208250000D03*
D18*
X65500000Y-202250000D03*
%TD*%
D16*
%TO.C,J6*%
X53903810Y-155403810D03*
D17*
X65000000Y-159500000D03*
D18*
X61000000Y-153500000D03*
%TD*%
D16*
%TO.C,J8*%
X82403810Y-204153810D03*
D17*
X93500000Y-208250000D03*
D18*
X89500000Y-202250000D03*
%TD*%
D16*
%TO.C,J2*%
X53903810Y-64653810D03*
D17*
X65000000Y-68750000D03*
D18*
X61000000Y-62750000D03*
%TD*%
D16*
%TO.C,J4*%
X82403810Y-113403810D03*
D17*
X93500000Y-117500000D03*
D18*
X89500000Y-111500000D03*
%TD*%
D13*
%TO.C,R26*%
X69000000Y-167440000D03*
D19*
X69000000Y-175060000D03*
%TD*%
D20*
%TO.C,D2*%
X97000000Y-44170000D03*
D21*
X97000000Y-54330000D03*
%TD*%
D22*
%TO.C,C2*%
X90794888Y-57500000D03*
D13*
X92794888Y-57500000D03*
%TD*%
D20*
%TO.C,D1*%
X69250000Y-54330000D03*
D21*
X69250000Y-44170000D03*
%TD*%
D13*
%TO.C,R17*%
X69500000Y-76690000D03*
D19*
X69500000Y-84310000D03*
%TD*%
D13*
%TO.C,R3*%
X86810000Y-66250000D03*
D19*
X79190000Y-66250000D03*
%TD*%
D13*
%TO.C,R25*%
X69000000Y-155940000D03*
D19*
X69000000Y-163560000D03*
%TD*%
D13*
%TO.C,C6*%
X76250000Y-84250000D03*
X76250000Y-79250000D03*
%TD*%
%TO.C,R1*%
X79190000Y-63000000D03*
D19*
X86810000Y-63000000D03*
%TD*%
D23*
%TO.C,Q1*%
X81000000Y-103460000D03*
D24*
X81000000Y-106000000D03*
X81000000Y-108540000D03*
%TD*%
D13*
%TO.C,R32*%
X90000000Y-186560000D03*
D19*
X90000000Y-178940000D03*
%TD*%
D23*
%TO.C,Q2*%
X85050000Y-108550000D03*
D24*
X85050000Y-106010000D03*
X85050000Y-103470000D03*
%TD*%
D13*
%TO.C,C3*%
X69250000Y-56750000D03*
X69250000Y-61750000D03*
%TD*%
%TO.C,R12*%
X86750000Y-92690000D03*
D19*
X86750000Y-100310000D03*
%TD*%
D13*
%TO.C,R42*%
X69000000Y-178940000D03*
D19*
X69000000Y-186560000D03*
%TD*%
D25*
%TO.C,RV8*%
X95500000Y-168460000D03*
X95500000Y-171000000D03*
X95500000Y-173540000D03*
%TD*%
D13*
%TO.C,C7*%
X89750000Y-170000000D03*
X89750000Y-175000000D03*
%TD*%
%TO.C,R41*%
X72250000Y-186560000D03*
D19*
X72250000Y-178940000D03*
%TD*%
D13*
%TO.C,C4*%
X97000000Y-61750000D03*
X97000000Y-56750000D03*
%TD*%
%TO.C,R35*%
X73750000Y-190940000D03*
D19*
X73750000Y-198560000D03*
%TD*%
D13*
%TO.C,C8*%
X76250000Y-175000000D03*
X76250000Y-170000000D03*
%TD*%
%TO.C,R30*%
X72250000Y-163560000D03*
D19*
X72250000Y-155940000D03*
%TD*%
D13*
%TO.C,R36*%
X79750000Y-183190000D03*
D19*
X79750000Y-190810000D03*
%TD*%
D23*
%TO.C,Q3*%
X85050000Y-199290000D03*
D24*
X85050000Y-196750000D03*
X85050000Y-194210000D03*
%TD*%
D13*
%TO.C,R38*%
X95250000Y-178940000D03*
D19*
X95250000Y-186560000D03*
%TD*%
D25*
%TO.C,RV10*%
X92800000Y-130000000D03*
X90260000Y-130000000D03*
X87720000Y-130000000D03*
%TD*%
D13*
%TO.C,R15*%
X89750000Y-108560000D03*
D19*
X89750000Y-100940000D03*
%TD*%
D13*
%TO.C,R4*%
X90000000Y-88190000D03*
D19*
X90000000Y-95810000D03*
%TD*%
D25*
%TO.C,RV12*%
X92790000Y-147750000D03*
X90250000Y-147750000D03*
X87710000Y-147750000D03*
%TD*%
D13*
%TO.C,R31*%
X72250000Y-167440000D03*
D19*
X72250000Y-175060000D03*
%TD*%
D13*
%TO.C,C5*%
X89750000Y-79250000D03*
X89750000Y-84250000D03*
%TD*%
D22*
%TO.C,C1*%
X73294888Y-57500000D03*
D13*
X75294888Y-57500000D03*
%TD*%
%TO.C,R39*%
X75500000Y-178940000D03*
D19*
X75500000Y-186560000D03*
%TD*%
D13*
%TO.C,R7*%
X69500000Y-95810000D03*
D19*
X69500000Y-88190000D03*
%TD*%
D13*
%TO.C,R16*%
X72750000Y-76690000D03*
D19*
X72750000Y-84310000D03*
%TD*%
D25*
%TO.C,RV7*%
X92250000Y-64450000D03*
X92250000Y-66990000D03*
X92250000Y-69530000D03*
%TD*%
%TO.C,RV9*%
X85540000Y-56750000D03*
X83000000Y-56750000D03*
X80460000Y-56750000D03*
%TD*%
D13*
%TO.C,R22*%
X91500000Y-155690000D03*
D19*
X91500000Y-163310000D03*
%TD*%
D13*
%TO.C,R20*%
X72750000Y-72810000D03*
D19*
X72750000Y-65190000D03*
%TD*%
D13*
%TO.C,R6*%
X96500000Y-95810000D03*
D19*
X96500000Y-88190000D03*
%TD*%
D13*
%TO.C,R23*%
X94750000Y-155690000D03*
D19*
X94750000Y-163310000D03*
%TD*%
D26*
%TO.C,J200*%
X77920000Y-138247500D03*
D27*
X80460000Y-138247500D03*
X83000000Y-138247500D03*
X85540000Y-138247500D03*
X88080000Y-138247500D03*
X77920000Y-140787500D03*
X80460000Y-140787500D03*
X83000000Y-140787500D03*
X85540000Y-140787500D03*
X88080000Y-140787500D03*
%TD*%
D13*
%TO.C,R9*%
X72750000Y-88190000D03*
D19*
X72750000Y-95810000D03*
%TD*%
D13*
%TO.C,R10*%
X79250000Y-92690000D03*
D19*
X79250000Y-100310000D03*
%TD*%
D13*
%TO.C,R13*%
X83000000Y-92690000D03*
D19*
X83000000Y-100310000D03*
%TD*%
D13*
%TO.C,R19*%
X69500000Y-72810000D03*
D19*
X69500000Y-65190000D03*
%TD*%
D13*
%TO.C,R14*%
X94250000Y-108560000D03*
D19*
X94250000Y-100940000D03*
%TD*%
D13*
%TO.C,R24*%
X79190000Y-157000000D03*
D19*
X86810000Y-157000000D03*
%TD*%
D13*
%TO.C,R34*%
X83000000Y-183190000D03*
D19*
X83000000Y-190810000D03*
%TD*%
D13*
%TO.C,R11*%
X75310000Y-100250000D03*
D19*
X67690000Y-100250000D03*
%TD*%
D25*
%TO.C,RV11*%
X78040000Y-147750000D03*
X75500000Y-147750000D03*
X72960000Y-147750000D03*
%TD*%
D13*
%TO.C,R33*%
X86250000Y-190810000D03*
D19*
X86250000Y-183190000D03*
%TD*%
D13*
%TO.C,R8*%
X76000000Y-88190000D03*
D19*
X76000000Y-95810000D03*
%TD*%
D28*
%TO.C,J100*%
X88080000Y-49002500D03*
D27*
X88080000Y-46462500D03*
X85540000Y-49002500D03*
X85540000Y-46462500D03*
X83000000Y-49002500D03*
X83000000Y-46462500D03*
X80460000Y-49002500D03*
X80460000Y-46462500D03*
X77920000Y-49002500D03*
X77920000Y-46462500D03*
%TD*%
D13*
%TO.C,R29*%
X75500000Y-155940000D03*
D19*
X75500000Y-163560000D03*
%TD*%
D23*
%TO.C,Q4*%
X81000000Y-194210000D03*
D24*
X81000000Y-196750000D03*
X81000000Y-199290000D03*
%TD*%
D13*
%TO.C,R28*%
X86810000Y-153750000D03*
D19*
X79190000Y-153750000D03*
%TD*%
D13*
%TO.C,R18*%
X76000000Y-65190000D03*
D19*
X76000000Y-72810000D03*
%TD*%
%LPD*%
M02*
