M48
; DRILL file {KiCad 9.0.0} date 2025-03-16T11:49:52+0100
; FORMAT={-:-/ absolute / metric / decimal}
; #@! TF.CreationDate,2025-03-16T11:49:52+01:00
; #@! TF.GenerationSoftware,Kicad,Pcbnew,9.0.0
; #@! TF.FileFunction,Plated,1,2,PTH
FMAT,2
METRIC
; #@! TA.AperFunction,Plated,PTH,ComponentDrill
T1C0.800
; #@! TA.AperFunction,Plated,PTH,ComponentDrill
T2C1.000
; #@! TA.AperFunction,Plated,PTH,ComponentDrill
T3C1.100
%
G90
G05
T1
X67.69Y-100.25
X69.0Y-155.94
X69.0Y-163.56
X69.0Y-167.44
X69.0Y-175.06
X69.0Y-178.94
X69.0Y-186.56
X69.25Y-56.75
X69.25Y-61.75
X69.5Y-65.19
X69.5Y-72.81
X69.5Y-76.69
X69.5Y-84.31
X69.5Y-88.19
X69.5Y-95.81
X72.25Y-155.94
X72.25Y-163.56
X72.25Y-167.44
X72.25Y-175.06
X72.25Y-178.94
X72.25Y-186.56
X72.75Y-65.19
X72.75Y-72.81
X72.75Y-76.69
X72.75Y-84.31
X72.75Y-88.19
X72.75Y-95.81
X72.96Y-147.75
X73.295Y-57.5
X73.75Y-190.94
X73.75Y-198.56
X75.295Y-57.5
X75.31Y-100.25
X75.5Y-147.75
X75.5Y-155.94
X75.5Y-163.56
X75.5Y-178.94
X75.5Y-186.56
X76.0Y-65.19
X76.0Y-72.81
X76.0Y-88.19
X76.0Y-95.81
X76.25Y-79.25
X76.25Y-84.25
X76.25Y-170.0
X76.25Y-175.0
X78.04Y-147.75
X79.18Y-72.875
X79.18Y-75.415
X79.18Y-77.955
X79.18Y-80.495
X79.18Y-83.035
X79.18Y-85.575
X79.18Y-88.115
X79.18Y-163.625
X79.18Y-166.165
X79.18Y-168.705
X79.18Y-171.245
X79.18Y-173.785
X79.18Y-176.325
X79.18Y-178.865
X79.19Y-63.0
X79.19Y-66.25
X79.19Y-153.75
X79.19Y-157.0
X79.25Y-92.69
X79.25Y-100.31
X79.75Y-183.19
X79.75Y-190.81
X80.46Y-56.75
X81.0Y-103.46
X81.0Y-106.0
X81.0Y-108.54
X81.0Y-194.21
X81.0Y-196.75
X81.0Y-199.29
X83.0Y-56.75
X83.0Y-92.69
X83.0Y-100.31
X83.0Y-183.19
X83.0Y-190.81
X85.05Y-103.47
X85.05Y-106.01
X85.05Y-108.55
X85.05Y-194.21
X85.05Y-196.75
X85.05Y-199.29
X85.54Y-56.75
X86.25Y-183.19
X86.25Y-190.81
X86.75Y-92.69
X86.75Y-100.31
X86.8Y-72.875
X86.8Y-75.415
X86.8Y-77.955
X86.8Y-80.495
X86.8Y-83.035
X86.8Y-85.575
X86.8Y-88.115
X86.8Y-163.625
X86.8Y-166.165
X86.8Y-168.705
X86.8Y-171.245
X86.8Y-173.785
X86.8Y-176.325
X86.8Y-178.865
X86.81Y-63.0
X86.81Y-66.25
X86.81Y-153.75
X86.81Y-157.0
X87.71Y-147.75
X87.72Y-130.0
X89.75Y-79.25
X89.75Y-84.25
X89.75Y-100.94
X89.75Y-108.56
X89.75Y-170.0
X89.75Y-175.0
X90.0Y-88.19
X90.0Y-95.81
X90.0Y-178.94
X90.0Y-186.56
X90.25Y-147.75
X90.26Y-130.0
X90.795Y-57.5
X91.5Y-155.69
X91.5Y-163.31
X92.25Y-64.45
X92.25Y-66.99
X92.25Y-69.53
X92.79Y-147.75
X92.795Y-57.5
X92.8Y-130.0
X94.25Y-100.94
X94.25Y-108.56
X94.75Y-155.69
X94.75Y-163.31
X95.25Y-178.94
X95.25Y-186.56
X95.5Y-168.46
X95.5Y-171.0
X95.5Y-173.54
X96.5Y-88.19
X96.5Y-95.81
X97.0Y-56.75
X97.0Y-61.75
T2
X53.0Y-180.375
X53.0Y-182.915
X53.0Y-185.455
X53.0Y-187.995
X53.0Y-190.535
X53.0Y-193.075
X53.0Y-195.615
X53.0Y-198.155
X77.92Y-46.462
X77.92Y-49.002
X77.92Y-138.248
X77.92Y-140.787
X80.46Y-46.462
X80.46Y-49.002
X80.46Y-138.248
X80.46Y-140.787
X83.0Y-46.462
X83.0Y-49.002
X83.0Y-138.248
X83.0Y-140.787
X85.54Y-46.462
X85.54Y-49.002
X85.54Y-138.248
X85.54Y-140.787
X88.08Y-46.462
X88.08Y-49.002
X88.08Y-138.248
X88.08Y-140.787
X97.0Y-65.84
X97.0Y-68.38
X97.0Y-70.92
X97.0Y-73.46
X97.0Y-76.0
X97.0Y-78.54
X97.0Y-81.08
X97.0Y-83.62
T3
X69.25Y-44.17
X69.25Y-54.33
X97.0Y-44.17
X97.0Y-54.33
T2
X54.434Y-45.623G85X53.373Y-46.684
G05
X54.434Y-64.123G85X53.373Y-65.184
G05
X54.434Y-136.373G85X53.373Y-137.434
G05
X54.434Y-154.873G85X53.373Y-155.934
G05
X58.934Y-112.873G85X57.873Y-113.934
G05
X58.934Y-203.623G85X57.873Y-204.684
G05
X60.25Y-44.25G85X61.75Y-44.25
G05
X60.25Y-62.75G85X61.75Y-62.75
G05
X60.25Y-135.0G85X61.75Y-135.0
G05
X60.25Y-153.5G85X61.75Y-153.5
G05
X65.0Y-49.5G85X65.0Y-51.0
G05
X65.0Y-68.0G85X65.0Y-69.5
G05
X65.0Y-140.25G85X65.0Y-141.75
G05
X65.0Y-158.75G85X65.0Y-160.25
G05
X64.75Y-111.5G85X66.25Y-111.5
G05
X64.75Y-202.25G85X66.25Y-202.25
G05
X69.5Y-116.75G85X69.5Y-118.25
G05
X69.5Y-207.5G85X69.5Y-209.0
G05
X82.934Y-112.873G85X81.873Y-113.934
G05
X82.934Y-203.623G85X81.873Y-204.684
G05
X88.75Y-111.5G85X90.25Y-111.5
G05
X88.75Y-202.25G85X90.25Y-202.25
G05
X93.5Y-116.75G85X93.5Y-118.25
G05
X93.5Y-207.5G85X93.5Y-209.0
G05
M30
